<?xml version="1.0" standalone="no"?>
<!DOCTYPE svg PUBLIC "-//W3C//DTD SVG 1.1//EN" "http://www.w3.org/Graphics/SVG/1.1/DTD/svg11.dtd" >
<svg xmlns="http://www.w3.org/2000/svg" xmlns:xlink="http://www.w3.org/1999/xlink" version="1.1">
<metadata>
Created by FontForge 20190801 at Thu Dec 19 08:35:15 2013
 By www-data
Copyright (c) Font4You., 2013. All rights reserved.
</metadata>
<defs>
<font id="GregoryFont4You" horiz-adv-x="430" >
  <font-face 
    font-family="GregoryFont4You"
    font-weight="400"
    font-stretch="normal"
    units-per-em="1000"
    panose-1="2 0 5 3 2 0 0 2 0 3"
    ascent="800"
    descent="-200"
    x-height="396"
    cap-height="648"
    bbox="-393 -434 1437 913"
    underline-thickness="20"
    underline-position="-133"
    unicode-range="U+0020-2502"
  />
<missing-glyph horiz-adv-x="475" 
 />
    <glyph glyph-name=".notdef" horiz-adv-x="475" 
 />
    <glyph glyph-name=".null" horiz-adv-x="0" 
 />
    <glyph glyph-name="nonmarkingreturn" horiz-adv-x="333" 
 />
    <glyph glyph-name="space" unicode=" " horiz-adv-x="475" 
 />
    <glyph glyph-name="exclam" unicode="!" horiz-adv-x="296" 
d="M445 681q34 -13 34 -40q-77 -129 -230 -338q-16 -87 -80 -87q-11 0 -21 27q80 152 270 425zM40 88h27q16 0 21 -54q-11 -34 -48 -34q-15 4 -40 27q17 52 40 61z" />
    <glyph glyph-name="quotedbl" unicode="&#x22;" horiz-adv-x="414" 
d="M489 748q5 0 33 -22q-9 -46 -105 -150q-10 -39 -34 -39q-16 4 -22 22q88 183 128 183v6zM605 709q15 0 28 -28q0 -9 -56 -50q-54 -72 -66 -72q-8 0 -17 17q0 72 111 133z" />
    <glyph glyph-name="numbersign" unicode="#" horiz-adv-x="511" 
d="M396 414q30 0 30 -30v-5q-35 -60 -35 -64q5 0 5 -5q27 0 89 94h24q15 0 15 -20q-39 -69 -39 -83q9 -17 9 -30q0 -7 -24 -20q0 7 -15 15h-5q-69 -60 -69 -93q67 -5 84 -5v-10q-20 -17 -128 -34q-21 -39 -54 -64q-20 5 -20 29v25h-9q-37 0 -55 -74q-25 -5 -29 -5l-10 15v44
l-49 -5l-5 20q0 28 108 49q59 81 59 88h-5q-37 0 -108 -24q-10 12 -10 20q0 42 167 63l69 104zM283 178v-10h10q34 0 83 88v5h-24q-17 -11 -69 -83z" />
    <glyph glyph-name="dollar" unicode="$" horiz-adv-x="373" 
d="M489 701l21 -5v-11q0 -19 -90 -165q7 -27 37 -27l58 75q23 21 43 21h5q9 0 22 -21v-5q-61 -54 -123 -155l-112 -170v-6q16 -25 16 -79v-16q0 -46 -48 -102q6 -10 6 -16h-6q-10 6 -16 6q-106 -27 -133 -85q-34 -71 -80 -102v-5h-10q0 27 74 160v5l-48 5q-31 -13 -111 -170
q-25 10 -27 21v16q28 43 69 144v5q-32 0 -32 27q-10 43 -16 43q8 37 54 37l63 -21l166 245v47q0 112 69 112q42 0 106 165q17 27 43 27zM329 360q7 -48 16 -48q22 12 64 112q5 0 5 21q0 11 -10 11h-6q-69 -75 -69 -96zM132 46h11l37 -5q75 133 122 191q0 54 -10 54
q-17 0 -91 -123q-69 -84 -69 -117zM244 62l11 -5q24 0 63 58v43h-10q-23 -18 -64 -96z" />
    <glyph glyph-name="percent" unicode="%" horiz-adv-x="418" 
d="M375 434h5q28 0 37 -21v-15q-260 -242 -290 -305q-15 -13 -51 -88h-42l-5 11q0 55 310 387q6 0 36 31zM189 424h26q36 -23 36 -52q0 -40 -108 -108q-19 -11 -42 -11h-20q-11 0 -16 31q0 49 124 140zM174 346h10q10 0 10 11v5h-5q-7 0 -15 -16zM355 160h10q34 0 52 -46
q0 -70 -186 -114h-11q-41 0 -41 62q50 83 114 83q46 15 62 15zM251 52h21q78 25 93 57q-10 5 -16 5q-54 0 -98 -62z" />
    <glyph glyph-name="ampersand" unicode="&#x26;" horiz-adv-x="462" 
d="M299 641q150 -14 150 -96v-12q0 -89 -210 -229l-6 -12q0 -46 36 -84q11 0 96 102q46 48 72 48q18 -6 18 -36q-122 -129 -156 -181q39 -64 48 -120q-30 -35 -30 -42h-12q-28 94 -54 120q-42 -39 -127 -90h-12q-68 0 -96 132q0 41 150 175v6q-30 88 -30 193q37 126 163 126
zM191 485q0 -32 24 -121h24q162 102 162 187q-22 26 -96 42q-114 -13 -114 -108zM88 148v-37q20 -36 48 -36q91 72 91 85q-36 90 -49 90q-51 -32 -90 -102z" />
    <glyph glyph-name="quotesingle" unicode="'" horiz-adv-x="316" 
d="M442 618h12q37 -31 40 -68q0 -40 -80 -92h-12q-8 0 -8 12q36 39 36 56h-24q-29 0 -32 36q20 56 68 56z" />
    <glyph glyph-name="parenleft" unicode="(" horiz-adv-x="191" 
d="M279 509q30 -12 32 -25q0 -31 -112 -95q-75 -88 -100 -233q0 -99 59 -162q-15 -36 -28 -39h-7q-56 39 -56 66h3q-13 25 -22 101q0 267 220 380q11 0 11 7z" />
    <glyph glyph-name="parenright" unicode=")" horiz-adv-x="227" 
d="M114 502h12q37 0 98 -192v-43q0 -94 -90 -233q-64 -75 -100 -75l-17 29q0 26 74 77q81 161 83 212q-11 74 -84 188v12q0 10 24 25z" />
    <glyph glyph-name="asterisk" unicode="*" horiz-adv-x="406" 
d="M434 637q25 -9 25 -40l-55 -71v-10q0 -5 75 -25v-25l-5 -25h-20q-18 0 -45 5q-29 0 -41 -71l-10 -5h-5q-13 0 -20 40h-5q-3 0 -45 -45h-15l-5 25q0 19 15 40v11h-61q-27 0 -35 20v15q0 16 65 20h26q10 0 10 10q-45 19 -51 35v15q0 17 51 21q7 0 50 -36h5v15q0 17 -15 46
q7 21 25 30h10q25 0 25 -25h11z" />
    <glyph glyph-name="plus" unicode="+" horiz-adv-x="483" 
d="M385 446q16 -10 27 -10v-9q0 -19 -59 -90v-10h85q40 0 44 -18v-14q-53 -15 -138 -20q-51 -10 -95 -82q0 -67 -46 -67l-17 22v12q19 74 35 91v4v0q-61 -15 -88 -15l-11 23q0 38 123 49h18l87 112q11 22 35 22z" />
    <glyph glyph-name="comma" unicode="," horiz-adv-x="162" 
d="M124 106q70 0 82 -92q0 -65 -58 -96q-69 -68 -92 -68h-24v5q87 86 87 101q34 18 34 53v5h-10l-29 -14q-25 0 -39 34q0 72 49 72z" />
    <glyph glyph-name="hyphen" unicode="-" horiz-adv-x="402" 
d="M117 239q6 0 6 -5q58 5 87 5h98q64 0 110 -11v-23q-47 -6 -58 -12q-11 6 -17 6l-254 -29q-12 19 -12 35q0 10 40 34z" />
    <glyph glyph-name="hyphen" unicode="&#xad;" horiz-adv-x="402" 
d="M117 239q6 0 6 -5q58 5 87 5h98q64 0 110 -11v-23q-47 -6 -58 -12q-11 6 -17 6l-254 -29q-12 19 -12 35q0 10 40 34z" />
    <glyph glyph-name="period" unicode="." horiz-adv-x="142" 
d="M98 49q32 0 49 -30v-18q-22 -49 -61 -49q-30 16 -30 49v12q17 36 42 36z" />
    <glyph glyph-name="slash" unicode="/" horiz-adv-x="353" 
d="M423 514l25 -6v-3q-44 -99 -265 -352q-129 -205 -163 -205l-20 26q0 41 183 276q93 96 170 229q41 35 70 35z" />
    <glyph glyph-name="zero" unicode="0" horiz-adv-x="523" 
d="M378 545q132 0 145 -138q0 -155 -378 -392q-47 -15 -65 -15q-80 25 -80 116v37q101 290 196 290q68 72 182 102zM73 123q10 -50 29 -50q86 0 305 232q36 77 36 109v7q0 39 -29 51h-44q-122 0 -254 -218q-43 -90 -43 -131z" />
    <glyph glyph-name="one" unicode="1" horiz-adv-x="312" 
d="M431 556h25q25 -13 25 -31q0 -74 -119 -131q-127 -117 -243 -332q-9 0 -69 -62h-6q-19 6 -19 37q29 36 175 257v18l-169 -75q-9 1 -31 25q0 32 281 144q139 149 150 150z" />
    <glyph glyph-name="two" unicode="2" horiz-adv-x="515" 
d="M392 548q60 0 60 -74q-9 -124 -148 -296q15 -45 81 -67q137 30 170 30l8 -15v-8q0 -30 -178 -81h-7q-39 0 -126 74h-8q-58 -56 -155 -111h-8q-81 0 -81 118q45 141 141 141q29 0 111 -44q118 128 118 229h-22q-54 -33 -118 -133q-31 10 -45 37v22q117 178 207 178z
M81 118v-22q0 -15 23 -15q34 10 89 67v8q0 19 -60 29h-7q-45 -26 -45 -67z" />
    <glyph glyph-name="three" unicode="3" horiz-adv-x="535" 
d="M486 552q51 -21 51 -81v-15q-11 -35 -140 -132q76 -79 89 -111v-7q0 -140 -228 -206h-30q-176 9 -228 140q11 29 22 29h15q85 -103 213 -103q162 39 162 125q0 67 -191 67l-15 29q0 31 147 81q96 66 103 96v14h-36q-177 -39 -177 -95h-7q-59 0 -59 44q0 50 228 125h81z
" />
    <glyph glyph-name="four" unicode="4" horiz-adv-x="406" 
d="M356 548h17q0 -12 9 -12q-62 -106 -250 -303v-4q1 -9 8 -9q148 0 214 112q11 0 51 24h7q47 0 47 -47q-11 -47 -125 -108l-192 -205h-8q-7 0 -23 21q0 12 87 145v1q-98 -6 -151 -6q-5 0 -18 -7q-29 11 -29 23v6q0 32 82 84q112 118 247 278q12 7 27 7z" />
    <glyph glyph-name="five" unicode="5" horiz-adv-x="495" 
d="M519 551q134 -11 134 -32v-7l-19 -25q-48 12 -58 12l-32 -6l-32 6q-218 -38 -218 -115q-9 0 -44 -51q147 0 160 -109q0 -103 -231 -211q-27 0 -64 -13q-75 0 -115 64v32l6 32h13q35 -70 64 -70q173 0 263 166v6q-5 39 -52 39h-19q-51 0 -192 -77q-6 0 -6 6l-13 20
q0 28 115 134q114 160 148 160q63 26 192 39z" />
    <glyph glyph-name="six" unicode="6" 
d="M490 560q26 -6 42 -49q-7 -49 -21 -49h-7q-17 0 -21 28q-141 0 -315 -210v-14q63 14 91 14h28q44 -28 63 -84q0 -88 -175 -175q-74 -21 -112 -21h-7q-56 48 -56 98q0 195 392 448q89 7 98 14zM70 91v-7q11 -28 49 -28q135 51 161 112v14q0 36 -21 42h-7
q-182 -50 -182 -133z" />
    <glyph glyph-name="seven" unicode="7" horiz-adv-x="446" 
d="M544 559l20 -33q0 -15 -206 -213l-27 -40v-7q47 -13 47 -26q-13 -16 -107 -40q-97 -104 -120 -193l-46 -7q-10 0 -20 33q4 44 60 100q0 8 26 53q-6 0 -6 7q-51 -27 -80 -27h-7l-6 27q0 49 179 86l47 67v13q-44 0 -60 67h-27q-113 -79 -113 -120q-11 -7 -26 -7
q-10 0 -27 34q0 55 226 219h20q11 0 27 -26v-87q6 0 6 -6q49 0 200 126h20z" />
    <glyph glyph-name="eight" unicode="8" horiz-adv-x="442" 
d="M351 552h8q134 0 134 -99q0 -86 -156 -205v-14q78 -106 78 -163q-29 -71 -170 -71q-212 40 -212 78v21q84 71 212 163l-99 170q54 120 205 120zM231 446q0 -54 64 -142q58 0 127 128v28q0 10 -35 28h-21q-121 -4 -135 -42zM111 92v-7q70 -21 141 -21q92 3 92 28
q-53 113 -70 113h-15q-146 -101 -148 -113z" />
    <glyph glyph-name="nine" unicode="9" horiz-adv-x="475" 
d="M413 564q75 -26 75 -103l14 -21q0 -12 -117 -186q-97 -240 -227 -240q0 -7 -34 -14q-124 34 -124 96q2 14 14 14q46 -37 103 -41q117 0 179 172h-7q-99 -35 -138 -35q-75 27 -75 83q0 105 240 254q7 0 97 21zM151 282l14 -7h34q193 58 193 138q15 0 28 62v6q0 14 -14 14
h-35q-127 0 -220 -206v-7z" />
    <glyph glyph-name="colon" unicode=":" horiz-adv-x="203" 
d="M195 365q18 0 26 -51q-13 -38 -32 -38q-28 0 -51 32q15 57 57 57zM100 129h6q26 -10 26 -44q-17 -32 -51 -32q-32 5 -32 19v6q0 51 51 51z" />
    <glyph glyph-name="semicolon" unicode=";" horiz-adv-x="268" 
d="M230 369h6q37 0 37 -37q0 -27 -49 -42q-16 0 -31 30q0 23 37 49zM169 125q35 0 61 -98q0 -74 -159 -202q0 -10 -67 -24v6q0 27 79 86q80 99 80 140q-6 17 -37 49q12 43 43 43z" />
    <glyph glyph-name="semicolon" unicode="&#x37e;" horiz-adv-x="268" 
d="M230 369h6q37 0 37 -37q0 -27 -49 -42q-16 0 -31 30q0 23 37 49zM169 125q35 0 61 -98q0 -74 -159 -202q0 -10 -67 -24v6q0 27 79 86q80 99 80 140q-6 17 -37 49q12 43 43 43z" />
    <glyph glyph-name="less" unicode="&#x3c;" horiz-adv-x="596" 
d="M595 427q27 -7 27 -27q0 -52 -326 -146q0 -10 -41 -18v-11q265 -52 323 -52v8q50 -24 50 -36v-20q-46 -20 -58 -20h-6q-304 60 -482 78q-13 22 -13 39q1 25 174 69l344 136h8z" />
    <glyph glyph-name="equal" unicode="=" horiz-adv-x="483" 
d="M325 349q9 0 9 -5q49 5 75 5h6q60 0 109 -17v-27l-30 -6h-11q-202 0 -306 -37q-25 6 -25 25q0 51 173 62zM272 254q28 -5 32 -5q3 0 31 5q61 -5 117 -5q14 -2 14 -15q0 -9 -51 -25q-166 0 -296 -42q-25 9 -25 20v16q0 35 178 51z" />
    <glyph glyph-name="greater" unicode="&#x3e;" horiz-adv-x="515" 
d="M209 373h6l355 -108q18 -14 18 -19v-23q-14 -15 -257 -93q0 -5 -138 -65l-26 6v37q12 20 284 130v0q-98 47 -269 73q-36 0 -36 27q12 35 63 35z" />
    <glyph glyph-name="question" unicode="?" horiz-adv-x="324" 
d="M378 681h5q56 0 64 -87q-3 -72 -232 -344l-82 -116h-23q-9 0 -18 23q68 109 233 303q64 98 64 134v17q0 12 -11 12q-136 0 -198 -169h-18q-8 0 -17 17q0 111 128 175q51 35 105 35zM98 64h12q17 -6 17 -35q-20 -29 -58 -29h-6q-23 9 -23 41q48 23 58 23z" />
    <glyph glyph-name="at" unicode="@" horiz-adv-x="734" 
d="M609 503q136 -14 136 -101l4 -26q0 -75 -63 -158q-145 -129 -214 -129q-22 0 -30 40h-5q-117 -44 -151 -44q-45 0 -70 38v14q0 105 170 211q72 27 99 27q66 -19 66 -67q-5 -7 -5 -14q27 -12 27 -33q0 -10 -67 -107v1v0q195 94 195 198v67q0 27 -111 35q-184 0 -371 -175
q-70 -80 -70 -182v-14q0 -38 66 -61q7 4 22 4q0 -31 115 -31q39 4 49 4l22 -4q84 5 84 31h10l13 -9h2l40 22h10q9 0 19 -26q-20 0 -102 -35q-90 -31 -155 -31q-109 0 -218 66q-29 0 -29 88q16 122 80 197q200 204 432 204zM273 171v-29q0 -5 4 -5h18q186 33 186 102
q-27 0 -27 17v12q44 24 44 43q-11 8 -22 8q-114 0 -203 -148z" />
    <glyph glyph-name="A" unicode="A" horiz-adv-x="381" 
d="M419 677h7q9 0 19 -19q-60 -127 -129 -426q49 -24 97 -32v-7q-29 -12 -84 -12h-26q-27 -142 -45 -142l-39 -7q0 7 -6 20q0 4 19 135h-6q-129 0 -129 -71q-11 0 -26 -84q-21 -32 -52 -32h-13l-6 26q0 22 45 122v7q-26 13 -26 38q0 24 84 46q171 315 213 367q6 0 6 7
q8 -7 39 -7q20 71 58 71zM168 239q6 0 6 -7q97 0 97 58q0 26 58 206v26q-18 0 -78 -135q-83 -118 -83 -148z" />
    <glyph glyph-name="B" unicode="B" horiz-adv-x="608" 
d="M509 661q137 -29 137 -89q0 -69 -178 -194v-16q71 0 146 -105q8 -14 8 -32v-24q0 -116 -186 -178q-32 -16 -89 -16h-56q-112 0 -194 89h-16q-19 -97 -41 -97h-16q-11 0 -24 24v24q0 39 234 396q0 21 57 81v8l-8 16q88 113 226 113zM274 370h17q94 0 282 170l8 32
q-26 16 -48 16h-73q-113 -20 -113 -72q0 -20 -73 -138v-8zM218 306q0 -20 -97 -162q64 -80 178 -80q191 0 258 121v64q-36 46 -81 57q-46 0 -202 -8z" />
    <glyph glyph-name="C" unicode="C" horiz-adv-x="572" 
d="M607 676h17q45 0 73 -48q0 -42 -126 -140h-19v3q0 4 27 89l-23 11h-10q-209 -29 -426 -304q-35 -69 -35 -132q12 -82 82 -82h26q131 0 336 34q14 -9 35 -9h10l14 8l12 -18q-160 -83 -433 -83q-167 0 -167 167q0 174 351 410q145 94 256 94z" />
    <glyph glyph-name="D" unicode="D" horiz-adv-x="621" 
d="M534 676q261 -22 261 -207v-36q0 -153 -360 -349q-187 -79 -245 -79q-26 0 -79 64q-56 -37 -81 -37h-21q0 16 -9 31q0 31 283 430q20 69 103 174l42 -9h10q87 18 96 18zM140 149q40 -66 58 -66h81q437 198 437 363q9 0 9 23q0 137 -217 137q-83 0 -339 -398
q-29 -10 -29 -59z" />
    <glyph glyph-name="E" unicode="E" horiz-adv-x="710" 
d="M749 624q18 0 36 -38q0 -48 -70 -60h-23l-42 25q-226 0 -313 -111q0 -67 251 -81l13 -27q-40 -22 -40 -46h-78q-13 0 -13 -5l-11 5q-379 -86 -379 -188q5 -23 71 -46q130 6 130 14l11 -6q140 17 340 25q43 -8 95 -8v-8q-275 -65 -584 -65h-16q-112 0 -136 95
q0 107 348 211v23q-83 62 -83 97q0 97 310 177l49 -8h11q15 17 123 25z" />
    <glyph glyph-name="F" unicode="F" horiz-adv-x="572" 
d="M713 682h26q93 -22 93 -66q0 -20 -39 -38q-106 44 -162 44q-228 -70 -228 -165q-56 -85 -81 -85v-48h61q86 27 324 36q0 -78 -237 -78q-354 -83 -354 -162q-27 -9 -27 -58v-9q0 -15 7 -15q-10 -33 -54 -33q-39 5 -39 48v9q0 48 249 318l82 146l-8 44q108 112 387 112z
" />
    <glyph glyph-name="G" unicode="G" 
d="M419 677q55 0 102 -88q0 -46 -75 -122q-35 0 -41 20v14q41 44 41 74v7q0 12 -41 21q-139 -49 -304 -346q-21 -49 -21 -115q0 -40 68 -74q170 31 264 128q34 46 34 68v7q-162 -21 -162 -61h-21q-20 7 -20 40q0 76 223 95q61 -22 61 -74q-32 -119 -189 -203
q-156 -68 -217 -68q-115 37 -115 156q0 122 230 419q122 91 183 102z" />
    <glyph glyph-name="H" unicode="H" horiz-adv-x="507" 
d="M795 677l9 -17v-25q-373 -468 -406 -610h-26l-25 17q39 152 110 263v8q-75 -17 -102 -17q-13 0 -101 9q-66 -75 -212 -305h-25q-17 0 -17 17v17q0 35 178 288q0 40 84 127q111 220 153 220q16 -9 25 -9v-17q0 -32 -127 -245v-17l42 -9q229 0 229 110q151 187 178 187
q4 0 33 8z" />
    <glyph glyph-name="I" unicode="I" horiz-adv-x="434" 
d="M622 693q171 -11 171 -82q-25 -15 -45 -15q0 36 -175 41q-141 0 -282 -62h-10l-38 8v6q0 104 379 104zM539 582h25q0 -8 7 -21q-37 -86 -256 -358q-42 -101 -42 -121q32 -20 132 -20l16 8q15 -8 26 -8v-13q0 -28 -130 -28h-63q-13 0 -27 -9q-15 9 -28 9q-32 0 -184 -22
l-15 23q0 54 144 54h71q15 140 140 277q17 0 116 186q29 43 68 43z" />
    <glyph glyph-name="J" unicode="J" horiz-adv-x="414" 
d="M611 673q8 0 23 -25q0 -14 -144 -267q-84 -336 -150 -336q-23 -22 -130 -41h-48q-155 8 -155 90q-7 0 -7 3q0 63 79 72q65 -13 65 -56l-11 -5h-51v-12q10 -31 66 -31h41q166 0 191 169q119 371 211 439h20z" />
    <glyph glyph-name="K" unicode="K" horiz-adv-x="551" 
d="M379 685h11q0 -8 8 -24q-87 -175 -155 -287v-15h16q220 187 397 252q63 -21 68 -56q0 -85 -104 -164q-8 0 -8 25q2 15 40 66v48h-13q-116 -11 -339 -206q-41 -110 -41 -153v-41q0 -11 35 -32h44q57 0 208 63l8 -15q-123 -122 -265 -122q-77 0 -101 106v41h-34
q-72 -163 -121 -163q-13 -8 -33 -8v24q0 42 172 320q140 308 169 333z" />
    <glyph glyph-name="L" unicode="L" horiz-adv-x="462" 
d="M368 685h21q11 0 22 -29q0 -16 -72 -151l-180 -361q7 0 7 -7q40 7 58 7q252 0 252 -57v-8l-36 -21q-165 14 -238 14q-48 0 -166 -72h-22q-14 0 -14 14v8q0 53 79 129q86 132 260 512z" />
    <glyph glyph-name="M" unicode="M" horiz-adv-x="604" 
d="M746 686q20 0 39 -19q0 -47 -316 -383q0 -10 -40 -60l7 -13q248 161 402 297q118 145 152 145q33 -8 33 -19v-7q-91 -135 -244 -244q-231 -213 -231 -277v-7q0 -15 6 -26q-9 -33 -46 -33q-26 26 -26 39q0 37 46 139q-65 -40 -211 -172q-41 -20 -53 -20q-13 0 -13 14v13
q0 43 92 165h-13q-44 -44 -277 -218h-27q-17 0 -26 53v6q52 132 106 132q33 0 33 -33q-9 0 -60 -59q2 -13 13 -13q7 24 146 119q242 212 343 316q155 165 165 165z" />
    <glyph glyph-name="N" unicode="N" horiz-adv-x="422" 
d="M649 673h13q10 0 26 -27q-132 -185 -353 -552q-45 -59 -82 -76h-35q-14 39 -14 58l24 235h-15q-73 -93 -140 -278l-51 -30q-26 7 -26 41l230 469l45 44h6q31 0 42 -26q-7 -14 -7 -23q0 -189 -39 -316v-12h21q36 23 248 356z" />
    <glyph glyph-name="O" unicode="O" horiz-adv-x="458" 
d="M601 685q62 0 99 -114q-10 0 -30 -107q-122 -218 -404 -380q-32 -33 -190 -84q-76 0 -76 76v46q0 105 167 274q13 0 77 91q212 181 357 198zM76 99v-15q2 -15 15 -15q69 4 328 182q198 168 243 289q0 74 -76 84q-125 0 -365 -259q-114 -146 -114 -258z" />
    <glyph glyph-name="P" unicode="P" horiz-adv-x="511" 
d="M554 681q166 -29 166 -145v-7q0 -84 -115 -160q-156 -79 -297 -79q-16 7 -80 14q-62 -66 -167 -297q-12 -7 -29 -7h-22q-14 0 -14 22q0 47 174 319q0 16 109 166q0 95 72 116q135 58 203 58zM264 369v-14q16 0 29 -7q355 30 355 188v22q-39 65 -94 65q-153 0 -275 -239
q-15 -2 -15 -15z" />
    <glyph glyph-name="Q" unicode="Q" horiz-adv-x="507" 
d="M418 673q154 0 193 -244v-21q0 -120 -187 -273q-12 0 -25 -33l22 -45v-42q0 -11 -10 -11q-41 0 -78 74q-93 -51 -93 -57l-10 5l-118 -22q-112 0 -112 105q0 93 152 355q128 209 266 209zM268 525l8 -43q-102 -65 -102 -154v-51q0 -10 -64 -19q-38 -82 -38 -134v-29
q0 -13 25 -26h30q102 0 179 68q-14 85 -29 98q14 81 47 81q34 0 47 -131h27q155 118 155 231q-7 14 -7 20l7 38q-53 141 -120 141q-104 0 -165 -90z" />
    <glyph glyph-name="R" unicode="R" horiz-adv-x="503" 
d="M504 679q98 -68 98 -136q0 -136 -232 -277q-59 -12 -59 -30q0 -91 170 -187q11 0 11 -16q-10 -27 -18 -27h-54q-98 33 -184 224q-15 67 -41 67q-118 -186 -135 -260l-35 -7h-7q-8 0 -18 19v6q0 46 205 408v9q0 7 -8 48q37 159 307 159zM232 386v-8q0 -13 59 -53h34
q106 0 210 169l8 49v10q-55 67 -77 67q-155 -28 -155 -98q-19 -19 -69 -122q-10 0 -10 -14z" />
    <glyph glyph-name="S" unicode="S" horiz-adv-x="373" 
d="M465 677q88 -18 88 -118q0 -83 -159 -159h-18q-12 0 -12 12v6q2 9 112 106q18 30 18 59v17q-43 18 -53 18h-24q-182 -57 -182 -176q0 -99 118 -189q29 -23 47 -70q-20 -73 -177 -159q-29 -2 -29 -18l-12 6q-84 0 -129 -94q-45 -65 -53 -65q-24 6 -24 24q0 20 65 111v18
q-41 24 -41 94q0 55 105 130q28 0 59 -65q0 -23 -23 -106h12q83 0 182 118v11q-153 151 -153 236l-6 29q0 155 271 224h18zM53 94v-23q0 -9 17 -18q35 37 35 83q-5 17 -11 17q-41 -24 -41 -59z" />
    <glyph glyph-name="T" unicode="T" horiz-adv-x="231" 
d="M499 673h8q72 0 217 -7l14 -22v-14q0 -22 -79 -22h-58q-39 0 -65 7q-38 -7 -73 -7h-51q-264 -36 -376 -116q-33 14 -36 29v7q0 74 384 131q31 14 115 14zM360 550q57 -7 57 -22v-7q-193 -229 -354 -492q-36 -21 -36 -29l7 -14h-15q0 6 -14 58v29q310 442 355 477zM0 22h7
q15 -3 15 -15v-7q-11 0 -22 22z" />
    <glyph glyph-name="U" unicode="U" horiz-adv-x="522" 
d="M817 671q0 -10 16 -36q-50 -79 -358 -423q-42 -73 -74 -165h-13q-20 7 -20 45v17q0 15 18 88h-15q-17 0 -270 -167q-58 -25 -64 -25q-20 0 -37 54q35 110 325 448q63 106 120 123q14 -8 30 -8v-27q-57 -87 -300 -350q-68 -100 -68 -133q8 0 8 -12q386 234 427 314
q28 18 233 250z" />
    <glyph glyph-name="V" unicode="V" horiz-adv-x="268" 
d="M604 677h19q13 -3 25 -32l-466 -529q-9 -27 -114 -114q-25 10 -25 19v82q82 486 145 486l13 6q19 0 19 -25q-108 -290 -108 -423v-6h7q443 458 447 511z" />
    <glyph glyph-name="W" unicode="W" horiz-adv-x="612" 
d="M876 676h13q6 0 28 -29q0 -64 -269 -389q-178 -190 -292 -228q-61 20 -61 101q33 118 33 151l-23 11q-221 -288 -277 -288q-28 4 -28 61v57q41 261 82 384q24 87 69 87h8q9 0 19 -20q-67 -193 -107 -423q9 0 9 -8q30 0 321 338q54 121 94 121q19 0 36 -36
q-164 -293 -164 -430q20 -10 32 -10q259 202 429 454q26 34 48 96z" />
    <glyph glyph-name="X" unicode="X" horiz-adv-x="726" 
d="M555 687q28 0 60 -54q-7 -61 -7 -78h17q126 96 194 104q30 -13 33 -26v-13q-85 -82 -312 -215q-196 -164 -196 -245q0 -37 37 -37q144 35 450 132v-10q-352 -180 -478 -180q-82 0 -82 97q-31 0 -156 -119q-67 -41 -89 -41h-19l-7 33q51 156 368 332q118 51 189 231v23h-9
q-65 0 -218 -119q-29 -89 -88 -89h-7q-31 8 -33 25q41 88 263 221q78 28 90 28z" />
    <glyph glyph-name="Y" unicode="Y" horiz-adv-x="316" 
d="M492 681q41 0 41 -59v-6q0 -7 -47 -24q-156 -316 -296 -509q-51 -83 -89 -83l-24 12q0 13 124 183q24 49 24 60v6q-78 0 -107 225l-11 6l6 11l-18 89q7 48 41 48q27 -12 30 -24v-24q19 -268 71 -290h24q61 67 177 332z" />
    <glyph glyph-name="Z" unicode="Z" horiz-adv-x="909" 
d="M658 681q221 0 221 -91q-20 -157 -601 -464v-16q226 16 335 16q296 0 296 -69l15 -15q-11 -30 -22 -30h-16q-53 45 -235 45q-344 0 -563 -53h-31q-53 0 -53 53q23 28 221 99q319 164 540 358q38 46 38 68q-36 23 -137 23h-46q-113 -15 -213 -61h-15q-32 0 -53 31
q53 98 274 106h45z" />
    <glyph glyph-name="bracketleft" unicode="[" horiz-adv-x="357" 
d="M453 523q23 -6 40 -6l11 6q68 -13 68 -28v-6q0 -8 -17 -17h-23q-87 0 -186 -34q-26 11 -28 23q0 62 135 62zM307 433q10 -6 16 -6v-11q0 -33 -203 -333q-22 -34 -22 -46q5 0 5 -5l136 17l17 -23q-12 -37 -12 -51l-16 12h-6l-17 -12h-85q-82 -11 -90 -11h-17q-13 0 -17 28
q55 73 158 232q34 45 119 197q18 12 34 12z" />
    <glyph glyph-name="backslash" unicode="\" horiz-adv-x="464" 
d="M80 540q37 0 106 -172q108 -173 217 -295q35 -10 35 -47q0 -6 -53 -33q0 -5 1 -5q-34 11 -118 159q-47 32 -168 259q-41 57 -67 83q8 29 47 51z" />
    <glyph glyph-name="bracketright" unicode="]" horiz-adv-x="308" 
d="M377 524q30 -11 34 -28q-207 -359 -207 -531q0 -18 -235 -44v-6q-50 0 -50 39q0 45 168 45q72 0 72 56q0 55 106 285q16 12 51 111v6l-28 6q-27 0 -140 -28q-22 8 -22 16v17q0 32 251 56z" />
    <glyph glyph-name="asciicircum" unicode="^" horiz-adv-x="434" 
d="M402 540q1 -10 -9.5 -22t-19.5 -12q-5 0 -7 0.5t-6 4.5l-135 125l-117 -119q-1 -3 -3 -6q-3 -5 -10 -5q-11 0 -11.5 8.5t5.5 16.5l151 154l6 1q32 -28 61 -54q25 -23 51.5 -48t43.5 -44z" />
    <glyph glyph-name="underscore" unicode="_" horiz-adv-x="450" 
d="M28 47q35 -5 236 -9v4l11 -4q71 9 132 9h17q9 0 22 -19q-32 -38 -83 -38q0 10 -11 10q-27 -2 -27 -10q-11 0 -11 5l-231 -10q0 -14 -11 -14h-6v14h-38l-28 5v10q0 33 28 47z" />
    <glyph glyph-name="grave" unicode="`" horiz-adv-x="288" 
d="M384 752v-4q0 -5 -76 -84l-4 -24h12q0 16 40 28q52 -18 52 -36q-34 -60 -84 -60h-12q-52 0 -52 64q0 46 116 116h8z" />
    <glyph glyph-name="a" unicode="a" horiz-adv-x="377" 
d="M342 434q51 0 141 -107v-7q-188 -221 -188 -275q0 -43 -47 -74l-27 47l7 34q-7 11 -7 26h-6q-125 -73 -155 -73q-47 0 -60 80q0 125 221 295zM74 105v-27h7q68 0 214 128q27 20 34 94q47 22 47 47q-26 20 -40 20q-100 0 -215 -154q-47 -73 -47 -108z" />
    <glyph glyph-name="b" unicode="b" horiz-adv-x="260" 
d="M538 685q58 -25 58 -75q0 -117 -372 -308q-118 -90 -118 -102h1q43 22 99 33q64 -25 64 -86q0 -48 -123 -134q-52 -17 -67 -17q-68 0 -80 107q0 105 257 401q125 127 181 127q25 34 100 54zM192 342h-4q357 177 357 263v5q0 6 -14 13h-20q-102 0 -319 -281zM73 66
q6 -10 6 -13h7q60 0 126 90v11q-5 0 -19 11h-9q-111 -23 -111 -99z" />
    <glyph glyph-name="c" unicode="c" horiz-adv-x="475" 
d="M476 430q51 -16 51 -66q0 -31 -59 -65h-22q-5 0 -19 19l7 14v29h-12q-107 0 -289 -164q-63 -66 -63 -98q43 -33 89 -33h77q168 0 241 23q34 -9 34 -19v-5q-135 -53 -314 -53l-54 -8q-143 31 -143 105q0 104 308 283q75 38 168 38z" />
    <glyph glyph-name="d" unicode="d" horiz-adv-x="612" 
d="M809 684h7q44 -5 44 -22v-30q0 -22 -96 -125q0 -26 -213 -360q-51 -90 -51 -140l-30 8q-24 -15 -44 -15q-14 0 -14 15l7 51q-15 0 -15 15q-59 -15 -125 -15q-204 0 -279 110v8q0 153 323 198h67q88 0 139 -103h15q89 110 213 346q42 59 52 59zM81 221v-15q0 -75 323 -88
l22 -15h8q18 0 29 81v59q0 80 -169 80q-213 -63 -213 -102z" />
    <glyph glyph-name="e" unicode="e" horiz-adv-x="665" 
d="M451 418h14q69 -13 121 -78v-29q-203 -135 -327 -135h-29q-11 0 -28 28v15q0 42 42 42l50 -7q185 41 185 71v15q-60 14 -71 14q-278 -53 -278 -178v-7q0 -93 164 -93v7l14 -7q77 0 349 43v-14q0 -52 -370 -93q-235 22 -235 157v7q0 175 399 242z" />
    <glyph glyph-name="f" unicode="f" horiz-adv-x="231" 
d="M396 681q59 0 74 -97q0 -49 -171 -178q-19 0 -75 -114q6 -17 12 -17l97 17q28 -7 28 -17q0 -19 -148 -52q-23 -2 -63 -109q-32 -114 -69 -114l-17 23v6l51 160l-11 6q-31 -6 -52 -6q-11 0 -11 11v12q0 31 114 57q35 65 35 74l-6 40q34 17 109 195q71 100 103 103z
M316 486h5q64 42 92 98v17l-11 17q-64 -42 -86 -114v-18z" />
    <glyph glyph-name="g" unicode="g" horiz-adv-x="495" 
d="M358 438q65 -26 65 -71q0 -8 -39 -52v-7h7q21 13 39 13q29 -12 32 -25q0 -44 -155 -221q-26 -30 -33 -77q7 0 7 -7q95 32 233 58v-6q0 -32 -130 -52q-53 -45 -103 -45h-20q-56 -57 -168 -233q-108 -130 -194 -130q-130 57 -130 110q0 100 402 259q45 68 45 104v6h-7
q-161 0 -161 85q0 161 259 278q41 13 51 13zM112 153q13 -30 26 -32h39q113 0 207 181h-6q-11 0 -91 -45q-12 6 -19 6v33q58 51 58 58v6h-26q-110 -33 -181 -155q-7 -36 -7 -52zM-153 -287v-20q28 -45 65 -45h6q71 10 194 201v13q-103 -14 -259 -136z" />
    <glyph glyph-name="h" unicode="h" horiz-adv-x="552" 
d="M468 681h24q10 0 17 -30q-54 -186 -148 -236q-95 -54 -148 -178v-6h6q79 24 95 24h18q35 -23 35 -42q0 -20 -47 -124v-6h23q130 71 261 101v-12q-75 -67 -338 -166q-17 4 -23 24q0 48 59 159q-6 0 -6 6q-97 0 -178 -124q-19 -71 -59 -71h-29q0 30 -6 30q0 36 124 189
q36 78 36 83h-12l-148 -83h-24q0 51 231 172q32 36 95 160q72 92 142 130zM349 492v-12h12q66 54 71 106h-6q-15 0 -77 -94z" />
    <glyph glyph-name="i" unicode="i" horiz-adv-x="324" 
d="M384 681h27q16 0 34 -55q0 -27 -34 -41q-29 0 -55 48v21q0 10 28 27zM301 400q48 -9 48 -27v-34q-239 -219 -239 -233v-7q13 0 13 -7q84 41 254 110l7 -14q-21 -54 -309 -178l-48 -7q-27 7 -27 41q0 56 212 274q73 82 89 82z" />
    <glyph glyph-name="j" unicode="j" horiz-adv-x="134" 
d="M448 681q19 -25 19 -59q-12 -29 -26 -32q-9 0 -45 45v26q4 20 52 20zM259 394q39 -6 39 -19v-7q-80 -82 -209 -358q-22 -28 -65 -150q-90 -193 -104 -196q-41 -78 -144 -78q-94 0 -169 111q9 45 26 45q65 0 65 -39l-6 -26q41 -39 84 -39q106 0 170 215l137 281
q110 260 176 260z" />
    <glyph glyph-name="k" unicode="k" horiz-adv-x="454" 
d="M440 678h6q9 0 31 -30v-19q0 -92 -232 -291q0 -5 -47 -65v-11h22q185 101 250 101q43 -18 43 -54v-6q-26 -43 -37 -43h-31l6 43v5h-4q-242 -74 -326 -190q-47 -95 -90 -113q-25 6 -25 31q0 17 106 201l-10 5q-56 -59 -96 -59l-6 13v12q15 23 202 173q132 228 196 279
q22 18 42 18zM341 510v-4h4q16 0 53 58v17h-5q-31 -29 -52 -71zM477 137q6 -11 6 -25q-161 -113 -250 -113q-78 0 -90 90q14 37 43 37q24 -56 53 -66h17q43 0 214 84q7 0 7 -7z" />
    <glyph glyph-name="l" unicode="l" horiz-adv-x="251" 
d="M421 681h10q0 -11 8 -11q-17 -42 -155 -249q-169 -262 -169 -270h12q126 74 198 84h7l15 -7q0 -36 -127 -85q-123 -78 -164 -113q-20 0 -20 -37q-36 21 -36 41q0 57 119 216l237 390q41 41 65 41z" />
    <glyph glyph-name="m" unicode="m" horiz-adv-x="750" 
d="M258 429h7q11 -2 11 -11v-29q-30 -48 -30 -76v-11h21q185 127 245 127q11 0 50 -82h11q135 52 164 52h44q34 -20 34 -41q0 -119 -187 -290q0 -29 -35 -50h-13q-9 0 -19 19q0 48 180 260v35q-173 0 -388 -263q-26 -14 -58 -14h-4l-7 34v13l180 217v29q-124 -24 -359 -279
q-25 -49 -79 -66q-26 10 -26 18v15q0 43 127 215q69 178 131 178z" />
    <glyph glyph-name="n" unicode="n" horiz-adv-x="560" 
d="M327 438q25 -13 25 -31q0 -11 -63 -67v-27h18q94 41 188 102h21q8 0 24 -26v-21q0 -11 -195 -246q-9 -18 -9 -36q8 0 8 -10l270 71l4 -8v-6q-16 0 -160 -79q-170 -46 -203 -46l-20 33q13 58 157 241q-16 0 -16 12q-107 -45 -309 -239q-20 0 -45 -15q-16 4 -22 24
q0 41 217 283q58 91 110 91z" />
    <glyph glyph-name="o" unicode="o" horiz-adv-x="483" 
d="M446 430q136 -14 136 -100q-44 -138 -139 -188q-214 -134 -342 -134h-31q-60 34 -70 93q21 107 173 221q159 108 273 108zM110 137v-61h60q344 100 344 254q-11 32 -59 32h-93q-22 0 -138 -110q-43 -6 -114 -115z" />
    <glyph glyph-name="p" unicode="p" horiz-adv-x="552" 
d="M457 434q95 0 115 -121q0 -157 -304 -304q-17 0 -67 -13q-26 6 -54 6q-25 -60 -34 -60q-32 0 -263 -284q0 -42 -74 -47l-7 34q55 180 378 587q210 195 249 195q25 7 61 7zM201 76v-13q13 0 13 -7q169 46 250 155l40 54v61q0 36 -27 47h-54q-42 -20 -101 -141
q-9 0 -121 -156zM19 -38l13 -7q81 82 115 148q16 0 101 129l-7 13q-135 -126 -216 -263q0 -7 -6 -20zM-22 -99h7q10 0 27 27v14h-7q-27 -14 -27 -41z" />
    <glyph glyph-name="q" unicode="q" horiz-adv-x="349" 
d="M366 410h6q81 0 81 -61q-13 -54 -13 -67v-7q0 -7 7 -7q0 -18 -149 -169q-223 -303 -223 -310v-20h7q274 138 331 141h34v-6q-177 -87 -426 -237q-91 -101 -141 -101q-14 16 -14 27q0 15 182 250q102 140 102 169h-7q-61 -14 -88 -14q-42 0 -61 61q65 203 270 317
q70 34 102 34zM62 72v-13l47 -7q147 86 169 122q-7 48 -7 54q0 15 108 101v20h-34q-127 -16 -263 -223q-20 -33 -20 -54z" />
    <glyph glyph-name="r" unicode="r" horiz-adv-x="426" 
d="M260 434h6l30 -6v-30q-91 -122 -91 -133h7q137 92 187 115q30 -11 30 -31h6q20 0 67 31h6q46 0 54 -25q0 -15 -85 -48q-55 -54 -96 -54q-24 0 -24 42h-13q-118 -68 -277 -260q-27 -36 -49 -36l-24 18q0 48 73 127q149 254 193 290z" />
    <glyph glyph-name="s" unicode="s" horiz-adv-x="276" 
d="M276 442q75 0 75 -65q-84 -128 -113 -128h-20q0 9 -6 21q76 101 76 115h-50q-63 0 -78 -83q1 -43 114 -150q6 -12 6 -19q0 -81 -150 -124h-24q0 -25 -35 -54h-33q0 27 -13 27q19 36 19 46q-44 52 -44 78q0 41 58 64q50 0 76 -70l-6 -11v-18l17 -4q73 25 73 59l-115 142
v18q0 117 118 145q16 0 55 11z" />
    <glyph glyph-name="t" unicode="t" horiz-adv-x="361" 
d="M573 678q41 -15 41 -55q-12 0 -143 -145v-19h10q44 0 122 -8q15 8 21 8q15 -8 21 -8v-5q0 -29 -241 -50q-231 -201 -296 -297v-11q15 0 15 -9q206 69 281 69l6 -13v-12q-119 -60 -338 -120h-22q-39 0 -50 28v29q52 79 272 302v12h-33l-218 -68l-6 13v22q0 61 362 118
q62 107 196 219z" />
    <glyph glyph-name="u" unicode="u" horiz-adv-x="487" 
d="M287 406h9q3 0 18 -25v-3q-48 -77 -206 -257v-32h28q266 83 404 245q81 72 116 72h8q2 0 10 -16v-6q0 -39 -193 -199q-63 -61 -122 -197l-4 -2q-18 7 -18 46v81h-47q-92 -62 -218 -103q-52 11 -52 65q0 99 244 326q9 5 23 5z" />
    <glyph glyph-name="v" unicode="v" horiz-adv-x="402" 
d="M506 442q38 -8 54 -27q-2 -16 -347 -306q-42 -109 -149 -109v7l-7 13l7 48l-7 14q51 166 75 326l27 13q22 -6 27 -27q0 -58 -47 -272h13q301 251 354 320z" />
    <glyph glyph-name="w" unicode="w" horiz-adv-x="690" 
d="M743 443h22q10 0 21 -21l-399 -391q-29 -22 -68 -22q-19 0 -29 59q0 14 16 87h-11q-152 -154 -214 -154q-37 40 -37 67q43 321 90 321q44 -10 44 -36q0 -21 -62 -248h19q193 146 254 223q43 0 43 -36q-48 -141 -61 -162v-18q14 0 28 27q-9 0 -9 4q51 0 253 216z" />
    <glyph glyph-name="x" unicode="x" horiz-adv-x="491" 
d="M200 442h14q21 0 21 -28q-14 -22 -14 -41v-83q2 -14 14 -14q165 145 221 145q55 -8 55 -27q-182 -76 -249 -201q33 -62 83 -62h90q21 0 62 28v-7q-33 -76 -131 -76q-28 14 -41 14l-14 -7q-53 9 -97 55h-7q-181 -138 -193 -138q-14 23 -14 41q173 142 173 180l-28 117
q14 104 55 104z" />
    <glyph glyph-name="y" unicode="y" horiz-adv-x="330" 
d="M204 429h21q14 -2 14 -14v-14q0 -33 -138 -179q-28 -46 -28 -55l21 -14q114 20 207 131q55 69 76 69q10 0 34 -28q0 -43 -165 -220v-28q27 -4 27 -21q-70 0 -138 -200q-89 -176 -145 -235q-66 -44 -124 -48q-207 0 -207 152q0 84 228 207l255 117q0 12 35 42v27h-7
q-79 -27 -118 -27q-48 24 -48 62q0 94 200 276zM-272 -289v-21q0 -69 110 -69q150 0 242 263q42 87 42 103v7h-7q-387 -177 -387 -283z" />
    <glyph glyph-name="z" unicode="z" horiz-adv-x="552" 
d="M315 396q247 0 247 -72q-72 -86 -106 -86v-16q68 0 68 -17v-5q-43 -18 -191 -24q-47 -42 -157 -88v-16q173 26 288 26h44q35 -4 35 -17v-17q-341 -25 -471 -62h-49q-15 0 -23 41q58 49 193 99v16l-34 -7q-29 4 -29 17v19q0 39 229 47q86 43 113 76q0 24 -113 28
q-51 0 -94 -31q-97 6 -97 29v12q0 28 147 48z" />
    <glyph glyph-name="braceleft" unicode="{" horiz-adv-x="276" 
d="M281 527h23q46 -3 46 -27q0 -20 -32 -37h-9l-18 14h-5q-82 -18 -82 -64q0 -40 41 -141q0 -13 -54 -54q41 -46 45 -100q-25 -64 -82 -132v-14l118 19h9v-9q0 -23 -131 -55q-35 0 -59 36q0 15 90 155v14q-22 54 -90 54q-25 -4 -37 -4q-13 3 -18 18q0 43 123 54q27 26 27 37
q-36 66 -36 100q28 136 131 136z" />
    <glyph glyph-name="bar" unicode="|" horiz-adv-x="195" 
d="M135 573q41 -17 41 -49l-68 -417v-43q0 -17 3 -17q-6 -21 -31 -40h-20q-8 0 -20 20q0 80 62 412q0 134 33 134z" />
    <glyph glyph-name="braceright" unicode="}" horiz-adv-x="345" 
d="M142 474q158 -27 158 -77v-17q-103 -78 -103 -124q0 -21 90 -39q9 -14 9 -25q0 -22 -86 -35q-17 -12 -17 -17l34 -111q0 -6 -34 -51l-17 4q-115 -47 -150 -47q-42 0 -51 51l13 9l47 -13q46 0 141 51v5q-30 90 -30 102v13q0 22 30 47q-29 30 -34 64q0 34 94 116v17
q-26 30 -86 30q-6 0 -59 -4q-9 14 -9 25q14 26 60 26z" />
    <glyph glyph-name="asciitilde" unicode="~" horiz-adv-x="580" 
d="M604 343q12 0 21 -18v-14q-94 -70 -256 -135h-15q-40 0 -47 51v8h2q-28 0 -172 -91h-6q-16 0 -29 27q0 41 224 131h15q22 0 32 -61l4 -2q142 57 227 104z" />
    <glyph glyph-name="nonbreakingspace" unicode="&#xa0;" horiz-adv-x="475" 
 />
    <glyph glyph-name="currency" unicode="&#xa4;" horiz-adv-x="622" 
d="M541 55l-84 86q-37 -30 -76.5 -42.5t-73.5 -12.5t-73.5 12.5t-76.5 42.5l-84 -86l-33 34l85 84q-30 37 -42.5 76.5t-12.5 73.5t12.5 73.5t42.5 76.5l-85 84l33 34l84 -86q37 30 76.5 42.5t73.5 12.5t73.5 -12.5t76.5 -42.5l84 86l34 -34l-86 -84q30 -37 42.5 -76.5
t12.5 -73.5t-12.5 -73.5t-42.5 -76.5l86 -84zM496 323q0 40 -15 75.5t-40.5 61.5t-60 41.5t-73.5 15.5t-73.5 -15.5t-60 -41.5t-40.5 -61.5t-15 -75.5t15 -75.5t40.5 -61.5t60 -41.5t73.5 -15.5t73.5 15.5t60 41.5t40.5 61.5t15 75.5z" />
    <glyph glyph-name="section" unicode="&#xa7;" horiz-adv-x="393" 
d="M564 737q52 0 80 -32v-4q0 -39 -96 -128h-12q0 8 -4 8q56 90 56 100q-4 12 -24 12h-8q-79 0 -140 -200q-25 -280 -60 -280q-42 -56 -96 -56q0 -4 -4 -12q19 -32 24 -64q0 -76 -120 -204q-68 -36 -104 -36q-80 0 -80 80q4 7 4 16h8q31 -56 44 -56h32q40 0 100 64
q56 84 56 92q4 7 4 20v24q0 63 -64 88q-76 51 -76 88q0 31 92 100q112 56 156 56q13 -8 24 -8v40q24 143 120 256q54 32 88 36zM192 317v-8q12 -17 12 -32l-20 -8q-20 7 -20 20h-8q-6 0 -12 -12v-8q0 -40 92 -76h8q84 0 104 124q0 44 -40 52q-116 -33 -116 -52z" />
    <glyph glyph-name="copyright" unicode="&#xa9;" horiz-adv-x="746" 
d="M404 559q36 -22 36 -53q38 0 101 11q11 -6 17 -6l42 6q114 0 130 -154q0 -251 -278 -349q-164 -59 -320 -59h-6q-130 0 -130 101q29 169 195 361q116 142 213 142zM209 292l-18 12h-6q-118 -141 -118 -248v-18q0 -30 113 -30q268 0 432 142q71 77 71 213
q-21 107 -107 107h-71q-192 -48 -254 -142q0 -11 -42 -36zM475 405q27 0 36 -53q0 -20 -112 -119h-24q-42 0 -42 36h-17q-113 -101 -113 -142v-18q8 0 48 -18q64 6 183 30h6v-6q-38 -48 -207 -71h-12q-89 17 -89 65q0 87 195 243q68 29 148 53z" />
    <glyph glyph-name="guillemotleft" unicode="&#xab;" horiz-adv-x="239" 
d="M58 99q6 0 35 -23q-9 -47 -109 -154q-9 -40 -34 -40q-17 4 -23 23q90 188 131 188v6zM178 59q16 0 29 -28q0 -10 -57 -52q-56 -74 -69 -74q-8 0 -17 17q0 74 114 137z" />
    <glyph glyph-name="logicalnot" unicode="&#xac;" horiz-adv-x="594" 
d="M518 164l-37 -13l12 83h-259h-45t-68.5 -0.5t-64.5 -1t-35 -1.5q8 26 23 35.5t23 11.5q8 0 42 0.5t81 0.5h101t103.5 0.5t88 0.5t54.5 1z" />
    <glyph glyph-name="registered" unicode="&#xae;" horiz-adv-x="673" 
d="M487 556h24q150 0 203 -284v-24q0 -133 -251 -275q-230 -82 -318 -82q-34 0 -144 120l-10 63q13 78 96 207q0 8 10 20l-5 33q70 92 203 179q9 0 38 14q25 -5 29 -5q86 34 125 34zM266 378h-10q0 14 -10 14h-4q-180 -206 -188 -313v-19q0 -54 110 -121h10q224 34 328 101
q159 111 159 198v53l-29 111h10v9q-26 0 -53 58q-37 44 -111 44q-150 -42 -150 -92q-42 -43 -62 -43zM454 397h29q43 -6 43 -43v-15q-33 -80 -212 -154q0 -5 -5 -15q16 -77 82 -115l5 -10q0 -7 -19 -19q-85 0 -121 106l-19 14h-20l-24 -48l-24 -5q-37 0 -43 20v4
q18 41 111 150q119 125 149 125l19 -9zM381 305q-8 5 -19 5q-20 -5 -82 -77v-9h15q173 75 173 125h-10q-36 0 -62 -39q-5 0 -15 -5z" />
    <glyph glyph-name="degree" unicode="&#xb0;" horiz-adv-x="374" 
d="M344 638q0 -34 -14.5 -68.5t-40 -62.5t-60.5 -46t-75 -18q-23 0 -38 9t-24 22.5t-12.5 29t-3.5 29.5q0 38 16.5 76.5t54.5 71.5q29 25 51.5 33.5t33.5 10.5q14 5 24 6.5t23 1.5q29 0 47 -25t18 -70zM289 612q0 38 -11 54t-28 18q-3 0 -10 0.5t-14 0.5q-31 0 -50 -15.5
t-29 -36t-13.5 -40t-3.5 -27.5q0 -15 2.5 -30t9 -27t17.5 -19.5t27 -7.5q15 0 33 4.5t33.5 18.5t26 39.5t10.5 67.5z" />
    <glyph glyph-name="plusminus" unicode="&#xb1;" horiz-adv-x="515" 
d="M429 519h6q9 0 38 -38q-51 -50 -51 -82h51l75 7l13 -19v-13q-29 -38 -176 -38q-48 -126 -70 -126t-31 63q6 25 19 44v7l-7 12l-44 -6h-6q-49 0 -63 31v19q0 13 38 26q64 -7 100 -7h7q11 2 75 114q11 6 26 6zM94 134q48 -12 57 -12q7 0 19 6l32 -6q6 0 19 6l25 -6l31 6
q152 0 152 -44q-23 -19 -44 -19h-265q-9 0 -70 13q0 -7 -6 -7v7q18 56 50 56z" />
    <glyph glyph-name="mu" unicode="&#xb5;" horiz-adv-x="471" 
d="M473 434q20 -5 20 -20q0 -13 -144 -213q-18 -31 -74 -193q-9 -5 -20 -5q-10 0 -10 10v15q0 10 35 133h-5q-105 -104 -124 -109q-13 0 -35 35q7 60 10 69h-10q-180 -416 -243 -416q-64 28 -64 69v5q0 73 64 119h10q-29 -89 -29 -104v-5q0 -36 29 -39q38 37 248 495
q81 109 119 129q16 20 50 20q34 -19 34 -40q-9 -39 -123 -193q-35 -50 -35 -59q5 0 5 -5q183 159 223 233q48 69 69 69zM141 206v-10q8 0 15 20h-5q-10 -2 -10 -10z" />
    <glyph glyph-name="mu" unicode="&#x3bc;" horiz-adv-x="471" 
d="M473 434q20 -5 20 -20q0 -13 -144 -213q-18 -31 -74 -193q-9 -5 -20 -5q-10 0 -10 10v15q0 10 35 133h-5q-105 -104 -124 -109q-13 0 -35 35q7 60 10 69h-10q-180 -416 -243 -416q-64 28 -64 69v5q0 73 64 119h10q-29 -89 -29 -104v-5q0 -36 29 -39q38 37 248 495
q81 109 119 129q16 20 50 20q34 -19 34 -40q-9 -39 -123 -193q-35 -50 -35 -59q5 0 5 -5q183 159 223 233q48 69 69 69zM141 206v-10q8 0 15 20h-5q-10 -2 -10 -10z" />
    <glyph glyph-name="paragraph" unicode="&#xb6;" horiz-adv-x="373" 
d="M255 -74h-48l121 736h48zM127 -74h-47l83 519q-31 20 -44 50.5t-5 68.5q15 76 87 98h47z" />
    <glyph glyph-name="guillemotright" unicode="&#xbb;" horiz-adv-x="479" 
d="M465 779q5 0 33 -22q-9 -46 -105 -150q-10 -39 -34 -39q-16 4 -22 22q88 183 128 183v6zM581 740q15 0 28 -28q0 -9 -56 -50q-54 -72 -66 -72q-8 0 -17 17q0 72 111 133z" />
    <glyph glyph-name="1/4" unicode="&#xbc;" horiz-adv-x="678" 
d="M359 542h3q27 0 27 -27v-2q-215 -269 -242 -282q-9 -5 -27 -5h-7q-1 0 -1 1v22q75 93 99 141h-28q-85 -40 -102 -40q-2 0 -8 22q1 14 262 142q0 10 24 28zM643 523q2 0 8 -17q0 -14 -216 -188q0 -19 -206 -193l-95 -108h-40q-1 0 -1 1q0 41 303 292q198 213 228 213h19z
M601 372q13 -6 11 -6v-1q0 -61 -144 -151v-31h75q115 91 138 91q19 -5 29 -18q0 -70 -138 -110q-127 -106 -146 -155q-2 0 -8 -3q0 8 -5 14v9q0 37 53 94v36h-92q0 33 -13 33q0 2 194 170q14 28 46 28z" />
    <glyph glyph-name="1/2" unicode="&#xbd;" horiz-adv-x="665" 
d="M627 618q37 0 37 -24q-443 -461 -498 -564l-28 -22h-16q-12 0 -14 19q64 115 213 259q294 332 306 332zM377 511h6q7 0 25 -37q-172 -153 -172 -224q-13 -10 -43 -22q-20 5 -20 31q42 86 42 100h-23q-26 -20 -88 -30q-11 6 -14 6v26q0 26 194 91q76 59 93 59zM567 351h18
q59 0 73 -50q0 -68 -206 -196l19 -10q42 0 132 12q32 -6 53 -6q4 0 24 6q11 -6 1 -6q-115 -57 -272 -57q0 -6 -2 -6q-67 0 -67 36q36 42 206 147q43 37 43 54q-89 17 -89 26v17q23 33 67 33z" />
    <glyph glyph-name="3/4" unicode="&#xbe;" 
d="M676 503q16 -4 16 -24q-64 -50 -113 -108q-304 -266 -368 -355l-31 -4q-5 23 -9 23q4 17 77 91v18h-17q-18 -13 -106 -30q-89 23 -89 70v17q4 11 28 11h25q5 0 11 -48h13q122 0 148 75q-25 50 -82 50h-60l-4 23v17q0 4 33 22l-21 35q0 36 156 80q34 -6 34 -34t-84 -96
q78 -65 78 -102l-7 -12v-28h23q83 58 275 269q31 23 74 40zM673 364h9q24 0 28 -17q0 -9 -169 -153v-29l37 -7h37q21 0 118 67h18q27 -25 26 -25q0 -24 -112 -76q-160 -121 -177 -179l-23 5h-11v-3q11 45 113 161l-23 12h-91q-8 1 -18 23q0 20 238 221z" />
    <glyph glyph-name="divide" unicode="&#xf7;" horiz-adv-x="549" 
d="M274 222q18 0 30.5 -12.5t12.5 -30.5q0 -17 -12.5 -30t-30.5 -13q-17 0 -30 13t-13 30q0 18 12.5 30.5t30.5 12.5zM538 312h-527v41h527v-41zM274 525q18 0 30.5 -12.5t12.5 -30.5q0 -17 -12.5 -29.5t-30.5 -12.5t-30.5 12.5t-12.5 29.5q0 18 12.5 30.5t30.5 12.5z" />
    <glyph glyph-name="uni0394" unicode="&#x394;" horiz-adv-x="418" 
d="M282 357h9q26 0 72 -226l49 -101v-5q0 -8 -58 -19q0 -10 -10 -10q0 16 -86 24l-10 -5q-16 10 -29 10l-5 -10l-9 5h-15q-11 0 -19 -5q-8 5 -19 5l-24 -5q-5 0 -5 5l-34 -5h-34l-14 48v5q0 33 154 217q24 43 48 43q5 0 5 -5q5 0 34 34zM258 285q0 -18 -130 -154
q-29 -41 -29 -63v-5h139q34 0 106 -4q-68 222 -77 226h-9z" />
    <glyph glyph-name="uni0394" unicode="&#x2206;" horiz-adv-x="418" 
d="M282 357h9q26 0 72 -226l49 -101v-5q0 -8 -58 -19q0 -10 -10 -10q0 16 -86 24l-10 -5q-16 10 -29 10l-5 -10l-9 5h-15q-11 0 -19 -5q-8 5 -19 5l-24 -5q-5 0 -5 5l-34 -5h-34l-14 48v5q0 33 154 217q24 43 48 43q5 0 5 -5q5 0 34 34zM258 285q0 -18 -130 -154
q-29 -41 -29 -63v-5h139q34 0 106 -4q-68 222 -77 226h-9z" />
    <glyph glyph-name="Alpha" unicode="&#x3b1;" 
d="M448 482h12v-24q-82 -84 -124 -170q-123 -153 -123 -182v-18q11 -23 17 -23q204 47 230 47q5 -18 11 -18q0 -30 -247 -88h-11q-16 0 -53 41q-26 -19 -88 -112q6 -10 6 -23h-18q-6 0 -6 6q-19 -12 -29 -12l-18 29l6 12q-6 32 -6 47q0 112 106 247l29 6q53 -29 53 -65
q14 1 188 241q1 23 65 59zM119 159q-41 -88 -41 -130h5q65 58 65 94v24q0 12 -12 12h-17z" />
    <glyph glyph-name="Beta" unicode="&#x3b2;" horiz-adv-x="377" 
d="M279 503h11q69 0 96 -59q0 -60 -48 -112v-15q75 -27 75 -102q0 -105 -182 -197q-5 0 -5 -21h-5q-11 0 -11 16h-11l-21 -16q-5 0 -16 5q-29 -5 -48 -5l-64 5q-22 -17 -106 -149q-99 -80 -160 -80q-144 39 -144 96v11q0 7 16 16q27 0 53 -54q40 -16 86 -16h5q95 0 208 208
q5 36 42 85l102 315q98 69 127 69zM152 274h10q39 33 117 53q59 62 59 101l-21 16h-38q-42 0 -90 -74q-18 0 -37 -96zM77 55q2 -10 11 -10h64q102 0 191 117q16 27 16 43v16q0 48 -58 48h-6q-11 0 -138 -75q-53 0 -80 -139z" />
    <glyph glyph-name="Gamma" unicode="&#x3b3;" horiz-adv-x="466" 
d="M553 490q9 0 18 -17v-17q-80 -208 -80 -222h-34q-9 0 -17 17v40l11 17v11h-11q-257 -213 -257 -268v-11l12 -17q-25 -13 -74 -285q-23 -34 -52 -34q-91 34 -91 148v11q0 27 74 149q0 17 40 34q91 99 91 233h-5q-138 -134 -206 -193q-28 3 -28 34v5q28 40 239 228
q57 91 91 91q29 -7 29 -17v-11q-69 -145 -69 -199v-12h12q211 181 285 285h22zM24 -171v-5q0 -34 34 -57h6q22 0 57 222h-18q-26 0 -79 -160z" />
    <glyph glyph-name="Delta" unicode="&#x3b4;" 
 />
    <glyph glyph-name="Epsilon" unicode="&#x3b5;" horiz-adv-x="572" 
d="M514 461h20q67 -9 67 -60q0 -43 -87 -87l-27 33v14l14 20v6h-14q-188 -56 -193 -93v-7q0 -22 87 -27h73q51 0 60 -26v-27q-17 0 -40 -27q-236 0 -394 -80v-27q12 0 54 -13q234 9 267 27l13 -7l187 20q13 -7 20 -7v-13q-181 -53 -467 -80q-154 21 -154 73v14q0 60 227 133
v14l-13 20v13q0 105 220 174q0 16 80 20z" />
    <glyph glyph-name="Zeta" unicode="&#x3b6;" 
 />
    <glyph glyph-name="Eta" unicode="&#x3b7;" horiz-adv-x="426" 
d="M212 397h43q12 -3 24 -31q-61 -88 -61 -104h6q116 83 190 111q36 -13 36 -25v-18q-33 -97 -171 -318q0 -16 -73 -110q-43 -66 -43 -86q183 86 208 86l6 -13v-12q-24 0 -116 -73q-32 0 -196 -147q-12 -6 -18 -6q-12 15 -12 24q0 73 250 441q0 10 68 122q0 10 12 24v19h-12
q-115 -51 -251 -214q-25 -57 -25 -61q6 0 6 -6h-6l-30 6q0 -13 -12 -13h-19q0 10 -12 25q0 22 208 379z" />
    <glyph glyph-name="Theta" unicode="&#x3b8;" horiz-adv-x="552" 
d="M574 685q125 -52 125 -138q0 -218 -443 -485q-88 -62 -166 -62h-35q-11 0 -55 69v7q0 122 221 381q84 148 291 221zM367 512q0 -7 7 -7q0 -14 -104 -90v-28q28 0 97 -83q104 42 187 56q46 60 76 124v63q0 67 -70 76h-55q-138 -52 -138 -111zM76 90v-7l14 -21
q99 0 297 152v14h-62q-56 76 -69 76q-180 -80 -180 -214z" />
    <glyph glyph-name="Iota" unicode="&#x3b9;" 
 />
    <glyph glyph-name="Kappa" unicode="&#x3ba;" 
 />
    <glyph glyph-name="Lambda" unicode="&#x3bb;" horiz-adv-x="381" 
d="M274 471q38 0 38 -44q0 -25 -71 -181l5 -38q-60 -43 -60 -98v-11q0 -17 22 -17q29 0 192 71l11 -16v-11q-94 -66 -219 -104q-55 16 -55 55h-11q-61 -49 -110 -77l-16 22v5q163 160 197 241q55 122 55 132h-11q-68 -39 -153 -143q-11 -5 -17 -5q-22 8 -22 16q0 68 181 181
q0 17 44 22z" />
    <glyph glyph-name="Nu" unicode="&#x3bd;" horiz-adv-x="316" 
d="M218 568h15q66 -76 66 -214v-5q0 -166 -102 -315v-10q16 0 16 -11v-5h-10v11q-63 -31 -72 -31q-20 3 -20 41v5q61 51 61 86v16q0 75 -117 137v20q0 8 15 16q60 0 143 -138q40 58 40 158v51q0 61 -61 163q4 13 26 25z" />
    <glyph glyph-name="Xi" unicode="&#x3be;" 
 />
    <glyph glyph-name="Omicron" unicode="&#x3bf;" 
 />
    <glyph glyph-name="Pi" unicode="&#x3c0;" horiz-adv-x="471" 
d="M638 700l9 -5h89q166 -25 166 -43v-14q0 -9 -10 -9q-153 27 -251 27q-445 -59 -547 -117q0 -5 -23 -5h-21q-7 0 -16 17v6q0 55 200 77q292 61 387 61h6q11 0 11 5zM526 526q10 0 23 -38q-8 -77 -80 -77q-66 -110 -171 -347q-48 -30 -48 -51l-9 5h-15l-20 -14l-41 7
q-13 -7 -16 -7q0 19 -101 80q0 15 -48 54v3q32 52 98 52h27q10 -2 10 -10v-13q0 -7 -56 -40q21 -33 66 -53h83q34 16 152 295q82 154 146 154zM568 410h22l13 -44v-5q-152 -198 -176 -298q-16 -18 -35 -18l-12 17v19q0 62 122 243q3 35 66 86z" />
    <glyph glyph-name="Sigma" unicode="&#x3c2;" 
 />
    <glyph glyph-name="Small Sigma" unicode="&#x3c3;" horiz-adv-x="462" 
d="M634 466l11 -17v-17q-161 -101 -179 -101q-80 45 -113 45q-57 0 -145 -62v-6q72 17 78 17h11q129 0 129 -129q-9 -63 -95 -140q-105 -46 -112 -56h-6q-17 6 -17 11q-18 -11 -28 -11q0 11 -11 11h-11l-17 -11l-107 73q-22 26 -22 78q0 122 252 253q77 28 124 28
q20 0 101 -39h5q127 73 152 73zM56 163v-28q0 -73 146 -73q76 0 163 106l5 28q0 73 -73 73h-5q-56 0 -118 -67h-11q-13 0 -17 28q11 36 11 50h-17q-33 0 -84 -117z" />
    <glyph glyph-name="Tau" unicode="&#x3c4;" horiz-adv-x="592" 
d="M457 442q11 0 76 -71h16q150 49 197 49h11l16 -16q0 -16 -104 -44q-76 -32 -131 -43q-29 5 -49 5q-46 -56 -185 -153l-77 -87v-11l6 -11q207 71 295 71l5 -11v-11q-5 -18 -213 -71q-86 -27 -104 -38h-27q-26 12 -38 38q0 68 300 317v16q0 11 -11 11h-22
q-150 -22 -322 -158h-11q-7 0 -16 16v6q6 75 295 180q84 11 93 16z" />
    <glyph glyph-name="Upsilon" unicode="&#x3c5;" 
 />
    <glyph glyph-name="Phi" unicode="&#x3c6;" horiz-adv-x="475" 
d="M417 422q56 0 65 -107q0 -53 -83 -125q-90 -74 -223 -144q-51 -113 -93 -251q-15 -23 -37 -23q-9 0 -9 9v10l51 157q-9 5 -14 5v9h4l10 -4q23 37 23 65h-5q-45 -14 -56 -14q-41 0 -46 56q27 102 65 102q19 -5 19 -28q-25 -39 -33 -74l9 -5h19q70 0 70 74q136 288 264 288
zM190 106l9 -4q241 120 241 232v4q0 42 -51 42q-128 -83 -181 -232q-18 -35 -18 -42z" />
    <glyph glyph-name="Chi" unicode="&#x3c7;" 
 />
    <glyph glyph-name="Small Psi" unicode="&#x3c8;" 
 />
    <glyph glyph-name="Omega" unicode="&#x3c9;" horiz-adv-x="645" 
d="M512 495q148 -27 148 -148v-17q0 -130 -242 -280q-46 -33 -77 -33q-17 0 -77 49q-114 -66 -176 -66q-88 6 -88 77q0 107 132 182h11q22 -6 22 -28q0 -24 -104 -121l-6 -27v-11q0 -9 22 -22q70 0 182 66q50 79 77 99h5q39 0 39 -39q0 -24 -50 -71v-11q0 -8 17 -17h27
q237 132 237 242v50q0 37 -55 71h-39q-5 0 -5 -5l-11 5q-72 0 -72 -60v-6q0 -29 110 -55v-16h-5q-27 0 -55 -6q-82 0 -99 105v5q0 44 132 88z" />
    <glyph glyph-name="afii10023" unicode="&#x401;" horiz-adv-x="799" 
d="M488 783l29 -44q-13 -37 -24 -37q-72 8 -72 27v25q10 29 67 29zM686 784q24 0 36 -61q-9 -17 -9 -20h-9q-62 0 -72 29q0 52 54 52zM744 678q82 -29 89 -53q-19 -80 -75 -80q-29 70 -93 70q-201 0 -307 -101v-29q14 0 94 -44q53 0 177 17q41 -15 45 -34q-42 -56 -204 -73
q-385 -91 -385 -210v-9q0 -36 113 -70l608 53h27v-12q-97 -34 -310 -69l-228 -26q-291 0 -291 150q0 94 350 223l13 27q-89 50 -99 86v8q0 109 353 168l35 -9q69 9 88 17z" />
    <glyph glyph-name="afii10051" unicode="&#x402;" horiz-adv-x="599" 
d="M624 655q0 -12 -12 -23t-29 -21t-35.5 -18.5t-31.5 -14.5l-3 7q24 13 29.5 25t5.5 25q0 22 -78 22q-23 0 -35.5 -1t-22 -2.5t-20 -4t-29.5 -5.5q-12 -51 -31.5 -111.5t-38.5 -130.5q20 4 47 7.5t46 3.5q27 0 56 -4.5t53 -20t39 -44.5t15 -78q0 -57 -28 -124t-73.5 -125.5
t-103 -97.5t-117.5 -39q-42 0 -63.5 10.5t-21.5 26.5q0 6 2.5 14.5t14.5 8.5q9 0 14.5 -7t11.5 -15t14 -15t22 -7q35 0 67.5 16t60 42t50 60t38 71t24 73.5t8.5 67.5q0 44 -9 71.5t-25.5 42.5t-38.5 20.5t-47 5.5q-14 0 -34 -2.5t-37 -6.5q-3 -9 -7.5 -23.5t-9 -30.5
t-8.5 -31t-6 -24q-20 -89 -32 -144t-23 -77t-26.5 -28.5t-24.5 -6.5q-16 0 -18.5 7t-2.5 24q0 6 4 24t10.5 42.5t14 52t15.5 53.5q6 22 13.5 46t14.5 45t12 35.5t6 17.5q-6 -2 -13 -4t-12 -2q-9 0 -10 2t-1 8t5.5 12t13 12t16.5 11t16 8q28 91 44 153t23 89
q-78 -18 -123.5 -35.5t-70.5 -32t-35 -23.5t-18 -9q-11 0 -15.5 1.5t-4.5 12.5q0 7 25.5 21.5t67.5 32.5t96 36.5t111 33.5t112 25t100 10q42 0 64.5 -9t22.5 -37z" />
    <glyph glyph-name="afii10052" unicode="&#x403;" horiz-adv-x="306" 
 />
    <glyph glyph-name="afii10053" unicode="&#x404;" horiz-adv-x="475" 
d="M655 672q68 -19 68 -35v-23q-69 -101 -115 -101h-44v9l43 52l-22 11q-189 0 -449 -243l-9 -18v-23q155 16 207 33q7 0 23 -9q56 9 89 9q76 0 76 -41q-19 -12 -229 -30q-214 -32 -214 -70v-8q0 -126 174 -126h48q50 0 178 33q9 0 27 -29q0 -34 -245 -58q-245 0 -245 161
q-16 0 -16 44q0 109 215 269q286 193 440 193z" />
    <glyph glyph-name="afii10054" unicode="&#x405;" horiz-adv-x="373" 
d="M465 677q88 -18 88 -118q0 -83 -159 -159h-18q-12 0 -12 12v6q2 9 112 106q18 30 18 59v17q-43 18 -53 18h-24q-182 -57 -182 -176q0 -99 118 -189q29 -23 47 -70q-20 -73 -177 -159q-29 -2 -29 -18l-12 6q-84 0 -129 -94q-45 -65 -53 -65q-24 6 -24 24q0 20 65 111v18
q-41 24 -41 94q0 55 105 130q28 0 59 -65q0 -23 -23 -106h12q83 0 182 118v11q-153 151 -153 236l-6 29q0 155 271 224h18zM53 94v-23q0 -9 17 -18q35 37 35 83q-5 17 -11 17q-41 -24 -41 -59z" />
    <glyph glyph-name="²" unicode="&#x406;" horiz-adv-x="434" 
d="M622 693q171 -11 171 -82q-25 -15 -45 -15q0 36 -175 41q-141 0 -282 -62h-10l-38 8v6q0 104 379 104zM539 582h25q0 -8 7 -21q-37 -86 -256 -358q-42 -101 -42 -121q32 -20 132 -20l16 8q15 -8 26 -8v-13q0 -28 -130 -28h-63q-13 0 -27 -9q-15 9 -28 9q-32 0 -184 -22
l-15 23q0 54 144 54h71q15 140 140 277q17 0 116 186q29 43 68 43z" />
    <glyph glyph-name="afii10056" unicode="&#x407;" horiz-adv-x="370" 
d="M590 801h32q24 0 35 -66q-8 -23 -35 -30q-54 22 -64 45v22q0 10 32 29zM447 786q46 -14 63 -52q0 -10 -41 -37l-18 8h-47l-14 44q46 37 57 37zM446 625h15q119 0 130 -67v-7q-23 0 -23 -8l-122 15q-98 -7 -138 -30q-58 15 -58 30q0 67 196 67zM509 536l7 -14
q-256 -350 -256 -427q125 -23 125 -44v-6q-5 -23 -64 -23h-88q-124 0 -209 -23l-24 39q0 27 86 58l16 -8q60 8 101 8h10q0 6 -7 43q50 133 227 359q31 38 76 38z" />
    <glyph glyph-name="afii10057" unicode="&#x408;" horiz-adv-x="362" 
d="M362 696q0 -3 -5 -13.5t-16.5 -36.5t-30 -70.5t-44.5 -115.5q-8 -20 -13 -34.5t-10 -29.5t-11.5 -33.5t-16.5 -46.5q-17 -47 -32 -87.5t-30.5 -75.5t-32.5 -65.5t-38 -57.5q-11 -14 -28 -30.5t-36.5 -31t-39.5 -24.5t-35 -10q-6 0 -6 3t-1 6q0 1 5.5 4.5t13 8.5t15 10.5
t12.5 10.5q13 14 22.5 26t16.5 24t13 26t14 34q14 34 39 101t64 176l85 234q7 18 11 29.5t6 16.5q7 17 13 27t11.5 15.5t11.5 8t15 5.5q5 2 22.5 3.5t29.5 1.5q6 0 6 -9z" />
    <glyph glyph-name="afii10058" unicode="&#x409;" horiz-adv-x="329" 
d="M352 442q32 -13 35 -28v-7l-180 -151v-14h7l48 7q103 -28 111 -56v-7q0 -59 -200 -158v-28q-8 0 -21 7q-69 -7 -104 -7q-25 29 -34 131q0 14 103 97q0 17 104 124v14h-41q-20 0 -166 -41q-14 0 -14 13v14q0 68 352 90zM90 69v-7h7q98 25 193 104v7l-7 13q-179 0 -179 -82
q-12 0 -14 -35z" />
    <glyph glyph-name="afii10059" unicode="&#x40a;" horiz-adv-x="765" 
d="M696 250q0 41 -13.5 66t-54.5 25q-26 0 -52.5 -13t-49.5 -33l-6 14q41 42 85 63.5t76 21.5q40 0 63 -22t23 -73q0 -30 -14.5 -66t-39 -71.5t-56.5 -68.5t-68 -58.5t-73.5 -41t-71.5 -15.5q-20 0 -38.5 4t-33 16t-23.5 33.5t-9 56.5q0 26 8.5 69t20 88t23 85.5t18.5 61.5
q-38 -25 -75 -43q-32 -17 -67.5 -30t-62.5 -13q-11 0 -19.5 0.5t-13.5 1.5q-6 1 -11 3q-3 -12 -9.5 -35.5t-14.5 -52.5t-17 -60t-17.5 -58.5t-16 -48t-11.5 -27.5q-13 -21 -28 -29t-24 -8q-19 0 -23.5 8t-4.5 25q0 6 6.5 28t15.5 49.5t18.5 55t15.5 44.5l51 131
q-5 6 -8.5 15t-3.5 26q0 7 4 15.5t10.5 16t14.5 12.5t17 5q18 54 34 100q7 19 13.5 38.5t12.5 36t11.5 28t8.5 16.5q12 17 21.5 25.5t17.5 11.5t13.5 3h10.5q8 0 8 -14q-1 -10 -10 -38.5t-23 -63.5l-64 -168q3 -9 11 -15q7 -6 20.5 -10.5t36.5 -4.5q28 0 56 9t51 21t38.5 24
t18.5 18q8 20 14 46t14 49q12 37 22.5 60.5t19.5 38t16.5 21.5t13.5 10q12 7 23.5 12.5t17.5 5.5q8 0 8.5 -4t0.5 -12q0 -6 -5 -24t-15 -46t-24 -64.5t-32 -78.5q-14 -43 -28 -91t-25.5 -95t-19 -89.5t-7.5 -74.5t16.5 -52.5t53.5 -20.5q46 0 84.5 22.5t66.5 55.5t43.5 71
t15.5 70z" />
    <glyph glyph-name="afii10060" unicode="&#x40b;" horiz-adv-x="616" 
d="M673 136q-26 -25 -55.5 -51.5t-69.5 -52.5q-22 -14 -38.5 -23t-29.5 -13.5t-22.5 -6t-17.5 -1.5q-18 0 -29 6t-16.5 15.5t-7 20.5t-1.5 22q0 14 7 46t16 69.5t16 73t7 56.5q0 15 -0.5 29t-7.5 25t-23.5 18t-48.5 7q-7 0 -17 -1.5t-20.5 -4t-20 -5.5t-15.5 -6
q-4 -12 -10 -34t-11 -39q-10 -37 -19.5 -76t-18 -73.5t-16.5 -61t-15 -37.5q-11 -20 -25 -33t-31 -13q-12 0 -15 7t-3 16t5.5 27t13.5 42.5t18 54.5t19 63q10 37 18 67q7 26 13 48.5t8 25.5q-6 -2 -13 -6t-12 -4q-9 0 -10 2t-1 8t5.5 12t13 12t16.5 11t16 8q28 91 44 153
t23 89q-78 -18 -123.5 -35.5t-70.5 -32t-35 -23.5t-18 -9q-11 0 -15.5 1.5t-4.5 12.5q0 7 25.5 21.5t67.5 32.5t96 36.5t111 33.5t112 25t100 10q42 0 64.5 -9t22.5 -37q0 -12 -11 -23.5t-27 -21.5t-35 -18t-35 -14l-3 7q24 13 29.5 25t5.5 25q0 22 -78 22q-23 0 -35.5 -1
t-22 -2.5t-20 -4t-29.5 -5.5q-12 -51 -28.5 -111.5t-41.5 -130.5q20 4 40 9t53 5q55 0 86.5 -20.5t31.5 -71.5q0 -28 -7 -66t-15.5 -74t-15.5 -65t-7 -38q0 -4 0.5 -11.5t3.5 -14.5t9 -12t18 -5q19 0 39 9t41.5 24.5t44.5 36.5t48 44l10 -16v0z" />
    <glyph glyph-name="afii10061" unicode="&#x40c;" horiz-adv-x="610" 
d="M543 883q0 -4 -11.5 -19t-30 -35t-41 -42t-43.5 -41q-2 -2 -9 -6t-12 -4t-5.5 2t-0.5 6q0 3 6.5 15t16.5 28t20 33t18 29q14 23 32 35.5t48 12.5q9 0 10.5 -3t1.5 -11zM651 662q0 -16 -8.5 -32.5t-22.5 -31.5t-31.5 -28t-34.5 -21l-4 6q10 11 17 23.5t7 24.5q0 18 -20 18
q-18 0 -47.5 -15t-62.5 -47q-22 -21 -45.5 -46t-43.5 -46q-24 -26 -47 -50q3 -6 7 -15q3 -8 6.5 -18t8.5 -23q7 -24 16 -50t17.5 -51t17 -48.5t15.5 -42.5q25 -67 53 -109t61 -42q28 0 51.5 12.5t58.5 41.5l7 -21q-51 -51 -94 -71.5t-85 -20.5q-15 0 -31.5 7t-34 24
t-34.5 45.5t-32 71.5q-12 33 -23.5 69t-22 67.5t-18.5 56.5t-12 36q-8 -14 -30.5 -43.5t-44.5 -85.5q-8 -19 -14.5 -38t-11.5 -34q-6 -18 -10 -35q-5 -15 -8 -27.5t-7 -19.5q-5 -12 -12 -20q-8 -11 -23.5 -21.5t-29.5 -10.5q-21 0 -21 18q0 5 5.5 25t15 51t22 71t26.5 85
q13 42 26.5 86.5t27 88.5t26.5 84.5t25 75.5q4 11 9 24.5t10 26.5t10 24t9 17q6 9 16.5 15.5t21.5 11t21.5 6.5t17.5 2q4 0 4 -13q0 -5 -3.5 -14t-8.5 -20t-10 -22.5t-9 -21.5q-10 -26 -25 -71.5t-30.5 -93.5t-28.5 -90.5t-19 -63.5l3 -1l40 54q2 10 6 25.5t21 32.5
q7 7 16 10t14 3q25 28 45.5 50.5t39.5 42.5t37 38.5t38 38.5t42.5 36t45 27.5t43 17.5t37.5 6q4 0 10 -0.5t12 -2.5t10 -6.5t4 -12.5z" />
    <glyph glyph-name="afii10062" unicode="&#x40e;" horiz-adv-x="624" 
d="M463 753q0 4 2.5 10.5t4.5 11.5q6 14 16.5 24.5t27.5 10.5q6 0 10.5 -3t14 -6.5t26 -6.5t46.5 -3q23 0 53.5 16.5t53.5 43.5q12 13 17 33q4 18 25 18q12 0 11 -16q0 -8 -11 -26t-33 -38t-42.5 -35t-40.5 -25q-35 -17 -67.5 -25.5t-55.5 -8.5q-24 -1 -41.5 6.5t-16.5 18.5
zM693 683q0 -17 -7.5 -35.5t-18 -38t-23 -38t-21.5 -33.5q-28 -81 -53.5 -155t-56.5 -139q-59 -125 -149 -196t-198 -71q-42 0 -64.5 8t-21.5 23q0 2 3.5 11t15.5 9q9 0 14 -5l10.5 -10.5t13 -10.5t21.5 -5q42 0 75.5 9.5t62.5 30.5t56 55t57 84q15 25 28 53.5t27 62.5
t29.5 73.5t34.5 85.5l-3 1q-11 -14 -33.5 -34.5t-51 -44t-60 -47.5t-59.5 -44q-7 -5 -18.5 -11t-24.5 -11t-26.5 -8.5t-25.5 -3.5q-13 0 -17 9.5t-4 29.5q0 9 7 30t17 47.5t21.5 54t20.5 49.5q11 25 20.5 50.5t16 48t10.5 40t4 28.5t-4 19.5t-22 8.5q-16 0 -35 -7t-35.5 -16
t-29.5 -18t-17 -12q-19 -16 -40.5 -34.5t-41.5 -47.5q-11 -15 -14.5 -32.5t-6.5 -32t-9 -24t-20 -9.5q-9 0 -15.5 3.5t-6.5 12.5q0 24 18 53t43.5 57t53.5 51.5t49 36.5q51 32 93.5 52t88.5 20q12 0 18 -5.5t9 -13.5t3.5 -18.5t0.5 -20.5q0 -12 -5 -32.5t-12.5 -44t-16 -48
t-16.5 -46.5q-7 -18 -16 -42.5t-17 -47.5t-13.5 -41t-5.5 -22q0 -11 13 -11q8 0 13.5 2.5t15.5 7.5q22 9 51.5 32.5t60 52.5t57 61t42.5 58q9 28 18 50.5t18 41.5q17 35 31 47q26 22 60 23q13 0 13 -16z" />
    <glyph glyph-name="afii10145" unicode="&#x40f;" horiz-adv-x="743" 
d="M378 48q-12 -26 -17.5 -51.5t-10.5 -64.5q-2 -17 -4.5 -39t-7 -45t-11 -45t-15.5 -39q-18 -35 -38.5 -58t-52.5 -47l-5 8q19 23 29 48t16 52.5t9.5 57.5t8.5 63q5 32 25.5 74t65.5 88l8 -2v0zM778 104q-93 -77 -154 -107.5t-88 -30.5q-16 0 -25.5 5.5t-14 13.5t-5.5 18.5
t-1 20.5q0 25 10.5 70.5t27 104t37.5 126t43 135.5q-13 -16 -23.5 -29t-23 -27.5t-27.5 -32.5t-36.5 -43t-52 -60t-72.5 -83q-26 -29 -47.5 -53.5t-42 -46t-41 -41t-43.5 -40.5q-8 -8 -30 -17q-18 -8 -32 -9q-14 0 -21 14q-4 13 -3 35q2 21 37 113q28 70 47 118t33 82.5
t23.5 59t18 47t17 48t20.5 62.5q5 15 7.5 23.5t3.5 14t1 9.5v9q0 11 -4 19.5t-22 8.5q-16 0 -35 -7t-35.5 -16t-29.5 -18t-17 -12q-19 -16 -40.5 -34.5t-41.5 -47.5q-11 -15 -14.5 -32.5t-6.5 -32t-9 -24t-20 -9.5q-9 0 -15.5 3.5t-6.5 12.5q0 24 18 53t43.5 57t53.5 51.5
t49 36.5q51 32 93.5 52t88.5 20q12 0 18 -5.5t9 -13.5t3.5 -18.5t0.5 -20.5q0 -19 -22.5 -97.5t-82.5 -228.5q-14 -34 -26 -67.5t-22 -61.5t-16 -47.5t-6 -26.5q-1 -10 6 -11q12 0 44.5 27.5t83.5 84.5q10 12 34.5 40.5t57 67.5t70 85.5t72.5 94.5q18 24 28 38t16.5 23.5
t11.5 17.5t13 21q15 23 27.5 32.5t26.5 17.5q10 5 24 5.5t19 0.5q8 0 8 -9q-1 -5 -5 -12t-12 -25q-14 -29 -26 -57t-24 -58t-24.5 -64.5t-28.5 -76.5q-10 -27 -23 -68.5t-25 -85t-20 -83t-8 -63.5q0 -4 0.5 -9.5t2.5 -10t7.5 -7.5t15.5 -3q16 0 37.5 9t44.5 23.5t45.5 32.5
t42.5 35l10 -16v0z" />
    <glyph glyph-name="afii10017" unicode="&#x410;" horiz-adv-x="381" 
d="M419 677h7q9 0 19 -19q-60 -127 -129 -426q49 -24 97 -32v-7q-29 -12 -84 -12h-26q-27 -142 -45 -142l-39 -7q0 7 -6 20q0 4 19 135h-6q-129 0 -129 -71q-11 0 -26 -84q-21 -32 -52 -32h-13l-6 26q0 22 45 122v7q-26 13 -26 38q0 24 84 46q171 315 213 367q6 0 6 7
q8 -7 39 -7q20 71 58 71zM168 239q6 0 6 -7q97 0 97 58q0 26 58 206v26q-18 0 -78 -135q-83 -118 -83 -148z" />
    <glyph glyph-name="afii10018" unicode="&#x411;" horiz-adv-x="580" 
d="M549 627q124 -12 124 -74q-9 0 -25 -8q-32 17 -90 17q-255 0 -255 -58h8q-56 -69 -74 -131h8q78 16 99 16q150 0 246 -140v-24q0 -157 -320 -222q-76 8 -156 33q-49 -33 -90 -33q-25 30 -25 57q79 180 214 411v17q-57 0 -66 41q27 80 402 98zM114 110q0 -28 131 -33h33
q238 29 238 140v41q-55 65 -156 65q-213 -13 -213 -131q-33 -27 -33 -82z" />
    <glyph glyph-name="afii10019" unicode="&#x412;" horiz-adv-x="608" 
d="M509 661q137 -29 137 -89q0 -69 -178 -194v-16q71 0 146 -105q8 -14 8 -32v-24q0 -116 -186 -178q-32 -16 -89 -16h-56q-112 0 -194 89h-16q-19 -97 -41 -97h-16q-11 0 -24 24v24q0 39 234 396q0 21 57 81v8l-8 16q88 113 226 113zM274 370h17q94 0 282 170l8 32
q-26 16 -48 16h-73q-113 -20 -113 -72q0 -20 -73 -138v-8zM218 306q0 -20 -97 -162q64 -80 178 -80q191 0 258 121v64q-36 46 -81 57q-46 0 -202 -8z" />
    <glyph glyph-name="afii10020" unicode="&#x413;" horiz-adv-x="515" 
d="M845 681h26q17 -3 17 -17v-9q0 -38 -155 -172q-78 -87 -138 -164q-26 6 -35 34q0 29 147 207v9h-9q-370 -34 -370 -121q-250 -359 -250 -422q0 -13 -26 -26h-26q-13 0 -26 34q0 62 259 432v8l-18 26v17q0 65 457 112q119 26 147 52z" />
    <glyph glyph-name="afii10021" unicode="&#x414;" horiz-adv-x="754" 
d="M451 686q108 0 250 -157q100 -155 100 -215q-18 -141 -128 -250q-81 -64 -151 -64q-29 5 -116 143l-34 27h-5q-38 -9 -120 -128h-60l-8 17q0 63 205 236q0 6 75 94q-4 0 -4 7l-46 -7h-8q-399 45 -399 130l-7 29q0 109 392 138h64zM72 548q0 -76 427 -110q71 92 115 92
q17 0 17 -25l-27 -75q98 -16 98 -31v-10q-190 0 -220 -77q-19 -7 -63 -69v-13q105 -160 145 -160q174 103 174 259v27q-87 225 -153 225q-61 49 -120 49h-49q-344 -25 -344 -82z" />
    <glyph glyph-name="afii10022" unicode="&#x415;" horiz-adv-x="710" 
d="M749 624q18 0 36 -38q0 -48 -70 -60h-23l-42 25q-226 0 -313 -111q0 -67 251 -81l13 -27q-40 -22 -40 -46h-78q-13 0 -13 -5l-11 5q-379 -86 -379 -188q5 -23 71 -46q130 6 130 14l11 -6q140 17 340 25q43 -8 95 -8v-8q-275 -65 -584 -65h-16q-112 0 -136 95
q0 107 348 211v23q-83 62 -83 97q0 97 310 177l49 -8h11q15 17 123 25z" />
    <glyph glyph-name="afii10024" unicode="&#x416;" horiz-adv-x="927" 
d="M434 675q45 0 65 -81q-25 -56 -25 -104h19q54 0 225 162q13 7 18 7q25 -10 25 -16q0 -24 -126 -173v-31h21q217 163 361 202q13 -2 48 -44q0 -51 -205 -122q-284 -174 -284 -351q33 -31 52 -31q48 0 432 161h5v12q-291 -200 -478 -220q-67 32 -67 91q0 14 19 103h-26
q-72 -93 -136 -203h-61q-7 0 -7 7v22q146 222 202 321v32q-82 -16 -446 -392q-39 -15 -55 -15l-5 9v37q65 88 326 317q96 112 114 223l-26 13h-11q-117 0 -285 -256q-77 -48 -92 -48q-26 10 -26 16v8q0 58 291 287q95 57 138 57z" />
    <glyph glyph-name="afii10025" unicode="&#x417;" horiz-adv-x="527" 
d="M367 665q66 0 86 -94v-7q-5 -59 -108 -158q0 -11 173 -86q43 -58 43 -87q0 -64 -129 -158q-105 -48 -245 -72q-131 0 -187 101q23 79 79 79l-7 -72v-7q51 -36 129 -36h8q295 40 295 194q0 37 -130 65h-122q-7 0 -7 -7q-14 7 -22 7q-24 -15 -43 -15l-7 15v29
q151 100 180 136q28 30 28 72v7q0 15 -14 15h-22q-47 0 -136 -108h-22q-43 0 -43 36q52 96 201 151h22z" />
    <glyph glyph-name="afii10026" unicode="&#x418;" horiz-adv-x="522" 
d="M817 671q0 -10 16 -36q-50 -79 -358 -423q-42 -73 -74 -165h-13q-20 7 -20 45v17q0 15 18 88h-15q-17 0 -270 -167q-58 -25 -64 -25q-20 0 -37 54q35 110 325 448q63 106 120 123q14 -8 30 -8v-27q-57 -87 -300 -350q-68 -100 -68 -133q8 0 8 -12q386 234 427 314
q28 18 233 250z" />
    <glyph glyph-name="afii10027" unicode="&#x419;" horiz-adv-x="571" 
d="M866 794v0q-6 -12 -6 -15h-27l-198 -77q0 -20 -34 -42h-17q-6 0 -14 15v10q76 109 296 109zM398 646h25q10 0 22 -23v-15q-55 -95 -240 -302q-117 -170 -117 -213h14q53 0 431 242q92 74 277 286l25 16h24l23 -15q-10 -85 -338 -387q-12 -28 -72 -117v-82q0 -13 -13 -13
h-7q-50 33 -50 66q0 39 26 79v33h-15q-294 -196 -355 -196q-58 11 -58 57q0 83 373 568z" />
    <glyph glyph-name="afii10028" unicode="&#x41a;" horiz-adv-x="551" 
d="M379 685h11q0 -8 8 -24q-87 -175 -155 -287v-15h16q220 187 397 252q63 -21 68 -56q0 -85 -104 -164q-8 0 -8 25q2 15 40 66v48h-13q-116 -11 -339 -206q-41 -110 -41 -153v-41q0 -11 35 -32h44q57 0 208 63l8 -15q-123 -122 -265 -122q-77 0 -101 106v41h-34
q-72 -163 -121 -163q-13 -8 -33 -8v24q0 42 172 320q140 308 169 333z" />
    <glyph glyph-name="afii10029" unicode="&#x41b;" horiz-adv-x="527" 
d="M808 688q29 0 44 -36q0 -45 -315 -373q-120 -141 -157 -256q-16 0 -16 -8q-31 8 -39 33q13 122 256 373q166 165 166 175q-6 0 -6 5q-41 -7 -307 -292q-289 -316 -397 -316h-12q-25 0 -25 61q0 86 59 122h39q0 -12 11 -12q-35 -63 -35 -80v-17h-1q75 0 526 480
q140 136 209 141z" />
    <glyph glyph-name="afii10030" unicode="&#x41c;" horiz-adv-x="604" 
d="M746 686q20 0 39 -19q0 -47 -316 -383q0 -10 -40 -60l7 -13q248 161 402 297q118 145 152 145q33 -8 33 -19v-7q-91 -135 -244 -244q-231 -213 -231 -277v-7q0 -15 6 -26q-9 -33 -46 -33q-26 26 -26 39q0 37 46 139q-65 -40 -211 -172q-41 -20 -53 -20q-13 0 -13 14v13
q0 43 92 165h-13q-44 -44 -277 -218h-27q-17 0 -26 53v6q52 132 106 132q33 0 33 -33q-9 0 -60 -59q2 -13 13 -13q7 24 146 119q242 212 343 316q155 165 165 165z" />
    <glyph glyph-name="afii10031" unicode="&#x41d;" horiz-adv-x="507" 
d="M795 677l9 -17v-25q-373 -468 -406 -610h-26l-25 17q39 152 110 263v8q-75 -17 -102 -17q-13 0 -101 9q-66 -75 -212 -305h-25q-17 0 -17 17v17q0 35 178 288q0 40 84 127q111 220 153 220q16 -9 25 -9v-17q0 -32 -127 -245v-17l42 -9q229 0 229 110q151 187 178 187
q4 0 33 8z" />
    <glyph glyph-name="afii10032" unicode="&#x41e;" horiz-adv-x="458" 
d="M601 685q62 0 99 -114q-10 0 -30 -107q-122 -218 -404 -380q-32 -33 -190 -84q-76 0 -76 76v46q0 105 167 274q13 0 77 91q212 181 357 198zM76 99v-15q2 -15 15 -15q69 4 328 182q198 168 243 289q0 74 -76 84q-125 0 -365 -259q-114 -146 -114 -258z" />
    <glyph glyph-name="afii10033" unicode="&#x41f;" horiz-adv-x="522" 
d="M780 648q57 -5 57 -22v-24q-429 -400 -469 -539h-28l-8 40q1 96 338 441v25h-23q-201 0 -244 -82q-338 -385 -338 -468q-45 0 -45 -17q-15 2 -25 39q26 124 319 423l10 41q-36 18 -36 50q0 84 474 93h18z" />
    <glyph glyph-name="afii10034" unicode="&#x420;" horiz-adv-x="511" 
d="M554 681q166 -29 166 -145v-7q0 -84 -115 -160q-156 -79 -297 -79q-16 7 -80 14q-62 -66 -167 -297q-12 -7 -29 -7h-22q-14 0 -14 22q0 47 174 319q0 16 109 166q0 95 72 116q135 58 203 58zM264 369v-14q16 0 29 -7q355 30 355 188v22q-39 65 -94 65q-153 0 -275 -239
q-15 -2 -15 -15z" />
    <glyph glyph-name="afii10035" unicode="&#x421;" horiz-adv-x="572" 
d="M607 676h17q45 0 73 -48q0 -42 -126 -140h-19v3q0 4 27 89l-23 11h-10q-209 -29 -426 -304q-35 -69 -35 -132q12 -82 82 -82h26q131 0 336 34q14 -9 35 -9h10l14 8l12 -18q-160 -83 -433 -83q-167 0 -167 167q0 174 351 410q145 94 256 94z" />
    <glyph glyph-name="afii10036" unicode="&#x422;" horiz-adv-x="231" 
d="M499 673h8q72 0 217 -7l14 -22v-14q0 -22 -79 -22h-58q-39 0 -65 7q-38 -7 -73 -7h-51q-264 -36 -376 -116q-33 14 -36 29v7q0 74 384 131q31 14 115 14zM360 550q57 -7 57 -22v-7q-193 -229 -354 -492q-36 -21 -36 -29l7 -14h-15q0 6 -14 58v29q310 442 355 477zM0 22h7
q15 -3 15 -15v-7q-11 0 -22 22z" />
    <glyph glyph-name="afii10037" unicode="&#x423;" horiz-adv-x="426" 
d="M619 677q33 -14 36 -29q0 -87 -124 -168q-41 -88 -116 -436q-73 -39 -73 -44q-67 0 -327 109q-15 0 -15 22q7 29 29 29q172 -65 277 -87h14q66 0 66 153q29 77 43 203h-7q-86 -50 -204 -72q-72 0 -72 94q0 99 116 204h36q15 -2 15 -14v-15q-95 -90 -95 -160v-37h22
q255 48 255 146q56 84 124 102z" />
    <glyph glyph-name="afii10038" unicode="&#x424;" horiz-adv-x="649" 
d="M806 677q107 -28 107 -160q0 -164 -327 -281q-102 -23 -130 -23l-53 30h-15q-126 -112 -183 -235q-6 0 -60 -8l-8 15v15q0 40 114 191q0 18 68 137l-15 7q-191 -152 -243 -152h-31q-30 8 -30 76q0 142 236 320q96 38 122 38h15q83 0 83 -69v-30h31q225 129 319 129z
M639 563l8 -31q0 -60 -61 -60q-152 -136 -152 -183q30 -15 53 -15q357 91 357 251v38q0 61 -68 61q-85 -23 -137 -61zM61 304q7 -14 7 -23h23q312 191 312 267v23q0 15 -15 15q-193 0 -327 -282zM396 388l15 -8q37 40 76 92v7h-15q-60 -33 -76 -91z" />
    <glyph glyph-name="afii10039" unicode="&#x425;" horiz-adv-x="726" 
d="M555 687q28 0 60 -54q-7 -61 -7 -78h17q126 96 194 104q30 -13 33 -26v-13q-85 -82 -312 -215q-196 -164 -196 -245q0 -37 37 -37q144 35 450 132v-10q-352 -180 -478 -180q-82 0 -82 97q-31 0 -156 -119q-67 -41 -89 -41h-19l-7 33q51 156 368 332q118 51 189 231v23h-9
q-65 0 -218 -119q-29 -89 -88 -89h-7q-31 8 -33 25q41 88 263 221q78 28 90 28z" />
    <glyph glyph-name="afii10040" unicode="&#x426;" horiz-adv-x="698" 
d="M435 665h39q16 -2 16 -16q0 -47 -166 -173q-236 -294 -236 -371v-16h23q55 47 411 276q148 109 315 268l48 24l39 -8v-16q0 -22 -205 -213q-158 -231 -158 -386v-16l190 39v-7l-119 -87q0 -16 -63 -24q-38 -191 -95 -197q-102 -79 -189 -79q-110 0 -110 63
q110 151 236 213q0 27 71 32l8 15v48q0 61 87 292h-8q-22 0 -442 -292q-69 -26 -71 -32q-55 13 -55 48q0 109 174 339q72 111 260 276zM277 -242q12 -32 24 -32q189 39 189 158v16q-79 0 -213 -142z" />
    <glyph glyph-name="afii10041" unicode="&#x427;" horiz-adv-x="572" 
d="M432 670q13 -21 13 -40q0 -15 -107 -149v-26h18q216 108 308 165q25 0 45 -26q-25 -51 -227 -162q-251 -220 -309 -309v-40q26 0 362 136q100 36 114 36h11v-17q-467 -235 -554 -235q-20 37 -20 61q0 81 229 285v26q-9 0 -46 -7q-30 13 -33 26v14l22 71v18h-12
q-208 -186 -220 -186q-26 6 -26 39q9 36 264 228q125 92 168 92z" />
    <glyph glyph-name="afii10042" unicode="&#x428;" horiz-adv-x="1015" 
d="M1037 672l34 -26q0 -18 -403 -370l-76 -105v-37q504 206 694 426l112 74h15l24 -24q-43 -80 -232 -221q-236 -270 -282 -374q-30 8 -30 51q0 42 66 130v35h-25q-308 -172 -394 -188q-54 0 -60 69q47 115 47 128q-32 0 -440 -226q-50 -9 -71 -9l-16 25v63q208 324 439 541
h63q15 -2 15 -13v-8l-244 -252q-161 -202 -161 -256q95 40 487 257q159 87 423 310h15z" />
    <glyph glyph-name="afii10043" unicode="&#x429;" horiz-adv-x="1038" 
d="M439 658l14 -20q0 -48 -302 -417q0 -24 -48 -72q9 -18 9 -34q410 231 587 394q59 78 100 78h26v-11q0 -35 -149 -163q-263 -255 -263 -326h14q369 237 369 281q235 250 288 250q28 0 35 -27q0 -32 -118 -106l-198 -215q-57 -93 -57 -125l20 -10q48 0 159 23
q51 -15 51 -42q-8 -70 -8 -92h14q54 24 81 24v-1q-71 -53 -71 -66v-17l-27 7q-54 -12 -210 -216q-55 -53 -100 -70q-73 10 -73 66q12 69 222 196q0 9 78 55q25 57 25 87h-14q-95 -16 -150 -16q-56 0 -66 90l9 19l-23 11q-243 -191 -300 -191q-20 0 -27 -4q0 5 -16 55
q0 27 83 163h-17q-19 0 -295 -191l-54 -15h-15q-7 0 -27 44q0 57 285 432q97 172 159 172z" />
    <glyph glyph-name="afii10045" unicode="&#x42b;" horiz-adv-x="677" 
d="M869 669l31 -8q67 8 115 8l23 -31v-15q0 -73 -307 -377q-27 -40 -100 -131v-46q-54 -13 -54 -23q-31 6 -31 62q66 110 392 461v15q0 16 -23 16q-569 0 -569 -123q80 -98 115 -185q0 -135 -330 -277q-66 -15 -85 -15t-46 62q0 72 254 430v39q0 7 -8 7q0 103 623 131z
M85 92q7 0 7 -7q139 0 308 192v15q0 53 -92 139q-39 0 -193 -270q0 -19 -30 -69z" />
    <glyph glyph-name="afii10046" unicode="&#x42c;" horiz-adv-x="471" 
d="M390 681q27 -7 44 -29q0 -33 -162 -295h15q71 22 110 22q125 -8 125 -125q0 -63 -147 -176q-46 0 -88 -59h-7l-22 14q-15 0 -15 -29l-22 15h-15l-22 -15q-70 59 -103 59q-29 -15 -29 -37h-15q-37 22 -37 52q0 16 184 287q103 169 140 213q0 49 66 103zM140 122
q0 -11 22 -22h44q250 45 250 184q0 10 -22 22h-95q-86 -30 -199 -162v-22zM287 19h7q15 -3 15 -15h-22v15z" />
    <glyph glyph-name="afii10047" unicode="&#x42d;" horiz-adv-x="324" 
d="M366 685q115 0 150 -116q0 -20 7 -20q0 -223 -375 -519q-36 -27 -75 -27q-20 48 -27 48q8 34 20 34h7l20 -14q84 24 239 205q0 13 -13 13q-63 0 -280 -68h-14q-10 0 -27 28v13q0 34 225 75h41q7 0 7 7l13 -7q144 0 144 102q17 0 27 76v54q-30 48 -68 48h-14
q-142 0 -211 -130l-14 -7q-13 7 -20 7v48q0 99 238 150z" />
    <glyph glyph-name="afii10048" unicode="&#x42e;" horiz-adv-x="796" 
d="M874 685q159 -20 159 -143h7q0 -198 -535 -490q-79 -23 -83 -23q-60 21 -60 68q0 53 98 219h-8q-267 -148 -354 -257q-23 -60 -75 -60l-23 45q0 126 166 189q149 201 211 346q42 46 90 46q0 -64 -173 -309v-15h8q156 51 278 188q143 173 227 173q28 23 67 23zM437 120
v-15h15q155 20 445 278q83 99 83 136v45q-33 61 -83 61h-53q-168 -103 -294 -309q-8 -83 -60 -83q-53 -61 -53 -113z" />
    <glyph glyph-name="afii10049" unicode="&#x42f;" horiz-adv-x="529" 
d="M648 685q75 -29 75 -89q18 0 34 -21q0 -33 -96 -164l7 -14v-14q-41 -34 -103 -164q-79 -158 -123 -158h-14q0 7 -7 20q10 35 90 192h-7q-315 -225 -460 -267h-27q-14 0 -14 14q0 48 89 55q11 0 295 178v20q-137 0 -137 97v6q95 202 343 302q28 0 55 7zM305 349l20 -14h55
q247 41 247 137q21 10 41 96v35q0 10 -27 27h-14q-141 0 -315 -240z" />
    <glyph glyph-name="afii10065" unicode="&#x430;" horiz-adv-x="377" 
d="M342 434q51 0 141 -107v-7q-188 -221 -188 -275q0 -43 -47 -74l-27 47l7 34q-7 11 -7 26h-6q-125 -73 -155 -73q-47 0 -60 80q0 125 221 295zM74 105v-27h7q68 0 214 128q27 20 34 94q47 22 47 47q-26 20 -40 20q-100 0 -215 -154q-47 -73 -47 -108z" />
    <glyph glyph-name="afii10066" unicode="&#x431;" horiz-adv-x="335" 
d="M747 694l9 -18l-31 -23q-14 8 -20 8q-43 -26 -313 -68q-125 -42 -133 -64q163 -89 163 -165v-27q0 -183 -343 -337h-15q-64 0 -64 85q91 212 289 310q30 -12 30 -24q0 -34 -103 -98q-135 -129 -135 -193q14 -2 14 -11q273 139 273 254v40q-70 107 -216 107q-36 19 -36 30
v7q0 121 631 187z" />
    <glyph glyph-name="afii10067" unicode="&#x432;" horiz-adv-x="260" 
d="M538 685q58 -25 58 -75q0 -117 -372 -308q-118 -90 -118 -102h1q43 22 99 33q64 -25 64 -86q0 -48 -123 -134q-52 -17 -67 -17q-68 0 -80 107q0 105 257 401q125 127 181 127q25 34 100 54zM192 342h-4q357 177 357 263v5q0 6 -14 13h-20q-102 0 -319 -281zM73 66
q6 -10 6 -13h7q60 0 126 90v11q-5 0 -19 11h-9q-111 -23 -111 -99z" />
    <glyph glyph-name="afii10068" unicode="&#x433;" horiz-adv-x="608" 
d="M452 388q48 0 85 -42q0 -54 -278 -249v-23q389 35 407 35v-5q-87 -40 -428 -99h-80q-27 11 -27 45v4q31 42 255 198q22 43 44 43v31h-71q-58 0 -129 -66l7 -49l-27 -13q-108 12 -108 38q0 117 350 152z" />
    <glyph glyph-name="afii10069" unicode="&#x434;" horiz-adv-x="491" 
d="M383 449h43q58 0 58 -52v-37q0 -37 -166 -223v-8h3l252 61h10v-17q-283 -112 -289 -122q0 -17 -51 -32q-246 -438 -384 -438q-138 77 -138 169q0 107 333 267q0 32 76 32q114 46 114 101v3q-61 -18 -77 -18q-58 13 -58 59q0 123 236 249zM177 213l16 -10q79 0 157 85
l5 11l-6 36q0 7 31 44v2h-16q-81 0 -181 -151q0 -7 -6 -17zM-205 -268q0 -56 84 -90h10q150 118 220 270q49 70 49 88q-6 0 -6 4q-357 -145 -357 -272z" />
    <glyph glyph-name="afii10070" unicode="&#x435;" horiz-adv-x="665" 
d="M451 418h14q69 -13 121 -78v-29q-203 -135 -327 -135h-29q-11 0 -28 28v15q0 42 42 42l50 -7q185 41 185 71v15q-60 14 -71 14q-278 -53 -278 -178v-7q0 -93 164 -93v7l14 -7q77 0 349 43v-14q0 -52 -370 -93q-235 22 -235 157v7q0 175 399 242z" />
    <glyph glyph-name="afii10072" unicode="&#x436;" horiz-adv-x="874" 
d="M347 429q13 -5 13 -44q-21 -60 -47 -88v-12h44l244 104q14 -8 15 -23q0 -18 -177 -178q-2 0 -2 -27q170 73 375 208q4 2 8 2l5 -4q-6 0 1 -13q0 -59 -179 -166l-62 -77v-4h38q92 17 262 66v15q-85 -97 -296 -155q-53 0 -53 93h-47q-138 -86 -214 -109q0 5 24 5
q0 5 -20 19q6 62 102 167v4q-91 0 -302 -176q5 -3 -51 -3q-10 -27 0 -27q12 0 -5 28q0 40 210 236v36l-215 -133l48 8q-60 0 -66 7q1 99 347 241z" />
    <glyph glyph-name="afii10073" unicode="&#x437;" horiz-adv-x="523" 
d="M401 439h21q54 0 54 -54v-7q0 -55 -122 -168q61 -64 61 -101v-13q0 -7 -7 -7q7 -20 14 -20q114 20 141 20v-7q0 -15 -188 -94q-253 -327 -499 -404h-26q-61 20 -61 88q17 86 121 168q68 49 216 135q2 13 13 13l27 -7q175 56 175 88v40q0 10 -20 20h-34q-33 0 -175 -80
h-20l-7 13v34q82 94 148 94q39 0 168 168v14h-33q-52 0 -195 -128h-7q-40 7 -40 20q0 116 275 175zM-137 -328q7 -13 7 -20h6q120 0 391 289v20q-404 -137 -404 -289z" />
    <glyph glyph-name="afii10074" unicode="&#x438;" horiz-adv-x="487" 
d="M287 406h9q3 0 18 -25v-3q-48 -77 -206 -257v-32h28q266 83 404 245q81 72 116 72h8q2 0 10 -16v-6q0 -39 -193 -199q-63 -61 -122 -197l-4 -2q-18 7 -18 46v81h-47q-92 -62 -218 -103q-52 11 -52 65q0 99 244 326q9 5 23 5z" />
    <glyph glyph-name="afii10075" unicode="&#x439;" horiz-adv-x="491" 
d="M907 766l-1 4q-437 -123 -437 -195q0 -39 -56 -39q-18 0 -38 39q28 65 169 125q211 50 363 66zM269 421l17 -8v-14q0 -65 -179 -267v-44q205 31 369 243l89 73h13q30 0 48 -26q0 -39 -201 -217q-20 -24 -29 -94q9 -35 9 -52l-8 -3h-6q-55 0 -66 102h-31
q-182 -111 -263 -111q-19 23 -19 48q0 102 234 364q10 6 23 6z" />
    <glyph glyph-name="afii10076" unicode="&#x43a;" horiz-adv-x="406" 
d="M496 434q26 -9 38 -32v-19q-4 -55 -94 -122h-16v22q36 39 50 74l-19 9q-220 -81 -220 -185q0 -13 -14 -69q0 -46 53 -46q38 0 111 20q24 -9 24 -16v-7q0 -26 -184 -59q-25 0 -72 67v5l8 53q-8 0 -8 7q-18 0 -96 -111q-17 0 -35 -14h-12q-10 0 -10 10v14q0 18 131 234
q24 28 42 95q9 0 68 49h19q9 0 23 -24q-27 -40 -27 -66h12q179 111 228 111z" />
    <glyph glyph-name="afii10077" unicode="&#x43b;" horiz-adv-x="381" 
d="M484 438q18 0 23 -35q-38 -85 -146 -261q-33 -112 -52 -112h-15q-15 61 -22 61q51 100 51 117l-230 -189l-32 -19q-59 17 -59 83q18 101 115 101l14 -21q0 -13 -48 -58v-12h7q100 56 368 345h26z" />
    <glyph glyph-name="afii10078" unicode="&#x43c;" horiz-adv-x="677" 
d="M825 438q34 -9 34 -17v-15q-34 -53 -307 -331q-18 -37 -18 -46h-25q-12 2 -38 79q-47 -30 -160 -54l-51 60q-207 -102 -234 -102q-43 15 -43 25v9q0 127 135 183h14q22 -6 26 -23q-58 -64 -58 -102h18q141 47 379 277l56 40h14q26 0 39 -16l-244 -262l29 -14
q143 37 401 288q0 12 33 21z" />
    <glyph glyph-name="afii10079" unicode="&#x43d;" horiz-adv-x="385" 
d="M509 445q25 -8 30 -32q-196 -250 -224 -393q-18 -23 -24 -23q-14 0 -32 52l49 173h-3q-166 0 -236 -173q0 -13 -15 -45q-54 7 -54 45q0 57 226 339l29 15q32 -12 32 -24v-15q-49 -64 -49 -80h11q158 0 158 89q57 70 102 72z" />
    <glyph glyph-name="afii10080" unicode="&#x43e;" horiz-adv-x="483" 
d="M446 430q136 -14 136 -100q-44 -138 -139 -188q-214 -134 -342 -134h-31q-60 34 -70 93q21 107 173 221q159 108 273 108zM110 137v-61h60q344 100 344 254q-11 32 -59 32h-93q-22 0 -138 -110q-43 -6 -114 -115z" />
    <glyph glyph-name="afii10081" unicode="&#x43f;" horiz-adv-x="560" 
d="M327 438q25 -13 25 -31q0 -11 -63 -67v-27h18q94 41 188 102h21q8 0 24 -26v-21q0 -11 -195 -246q-9 -18 -9 -36q8 0 8 -10l270 71l4 -8v-6q-16 0 -160 -79q-170 -46 -203 -46l-20 33q13 58 157 241q-16 0 -16 12q-107 -45 -309 -239q-20 0 -45 -15q-16 4 -22 24
q0 41 217 283q58 91 110 91z" />
    <glyph glyph-name="afii10082" unicode="&#x440;" horiz-adv-x="552" 
d="M457 434q95 0 115 -121q0 -157 -304 -304q-17 0 -67 -13q-26 6 -54 6q-25 -60 -34 -60q-32 0 -263 -284q0 -42 -74 -47l-7 34q55 180 378 587q210 195 249 195q25 7 61 7zM201 76v-13q13 0 13 -7q169 46 250 155l40 54v61q0 36 -27 47h-54q-42 -20 -101 -141
q-9 0 -121 -156zM19 -38l13 -7q81 82 115 148q16 0 101 129l-7 13q-135 -126 -216 -263q0 -7 -6 -20zM-22 -99h7q10 0 27 27v14h-7q-27 -14 -27 -41z" />
    <glyph glyph-name="afii10083" unicode="&#x441;" horiz-adv-x="475" 
d="M476 430q51 -16 51 -66q0 -31 -59 -65h-22q-5 0 -19 19l7 14v29h-12q-107 0 -289 -164q-63 -66 -63 -98q43 -33 89 -33h77q168 0 241 23q34 -9 34 -19v-5q-135 -53 -314 -53l-54 -8q-143 31 -143 105q0 104 308 283q75 38 168 38z" />
    <glyph glyph-name="afii10084" unicode="&#x442;" horiz-adv-x="750" 
d="M258 429h7q11 -2 11 -11v-29q-30 -48 -30 -76v-11h21q185 127 245 127q11 0 50 -82h11q135 52 164 52h44q34 -20 34 -41q0 -119 -187 -290q0 -29 -35 -50h-13q-9 0 -19 19q0 48 180 260v35q-173 0 -388 -263q-26 -14 -58 -14h-4l-7 34v13l180 217v29q-124 -24 -359 -279
q-25 -49 -79 -66q-26 10 -26 18v15q0 43 127 215q69 178 131 178z" />
    <glyph glyph-name="afii10085" unicode="&#x443;" horiz-adv-x="330" 
d="M204 429h21q14 -2 14 -14v-14q0 -33 -138 -179q-28 -46 -28 -55l21 -14q114 20 207 131q55 69 76 69q10 0 34 -28q0 -43 -165 -220v-28q27 -4 27 -21q-70 0 -138 -200q-89 -176 -145 -235q-66 -44 -124 -48q-207 0 -207 152q0 84 228 207l255 117q0 12 35 42v27h-7
q-79 -27 -118 -27q-48 24 -48 62q0 94 200 276zM-272 -289v-21q0 -69 110 -69q150 0 242 263q42 87 42 103v7h-7q-387 -177 -387 -283z" />
    <glyph glyph-name="afii10086" unicode="&#x444;" horiz-adv-x="823" 
d="M619 429h6q20 -16 31 -16v-50l86 9q79 0 94 -136q0 -167 -324 -217h-16q-83 0 -123 43q-113 -113 -379 -436l-44 -7q-8 24 -15 24q13 112 294 412v22h-13q-138 -66 -162 -66q-54 23 -54 70q0 125 269 300q26 18 112 32q69 0 121 -49h20q55 65 97 65zM74 96l10 -20
q367 177 367 234v19q-34 26 -78 26q-142 0 -290 -223q-9 -15 -9 -36zM393 90v-21q277 0 369 125l8 59v26q-18 35 -53 35q-178 0 -324 -224z" />
    <glyph glyph-name="afii10087" unicode="&#x445;" horiz-adv-x="491" 
d="M200 442h14q21 0 21 -28q-14 -22 -14 -41v-83q2 -14 14 -14q165 145 221 145q55 -8 55 -27q-182 -76 -249 -201q33 -62 83 -62h90q21 0 62 28v-7q-33 -76 -131 -76q-28 14 -41 14l-14 -7q-53 9 -97 55h-7q-181 -138 -193 -138q-14 23 -14 41q173 142 173 180l-28 117
q14 104 55 104z" />
    <glyph glyph-name="afii10088" unicode="&#x446;" horiz-adv-x="592" 
d="M621 433q30 -38 30 -43q-33 -63 -130 -170q-25 -68 -25 -76q4 -103 29 -103h98q12 -2 12 -11v-3h-37q-69 -40 -69 -79q8 -58 8 -63q-57 -77 -143 -103q-182 9 -182 90q-14 0 -16 34q122 127 236 127v111q0 22 -22 22q-235 -154 -326 -164h-24q-49 0 -60 77q4 38 113 193
l81 89l72 64h6q44 -5 44 -20v-30q-228 -232 -228 -280q3 -21 21 -21h9q212 67 387 263q60 96 116 96zM276 -107v-11q18 -37 45 -37q144 0 144 71q-9 62 -29 62q-96 0 -160 -85z" />
    <glyph glyph-name="afii10089" unicode="&#x447;" horiz-adv-x="584" 
d="M318 438q48 0 48 -34q-35 -62 -35 -96h35q19 0 164 89l34 7q28 -10 41 -34q-63 -51 -267 -178q-89 -77 -89 -124l28 -6q104 0 342 68q14 -2 14 -14q-7 -13 -7 -20h-21q-256 -96 -349 -96q-82 11 -82 75q5 49 109 158v7q-27 75 -54 75q-22 -33 -123 -96l-21 41
q10 45 233 178z" />
    <glyph glyph-name="afii10090" unicode="&#x448;" horiz-adv-x="860" 
d="M325 428q16 -8 18 -8v-13q-201 -221 -201 -256h19q247 108 438 260h22q8 -1 8 -7q0 -48 -200 -214l-19 -65l13 -26q271 63 547 329h20q26 -10 26 -16v-7q-16 -43 -225 -231q-52 -65 -52 -99l8 -48q-8 -16 -8 -18h1q-59 11 -59 75q0 51 -34 51h-11q-173 -92 -250 -92
q-35 0 -57 73q16 27 16 67q-288 -140 -332 -140l-13 19v14q0 53 314 352h11z" />
    <glyph glyph-name="afii10091" unicode="&#x449;" horiz-adv-x="1103" 
d="M392 425q6 0 20 -23q-74 -88 -188 -168l-66 -88l36 -18q162 29 460 241q31 0 44 8q22 -9 22 -14v-24q-41 -67 -287 -199v-58q172 0 422 161q46 104 203 171q31 -13 33 -24v-11q-232 -196 -232 -323q13 -48 55 -48q37 28 175 38q0 17 63 25l-2 4q-128 -39 -236 -123
q6 -37 11 -37l-2 -4l11 -40q0 -90 -201 -106h-101q-62 0 -62 43q0 20 48 94q10 -6 26 -6l167 79v19q-18 84 -18 119v29q-299 -118 -338 -118h-18q-80 0 -80 93h-34q-236 -102 -293 -102q-34 4 -34 43q0 50 345 358zM702 -124v-54h68q81 0 97 49q-1 22 -56 51h-26
q-60 -46 -83 -46z" />
    <glyph glyph-name="afii10092" unicode="&#x44a;" horiz-adv-x="422" 
d="M447 434q31 -13 34 -27v-7l-177 -149v-14h7l48 7q100 -27 108 -54v-7q0 -75 -271 -183h-41q-30 5 -40 129q0 14 101 95q0 17 102 122v13h-41q-19 0 -162 -40q-14 0 -14 13v14q0 66 346 88zM189 68v-7h7q97 24 190 102v7l-7 13q-176 0 -176 -81q-12 0 -14 -34z" />
    <glyph glyph-name="afii10093" unicode="&#x44b;" horiz-adv-x="653" 
d="M820 447q53 -14 70 -39q0 -58 -266 -239q-142 -137 -142 -180h-18q-7 0 -24 23q0 101 315 332v20q0 12 -11 12q-33 -2 -33 -15l-39 8h-7q-29 0 -57 -8l-29 8q-240 -22 -268 -69l63 -71v-22q0 -78 -310 -175h-15q-42 0 -53 38q0 38 208 231v6l-8 38q198 94 624 94v8z
M251 261q-134 -124 -134 -133v-11h4q59 0 190 91v5q-22 48 -60 48z" />
    <glyph glyph-name="afii10094" unicode="&#x44c;" horiz-adv-x="353" 
d="M430 430h3q0 -5 7 -17q-25 -45 -213 -176v-28h11q152 0 152 -72q-156 -120 -323 -133q-67 14 -67 60q0 61 354 345q53 21 76 21zM120 93v-19q14 0 14 -7q71 0 168 68q-17 13 -79 18q-99 -37 -103 -60z" />
    <glyph glyph-name="afii10095" unicode="&#x44d;" horiz-adv-x="406" 
d="M411 442h13q46 -23 46 -53q0 -31 -46 -98v-13h79q13 -2 13 -14v-6q0 -23 -197 -59q-118 -98 -244 -191h-6q0 10 -13 26v20l138 112v6h-7l-125 -32q-13 0 -13 13v6q0 63 210 92q72 0 139 112v13q-5 0 -40 7q-153 -28 -210 -92q0 -10 -20 -20h-13q-10 0 -20 20
q0 51 105 105q120 46 211 46z" />
    <glyph glyph-name="afii10096" unicode="&#x44e;" horiz-adv-x="698" 
d="M719 435q91 -27 91 -106q0 -121 -379 -292q-42 -8 -61 -8q-39 7 -84 78h-10q-203 -101 -240 -101q-36 10 -36 51v23q256 301 315 301q44 -8 44 -21v-6q-23 -25 -241 -225v-20h43q194 79 412 280q121 46 146 46zM390 110l18 -9h16q117 0 313 188q16 26 16 41
q-11 41 -57 41q-29 0 -64 -55q-206 -119 -242 -196v-10z" />
    <glyph glyph-name="afii10097" unicode="&#x44f;" horiz-adv-x="426" 
d="M394 442q44 0 48 -108q0 -55 -192 -222v-9q0 -21 51 -35l146 17v-15q0 -38 -163 -59q-45 0 -89 59q-111 -70 -158 -70q-21 5 -37 36v7q16 75 64 75q18 0 25 -37q68 21 87 50v16q0 198 178 284q23 11 40 11zM239 178h11q135 109 135 178v12h-24q-73 -20 -73 -58
q-49 -59 -49 -132z" />
    <glyph glyph-name="afii10071" unicode="&#x451;" horiz-adv-x="544" 
d="M627 613l14 -36q0 -28 -67 -80h-22q-11 0 -11 12v23q0 74 86 81zM228 598q89 -49 89 -73q-7 -15 -7 -20h-4q-112 7 -120 35v30q14 28 42 28zM460 405q119 -26 150 -90q0 -60 -290 -142q-100 -46 -114 -46h-24q-9 0 -19 28q0 71 213 96q48 8 134 47v11q0 23 -112 42h-8
q-273 -56 -273 -189v-32q47 -72 158 -72l260 15l6 -12q0 -44 -251 -57q-258 0 -258 166q0 163 382 227z" />
    <glyph glyph-name="afii10099" unicode="&#x452;" horiz-adv-x="428" 
d="M409 412q-1 -13 -6 -34t-13 -47t-17 -55t-17 -57q-33 -114 -70.5 -219t-85.5 -186q-27 -45 -62.5 -75t-69.5 -46q-23 -10 -34 -10q-9 0 -9 6q0 8 11 10.5t19 7.5q15 9 27.5 19.5t25 25.5t25 36.5t26.5 53.5q17 36 32 79.5t31 95.5q26 85 43.5 142t28.5 93.5t16 56t5 29.5
q0 5 -0.5 8.5t-11.5 3.5q-6 0 -21.5 -11t-35.5 -30t-43.5 -44t-45.5 -52q-28 -34 -47.5 -73t-33.5 -68q-14 -30 -24.5 -47.5t-19 -26.5t-16 -12t-15.5 -3q-10 0 -11.5 8t-1.5 11q0 11 4 27t15 39q8 17 15 39t12 34q19 55 39 112q17 49 37 107t39 112q6 19 13 35
q-18 -1 -34 -1t-26 -1q-8 -1 -14.5 -1h-11.5q-11 0 -14 2.5t-3 8.5q1 12 6.5 20t13.5 13q10 5 20 6.5t28 1.5h52q15 41 28 75.5t21 58.5q4 11 10 18.5t18 15.5q11 8 21 11.5t18 5.5q10 2 18 3q9 0 9 -10q-8 -18 -15 -36q-6 -16 -13 -33.5t-13 -34.5q-7 -19 -13.5 -37.5
t-14.5 -37.5h35l91 4q18 1 18 -7q-2 -9 -21 -19q-9 -5 -46 -15.5t-87 -10.5h-8q-27 -72 -55 -144.5t-55 -144.5h3q55 61 100.5 102t79 66t56 35t33.5 10q8 0 10.5 -5.5t1.5 -13.5z" />
    <glyph glyph-name="afii10100" unicode="&#x453;" horiz-adv-x="334" 
d="M395 546q3 0 2 -7.5t-3.5 -19.5t-6.5 -27l-8 -30q-7 -25 -18 -34.5t-19 -9.5q-11 -3 -19 -1q-7 -2 -14.5 -3.5t-16.5 -3.5q-17 -3 -27 -4t-17.5 -2t-14.5 -1.5t-16 -1.5q-12 -38 -26 -94t-30 -118q-5 -17 -10 -36t-9 -35.5t-7 -29t-3 -16.5q0 -8 1.5 -14t1.5 -11
q0 -9 -4.5 -18.5t-26.5 -28.5q-4 -3 -17 -10.5t-33 -11.5q-22 0 -23 14q0 11 7 33q11 34 20 60.5t20 62.5q8 28 13 47.5t12 47.5q6 23 12 46.5t11.5 45t9 39t3.5 27.5q-6 0 -21.5 -0.5t-23.5 0.5q-13 1 -14 11q0 9 20 18q10 5 21.5 8t25.5 6q14 2 28 3t26 1h38.5t38.5 1
q20 1 41 2q2 8 4.5 17t4.5 17q3 10 6 19q6 13 23 27.5t38 14.5z" />
    <glyph glyph-name="afii10101" unicode="&#x454;" horiz-adv-x="572" 
d="M438 422q98 -5 98 -24v-17q0 -6 -60 -57h-27q-36 25 -61 25q-82 -24 -147 -73q-40 0 -79 -54v-19h49q16 0 16 14q-8 0 -8 -15l106 9h32q106 0 106 -21l-28 -28q-5 0 -5 9q-332 -29 -332 -57q0 -46 113 -57q95 8 357 48l24 -6v-10q0 -38 -381 -81h-32q-140 0 -179 147v12
q283 239 406 239q0 14 32 16z" />
    <glyph glyph-name="afii10102" unicode="&#x455;" horiz-adv-x="378" 
d="M404 423q-9 -24 -23.5 -35t-38.5 -19q-3 11 -11.5 18.5t-20.5 12t-25 6.5t-23 2q-15 0 -32.5 -4t-32.5 -13t-24.5 -23t-9.5 -33q0 -23 18 -38q13 -11 30 -22l34 -22t32 -21.5t26 -20.5q15 -14 20 -27.5t5 -30.5q0 -19 -11.5 -42.5t-32.5 -46t-49.5 -42t-61.5 -30.5
q-20 -7 -38.5 -9.5t-51.5 -2.5q-18 0 -35.5 4.5t-32.5 12.5t-25 19t-12 24q2 11 10.5 21.5t21.5 18.5q6 4 19 11t21 7q3 -15 9 -28t16 -23.5t25.5 -16.5t37.5 -6q25 0 46.5 6.5t37.5 18.5t25.5 28.5t9.5 35.5q0 20 -7.5 33.5t-22.5 24.5q-29 21 -56 37.5t-49 35.5
q-14 12 -21.5 24.5t-7.5 35.5q0 12 6.5 29.5t22.5 35.5t44 35.5t72 30.5q20 6 42.5 8.5t42.5 2.5q19 0 34 -3.5t26 -8.5q12 -5 21 -11z" />
    <glyph glyph-name="afii10103" unicode="&#x456;" horiz-adv-x="324" 
d="M384 681h27q16 0 34 -55q0 -27 -34 -41q-29 0 -55 48v21q0 10 28 27zM301 400q48 -9 48 -27v-34q-239 -219 -239 -233v-7q13 0 13 -7q84 41 254 110l7 -14q-21 -54 -309 -178l-48 -7q-27 7 -27 41q0 56 212 274q73 82 89 82z" />
    <glyph glyph-name="afii10104" unicode="&#x457;" horiz-adv-x="373" 
d="M279 584q46 -19 46 -60q0 -11 -46 -26q-40 13 -40 26v20q0 8 40 40zM531 584q60 -13 60 -33v-7q-17 -33 -53 -33h-34q-10 0 -26 27v13q17 33 53 33zM338 431q27 0 47 -39q-1 -48 -212 -213l-67 -73q-6 -13 -6 -20q6 0 6 -6q246 79 312 79v-13q0 -36 -385 -146
q-33 9 -33 46v7q0 49 292 352q16 0 46 26z" />
    <glyph glyph-name="afii10105" unicode="&#x458;" horiz-adv-x="134" 
d="M448 681q19 -25 19 -59q-12 -29 -26 -32q-9 0 -45 45v26q4 20 52 20zM259 394q39 -6 39 -19v-7q-80 -82 -209 -358q-22 -28 -65 -150q-90 -193 -104 -196q-41 -78 -144 -78q-94 0 -169 111q9 45 26 45q65 0 65 -39l-6 -26q41 -39 84 -39q106 0 170 215l137 281
q110 260 176 260z" />
    <glyph glyph-name="afii10106" unicode="&#x459;" horiz-adv-x="353" 
d="M438 438h7q0 -8 7 -22q-26 -47 -215 -179v-22h7q158 0 158 -79q-161 -123 -330 -136q-72 14 -72 65q0 63 359 351q55 22 79 22zM129 93v-14q15 0 15 -7q66 0 158 64q-12 9 -72 15q-97 -37 -101 -58z" />
    <glyph glyph-name="afii10107" unicode="&#x45a;" horiz-adv-x="579" 
d="M548 222q0 -22 -13 -58t-42 -68q-18 -21 -40 -42t-47.5 -38t-54.5 -28t-61 -11q-29 0 -39.5 18.5t-10.5 40.5q0 29 9 65t32 92q-20 -8 -47 -13.5t-50 -9.5q-28 -4 -56 -7q-1 -12 -5.5 -32t-12 -41t-16.5 -40t-19 -29q-17 -17 -29.5 -22t-24.5 -5q-17 0 -20.5 6t-3.5 19
q0 4 3 15t7.5 24.5t9.5 28t9 27.5l17 53q-7 8 -8 10.5t-1 15.5q0 11 10.5 19t27.5 10l9 22q16 40 25.5 64.5t15.5 40.5t9.5 25.5t8.5 19.5q7 15 17 24.5t20.5 15t21 7.5t17.5 2t7 -11q-1 -8 -11.5 -32t-19.5 -50l-48 -140q22 -2 48 0q22 2 49 5.5t55 14.5q20 47 37.5 76.5
t36.5 57.5q10 15 22.5 30t25 26t24.5 18t22 7q5 0 9 -2.5t4 -7.5q0 -8 -12.5 -26t-26.5 -41q-9 -15 -15.5 -28t-12.5 -27t-13.5 -30.5t-17.5 -40.5q8 8 21 15.5t27 13.5t28.5 9.5t26.5 3.5q31 0 48.5 -14t17.5 -48zM469 168q0 25 -9.5 38.5t-24 19t-32 3t-34.5 -10.5
q-16 -41 -28.5 -76t-12.5 -78q0 -14 6.5 -24.5t23.5 -10.5q23 0 43 13t35 33.5t24 45t9 47.5z" />
    <glyph glyph-name="afii10108" unicode="&#x45b;" horiz-adv-x="491" 
d="M551 116q-53 -41 -99 -68t-82 -42.5t-60.5 -21.5t-34.5 -6q-14 0 -22 5t-12 12t-5 15.5t-1 15.5q0 16 6.5 46t21.5 78q23 72 37.5 120t14.5 68q0 5 -0.5 8.5t-11.5 3.5q-6 0 -21.5 -11t-35.5 -30t-43.5 -44t-45.5 -52q-28 -34 -47.5 -73t-33.5 -68q-14 -30 -24.5 -47.5
t-19 -26.5t-16 -12t-15.5 -3q-10 0 -11.5 8t-1.5 11q0 11 4 27t15 39q8 17 15 39t12 34q19 55 39 112q17 49 37 107t39 112q6 19 13 35q-18 -1 -34 -1t-26 -1q-8 -1 -14.5 -1h-11.5q-11 0 -14 2.5t-3 8.5q1 12 6.5 20t13.5 13q10 5 20 6.5t28 1.5h52q15 41 28 75.5t21 58.5
q4 11 10 18.5t18 15.5q11 8 21 11.5t18 5.5q10 2 18 3q9 0 9 -10q-8 -18 -15 -36q-6 -16 -13 -33.5t-13 -34.5q-7 -19 -13.5 -37.5t-14.5 -37.5h35l91 4q18 1 18 -7q-2 -9 -21 -19q-9 -5 -46 -15.5t-87 -10.5h-8q-27 -72 -55 -144.5t-55 -144.5h3q55 61 100.5 102t79 66
t56 35t33.5 10q8 0 10.5 -5.5t1.5 -13.5q-1 -13 -6 -34.5t-12.5 -47.5t-16.5 -55t-18 -56q-7 -21 -14 -43.5t-13 -42t-10 -36t-5 -25.5q0 -4 -0.5 -11t1.5 -14t7 -12t15 -5q36 0 89 27t119 73l6 -14v0z" />
    <glyph glyph-name="afii10109" unicode="&#x45c;" horiz-adv-x="409" 
d="M444 665q0 -4 -11.5 -19t-30 -35t-41 -42t-43.5 -41q-2 -2 -9 -6t-12 -4t-5.5 2t-0.5 6q0 3 6.5 15t16.5 28t20 33t18 29q14 23 32 35.5t48 12.5q9 0 10.5 -3t1.5 -11zM541 79q-27 -23 -57 -44t-60.5 -38t-61 -27t-57.5 -10q-19 0 -36.5 4.5t-33 17t-28.5 35.5t-22 60
q-14 59 -19.5 89.5t-10.5 48.5q-8 -11 -15.5 -21.5t-15.5 -29.5q-7 -15 -13 -30.5t-11 -27.5q-6 -14 -11 -27q-9 -23 -14.5 -34.5t-12.5 -18.5q-8 -8 -25.5 -16.5t-29.5 -8.5t-16.5 3t-4.5 11q0 5 5 19t17 46q6 15 10.5 28l9 26t9.5 27t11 31q24 66 42 117t26 72
q7 19 12 32.5t13 21.5q6 7 15.5 12.5t20 9t20.5 5.5t17 2t7 -11q0 -7 -7 -25t-14 -34q-17 -42 -31 -78.5t-25 -68.5l5 -1q18 19 33 35.5t31.5 33t36.5 34t47 39.5q20 16 42 29t44 22t42.5 13.5t36.5 4.5q4 0 10 -0.5t11.5 -3t9.5 -7.5t4 -14q0 -17 -22.5 -46t-79.5 -64l-6 9
q19 14 26 33t7 29q0 14 -20 14q-17 0 -46 -11.5t-62 -37.5q-22 -17 -38.5 -32t-27.5 -27q-13 -14 -23 -26h6q2 0 5 0.5t5 0.5q5 0 10.5 -3.5t7.5 -15.5q5 -28 11.5 -64.5t14.5 -68.5q11 -50 33 -79t60 -29q27 0 52 8.5t47.5 21.5t41.5 27t33 26l9 -18v0z" />
    <glyph glyph-name="afii10110" unicode="&#x45e;" horiz-adv-x="489" 
d="M282 379q9 0 14 -24q-7 -2 -7 -7q4 -7 4 -11q-7 -3 -14 -3q0 -4 3 -4q-38 -117 -38 -171q6 -4 10 -4q48 30 67 81q0 8 52 73q-5 0 -10 11v7q45 52 56 52h24q21 -11 21 -38l-35 -42q-24 -42 -73 -88q-32 -34 -56 -171q7 -2 7 -7q-13 0 -74 -357q-36 -81 -63 -81h-14
q-61 26 -91 81q-36 48 -49 129q0 47 91 130q71 61 144 87q0 -3 3 -3q13 0 28 94q4 0 4 4l-4 7l7 14h-7q-20 -18 -35 -18h-10q-21 8 -21 49v11q0 41 28 105q-4 6 -4 10q4 0 14 28l14 4v3q-14 0 -14 7v7q10 23 28 35zM380 313l4 -18q-7 0 -11 -21q60 53 60 74h-4zM72 -153
q4 0 4 -3q-18 0 -18 -49q0 -4 4 -28q-4 0 -4 -4q11 0 11 -7v-14l-4 -7q18 0 18 -38v-4q8 0 42 -45q8 0 17 -18q4 0 4 -7h28q18 23 28 60l-4 7q4 10 7 10l-3 7q7 18 10 18q-3 6 -3 10q17 89 28 119q0 4 -4 4q0 6 7 28l-3 7q21 97 21 105q-63 -23 -147 -105q-23 -15 -39 -46z
" />
    <glyph glyph-name="afii10193" unicode="&#x45f;" horiz-adv-x="525" 
d="M217 48q-12 -26 -17.5 -51.5t-10.5 -64.5q-4 -35 -12 -74t-26 -74t-38.5 -58t-52.5 -47l-5 8q19 23 29 45t16 45.5t9.5 50.5t8.5 60q5 32 25.5 74t65.5 88l8 -2v0zM549 114q-17 -14 -49.5 -34t-74.5 -46q-54 -32 -89 -45t-52 -13q-13 0 -16 7t-3 15q0 10 4 28.5t10.5 41
t14 47.5t14.5 49q5 18 9.5 32.5t7.5 25.5q4 12 7 22q-35 -36 -75 -74q-34 -32 -77 -72t-90 -77q-20 -16 -34 -21.5t-20 -5.5q-20 0 -20 28q0 7 1 15t4.5 20t9.5 29.5t17 44.5l54 137q15 38 25 66.5t18 45.5t19.5 29t24 19.5t24 11t18.5 3.5t7 -11q-1 -8 -3.5 -23t-13.5 -41
l-61 -157q-3 -9 -9 -23.5t-12 -29.5t-10 -26.5t-4 -14.5q0 -4 0.5 -8t7.5 -4q11 0 32 15t47 39q23 21 41 37.5t34 33t31.5 35t33.5 44.5q6 11 11.5 25.5t11.5 30t14 30t18 25.5q18 18 34.5 24t27.5 6q5 0 10.5 -3.5t5.5 -14.5q0 -14 -10.5 -39t-39.5 -65q-9 -20 -18.5 -50
t-18.5 -59q-3 -11 -11 -36t-15.5 -51t-13.5 -47.5t-6 -25.5q0 -17 11 -17q19 0 40 7.5t44 19.5t46.5 27t46.5 30l9 -12v0z" />
    <glyph glyph-name="afii10050" unicode="&#x490;" horiz-adv-x="363" 
d="M471 748q3 0 2 -7t-3.5 -18.5t-6 -25.5t-7.5 -28q-6 -23 -16 -32t-18 -9q-11 -3 -18 -1q-7 -2 -14 -3.5t-16 -3.5q-16 -3 -33 -4.5t-32 -2.5q-18 -1 -35 -1l-23 -78l-82 -285q-8 -29 -17 -62t-17 -71q-3 -16 -6 -36t-6 -32q-2 -8 -5.5 -17t-7.5 -15q-5 -5 -13 -12
t-17 -13t-18 -10.5t-15 -4.5q-8 0 -15 3t-7 9q0 9 2.5 19.5t8.5 31.5q16 59 26 97.5t18 69.5t16.5 61.5t20.5 74.5q9 32 20.5 70.5t21.5 72.5q11 39 23 78q2 8 6 23.5t6 24.5h-12t-12 1q-13 0 -14 10q0 8 19 17q9 4 20 7t24 6q13 2 26.5 3t24.5 1h39.5t42.5 1l48 2
q2 7 4 15.5t4 16.5q3 9 6 17q6 13 21.5 26.5t35.5 13.5z" />
    <glyph glyph-name="afii10098" unicode="&#x491;" horiz-adv-x="334" 
d="M395 546q3 0 2 -7.5t-3.5 -19.5t-6.5 -27l-8 -30q-7 -25 -18 -34.5t-19 -9.5q-11 -3 -19 -1q-7 -2 -14.5 -3.5t-16.5 -3.5q-17 -3 -27 -4t-17.5 -2t-14.5 -1.5t-16 -1.5q-12 -38 -26 -94t-30 -118q-5 -17 -10 -36t-9 -35.5t-7 -29t-3 -16.5q0 -8 1.5 -14t1.5 -11
q0 -9 -4.5 -18.5t-26.5 -28.5q-4 -3 -17 -10.5t-33 -11.5q-22 0 -23 14q0 11 7 33q11 34 20 60.5t20 62.5q8 28 13 47.5t12 47.5q6 23 12 46.5t11.5 45t9 39t3.5 27.5q-6 0 -21.5 -0.5t-23.5 0.5q-13 1 -14 11q0 9 20 18q10 5 21.5 8t25.5 6q14 2 28 3t26 1h38.5t38.5 1
q20 1 41 2q2 8 4.5 17t4.5 17q3 10 6 19q6 13 23 27.5t38 14.5z" />
    <glyph glyph-name="endash" unicode="&#x2013;" horiz-adv-x="721" 
d="M290 287h325q50 -8 50 -50v-25q-22 0 -200 25q-341 -25 -425 -25v50z" />
    <glyph glyph-name="emdash" unicode="&#x2014;" horiz-adv-x="721" 
d="M290 287h325q50 -8 50 -50v-25q-22 0 -200 25q-341 -25 -425 -25v50z" />
    <glyph glyph-name="quoteleft" unicode="&#x2018;" horiz-adv-x="233" 
d="M169 764v-4q0 -5 -76 -84l-4 -24h12q0 16 40 28q52 -18 52 -36q-34 -60 -84 -60h-12q-52 0 -52 64q0 46 116 116h8z" />
    <glyph glyph-name="quoteright" unicode="&#x2019;" horiz-adv-x="233" 
d="M215 714h13q43 -36 46 -78q0 -45 -91 -105h-14q-9 0 -9 14q41 44 41 64h-27q-34 0 -37 41q23 64 78 64z" />
    <glyph glyph-name="quotedblleft" unicode="&#x201c;" horiz-adv-x="340" 
d="M152 699q5 0 33 -22q-9 -46 -105 -150q-10 -39 -34 -39q-16 4 -22 22q88 183 128 183v6zM268 660q15 0 28 -28q0 -9 -56 -50q-54 -72 -66 -72q-8 0 -17 17q0 72 111 133z" />
    <glyph glyph-name="quotedblright" unicode="&#x201d;" horiz-adv-x="483" 
d="M485 751q5 0 33 -22q-9 -46 -105 -150q-10 -39 -34 -39q-16 4 -22 22q88 183 128 183v6zM601 712q15 0 28 -28q0 -9 -56 -50q-54 -72 -66 -72q-8 0 -17 17q0 72 111 133z" />
    <glyph glyph-name="quotedblbase" unicode="&#x201e;" horiz-adv-x="233" 
d="M133 98q5 0 29 -19q-8 -38 -90 -127q-8 -33 -28 -33q-14 3 -19 19q74 155 108 155v5zM232 65q13 0 24 -23q0 -9 -47 -43q-47 -61 -57 -61q-6 0 -14 14q0 61 94 113z" />
    <glyph glyph-name="dagger" unicode="&#x2020;" horiz-adv-x="347" 
d="M416 546q0 -12 -21 -23t-53.5 -16t-56.5 -7q-2 0 -4 -0.5t-4 -0.5h-4l-107 -559q-2 -9 -11.5 -16.5t-21 -13.5t-22.5 -10t-15 -4q-5 0 -7 1.5t-2 9.5q0 9 5 40.5t13.5 78t20 104.5t24 120.5t25.5 125.5t25 120h-65t-43 2q-6 1 -12 2.5t-6 8.5q0 11 5 17t12 12q8 7 18.5 7
h27.5h74q15 71 25.5 118.5t12.5 54.5q3 1 11.5 2.5t18 3t18 2t11.5 0.5q6 0 7 -2.5t0 -6.5l-33 -172h23q30 0 56 2t35 2q20 0 20 -3z" />
    <glyph glyph-name="bullet" unicode="&#x2022;" horiz-adv-x="349" 
d="M303 235q0 -25 -9.5 -47t-26 -38.5t-38.5 -26.5t-47 -10q-26 0 -48 9.5t-38 26t-25.5 39t-9.5 47.5t9.5 47t26 38.5t39 26t47.5 9.5t46.5 -9.5t38 -26t26 -38.5t9.5 -47z" />
    <glyph glyph-name="ellipsis" unicode="&#x2026;" horiz-adv-x="564" 
d="M533 22q-2 -26 -19 -45q-17 -18 -47 -18q-20 0 -29 9q-4 7 -4 33q2 34 17 51q15 15 53 17q18 0 25 -11q4 -9 4 -36zM348 9q-2 -26 -19 -45q-17 -18 -47 -18q-20 0 -29 9q-4 7 -4 33q2 34 17 51q15 15 53 17q18 0 25 -11q4 -9 4 -36zM160 13q-2 -26 -19 -45
q-17 -18 -47 -18q-20 0 -29 9q-4 7 -4 33q2 34 17 51q15 15 53 17q18 0 25 -11q4 -9 4 -36z" />
    <glyph glyph-name="afii61352" unicode="&#x2116;" horiz-adv-x="817" 
d="M527 667q26 -9 38 -31v-26q-57 -145 -162 -362v-27h22q407 446 519 446q5 0 13 -16v-20q-143 -44 -490 -456q-79 -127 -140 -142q-30 0 -35 67q0 60 122 302h-29q-138 -159 -344 -360q-41 8 -41 20v26q346 320 406 461q101 118 121 118zM752 267q55 0 82 -47v-35
q0 -54 -156 -153q-81 -22 -93 -22q-46 29 -46 73q31 115 147 162q49 22 66 22zM649 105h20q108 35 108 97h-18q-110 0 -110 -97z" />
    <glyph glyph-name="trademark" unicode="&#x2122;" horiz-adv-x="1115" 
d="M1087 477q-16 -11 -30.5 -21.5t-42.5 -27.5q-38 -23 -56 -30t-27 -7q-14 0 -16.5 7.5t-2.5 14.5q0 5 2.5 17t7 28t10.5 35l12 38q14 44 32 98l-3 1q-22 -29 -57.5 -74t-95.5 -113q-5 -5 -11.5 -12.5t-13 -14.5t-13.5 -11.5t-11 -4.5q-7 0 -8.5 4t-1.5 11t6 30t14 53.5
t17.5 64t16.5 60.5l9 36l-3 1q-3 -6 -17 -28t-31.5 -48.5t-35 -52.5t-28.5 -40q-22 -29 -39 -47.5t-30 -29.5t-23.5 -15t-20.5 -4q-8 0 -13 3.5t-7 9t-2.5 11t-0.5 9.5q0 20 11 36t24 23l4 -1q-1 -12 1.5 -25.5t14.5 -13.5q9 0 27.5 13.5t51.5 55.5q14 18 32 45t36 55.5
t33 55t24 44.5q4 12 6.5 19t4 11.5t3.5 8.5l5 10q5 8 13 13t15 5q10 0 14.5 -0.5t4.5 -8.5q0 -19 -8 -39t-16 -46q-9 -26 -18 -57t-16.5 -58.5t-13 -49t-7.5 -28.5q0 -2 -1.5 -6.5t-2 -9t-0.5 -8.5t2 -4q3 0 23.5 23t48.5 57.5t57.5 74.5t49.5 75q10 31 16 48t17 31
q8 11 17 14.5t17 3.5q6 0 7.5 -5.5t1.5 -13.5q0 -6 -4 -19t-10 -27.5t-13 -28t-12 -22.5q-3 -9 -9.5 -29t-14.5 -44l-16.5 -49.5t-15.5 -47.5t-11.5 -37t-4.5 -18q0 -8 -1 -15.5t16 -7.5t46.5 17.5t58.5 37.5l6 -9v0zM572 466q-66 -45 -109 -65t-63 -20q-8 0 -10.5 6.5
t-1.5 14.5q2 11 11.5 45.5t21.5 75.5q6 22 15.5 51.5t18.5 58t16 51t7 30.5q0 5 1 8t-4 3q-4 0 -13.5 -11t-20.5 -23q-6 -7 -18.5 -22t-27.5 -34.5t-32 -42.5t-32 -46q-9 -14 -19.5 -34.5t-19.5 -39.5t-15 -33t-7 -15q-17 -25 -44 -25q-3 0 -3 3q0 4 0.5 8.5t2.5 10.5
t5.5 15.5t8.5 24.5l66 208q14 40 14 54q0 6 -3 7q-14 0 -57 -51q-19 -22 -41.5 -57.5t-44 -72.5t-39 -69.5t-24.5 -49.5q-5 -7 -19 -18t-26 -11q-7 0 -7 3t-1 9q1 6 7 24l11 33q7 21 16.5 47.5l19 53t18 50.5t13.5 39q1 4 5 15t8 23t7 22t3 13q0 12 -1 14t-6 2
q-22 0 -92 -67l-3 11q52 50 91 75t54 25q14 0 14 -13t-3.5 -23.5t-8.5 -26.5q-6 -21 -18 -55t-23 -66q-14 -38 -29 -79l3 -2q43 78 80 129t66.5 81t51 42t32.5 12q6 0 8.5 -1.5t2.5 -12.5q0 -6 -4.5 -22t-11.5 -38t-15.5 -47t-16 -47.5t-14 -41t-8.5 -26.5h2q38 50 69.5 92
t57.5 72.5t47 47.5t38 17q8 0 9.5 -4.5t1.5 -9.5q0 -7 -7 -30.5t-16.5 -54t-19.5 -63.5t-17 -58q-3 -9 -8 -27t-10.5 -37t-9.5 -34.5t-4 -19.5q0 -5 -2 -13.5t9 -8.5q20 0 50 15t61 35l6 -9v0z" />
    <glyph glyph-name="vlevo" unicode="&#x2190;" horiz-adv-x="986" 
d="M564 466q38 -15 38 -25v-19q-24 -40 -230 -122q-66 -36 -77 -51v-6q34 0 109 -7q11 83 57 83l64 -6h166q27 0 71 -6q6 0 6 6l32 -6h83l38 6q73 -17 90 -38q-17 -39 -45 -39q-23 13 -51 13h-32q-45 0 -140 7v-7l-13 7h-147q-7 0 -7 -7l-12 7q-16 0 -83 -13v-13h25
q179 -12 179 -57v-20l-32 -6q-142 32 -268 32h-109q-14 0 -25 -6q-109 12 -109 31v7q0 49 204 134q60 51 218 121z" />
    <glyph glyph-name="vverh" unicode="&#x2191;" 
d="M307 584h17q69 -44 69 -169q9 0 39 -69v-12q0 -15 -49 -22q-14 0 -56 78q-23 0 -65 -251q0 -120 -58 -120q0 -7 -3 -7h-10q-12 45 -12 61l72 286v14q0 17 -19 17q-80 -104 -108 -104q-23 8 -23 15v13q0 21 156 207q0 25 50 63z" />
    <glyph glyph-name="vpravo" unicode="&#x2192;" horiz-adv-x="836" 
d="M472 359h12q389 -64 389 -107q0 -62 -326 -138q0 -6 -38 -25q-31 10 -31 44q13 26 257 94l6 12q-23 13 -112 32q0 -6 -7 -6q13 -26 13 -38q-47 -31 -82 -31h-12l-19 12h-163q-33 0 -107 -6v6q-34 -19 -125 -25q-25 6 -25 31q0 48 188 57l13 -6q139 6 225 6h44v12
q-138 15 -138 38v19q6 19 38 19z" />
    <glyph glyph-name="vniz" unicode="&#x2193;" horiz-adv-x="398" 
d="M277 592q30 -6 40 -21q-42 -291 -61 -327q4 -23 26 -23q56 102 112 147q22 -9 24 -18v-17q-114 -195 -185 -285q-10 0 -72 -40q-37 0 -84 234q8 23 27 33h19q18 0 33 -87h17q25 21 59 195q13 209 45 209z" />
    <glyph glyph-name="vlevo-vpravo" unicode="&#x2194;" horiz-adv-x="1152" 
d="M755 345h44q107 -31 371 -94q0 -15 19 -38q0 -41 -189 -63q-43 -12 -239 -44q-25 6 -25 32l13 25q-21 12 -38 12h-145q-6 0 -6 -6l-13 6h-119q-13 -2 -13 -12q50 -16 63 -38v-25q-44 -9 -44 -19q-49 38 -308 82q-57 30 -57 38q0 52 101 62v7l12 -7l252 76q40 -16 44 -31
v-19q-126 -40 -126 -51l13 -6h6q19 0 19 6l31 -6h82q47 0 69 -6q42 6 82 6h151q51 0 51 -50h12q25 0 139 25v25q-251 42 -277 69v19q0 10 25 25zM233 219v-12h18v12h-18z" />
    <glyph glyph-name="vverh-vniz" unicode="&#x2195;" horiz-adv-x="296" 
d="M247 592h19q19 -4 33 -162q11 0 29 -67v-9q-8 0 -19 -10h-15q-10 2 -42 67h-10q-71 -237 -71 -258h4q17 9 81 105q8 0 19 -28q-29 -76 -133 -210l-38 -24q-36 42 -67 200v24q9 17 29 24q26 0 38 -129h9q0 38 48 186q24 76 24 86v5h-10q-20 -62 -62 -62h-4q-10 0 -10 9v5
q0 34 148 248z" />
    <glyph glyph-name="radical" unicode="&#x221a;" horiz-adv-x="549" 
d="M512 913h36l-152 -951l-242 498l-97 -44l-16 31l146 74l198 -402z" />
    <glyph glyph-name="infinity" unicode="&#x221e;" horiz-adv-x="868" 
d="M818 373q95 -8 95 -72q0 -98 -149 -154q-70 -24 -113 -24h-71q-59 36 -65 36q-131 -54 -179 -54q-202 16 -202 42v23q44 96 107 96q62 29 119 29q99 -18 184 -53q195 113 274 131zM580 188l42 -12h6q13 0 23 6q11 -6 24 -6h6q173 29 173 125v6l-30 6h-24q-34 0 -220 -107
v-18zM211 188v-12q2 -12 12 -12h30q38 0 77 -5q75 0 131 47v6l-65 18h-60q-91 0 -125 -42z" />
    <glyph glyph-name="approxequal" unicode="&#x2248;" horiz-adv-x="657" 
d="M608 402q21 -7 30 -25v-16q-15 0 -210 -77h-10q-12 0 -62 57q-31 0 -174 -88q-21 26 -21 31q0 54 216 113q20 0 56 -56q18 0 154 56q21 0 21 5zM413 264h15q34 0 51 -47h10q13 0 144 41q31 0 31 -35q0 -23 -103 -31q0 -11 -82 -31q-34 0 -66 51q-67 0 -216 -87h-10
q-14 0 -26 26q0 53 252 113z" />
    <glyph glyph-name="notequal" unicode="&#x2260;" horiz-adv-x="487" 
d="M554 584h5q8 0 17 -16v-6l-132 -159q0 -13 66 -22l11 -17v-16l-28 -6h-82q-17 0 -66 -38v-17h77q71 0 71 -27v-6q-47 -11 -198 -22l-77 -115h-16q-11 0 -11 11v38q22 36 22 55l-11 6q-44 -11 -72 -11l-5 11v16q0 32 148 44q33 30 33 55l-176 -33h-11q0 6 -5 17
q0 37 198 66h49l165 187z" />
    <glyph glyph-name="lessequal" unicode="&#x2264;" horiz-adv-x="466" 
d="M464 373q23 -9 23 -28q-31 -50 -77 -50q-18 5 -37 5q0 -7 -128 -46q0 -10 -113 -45l-5 -10v-4q0 -19 278 -59q77 -25 77 -32v-9q0 -7 -13 -14q-277 50 -369 73q-55 15 -55 32v13q31 34 205 96q101 56 214 78zM269 0h20q198 -8 198 -26v-15q0 -6 -36 -20h-20q-7 0 -56 11
h-106q-123 0 -190 -11q-43 11 -43 20v26q21 0 21 10q141 5 212 5z" />
    <glyph glyph-name="greaterequal" unicode="&#x2265;" horiz-adv-x="515" 
d="M134 315l10 -5h21q410 -63 410 -86q5 -9 5 -21q-52 -19 -243 -40q-30 -10 -279 -66q-30 12 -30 20v10q0 22 289 71q0 4 81 21v10q-52 15 -157 25h-107q-27 0 -40 20v5q0 10 40 36zM315 0h24q237 -8 237 -26v-15q0 -6 -43 -20h-24q-8 0 -68 11h-126q-147 0 -228 -11
q-51 11 -51 20v26q25 0 25 10q169 5 254 5z" />
    <glyph glyph-name="palka" unicode="&#x2502;" 
d="M254 698q15 0 34 -62q-6 -127 -6 -190l-56 -370q11 -18 11 -28q-10 -56 -22 -56q-45 0 -45 50q45 404 56 415l-6 90q16 151 34 151z" />
    <glyph glyph-name="afii10055" horiz-adv-x="271" 
 />
    </font>
</defs>
</svg>
