<?xml version="1.0" standalone="no"?>
<!DOCTYPE svg PUBLIC "-//W3C//DTD SVG 1.1//EN" "http://www.w3.org/Graphics/SVG/1.1/DTD/svg11.dtd" >
<svg xmlns="http://www.w3.org/2000/svg" xmlns:xlink="http://www.w3.org/1999/xlink" version="1.1">
<metadata>
Created by FontForge 20190801 at Thu Aug 21 16:12:01 1997
 By www-data
Lazy Crazy, MAG (C) 1997 ver.7
</metadata>
<defs>
<font id="lazyc" horiz-adv-x="1479" >
  <font-face 
    font-family="lazyc"
    font-weight="400"
    font-stretch="normal"
    units-per-em="2048"
    panose-1="2 2 6 3 5 4 5 2 3 4"
    ascent="1638"
    descent="-410"
    x-height="624"
    cap-height="1028"
    bbox="-341 -792 2616 2232"
    underline-thickness="50"
    underline-position="-105"
    unicode-range="U+0020-F005"
  />
<missing-glyph horiz-adv-x="1024" 
d="M128 0v1248h768v-1248h-768zM256 128h512v992h-512v-992z" />
    <glyph glyph-name=".notdef" horiz-adv-x="1024" 
d="M128 0v1248h768v-1248h-768zM256 128h512v992h-512v-992z" />
    <glyph glyph-name=".null" horiz-adv-x="0" 
 />
    <glyph glyph-name="nonmarkingreturn" horiz-adv-x="512" 
 />
    <glyph glyph-name="space" unicode=" " horiz-adv-x="512" 
 />
    <glyph glyph-name="exclam" unicode="!" horiz-adv-x="900" 
d="M664 1786q0 -90 -68 -320l-125 -422q-27 -90 -52 -232q-18 -101 -18 -177l-53 -31l-12 -14q-24 45 -51 108q-7 23 -19 45q47 99 70 152q72 168 86 244l67 377q40 223 86 323h66q0 -18 11.5 -31t11.5 -22zM377 98q1 -31 -49 -53l-103 -45h-108l-13 16q-9 12 -10 39
q-1 55 43.5 109.5t98.5 54.5q139 0 141 -121z" />
    <glyph glyph-name="quotedbl" unicode="&#x22;" horiz-adv-x="1303" 
d="M1128 942q-53 0 -67 -8l-21 -12q-40 0 -92 98q-39 73 -39 176q0 221 197 293q0 -18 10 -42l10 -24q0 -3 -65 -88t-66 -174q-1 -70 52 -139q16 -20 81 -80zM713 942l-49 -31q-20 -10 -39 -10q-127 -1 -172 90q-27 55 -27 183q0 122 64.5 220t177.5 140q0 -6 12 -23
q7 -13 8 -43q1 -26 -76 -112q-67 -75 -75 -205l-2 -33l-5 -22q0 -78 183 -154z" />
    <glyph glyph-name="numbersign" unicode="#" horiz-adv-x="1935" 
d="M1491 819q-323 -57 -463 -162q-117 -88 -149 -231q-26 21 -37 34q-6 6 -6 97l-23 14q-18 11 -45 11q-131 1 -184 -99q-40 -77 -37 -221l4 -164h-131q8 40 51 183l57 188h-131l-127 -53q-75 -31 -157 -56v66q317 90 401 160q91 75 145 321l-45 43q-79 -42 -163 -69
q-135 -43 -338 -82v65q139 29 277 58q153 37 235 100q105 80 139 227q68 294 180 535h66v-111q-79 -185 -105 -262q-44 -130 -69 -285q9 -2 18.5 -21t22.5 -20q161 0 247 222q22 58 56 147q0 1 56 151l58 156q21 6 43 23q3 -12 15 -29q5 -9 8 -26l-174 -515q53 -18 76 -20
q69 25 229 25v-50q-326 -72 -389 -133q-12 -11 -115 -260l66 -22l151 39q49 13 153 45q74 23 134 47v-66zM967 995q0 21 -21 21q-56 0 -155 -109q-111 -122 -111 -229q0 -6 12 -16t13 -17q154 92 176 113q85 81 86 237z" />
    <glyph glyph-name="dollar" unicode="$" horiz-adv-x="1512" 
d="M1425 1208q0 -61 -60 -90q-16 -8 -38 -8q-53 -1 -57 23q-18 99 -107 172q-47 -54 -149 -287q-90 -205 -92 -227q9 -33 38 -134q11 -39 27 -98q66 -235 66 -270q0 -74 -254 -135q-141 -34 -183 -97q-12 -18 -122 -223q-50 -94 -140 -149l123 237q62 120 94 244
q-31 0 -137 34q-87 28 -213 31l-20 111q30 0 205 -47q172 -47 210 -64q133 206 185 385q35 121 35 258v62l-2 57v26q0 15 2 23q12 133 75 211l164 140q4 14 8 25.5t11 29.5q30 80 69 162q96 203 154 205q18 1 18 -39q0 -9 -80 -166q-29 -63 -92 -174q20 -15 172 -97
q90 -48 90 -131zM967 354q0 15 -27 92q-32 92 -61 136l-70 -150q-62 -134 -64 -166q0 -4 12 -14.5t13 -20.5h66q89 65 118 105z" />
    <glyph glyph-name="percent" unicode="%" horiz-adv-x="1191" 
d="M726 1345q1 -112 -151 -260q-158 -153 -304 -153q-15 0 -33 12q-40 27 -143 27l132 393q111 159 302 159q50 0 123.5 -65.5t73.5 -112.5zM962 1366q-35 -64 -204 -295q-182 -248 -275 -415q-144 -258 -190 -492l-100 20q45 56 120 273q50 146 137 299q149 263 250 378
l204 232h58zM1062 470q1 -88 -137 -223q-142 -139 -260 -140q-57 -1 -57 67v40q0 147 109 280q102 124 194 125q60 1 105 -44t46 -105zM626 1316q1 31 -27 66q-34 43 -91 44q-28 1 -84 -26q-29 -11 -72 -34q11 -40 13 -68q-25 -59 -38.5 -107.5t-15.5 -140.5q147 30 242 139
q72 82 73 127zM962 450q1 35 -12 40t-27 27q-63 -32 -149 -128q-28 -32 -70 -87q8 -3 17 -23q2 -10 3 -28t2 -28q125 73 187 140q48 53 49 87z" />
    <glyph glyph-name="ampersand" unicode="&#x26;" horiz-adv-x="1570" 
d="M1360 1434q1 -138 -199 -201l-305 -96q66 -196 80 -226q89 -195 233 -196q26 0 60 6q-21 -88 -29 -95t-37 -36l74 -68q38 -35 80 -106h-154l-43 59q-21 28 -45 49q-99 -71 -280 -223q-131 -110 -207 -156q-95 -58 -182 -59q-68 103 -103 172q-102 202 -102 356
q0 160 139 314q109 121 262 211l146 86l-3 405q0 48 173 236q95 103 147 104q86 1 197 -229q97 -202 98 -307zM1249 1479q1 74 -78.5 217t-117.5 143q-78 1 -166 -178q-74 -152 -76 -207q6 -23 17 -69q6 -34 8 -117h65l217 86q130 52 131 125zM987 590q1 47 -107.5 241
t-154.5 240q-297 -153 -379 -369l-59 -155q34 -18 45 -47q35 -92 88 -152v-86l39 -29q19 -14 35 -16q35 0 165 117q82 74 132 125l98 53q97 53 98 78z" />
    <glyph glyph-name="quotesingle" unicode="'" horiz-adv-x="1188" 
d="M1016 1391q0 -23 -68 -140q-79 -135 -149 -200q-2 13 -4 19.5t-9 19.5q-1 3 -5 14q-1 6 -3 14q0 30 65.5 82.5t65.5 157.5q0 65 -108 117q-124 59 -154 145q15 2 21 3.5t24 10.5q15 4 41 8q97 0 193 -98q90 -91 90 -153z" />
    <glyph glyph-name="parenleft" unicode="(" horiz-adv-x="930" 
d="M809 1503q-229 -69 -406 -379q-165 -288 -165 -571q0 -230 133 -451q-8 0 -26 -9q-21 -9 -32 -11q-64 0 -118 254q-42 198 -43 328q-1 185 165 491q184 338 404 459l88 -23v-88z" />
    <glyph glyph-name="parenright" unicode=")" horiz-adv-x="820" 
d="M713 836q0 -263 -152 -486q-143 -209 -328 -270q-17 11 -43 22v66q132 0 265 141q170 181 172 484q1 108 -90 292q-53 107 -168 289q-22 34 -67 105q-6 11 -23 37q0 21 10 40l10 13h45q139 -188 246 -391q123 -233 123 -342z" />
    <glyph glyph-name="asterisk" unicode="*" horiz-adv-x="1050" 
d="M885 483q-8 -2 -27 -22q-21 -23 -41 -23q-47 -1 -125 45q-51 30 -114 86q-9 -21 -29 -55q-12 -19 -12 -25l4 -20q21 -62 37 -119l-43 -43q-27 24 -66 49q-15 9 -16 19q6 21 12 63l4 88l-43 43q-64 -78 -164 -243q-26 -42 -143 -84q62 169 139 266q102 128 102 162
q0 63 -75 96q-90 40 -123 111l164 -35q13 -5 77 -54q4 35 9 107l2 106q0 28 -4 76l-7 84l89 23l32 -168q8 -44 33 -96l123 155q67 84 117 129l65 -20v-45q-39 -39 -176 -238q-59 -86 -151 -178q49 -63 147 -121z" />
    <glyph glyph-name="plus" unicode="+" horiz-adv-x="1438" 
d="M1083 680q-127 -24 -147 -25q-9 0 -41 7q-27 5 -78 18l-24 -49q-15 -31 -15 -43q0 -22 10 -62q22 -87 33 -153q-5 -1 -69 -19l-84 -24q-8 28 -22 85q-4 22 -9 68l8 52q4 23 8 73q1 23 -6 92q-87 -21 -164 -22q-76 -1 -146 14l-40 8q0 6 -10 19q-13 9 -13 26q-2 68 70 70
q14 0 148 -18q80 -11 118 -11h35l23 2q0 38 14 82l6 19q0 44 -18 129q-24 115 -68 166l45 43q87 -33 113 -68q24 -41 22 -125l-4 -200q39 -9 72 -9q20 0 55 6l41 7q52 0 137 -158z" />
    <glyph glyph-name="comma" unicode="," horiz-adv-x="590" 
d="M500 115q0 -118 -90 -230q-56 -70 -258 -241h-66q31 65 125 163q71 74 160 207v66l-138 -4q-102 -3 -102 94q0 33 43 60t119 28q56 1 128 -43q79 -48 79 -100z" />
    <glyph glyph-name="hyphen" unicode="-" horiz-adv-x="1237" 
d="M1128 788q-8 -8 -43 -35l-32 -24q-43 -27 -90 -29l-646 45v66q28 7 191 27q325 39 356 39q178 0 264 -89z" />
    <glyph glyph-name="hyphen" unicode="&#x2010;" horiz-adv-x="1237" 
d="M1128 788q-8 -8 -43 -35l-32 -24q-43 -27 -90 -29l-646 45v66q28 7 191 27q325 39 356 39q178 0 264 -89z" />
    <glyph glyph-name="period" unicode="." horiz-adv-x="570" 
d="M459 172q1 -30 -82 -100.5t-117 -71.5q-60 -1 -100 86l-51 152q147 21 180 51q7 7 14 18q31 0 109 -67q46 -40 47 -68z" />
    <glyph glyph-name="slash" unicode="/" horiz-adv-x="1393" 
d="M1237 1640q-46 -77 -197 -304l-159 -240q-61 -90 -189 -283q-204 -307 -307 -524q-122 -256 -176 -289v88q80 173 231 457q235 442 404 706q245 382 393 478v-89z" />
    <glyph glyph-name="zero" unicode="0" horiz-adv-x="1180" 
d="M1069 600q1 -146 -195 -360q-219 -240 -440 -240q-164 0 -258 170q-69 125 -70 244q-1 77 37 211q26 92 54.5 154t76.5 126q108 144 248 144q186 0 359 -129q187 -139 188 -320zM983 600q1 118 -166 234q-149 103 -272 104q-55 0 -92 -20l-82 -46q15 -21 16 -55
q1 -42 -63 -203q-66 -167 -66 -276q0 -100 38 -168q48 -84 140 -84q127 0 273 141q92 89 165 207q12 11 31 29q6 6 13 13.5t10 10.5q55 67 55 113z" />
    <glyph glyph-name="one" unicode="1" horiz-adv-x="1030" 
d="M922 920q0 -74 -60 -152q-87 -113 -131 -215q-87 -200 -135 -553l-59 63q-28 30 -29 80q-1 57 45 213q22 75 22 127v19q0 16 -2 24q-136 -112 -254 -140q-123 -30 -139 -36l-88 23v65q281 27 461 154q130 91 211 242l94 174h45q3 -33 11 -61z" />
    <glyph glyph-name="two" unicode="2" horiz-adv-x="970" 
d="M881 920q0 -116 -113 -299q-96 -155 -215 -283l-131 -141q81 -89 139 -125q24 -15 78 -181v-45l-43 -20q-87 122 -131 178q-49 61 -105 62q-46 1 -157 -43q0 9 -10 28q-10 14 -13 27l74 65q104 91 213 226q156 193 326 485v88q-11 4 -30 24.5t-26 20.5l-514 -330h-65
l108 113q44 46 126 114q64 53 126 95q169 114 285 115q48 0 67 -86q0 7 5 -36q2 -18 6 -52z" />
    <glyph glyph-name="three" unicode="3" horiz-adv-x="980" 
d="M860 293q0 -91 -115 -182q-140 -111 -354 -111q-202 0 -256 96l-16 54q9 0 26 10l15 12l125 -43q124 -43 161 -43q79 -1 199 57q129 62 129 117q0 102 -131 169q-31 17 -242 89q-131 45 -131 94q0 72 244 197q155 79 197 109v30q-6 55 -113 56q-88 1 -190 -54
q-76 -41 -158 -121h-66v89l154 98q153 97 184 98q52 1 162 -45q135 -57 135 -129q0 -70 -143 -141q-227 -113 -295 -166l338 -160q141 -91 141 -180z" />
    <glyph glyph-name="four" unicode="4" horiz-adv-x="1090" 
d="M965 965q-61 -205 -136 -359q-90 -185 -106 -227q-50 -135 -88 -379q-85 0 -86 90q-1 49 20 115l66 211l-199 -17q-86 -7 -139 -8q-210 -2 -211 92q-1 65 125 205q199 222 293 342h65v-65l-207 -226q-73 -80 -163 -213q105 -64 239 -65q252 -1 334 254q58 182 148 270z
" />
    <glyph glyph-name="five" unicode="5" horiz-adv-x="1491" 
d="M1282 1004q-464 0 -657 -80q-126 -52 -187 -183q-68 -146 -141 -196v-88q42 -6 70 -6h25q8 2 21 4l46 4q72 6 200 -47q139 -58 140 -140q1 -119 -224 -209q-61 -25 -225 -63q-24 0 -78.5 9t-85.5 9q-6 42 -6 72q0 25 6 62q46 -9 113 -15q83 -8 127 -8q202 -2 249 73
q13 21 13 48q1 82 -104 110q-52 14 -170 15q-3 0 -60 -1l-63 -1l-127 -4q0 9 -10 28q-2 6 -11 17q0 24 105.5 143.5t113.5 161.5v8q0 35 -43 78q-24 24 -24 47q0 130 293 174l430 66h264v-88z" />
    <glyph glyph-name="six" unicode="6" horiz-adv-x="1057" 
d="M942 963q1 -65 -38 -108.5t-103 -43.5h-26q-14 0 -25 8q-15 6 -15 19l4 28q0 10 -16 23q-18 7 -64 8q-54 1 -141 -82q-98 -93 -209 -291l23 -65q67 49 114 76q94 54 138 55q80 1 190 -66q126 -77 127 -174q1 -119 -125 -229q-137 -120 -313 -121q-106 -1 -211 68
q-117 76 -117 184q0 260 252 563q247 297 459 299q31 -22 47 -41q48 -55 49 -110zM813 348l-106 78q-45 33 -103 33q-89 0 -190 -75q-107 -79 -107 -165q0 -56 62 -97q56 -36 114 -36q66 0 195 98q99 75 135 164z" />
    <glyph glyph-name="seven" unicode="7" horiz-adv-x="1160" 
d="M1049 1071q0 -15 -95 -133q-52 -65 -101 -134q-52 -74 -75 -112q-96 -161 -96 -284q0 -52 18 -103q-93 -59 -108 -121q-23 -98 -88 -184h-66l-45 43q53 87 71 132q15 38 15 77q0 67 -102 82q-157 23 -180 37l43 88l241 -66q64 16 82 78q38 130 72 184l113 142
q37 64 38 135q1 43 -206 125q-198 78 -287 80q-8 0 -13.5 -1t-24 -9t-36.5 -11v-196l45 -37q7 -7 64 -74q-121 28 -168 82q-54 62 -54 203q0 52 50 98q59 54 159 55q37 0 232 -94q93 -45 219 -45q130 0 262 29q0 -31 10 -52q0 -6 11 -14z" />
    <glyph glyph-name="eight" unicode="8" horiz-adv-x="1000" 
d="M922 1053q0 -78 -120.5 -209t-121.5 -164q-25 -7 -55 -25q-70 -41 -183 -131q49 -48 144 -96q138 -70 139 -174q1 -57 -117 -152q-127 -102 -243 -102q-118 0 -183 131q-45 91 -47 186q40 28 82 74q37 41 49 90l-16 132q-8 63 -8 132q-3 504 463 504q90 0 157 -71
q60 -64 60 -125zM791 1030q0 29 -29 69t-57 40q-173 1 -275 -117q-97 -111 -98 -287q0 -31 6 -69l16 -97q97 140 209 228l162 127q66 52 66 106zM616 262q-3 3 -52 43q-17 15 -56 45h-66l-39 -71l-94 -37l8 -45q0 -17 37 -88q77 48 99 57q15 6 39 10q16 0 20 2q13 6 104 84z
" />
    <glyph glyph-name="nine" unicode="9" horiz-adv-x="1080" 
d="M967 985q0 -32 -43.5 -118.5t-44.5 -145.5q-103 0 -174 -180l-140 -353q-103 -187 -278 -188q-38 0 -88 33q-29 19 -64 53q35 59 68 78q32 13 76 16l51 -2q103 -4 189 150q40 72 97 239l-157 -28q-84 -15 -125 -15q-222 0 -223 252q-1 151 155 334q173 204 371 205
q128 1 235 -125q94 -111 95 -205zM727 1180q-17 0 -39 12t-29 12q-156 0 -294 -166q-123 -148 -123 -272q0 -57 47 -154h88q160 82 231 158q96 102 97 236q-50 35 -50 79q0 19 7 33q3 16 26 31q34 22 39 31z" />
    <glyph glyph-name="colon" unicode=":" horiz-adv-x="580" 
d="M426 887q-46 0 -109 -23l-43 66v88l152 22v-153zM426 352l-31 -33q-28 -30 -55 -67h-88v110l37 62l51 47l57 -51q27 -24 29 -68z" />
    <glyph glyph-name="semicolon" unicode=";" horiz-adv-x="770" 
d="M623 913q-35 -71 -43 -102l-23 -94h-45q-15 93 -29 117.5t-80 78.5l46 43q24 22 51 23q31 1 65 -21zM512 182q1 -74 -59 -176q-96 -163 -312 -297h-45q107 138 186.5 206t79.5 155v106l-2 148h66l57 -48q28 -30 29 -94z" />
    <glyph glyph-name="less" unicode="&#x3c;" horiz-adv-x="1489" 
d="M1149 219l-66 -18q-14 0 -225 51q-263 64 -422 121q-226 82 -227 143q-1 82 174 272q197 214 504 416h45v-4q0 -10 7.5 -22.5t10.5 -26.5q0 -72 -157 -174l-293 -191q-159 -104 -160 -237q-1 -84 451 -160q269 -45 358 -82v-88z" />
    <glyph glyph-name="equal" unicode="=" horiz-adv-x="1483" 
d="M1237 694q0 -31 -42 -49q-34 -14 -69 -14q-55 0 -82 18l-26 45q-41 16 -111 17t-204 -18q-139 -20 -205 -21q-94 -1 -181 22v86q64 0 210 -2q76 1 235 -2l319 -12q45 -2 83 6l50 10l15 -45q8 -24 8 -41zM1063 256q-11 -15 -84 -21q-23 -2 -61 -2h-26q-36 0 -48 3
q-15 2 -15 12v13q0 9 -2 11q-14 15 -49 27l-24 4h-13q-10 0 -18 2q16 0 -119 -8l-135 -8q-41 -2 -109 8q-61 9 -108 25q35 53 82 72q54 22 106 20l107 -4h63q146 0 238 -21q147 -34 215 -133z" />
    <glyph glyph-name="greater" unicode="&#x3e;" horiz-adv-x="1489" 
d="M1214 834q-53 -84 -213 -164q-216 -108 -253 -135q-124 -89 -146 -228h-108l-13 17q-10 11 -10 28q-1 72 139 189q120 100 262 184l146 86q-52 64 -209.5 147.5t-267.5 143.5q-135 74 -135 104q0 5 9 20q9 12 13 23q157 -39 786 -415z" />
    <glyph glyph-name="question" unicode="?" horiz-adv-x="1008" 
d="M892 1437q1 -104 -127 -245l-236 -260q-58 -64 -96 -130q-30 -53 -32 -95h-99q13 109 150 255l237 251q58 62 94 128q30 56 31 106q1 79 -63 138q-55 51 -106 52q-64 1 -214 -116q-166 -129 -167 -242l19 -42q17 -39 19 -135q-100 60 -100 179q0 138 147.5 285t286.5 148
q38 0 77 -15t78 -46q100 -80 101 -216zM283 127q1 -44 -18 -70l-42 -57l-57 42q-22 22 -22 46q0 17 14 56l26 72h80l14 -43q4 -13 5 -46z" />
    <glyph glyph-name="at" unicode="@" horiz-adv-x="2050" 
d="M1950 983q0 -295 -277 -631q-289 -350 -583 -352q-138 -1 -179 121q-10 32 -30 90q-2 9 -11 31q-24 0 -55 -39q-13 -25 -41 -72h-108q-106 31 -152 77t-47 130q-1 46 63 160q78 140 201 233q157 119 359 121q78 -33 124 -61q125 -75 125 -136q1 -182 -162.5 -303.5
t-164.5 -175.5q-1 -38 47 -65q37 -21 63 -21q67 0 244 119q207 139 342 307q175 218 176 422q1 161 -160 326q-193 198 -493 198q-420 0 -719 -221q-325 -240 -326 -631q0 -70 35 -153q41 -98 51 -152q-73 52 -104 123q-49 112 -49 272q0 297 223 508q181 172 479 265
q240 75 453 75q407 0 606 -356q70 -125 70 -209zM1167 719l-88 22q-177 0 -358 -174q-45 -43 -143 -174q0 -70 28 -104q9 -12 60 -49q32 32 221 120q147 69 149 144l-6 6q-20 20 -39 80q80 15 121 55z" />
    <glyph glyph-name="A" unicode="A" horiz-adv-x="930" 
d="M788 454q-70 -50 -88 -166q-6 -38 -6 -82q-1 -57 8 -130q6 -51 21 -135l-45 -27l-23 -9q-13 0 -22 -3l-15 68l-4 61q-2 37 9 104q12 73 12 103q1 107 -4 127q-15 70 -84 70h-43q-104 0 -160 -96q-42 -72 -43 -170q0 -30 6 -49l-78 -35q-3 -11 -30 -64h-45l-13 27
q-6 12 -10 33q0 137 107 389q97 228 198 402l113 194q8 14 33 123q16 77 53 230l59 -19q17 -5 51 -19q-16 -65 -19 -153t-7 -266q-3 -401 69 -508zM635 732l2 47q1 17 -4 47.5t-19 80.5q-5 -10 -65 -165q-58 -151 -66 -189l86 -18q38 0 53 47q18 54 15 109z" />
    <glyph glyph-name="B" unicode="B" horiz-adv-x="1080" 
d="M983 1194q1 -133 -132 -288q-65 -76 -237 -226q33 -35 150 -113q177 -119 178 -215q1 -116 -200 -217q-174 -87 -306 -88q-92 -1 -151 41l-43 -88h-66v416q41 150 41 405q0 271 25 340q24 -18 49 -49q12 -15 26 -16q21 12 61 35q35 21 179 108q235 142 297 143
q52 1 92 -51q36 -47 37 -137zM899 1161v66l-42 14q-18 6 -48 6q-67 0 -158 -71l-102 -80q-168 -107 -189 -142q-97 -165 -98 -657l6 -12q15 -31 17 -154q178 26 280 45q265 49 266 186q1 118 -260 153q-81 11 -190 11h-31q-1 9 -10 36l-10 30q246 182 317 250
q117 111 252 319z" />
    <glyph glyph-name="C" unicode="C" horiz-adv-x="920" 
d="M795 963q0 -2 -13 -35l-30 -76q-14 7 -68 37q-34 19 -35 47q-1 30 17 92l-21 10q-10 8 -24 11q-94 0 -254 -213q-186 -247 -187 -496q0 -264 293 -264q96 0 193 33h65v-46l-106 -51q-25 -12 -105 -12q-168 0 -284 68q-142 82 -142 239q0 254 168 537q174 294 348 295
q57 0 120.5 -59.5t64.5 -116.5z" />
    <glyph glyph-name="D" unicode="D" horiz-adv-x="1318" 
d="M1158 851q0 -152 -212 -371l-421 -435q-246 -255 -306 -399h-95q33 127 110 223l76 67q25 22 77 71l-4 47l-5 92q-5 86 16 284q16 157 66 421l-47 5q-27 0 -37 -2q-6 0 -36 -7q-100 -22 -131 -22h-27q-3 1 -10 2q69 93 179 106q98 0 133 63l7 23q-9 23 -9 51q0 23 2 30
q1 11 10 33q1 5 9 29q11 33 28 74h50v-240q33 0 77 3q34 4 118 11l166 11q98 7 162 -34q54 -34 54 -136zM1038 778v146h-144q-31 -16 -64 -25q-22 -6 -84 -16q-5 0 -165 -8q-30 -19 -39 -64v-14q-1 -11 -1 -19v-66q0 -14 2 -24q0 -94 -16 -217q-17 -127 -67 -295h71
q13 55 66 106l155 150q108 104 286 346z" />
    <glyph glyph-name="E" unicode="E" horiz-adv-x="1140" 
d="M1010 1139l-348 -49q-126 -18 -201 -87q-64 -59 -152 -237v-174l45 -10q21 -5 33 -13q115 0 295 88l131 -22q-54 -69 -154 -103q-80 -27 -188 -28q-87 -1 -162 22q-26 -42 -67 -167q-40 -120 -41 -183q0 -23 14 -45l29 -43q154 41 368 96l60 13q14 0 30 -4l68 -17v-67
q-243 -22 -328 -41l-307 -68l-12 12q-12 12 -12 45l47 228q10 52 35 181q3 12 29 157l24 133q47 271 47 399q0 28 -4 49q85 -18 114 -53q8 -10 17 -35q211 64 350 66q46 0 68 -2q76 -2 172 -41z" />
    <glyph glyph-name="F" unicode="F" horiz-adv-x="1244" 
d="M1097 1247q0 -30 -19 -53l-62 -50q-45 34 -136 35q-129 1 -256.5 -64t-127.5 -157q-19 11 -29 17q-5 4 -21 17l-34 27q-12 -24 -31 -124l-71 -375l11 -10q15 -11 28 -12q61 0 223 53q216 71 216 155h62l32 -47q7 -15 9 -56q1 -24 -35 -109q-44 -104 -111 -162q0 57 4 69
l18 56l-28 27q-14 14 -46 14q-375 0 -438 -270q-19 -187 -29 -228q-19 7 -35 12q-20 6 -28 10q-42 17 -42 41l42 134q52 167 82 311q42 204 43 387q1 124 89 193q56 44 228 99l193 61q81 27 115 42h165q0 -6 9 -17t10 -26z" />
    <glyph glyph-name="G" unicode="G" horiz-adv-x="1150" 
d="M987 965q0 -53 -14 -82l-70 -95h-65l-45 123q-18 50 -19 86q-1 53 64 119l-66 33l-24 10q-212 0 -367 -201q-158 -205 -160 -520q-1 -128 29 -221q48 -150 160 -151q38 0 94 28q34 17 92 60q-42 92 -59 106q-31 26 -181 68l-4 53q-3 35 35 37l166 -39l197 -51
q-74 -140 -119 -217q-65 -111 -221 -111q-140 0 -215 182q-60 146 -60 367q0 205 164 438q183 261 406 262q112 1 196.5 -85.5t85.5 -198.5z" />
    <glyph glyph-name="H" unicode="H" horiz-adv-x="1210" 
d="M1116 1247q0 -102 -58 -341l-38 -156q-15 -61 -39 -156q-14 -52 -41 -156q-9 -39 -37 -303q0 -87 -18 -135q-41 115 -41 201q0 71 19 126l42 122q0 24 -49 24q-463 0 -567 -92q-68 -61 -70 -336l-47 -14l-41 -8l-14 71q-11 56 -11 62q0 51 27 100l64 117l69 606
q27 233 39 268q10 -3 27 -10q11 -2 39 -10q0 -58 -29 -289q-32 -253 -57 -369l436 -63q219 0 258 371q27 259 72 370h65z" />
    <glyph glyph-name="I" unicode="I" horiz-adv-x="490" 
d="M352 96q0 -41 -43 -73q-12 -9 -43 -23l-14 8q-36 10 -51 10l-45 746l22 393h6l52 4q35 3 51 -26q7 -17 8 -115q0 -39 -5 -118l-9 -140q-4 -80 -5 -162q-1 -46 -10 -121q26 -166 47 -243z" />
    <glyph glyph-name="J" unicode="J" horiz-adv-x="1100" 
d="M969 1466q-92 -65 -133 -65q-21 0 -56 45l-53 86v88q18 0 66 12q12 2 32 10q17 -12 33 -28q80 -78 111 -148zM815 1159q0 -339 -96 -713q-114 -445 -277 -446q-168 -1 -245 86q-45 50 -105 219q82 -24 133 -37q21 -5 21 -51v-61q0 -26 43 -50q45 -19 110 -20
q120 -1 189 141q54 111 78 338q4 125 18 398l8 114q1 27 5 77q3 19 10 48h86q0 -3 10 -17.5t12 -25.5z" />
    <glyph glyph-name="K" unicode="K" horiz-adv-x="1069" 
d="M922 1094q25 0 26 -19q1 -31 -96 -133l-190 -199l-306 -305l136 -157q56 -78 192 -304v-65q-73 44 -223 246q-75 101 -172 170q-48 -116 -49 -148q-1 -33 49 -114l-43 -43h-88q0 9 -1 16t-10 41q-12 45 -12 63q85 263 88 865l88 20q25 -86 25 -172q0 -48 -13 -136
q-13 -93 -14 -136q-1 -27 2 -37q102 66 238 215q164 179 176 192q139 139 197 140z" />
    <glyph glyph-name="L" unicode="L" horiz-adv-x="811" 
d="M858 336q-73 -78 -115 -162q-12 -25 -59 -153l-90 18l-57 5q-34 -15 -89 -28q-17 -4 -172 -12l-79 -4q-82 -4 -82 81l60 173q5 16 38 105q33 97 101 290l157 438q31 82 37 96h45q1 -12 12 -38q8 -28 8 -50q1 -97 -79 -277q-7 -16 -81 -178q-25 -51 -83 -176
q-94 -206 -127 -385l28 -11q1 0 32 -5h36q13 0 111 16l252 41q0 98 36 163q29 53 117 132l43 -21v-58z" />
    <glyph glyph-name="M" unicode="M" horiz-adv-x="1343" 
d="M1249 1045q-122 -451 -135 -504q-85 -346 -87 -511q-1 -45 7 -75q3 -28 23 -65h-96q-12 48 -39 82l-12 15q0 89 49 267q48 174 51 335l-314 -290h-144q0 91 -34 219q-42 156 -88 264q-71 -145 -116 -487q-30 -227 -194 -308q-14 17 -25 38l19 171q17 151 82 415
q68 277 163 507h71l104 -251q39 -94 67 -222q21 -97 23 -202q14 0 18.5 -1t17.5 -7l23 -11q63 0 227 187q193 219 244 459z" />
    <glyph glyph-name="N" unicode="N" horiz-adv-x="1240" 
d="M1071 905q-185 -303 -272 -506l-125 -293q-45 -104 -107 -141q-67 68 -95 225q-17 109 -56 336q-32 174 -111 248q0 -109 -48 -484t-62 -413l-52 33q-14 29 -16 98l18 240q3 35 15 167l16 163q4 31 19 159q27 241 45 279q150 -36 192 -144q15 -38 36 -268.5t99 -419.5
q26 26 117 164q305 463 342 733h45v-176z" />
    <glyph glyph-name="O" unicode="O" horiz-adv-x="1197" 
d="M1039 572q0 -176 -135 -348q-176 -223 -468 -224q-169 0 -261.5 92.5t-92.5 259.5q0 260 125 509q151 302 385 303q155 1 295 -167q151 -181 152 -425zM934 633q0 295 -230 412q-65 33 -82 33l-102 -20q33 -54 40 -124q-148 0 -274 -251q-99 -197 -99 -280
q0 -121 57 -205q65 -97 180 -97q231 0 376 164q133 151 134 368z" />
    <glyph glyph-name="P" unicode="P" horiz-adv-x="1053" 
d="M962 946q1 -112 -164 -291q-144 -155 -267 -222q-75 -41 -160 -68q-34 -11 -74 -11h-23q-24 -24 -34 -70q-5 -22 -9 -99q-2 -59 -23 -101q-23 -47 -69 -84q0 67 28.5 179.5t29.5 161.5q1 28 -9 57q-6 25 -31 56q80 67 116 294q45 288 82 360q89 174 314 174q90 0 186 -97
q106 -108 107 -239zM885 976q0 56 -55 125q-65 82 -151 82q-217 1 -268 -247l-96 -464q6 -2 20 -8q11 -5 19 -10q187 45 369 243q162 176 162 279z" />
    <glyph glyph-name="Q" unicode="Q" horiz-adv-x="1149" 
d="M1058 800q1 -99 -91 -241l-200 -247l54 -96q47 -84 72 -136h-63q-47 45 -79 87l-45 59l-194 -148q-102 -78 -213 -78q-105 0 -163 138q-12 28 -35 140q0 152 79 403q92 293 193 316l18 1q29 2 66 -20q24 -11 51 -24q42 58 95 99q62 48 144 48q121 0 222 -119
q88 -104 89 -182zM977 788q0 78 -84 157q-75 70 -134 71q-80 1 -160 -108l-226 -307q0 135 4 154q20 20 59 136q-161 -75 -230 -498q-6 -48 -19 -144q0 -55 31 -105l72 -84q76 46 152 100l180 128v43q-54 21 -100 21q-29 0 -94 -14q-22 -5 -55 -7v83q33 18 100 51
q49 21 87 21q72 0 146 -74q103 65 193 203q78 119 78 173z" />
    <glyph glyph-name="R" unicode="R" horiz-adv-x="1070" 
d="M954 828q1 -122 -141 -243q-163 -107 -191 -130q104 -119 172 -255q46 -92 99 -245l-41 -40q-36 42 -70 122q-86 202 -117 251q-71 113 -229 171q-70 26 -104 80q-53 -112 -89 -229q-54 -176 -56 -334h-31q-30 0 -32 33l53 283q16 84 36 184l36 181q7 34 37 178
q65 311 87 348h43l20 -146l123 80q71 46 157 47q73 1 149 -86q88 -101 89 -250zM852 819q1 82 -35 156q-40 83 -101 83q-151 1 -270 -221l-77 -191q-15 -37 -37 -87h249q270 116 271 260z" />
    <glyph glyph-name="S" unicode="S" horiz-adv-x="1007" 
d="M895 977q1 -98 -35 -134q-14 -14 -109 -55q-17 152 -47.5 242.5t-67.5 90.5q-78 1 -153 -59q-105 -84 -106 -234q0 -59 67 -195q60 -119 121 -238q80 -171 81 -241q1 -81 -115 -126q-32 -12 -115 -28q-81 0 -154 15q-98 20 -155 65v62q89 0 196 -45q36 -15 113 -15
q104 0 143 22q43 19 44 71q1 70 -74 198l-140 240q-34 58 -58 146q-19 67 -19 132q-1 136 135 226q99 66 168 66q92 0 179 -54q100 -62 101 -152z" />
    <glyph glyph-name="T" unicode="T" horiz-adv-x="1323" 
d="M1197 1082l-211 4q-16 0 -78 -2q-27 0 -85 -2q-59 -5 -84 -22q-53 -36 -104 -410q-42 -304 -43 -494q0 -28 2 -32v-102l-84 -22l-24 65l78 653q16 122 51 280q-76 22 -154 23q-39 0 -138 -15q-57 -9 -82 -9h-20q-48 0 -106 22l161 43q167 45 376 82q224 40 418 43
q17 0 25 -0.5t37 -7.5l65 -15v-82z" />
    <glyph glyph-name="U" unicode="U" horiz-adv-x="1176" 
d="M991 712q-108 -266 -231 -439q-54 -75 -108 -129q-145 -144 -284 -144q-230 0 -230 378q0 332 71 566l92 226l69 -21q-55 -193 -103 -400q-35 -151 -35 -323v-46q0 -130 18 -180q29 -110 109 -110q192 -1 336 211q117 172 171 400l57 241h68v-230z" />
    <glyph glyph-name="V" unicode="V" horiz-adv-x="1507" 
d="M1335 1084q-245 -215 -348 -404q-43 -79 -115 -313q-61 -199 -184 -367q-59 145 -98 235q-107 249 -169 376q-123 251 -241 303v75q3 9 14 13q19 10 45 10q56 1 146 -161q15 -27 40 -77q6 -12 53 -111l68 -145q54 -119 65 -142q41 -86 77 -135q63 98 150 305.5t144 298.5
q94 148 282 288z" />
    <glyph glyph-name="W" unicode="W" horiz-adv-x="1901" 
d="M1662 1061q-100 -72 -257 -333q-121 -201 -203 -381q-120 -264 -135 -433l-93 -21q-39 72 -88 216q-36 104 -94 194l-134 -204q-51 -78 -118 -138q-75 79 -117 187l-158 409q-11 -4 -34.5 -19.5t-35.5 -28.5l-60 70q-31 36 -32 79q0 3 18 103q0 36 1 58q2 57 5 127l45 45
q69 -75 187 -382q104 -271 133 -420l48 -45l127 176q60 83 60 175q0 54 -28 107q46 21 101 44q31 13 82 31l56 15q16 0 27 -4q8 -2 50 -41q5 -5 28 -23l-134 -70q-27 -19 -27 -88q0 -38 39 -156q20 -65 77 -189q50 79 139 277q51 116 164 344q124 225 293 432h68v-113z" />
    <glyph glyph-name="X" unicode="X" horiz-adv-x="1092" 
d="M936 992q-97 -97 -166 -179q-127 -151 -128 -226q-1 -85 210 -531q-6 0 -16 -11q-6 -9 -38 -10q-43 -1 -117 204q-50 140 -100 212q-157 -222 -204 -332l-106 -249h-43l-22 43q0 16 123.5 271t125.5 330q15 6 43 21q42 29 43 74q1 48 -82 191q-65 112 -151 233l-82 115
q0 19 15 44l30 50q121 -48 176 -211q80 -238 134 -309q48 33 89 87q70 91 160 203z" />
    <glyph glyph-name="Y" unicode="Y" horiz-adv-x="950" 
d="M817 1218q0 -106 -80 -305l-165 -410q-104 -258 -150 -481q-24 3 -36 7q-41 8 -69 16t-62 20v102q111 33 177 177q39 87 117 262q16 35 19 40v62q-4 1 -16 9q-7 8 -17 11q-27 -18 -82 -51q-92 -51 -167 -51q-85 0 -135 86q-42 72 -42 164q0 28 27 149l78 349q80 0 81 -84
q1 -58 -50 -218q-53 -164 -54 -239q-1 -36 29 -79q31 -46 66 -46q139 0 247 125q68 79 146 248.5t95 186.5l22 -9q21 -12 21 -41z" />
    <glyph glyph-name="Z" unicode="Z" horiz-adv-x="1358" 
d="M1134 95q-25 -47 -44 -99l-39 -107h-63l-4 43q0 18 2 23q0 13 2 17l-41 61q-38 -8 -132 -19q-41 0 -62 -1l-107 -5l-208 3q-61 1 -141 9q-47 5 -120 13q0 13 -3.5 22t-8.5 16l-9 26q0 51 89 129q43 35 111 91q50 41 113 91q41 48 41 97v28l128 65q60 31 136 82
q63 43 113 87q139 123 185 264q-49 0 -107 6q-160 17 -195 17q-80 1 -234 -20q-158 -22 -235 -22q0 -163 -83 -312q-40 75 -43 176l107 406h62l3 -33v-87l-3 -47q21 -5 74 -12l94 -4q115 -5 295 18l149 19q72 0 128 -52q48 -45 48 -94q0 -54 -52 -118l-321 -319l84 -104
l-90 -7q-18 -1 -37 5l-20 4q-50 0 -128 -56q-90 -65 -286 -257v-58q83 15 117 15l93 -11q51 -6 100 -6q106 0 167 17q36 10 62 43q94 0 124 -8l78 -21q7 0 8 52t41 164h62v-230z" />
    <glyph glyph-name="bracketleft" unicode="[" horiz-adv-x="1150" 
d="M1006 1081q-86 0 -178 23t-173 63h-151q-23 -242 -80 -428q-22 -72 -113 -297q-70 -172 -114 -368q308 0 503 65l21 -88q-159 -16 -218 -23q-96 -12 -143 -26l-122 -35q-38 0 -91 31q-60 35 -61 78q-1 21 80 217q87 209 96 252l41 188l82 352q44 190 51 193
q104 -14 203 -33q238 -45 367 -98v-66z" />
    <glyph glyph-name="backslash" unicode="\" horiz-adv-x="930" 
d="M776 66l-80 -41q-23 -12 -73 -25q-6 27 -140 305l-254 526q-135 280 -135 285l12 25l35 63h66q62 -266 211 -565q109 -218 241 -414q107 -159 117 -159z" />
    <glyph glyph-name="bracketright" unicode="]" horiz-adv-x="1040" 
d="M838 82q-63 -88 -226 -90q-41 0 -106 10q-27 3 -31 5q-22 3 -33 9q-123 0 -182 -41l-70 -90q-22 0 -51 13q-26 6 -47 10l-2 45q103 180 250 180q21 0 199 -18l16 -2q82 -7 152 -9v721q-34 102 -82 142t-129 41q-46 1 -142 -21q-34 -8 -48.5 -11.5t-59.5 -17.5v132l164 20
q173 0 428 -86v-942z" />
    <glyph glyph-name="asciicircum" unicode="^" horiz-adv-x="1000" 
d="M772 909l-43 -43q-150 93 -154 527l-43 43q-42 -62 -194 -316q-29 -49 -90 -143h-66v108q39 81 152 275q128 219 198 317h109q17 -179 64 -426q23 -120 67 -342z" />
    <glyph glyph-name="underscore" unicode="_" horiz-adv-x="1458" 
d="M1282 20q-91 0 -117 -10q-12 -3 -26 -10l-92 16q-25 3 -121 16q-121 16 -226.5 17t-205.5 4l-264 8q-61 2 -240 5v131q73 0 219 -33t219 -33q175 0 329 7q46 1 111 3l318 23q32 2 96 -12v-132z" />
    <glyph glyph-name="grave" unicode="`" horiz-adv-x="610" 
d="M504 1534q0 -23 -68 -139q-82 -139 -149 -201q-2 13 -4 19.5t-7.5 18.5t-9.5 30q0 23 34 52q47 42 63 65q34 50 34 122q0 65 -108 117q-124 59 -154 145q18 3 45 15q15 4 41 8q97 0 193 -98q90 -92 90 -154z" />
    <glyph glyph-name="a" unicode="a" horiz-adv-x="1050" 
d="M920 655q-2 -24 -66 -286.5t-88 -325.5h-66v154q-19 0 -43 12l-24 8q-91 -69 -154 -108q-74 -46 -115 -67q-80 -41 -124 -42q-43 -1 -93 86q-40 70 -41 166q-2 241 324 481q106 78 127 78l148 -47q66 -21 104 -21v-88q28 -6 57 -10q21 0 54 10zM743 567q-15 15 -44 48
q-6 12 -21 63h-66q-218 -113 -293 -184q-121 -114 -122 -297q0 -28 28 -56q9 -7 103 -55q13 56 100 111l207 131q6 9 6 18t-10 31q-8 19 -10 37q0 60 122 153z" />
    <glyph glyph-name="b" unicode="b" horiz-adv-x="970" 
d="M840 340q1 -110 -189 -229q-175 -110 -295 -111q-69 -1 -88 18q-23 56 -41 91l-65 -89h-45q57 261 178 613q124 360 172 395q0 -18 8 -37l12 -28l-57 -189q-31 -101 -49 -207h10l47 2l70 2q133 4 217 -36q114 -54 115 -195zM729 340q1 60 -46 89.5t-95 29.5
q-199 1 -252 -131l-88 -219q23 -7 45 -23q214 58 342 150q93 67 94 104z" />
    <glyph glyph-name="c" unicode="c" horiz-adv-x="840" 
d="M713 610q1 -48 -78 -131q-57 -60 -98 -88l-46 83q-1 5 -3.5 16t-4.5 18l6 57q0 30 5 90q-91 -29 -199 -129q-130 -120 -131 -233q-1 -142 112 -184q63 -23 240 -25l21 -43l-72 -21q-19 -5 -72 -15q-26 -5 -53 -5q-89 -1 -160 66q-81 77 -82 227q-1 207 199 358
q151 114 252 115q37 0 100 -59.5t64 -96.5zM582 567l-5 2l-2 31v55l7 -2l6 -45z" />
    <glyph glyph-name="d" unicode="d" horiz-adv-x="1120" 
d="M983 1149q1 -55 -49 -209l-119 -369q-70 -217 -135 -571l-66 23q51 228 52 260q1 18 -21 32q-59 30 -96 166q29 -8 59 -24q17 -9 27 -19l45 43q-2 5 -8 15q-40 74 -125 75q-112 1 -248 -114q-102 -86 -102 -205q0 -110 34 -130q60 -14 119 -28q39 -12 68 -26l-82 -31
q-36 -14 -62 -14q-162 -2 -163 219q-1 176 135 281q124 95 305 95q99 0 172 -26q36 59 100 276q53 179 97 402h45l6 -24q2 -8 8 -19q3 -27 4 -78z" />
    <glyph glyph-name="e" unicode="e" horiz-adv-x="956" 
d="M835 519q0 -94 -114 -159l-229 -130q-59 0 -90 8q-34 9 -71 16q36 61 187 108t229 167l-57 60q-9 9 -32 11l-65 -3q-176 -8 -277 -156q-79 -116 -80 -201q-1 -96 205 -152q146 -39 189 -64q-25 -3 -37.5 -13.5t-42.5 -10.5q-103 -1 -238 60q-165 75 -166 180
q-1 206 181 345q139 106 256 107q52 0 135 -38q117 -55 117 -135z" />
    <glyph glyph-name="f" unicode="f" horiz-adv-x="1100" 
d="M905 932q0 -51 -33 -78l-75 -45q-3 20 -9 68q-1 23 -4 57q0 48 13 117l-17 12q-11 10 -28 10q-60 1 -201 -170q-150 -183 -150 -299q0 -123 281 -123h27v-88q67 0 -127 7q-92 3 -140 -14q-65 -23 -65 -87v-23q0 -63 -12 -110q-18 -71 -72 -166h-45v147q0 8 1 62l1 57
q1 99 -19 127q-49 49 -92 111h43l37 -2q53 -3 64 28q7 27 8 195q0 56 268 330q144 148 213 149q36 1 78 -65q54 -85 55 -207z" />
    <glyph glyph-name="g" unicode="g" horiz-adv-x="1020" 
d="M926 406l-47 -119q-36 -92 -110 -261q-24 -49 -83 -192l-127 -338q-78 -208 -203 -209q-41 0 -140 91q-73 67 -122 128v132q98 -31 129 -48q67 -37 68 -172q17 -2 43 -14q12 -6 22 -6q85 0 144 123q17 35 141 489l-35 2h-45l-47 -2q-78 -3 -123 27q-54 37 -55 137
q-1 183 98.5 338t239.5 156q37 0 143.5 -113t108.5 -149zM750 449q0 28 -23 63q-29 45 -65 45q-65 0 -148 -166q-72 -145 -72 -194l4 -9q18 -22 21 -90h86q39 41 121 197q73 139 76 154z" />
    <glyph glyph-name="h" unicode="h" horiz-adv-x="820" 
d="M668 274l-6 -45q-15 -87 -37 -229q-36 47 -51 90q-3 16 -8 35q-4 24 -5 51q-1 25 5.5 74t6.5 72q0 106 -81 204q-148 -90 -203 -211q-130 -285 -168 -315q0 8 -11 17.5t-12 17.5q0 31 99 287q13 33 50 131q20 51 27 73l91 392q39 170 61 221h66q-12 -83 -54 -234
q-51 -183 -78 -313l84 12l70 10q66 0 115 -163q39 -129 39 -177z" />
    <glyph glyph-name="i" unicode="i" horiz-adv-x="640" 
d="M518 922h-4q-19 0 -39 -13l-12 -8q-25 20 -37 31q-46 44 -82 110l21 56h88l4 -90q6 -28 61 -86zM410 639q-3 -29 -8 -64q-19 -153 -66 -333q-34 -131 -80 -240l-31 -2q-36 -2 -37 37q-1 58 60 313q69 291 139 332q0 -20 6 -31q3 -7 17 -12z" />
    <glyph glyph-name="j" unicode="j" horiz-adv-x="1100" 
d="M942 731q0 -18 -12.5 -38t-30.5 -50q-75 96 -108 219q32 9 88 21l20 2l33 -107q5 -15 10 -47zM766 383q0 -146 -176 -543l-46 -103q-4 -11 -16 -34q12 0 15 -2q34 -15 71 -86q-148 -23 -217 -113q-118 -155 -329 -282q-23 23 -45 48q-4 4 -15 17q-8 18 -8 101
q-1 208 197 247q247 49 309 156q49 83 94 260l102 397h46q0 -12 9 -25.5t9 -37.5zM332 -451h-68q-172 -46 -174 -143q0 -24 6 -37q3 -8 17 -16q85 61 112 88q35 37 107 108z" />
    <glyph glyph-name="k" unicode="k" horiz-adv-x="970" 
d="M817 768q-24 -98 -86 -193q-85 -130 -264 -309q98 -151 135 -190q21 -22 62 -182l-132 -23l-32 172q-21 112 -144 113q-87 1 -96 -60q-25 -177 -35 -202q-107 97 -110 155q123 229 153 369q36 168 62 338q28 183 71 254q5 -9 25 -29q15 -18 16 -70q1 -43 -73 -338
q-34 -135 -35 -233v-28q0 -16 2 -25q148 100 246 239l170 242h65z" />
    <glyph glyph-name="l" unicode="l" horiz-adv-x="1130" 
d="M942 1094q0 -93 -78 -199q-52 -71 -198 -205q-213 -195 -269 -254l-67 23q142 162 241 246l87 74q18 15 44 40q67 72 177 252l-19 23q-21 19 -61 20q-28 1 -176 -133q-180 -163 -293 -342q-153 -243 -154 -465q0 -76 41 -98q17 -9 57 -10q50 -1 112 11q81 16 130 36
l250 104q17 0 20 -14q0 -47 -129 -119q-151 -84 -338 -84q-150 0 -178.5 22t-29.5 142q-1 233 143 495q125 228 307 402q170 163 273 164q108 1 108 -131z" />
    <glyph glyph-name="m" unicode="m" horiz-adv-x="1180" 
d="M1011 217l-45 -254h-69l-48 45h19q48 18 48 127q0 120 -67 288q-117 -85 -202 -251q-140 -275 -200 -275h-12q-9 0 -14 2l-31 17q48 73 109 204q72 152 73 211q0 18 -15 49l-28 43h-47l-104 -142q-117 -160 -171 -318h-93l97 280q30 86 48 201q14 90 16 208h69
q8 -19 21 -43l3 -18v-53q57 -15 73 -15q1 0 16.5 20.5t71.5 20.5q48 0 95 -86l43 -78l103 90q81 71 90 74q60 0 112 -172q1 -4 16 -72q7 -34 23 -103z" />
    <glyph glyph-name="n" unicode="n" horiz-adv-x="792" 
d="M617 73l-6 -36q-3 -18 -7 -67q-2 -18 -5 -54q0 -16 -2 -49h-122q48 115 48 264q0 144 -48 265l-288 -409h-49q0 16 -17 39q-3 5 -9 10q169 265 172 505l56 -55l38 -43l123 73q116 -136 116 -443z" />
    <glyph glyph-name="o" unicode="o" horiz-adv-x="990" 
d="M836 403q1 -167 -156 -290q-143 -112 -315 -113q-248 -1 -250 305q-1 132 229 295q199 141 262 141q90 0 164 -128q65 -112 66 -210zM770 391q0 64 -35 131q-45 87 -119 88q-80 1 -225 -156t-145 -237v-27q0 -123 110 -124q93 -1 251 117q163 121 163 208z" />
    <glyph glyph-name="p" unicode="p" horiz-adv-x="1170" 
d="M1028 549q0 -151 -194 -340q-182 -178 -310 -197q-164 -25 -223 -229q-84 -290 -127 -340q-3 38 -16 72l-6 16q0 76 47 219l129 393l37 215q41 237 49 243q12 8 237 70t246 62q46 0 92 -59q39 -50 39 -125zM938 539q0 24 -51 67l-25 21q-131 0 -280 -160
q-123 -133 -123 -324l6 -8q12 -16 16 -33v-4h66l8 15q12 18 100 73q47 -13 66 -22q0 84 56 158q4 6 104 110q56 59 57 107z" />
    <glyph glyph-name="q" unicode="q" horiz-adv-x="1030" 
d="M840 434q1 -43 -176 -319q-164 -255 -349 -613l21 -88q62 46 124 88q55 38 271 154v-45q-68 -58 -178 -146l-217 -159q-39 0 -51 2q-7 0 -35 6l-68 14l146 361q42 104 139 317h-12l-41 -2l-58 -4q-73 -5 -118 37q-57 54 -58 188q-1 163 113 310q165 214 260 215
q110 1 207 -146q79 -120 80 -170zM709 530l-45 84q-24 28 -89 29q-57 1 -172 -135q-131 -155 -133 -305l23 -131q172 66 246 200l92 240q30 0 30.5 -8.5t24.5 -16.5v-65z" />
    <glyph glyph-name="r" unicode="r" horiz-adv-x="910" 
d="M690 653q-56 -110 -164 -229l-207 -229v-66l68 -20q42 -12 70 -13q42 -1 63 17q3 2 14 14l3 4l34 -20q39 -23 76 -48l-49 -49q-26 -13 -147 -14q-80 -1 -149 26q-92 35 -93 103q-1 72 76 156l161 176q95 104 136 215q-168 0 -328 88q-90 -123 -90 -246v-75q0 -17 2 -29
q-24 18 -49 36q-19 17 -19 58v39q0 75 36 189.5t85 115.5l471 -133v-66z" />
    <glyph glyph-name="s" unicode="s" horiz-adv-x="920" 
d="M770 545q0 -90 -55 -117q-87 -20 -140 -37l43 -67q44 -69 46 -86q0 -74 -213 -162q-180 -75 -226 -76q-13 0 -35 10q-11 3 -30 8v45q60 67 114 91.5t107 25.5q10 0 43 -4l31 -4q36 0 75 41l45 47l-157 152q-81 79 -82 145q-1 87 92 143q67 40 125 41q90 1 153.5 -53
t63.5 -143zM664 545q-2 6 -17 26q-10 20 -29 39h-131l-20 -53q18 -48 47 -82q17 -20 61 -61l-12 45l-8 28l10 23q3 7 10 35h89z" />
    <glyph glyph-name="t" unicode="t" horiz-adv-x="1200" 
d="M1053 877q-318 0 -428 -74q-95 -64 -138 -271l-96 -462q-4 -24 -16 -70l-133 23q56 116 110 299l111 378v88l-25 15l-20 10q-34 0 -124 -54q-76 -45 -116 -79l-45 20v66q47 41 189 101q128 54 141 75q5 8 16 94q10 79 49 125q22 -33 37 -67q8 -33 10 -60l-4 -92
q6 -1 40 -5q12 -2 44 -3l50 -2q38 -2 176 16q29 4 86 8q45 1 86 -14v-65z" />
    <glyph glyph-name="u" unicode="u" horiz-adv-x="924" 
d="M784 410q0 -46 -148 -212q-177 -198 -322 -198q-102 0 -136 101q-21 63 -21 187q0 94 12 165q11 63 61 171q33 -23 49 -59q13 -30 14 -79q1 -50 -23.5 -147.5t-24.5 -140.5q0 -51 28 -76q24 -27 90 -27q135 0 200 232l77 275h97z" />
    <glyph glyph-name="v" unicode="v" horiz-adv-x="1023" 
d="M806 554q-152 -142 -215 -253l-170 -301h-72q-11 45 -34 117q-12 40 -40 124q-45 126 -142 338h95q46 -102 78 -205q19 -62 68 -180q55 43 155 193q110 165 133 264l54 -4.5t25 -4.5l65 -16v-72z" />
    <glyph glyph-name="w" unicode="w" horiz-adv-x="1417" 
d="M1282 700q-58 -18 -264 -286q-197 -256 -285 -414h-65q-33 59 -58 119l-51 123q-43 -40 -63 -70q-29 -43 -27 -82l2 -47q-11 -2 -39 -11q-21 -7 -39 -7q-31 0 -67 84q-123 288 -183 372l21 88h45q64 -97 94 -166l80 -184q72 58 104 139q58 145 226 234l2 -29v-26
q0 -59 -33.5 -66.5t-34.5 -87.5q0 -14 35 -100q16 -42 41 -86q44 0 164 159q66 88 200 303l107 172l41 -26q4 -4 47 -105z" />
    <glyph glyph-name="x" unicode="x" horiz-adv-x="870" 
d="M711 662l-142 -173q-123 -150 -123 -188q0 -64 64 -121q71 -63 178 -65v-66l-57 -14q-24 -6 -64 -6q-77 0 -98 37l-66 114q-57 -106 -90 -219q-39 -135 -63 -197l-64 41q-25 22 -26 50q-1 23 87 198t89 238q1 52 -88 213l-88 160q0 5 12 18t12 25q63 -32 97 -75
q20 -26 46 -86q27 -64 54 -102l242 218h88z" />
    <glyph glyph-name="y" unicode="y" horiz-adv-x="930" 
d="M760 387q-330 -448 -438 -965h-154q0 32 -16 49q-8 8 -9 19q63 60 115 154q94 170 195 413q-70 0 -73 -9.5t-58 -10.5q-130 -1 -134 262q43 56 64 104q37 83 70 224h65q-18 -129 -51 -256q-49 -189 -57 -226l22 -14q8 -4 13 -5t18 -3q115 0 205 160l157 278h66v-174z" />
    <glyph glyph-name="z" unicode="z" horiz-adv-x="960" 
d="M819 264l-290 -4q-6 1 -17 2q-2 -20 -4 -27q0 -10 -4 -18q-2 -12 -12 -41q0 -14 56 -88t75 -88q-46 0 -138 29q-41 13 -73 14q-20 1 -27 -2h-8q-25 0 -78.5 -20.5t-81.5 -20.5h-10q43 104 112 166l107 96l-88 88l78 16l67 7q21 0 27 16q28 71 68 135v45q-27 13 -187 64
l-76 24q-60 0 -86.5 -23t-27.5 -75q0 -21 4.5 -49t15.5 -59l29 -80q-4 0 -15.5 -9.5t-19.5 -11.5q-41 0 -74 99q-4 13 -22 98q0 77 47 145q53 74 127 76q166 -111 436 -113q-19 -62 -47 -141q-9 -28 -59 -121q76 -45 80 -46q41 -25 116 -83z" />
    <glyph glyph-name="braceleft" unicode="{" horiz-adv-x="980" 
d="M858 1507q-9 -1 -28.5 -21t-38.5 -20q-33 0 -53 35l-33 72q-86 -96 -125 -221q-30 -98 -31 -207q-1 -59 12 -133q4 -25 12 -51q0 -47 -65 -170q-24 -45 -66 -115q0 -15 43 -73.5t43 -110.5q1 -75 -50 -145q-12 -17 -94 -104q-52 -55 -52 -91q-1 -90 102 -91q47 -1 135 11
q95 13 136 14q-54 -34 -154 -60q-95 -25 -164 -26q-50 -1 -87 52q-33 47 -34 100q-1 45 133 217q63 82 64 143q1 71 -176 96q-114 16 -174 68q24 24 61 37q44 9 78 8l55 -2q110 -4 145 87q33 85 33 265q0 160 41 346q58 265 146 266q93 1 141 -71z" />
    <glyph glyph-name="bar" unicode="|" horiz-adv-x="640" 
d="M422 248l-29 -314q-14 -159 -35 -325h-65l-17 53q-6 19 -6 47q39 115 74 266q33 144 33 263q-12 100 -26 216q-8 70 -24 209l-24 207q-33 296 -33 492q0 11 13 65q12 61 32 107h103q-80 -105 -80 -344q0 -144 24 -342q60 -495 60 -600z" />
    <glyph glyph-name="braceright" unicode="}" horiz-adv-x="990" 
d="M877 1511q1 -120 -74 -204l-154 -172q-89 -100 -123 -261q86 -32 172 -45l136 -20l-62 -37q-11 -6 -31 -8l-40 2l-56 2q-45 2 -98 -41q-42 -34 -43 -80q-1 -35 54.5 -179t55.5 -194q1 -135 -106 -200l-158 -74l-174 23v65q26 6 206 36q186 30 187 150q-130 241 -131 396
q-1 257 97 420q32 53 178 202q97 99 98 207q1 103 -65 159q-61 51 -166 52q-51 1 -93 -10q-9 -1 -24 -6q-7 -2 -25 -8q42 68 56 77q28 13 88 13q119 1 205 -72q89 -76 90 -193z" />
    <glyph glyph-name="asciitilde" unicode="~" horiz-adv-x="1485" 
d="M1180 713q-21 -35 -142 -88q-145 -63 -270 -64q-54 0 -103.5 16.5t-89.5 51.5q-85 74 -163 149q-72 0 -136 -73l-135 -209q-1 18 -3 27q0 19 -19 28q0 32 74 149q91 144 174 144q53 0 245 -148q89 -69 176 -69q22 0 134 45q102 41 200 43h30q19 0 28 -2z" />
    <glyph glyph-name="uni00A0" unicode="&#xa0;" horiz-adv-x="512" 
 />
    <glyph glyph-name="exclamdown" unicode="&#xa1;" horiz-adv-x="1290" 
d="M1290 1364q-128 -21 -196 -178l-338 -787q-48 -133 -156 -288q-86 -124 -264 -125q-127 -1 -195 51q-64 49 -65 123q-1 71 63 98l19 6l18 2h8l11 -2q88 -16 88 -100v-37l2 -18q2 -20 23.5 -36.5t62.5 -17.5q80 -1 141 70q69 81 98 147l33 76l-524 928q-39 75 -119 88v70
h418v-70q-38 0 -56 -12q-12 -12 -26 -35l-2 -10v-9l2 -24q3 -17 10 -25l6 -16l8 -16l11 -21l10 -16l348 -617h8l295 711q0 38 -28 64t-66 26h-12v70h364v-70zM840 1645q54 14 73 30l11 15l4 12q-3 12 -8 16l-17 8h-39q-27 3 -47 19q-6 9 -14 37v10l4 10q7 17 24 33
q11 8 23 12l35 4q54 0 88 -30q26 -23 41 -66v-14l2 -12l-4 -31q0 -17 -10 -33q-62 -148 -334 -149q-255 -1 -336 149l-12 33l-2 31v12l4 14q17 96 129 96q39 0 55 -16q18 -12 27 -33l4 -20q0 -41 -56 -56h-45l-16 -8l-8 -10v-6l2 -12l12 -15q25 -18 72 -30q58 -15 170 -15
q109 0 168 15z" />
    <glyph glyph-name="cent" unicode="&#xa2;" horiz-adv-x="850" 
d="M868 727l-30 -8q-22 -10 -47 -33l-33 -49l-8 -14l-7 -17l-319 -712q-13 -30 -45 -95q-16 -28 -62 -90q-70 -93 -178 -84l-24 2l-27 6q-29 6 -55.5 31t-26.5 70q0 84 76 86q23 1 35 -4l41 -27l22 -12q11 -6 33 -6q64 0 109 90l4 8l61 133l-244 602q-50 123 -133 123h-10
v61h377v-61h-29q-17 0 -35 -12q-11 -11 -16 -41l2 -17l4 -14l8 -20l2 -7l164 -409l187 420q2 10 4 12l2 12l2 15q0 28 -17 45q-17 14 -63 16v61h276v-61zM186 1182v16l7 19q13 34 47 65q31 28 94 29q26 0 56 -18q27 -17 28 -52q0 -18 -21 -41q-18 -12 -41 -12h-10l-8 2
l-10 2l-11 4l-8 4l-14 6l-19 2q-16 0 -26 -10l-8 -18l2 -17l10 -14q20 -28 72 -49t149 -21q71 0 138 19q96 28 98 82q-3 12 -7 17.5t-28 8.5l-17 -2l-12 -2l-8 -4l-6 -2l-6 -4l-15 -4h-16q-20 0 -41 12l-20 27l-3 6v18l5 11q16 48 81 49q94 2 142 -94l4 -19l2 -16
q0 -17 -4 -25l-6 -27q-31 -71 -122 -108q-74 -30 -163 -31q-101 -1 -184 44q-101 54 -101 147z" />
    <glyph glyph-name="sterling" unicode="&#xa3;" horiz-adv-x="717" 
d="M610 1434v-70q-54 -6 -80 -33q-16 -21 -32 -63l-9 -39v-1034q0 -369 -237 -484q-20 -10 -66 -22l-61 -8q-129 0 -168 94l-6 20l-2 19q0 39 22.5 68.5t61.5 29.5h6q61 0 75 -51q3 -11 3 -23l-2 -14v-12l-2 -11v-8l4 -8l16 -14l35 -9q70 0 100 73q38 93 41 171l4 111
l-8 1153q-12 80 -115 94v70h420z" />
    <glyph glyph-name="currency" unicode="&#xa4;" horiz-adv-x="1214" 
d="M1214 1192l-194 -191l29 -38l24 -37q41 -63 55 -144l11 -63l4 -57q3 -37 -13.5 -118.5t-56.5 -146.5l-24 -39l-29 -36l194 -191l-77 -78l-191 195l-39 -31l-37 -22q-71 -42 -143 -58q-64 -14 -121 -12l-51 2q-70 3 -126 24q-30 11 -64 31l-50 29l-47 37l-192 -195l-76 78
l193 191q-36 43 -68 104l-14 39q-8 23 -27 74l-10 61l-4 62q-1 19 4 59l4 31q0 21 8 41l16 53l12 29q5 11 11 20q22 52 68 106l-193 191l76 78l192 -195q57 50 109 70l67 26l48 15l57 8l57 4h33q13 0 27 -2l28 -4q16 0 40 -8q33 -8 57 -19q22 -7 49 -22q48 -21 106 -68
l191 195zM305 346q59 -55 136 -92q68 -33 147 -33h41q144 0 280 127q126 118 127 314q0 234 -196 366q-38 26 -70 41q-69 33 -152 33h-16q-177 0 -300.5 -131.5t-123.5 -308.5q0 -198 127 -316z" />
    <glyph glyph-name="yen" unicode="&#xa5;" horiz-adv-x="1112" 
d="M643 1434q75 0 135 12q117 23 173 108q26 40 53 99l6 20l6 23h69v-332h-682v-1128q0 -163 121 -166v-70h-418v70q66 6 95 49q26 39 26 117v962q0 163 -121 166v70h537z" />
    <glyph glyph-name="brokenbar" unicode="&#xa6;" horiz-adv-x="893" 
d="M733 723q-33 0 -49 -5q-14 -1 -59 -18l-43 66v88l151 23v-154zM733 188q-4 -4 -30 -33q-29 -31 -56 -67h-88v111q24 40 38 62q8 8 50 46l58 -52q26 -29 28 -67z" />
    <glyph glyph-name="section" unicode="&#xa7;" horiz-adv-x="1200" 
d="M1071 1708q-9 0 -20 -3q-15 -7 -47 -19q-15 0 -35 24q-7 11 -51 107h-66q-68 -67 -107 -129q-48 -77 -49 -154q-1 -79 54 -289q56 -213 57 -291q1 -160 -55 -225q-40 -46 -129 -47q-24 0 -71.5 6t-70.5 6q-49 0 -67 -20q-24 -22 -25 -80q0 -9 119 -176q57 -80 57 -144
q0 -115 -159 -165q-186 -58 -211 -109h-66q0 33 -10 37q-13 2 -13 20q-1 31 101 55q151 35 190 51q102 44 103 124q0 35 -56 112q-81 112 -105 155q-56 103 -56 202q0 278 110 387q78 78 283 106q0 87 -23 205q-2 14 -8 42q-3 16 -14 58q0 102 86 222q93 130 198 131
q61 1 101 -60q22 -32 55 -139zM741 909q0 84 -30 157q-40 95 -113 95q-85 0 -160 -147l-67 -180v-68h219q21 8 45 19q15 7 49 24q57 34 57 100z" />
    <glyph glyph-name="dieresis" unicode="&#xa8;" horiz-adv-x="1430" 
d="M1282 1364q-21 -34 -51 -94q-20 -40 -60 -80q-11 59 -28 106l-17 47q36 36 88 154h68v-133zM932 1497l-45 -86q-31 -59 -31 -90v-37l8 -51q6 0 -36 -29q-14 -9 -29 -12q-21 0 -51 12l-15 8v131l111 154h88zM1063 928q-69 -66 -141 -92q-60 -21 -121 -19l-99 4
q-100 4 -169 -98q-39 -58 -84 -191l80 -13q3 -1 49 -3q102 -6 110 -6l121 4q40 1 92 -12q44 -16 96 -56q-88 -47 -196 -47q-40 0 -107 9q-141 19 -168 20h-32q-15 0 -33.5 -4t-50.5 -21t-64 -71q-105 -178 -137 -215l70 -58q16 -13 28 -12l53 4l68 2q110 3 197 33l227 78
q8 0 13.5 -1t27.5 -7l59 -17q-28 -37 -186 -98q-188 -72 -350 -74l-111 21q-114 22 -162 43q29 156 86 239q79 115 105 191q63 181 115 575q88 -47 153 -94q56 -40 66 -43q41 9 145 21q66 0 250 8z" />
    <glyph glyph-name="copyright" unicode="&#xa9;" horiz-adv-x="1510" 
d="M1323 657q0 -159 -173 -358q-158 -181 -382 -315q-230 -136 -385 -136q-172 0 -246 240q-58 187 -59 549q0 20 57 184q27 79 29 146q89 74 149 108q190 108 375 109q246 1 440.5 -156.5t194.5 -370.5zM1212 670q0 179 -178 297q-157 105 -344 106q-111 1 -188 -29
q-71 -28 -162 -102q73 19 136 22q11 0 30 1h31v-111q-145 -18 -238 -238q-69 -164 -70 -286q-2 -370 164 -371q132 -1 332 121q195 119 335 281q152 176 152 309zM799 700v-27q0 -46 -4 -65l-17 -82q-64 21 -98 47q-49 38 -66 41q-29 0 -97 -72.5t-71 -90.5q0 -192 201 -195
h38q12 2 32 4l61 4q-62 -24 -98 -57q-6 -6 -111 -6q-111 0 -173 83q-56 74 -56 189q0 81 145 189q140 104 226 104q40 0 61 -29z" />
    <glyph glyph-name="ordfeminine" unicode="&#xaa;" horiz-adv-x="1411" 
d="M1331 250q-88 -106 -235 -184q-150 -80 -326 -80q-320 0 -507 203q-183 199 -183 520q0 311 180 520q191 221 496 221h49q22 0 28 -1q12 0 41 -7q60 -5 109 -23l29 -6l30 -8l97 -25l49 -4l20 4l21 13l8 8h31v-316h-62q-36 96 -96 153q-66 62 -126 90.5t-116 33.5l-94 8
l-37 -2l-35 -4q-141 -16 -282 -178q-69 -79 -102 -183.5t-35 -244.5h10q22 28 61 65l62 41q34 18 80 25l86 6q40 3 84 -12q35 -16 65 -35l14 -12l19 -9l12 -10l17 -8l49 -25l51 -22l45 -10q67 0 111 59l6 8l4 4l6 8l55 -36q-108 -186 -286 -189l-52 6l-22 6q-9 3 -27 11
l-35 12l-32 16l-127 62l-54 16l-57 6q-56 0 -96.5 -41.5t-40.5 -107.5q0 -52 12 -105l13 -57q3 -15 28 -70q52 -115 153.5 -206t276.5 -91h25q12 0 19 1q15 1 26 4l69 12q235 41 367 207z" />
    <glyph glyph-name="guillemotleft" unicode="&#xab;" horiz-adv-x="870" 
d="M377 809q19 0 41 -14.5t22 -32.5q0 -20 -53 -96l-88 -127l-27 -33q-12 -12 -12 -29q0 -18 27 -51l94 -94l78 -66q54 -46 55 -78q1 -25 -45 -41q-53 0 -185.5 136.5t-133.5 175.5q-1 51 90 198q94 151 137 152zM629 709l26 -7q24 -14 27 -38q0 -22 -25 -60l-43 -65
l-24 -31q-12 -12 -12 -29q0 -16 18 -43q7 -7 27 -28q11 -12 39 -39l65 -56q27 -23 35 -51q0 -47 -25 -51q-16 0 -51 25l-51 36l-41 15q-10 4 -35 30l-27 37l-53 64q-9 16 -14 41q0 53 59 151.5t105 98.5z" />
    <glyph glyph-name="logicalnot" unicode="&#xac;" horiz-adv-x="1415" 
d="M143 717h1129v-314h-101v213h-1028v101z" />
    <glyph glyph-name="minus" unicode="&#xad;" horiz-adv-x="1155" 
d="M1115 640h-1078v82h1078v-82z" />
    <glyph glyph-name="minus" unicode="&#x2212;" horiz-adv-x="1155" 
d="M1115 640h-1078v82h1078v-82z" />
    <glyph glyph-name="registered" unicode="&#xae;" horiz-adv-x="1628" 
d="M143 678q0 220 195 436q181 201 475 201q292 0 475 -201q197 -216 197 -436v-55l-2 -19q0 -223 -195 -434q-180 -195 -475 -195q-293 0 -473 195q-192 208 -195 434q0 7 -2 19v55zM801 53h24q213 0 395 163t183 427q0 264 -180 426q-184 166 -398 166h-24
q-213 0 -398 -166q-180 -161 -180 -426q0 -262 180 -426t398 -164zM903 991q7 -1 21 -4q34 0 63 -14q40 -13 73.5 -48.5t35.5 -103.5l-2 -20v-23q-5 -33 -37 -73q-26 -34 -101 -58l168 -260l13 -10l16 -6q8 0 12 -4q9 0 17 -5v-43h-135l-185 306h-151v-215q0 -10 8 -19
l14 -16l31 -13v-43h-205v43q57 10 57 78v441q0 60 -57 77v33h344zM807 672l35 2q30 2 51 10q95 24 96 131q1 92 -102 121l-41 4h-13q-11 0 -22 2h-100v-270h96z" />
    <glyph glyph-name="macron" unicode="&#xaf;" horiz-adv-x="682" 
d="M23 1353h638v-128h-638v128z" />
    <glyph glyph-name="macron" unicode="&#x2c9;" horiz-adv-x="682" 
d="M23 1353h638v-128h-638v128z" />
    <glyph glyph-name="degree" unicode="&#xb0;" horiz-adv-x="696" 
d="M143 1257q0 78 64 137q62 56 141 56q121 0 191 -123q14 -34 14 -70v-8q0 -86 -59.5 -146t-145.5 -61q-89 -1 -147 63.5t-58 139.5v12zM258 1153q42 -36 90 -37q50 -1 85 34q30 30 42 79l2 8v8q0 52 -39 90.5t-90 38.5t-92 -39q-15 -18 -27 -39q-10 -25 -10 -45v-6
q0 -50 39 -92z" />
    <glyph glyph-name="plusminus" unicode="&#xb1;" horiz-adv-x="1438" 
d="M1083 680q-127 -24 -147 -25q-9 0 -41 7q-27 5 -78 18l-24 -49q-15 -31 -15 -43q0 -22 10 -62q22 -87 33 -153q-5 -1 -69 -19l-84 -24q-8 28 -22 85q-4 22 -9 68l8 52q4 23 8 73q1 23 -6 92q-87 -21 -164 -22q-76 -1 -146 14l-40 8q0 6 -10 19q-13 9 -13 26q-2 68 70 70
q14 0 148 -18q80 -11 118 -11h35l23 2q0 38 14 82l6 19q0 44 -18 129q-24 115 -68 166l45 43q87 -33 113 -68q24 -41 22 -125l-4 -200q39 -9 72 -9q20 0 55 6l41 7q52 0 137 -158zM128 136q-40 0 -40 40q0 13 40 40h1024q40 0 40 -40q0 -13 -40 -40h-1024z" />
    <glyph glyph-name="twosuperior" unicode="&#xb2;" horiz-adv-x="631" 
d="M524 1364q-66 0 -93.5 -50t-27.5 -116v-962q0 -63 25 -108.5t96 -57.5v-70h-418v70q67 6 97 51q24 45 24 115v962q0 73 -28 117q-26 40 -93 49v70h418v-70z" />
    <glyph glyph-name="threesuperior" unicode="&#xb3;" horiz-adv-x="438" 
d="M293 788v-581q0 -67 14 -97q20 -42 78 -51v-59h-332v59q58 6 74 47l12 43l4 58v373q0 69 -16 100q-12 33 -74 49v59h240zM197 1255q41 0 69 -24.5t29 -73.5q1 -41 -31 -74q-33 -25 -67 -26q-40 -1 -67 25q-24 23 -32 61l-2 6v8q0 38 29 68t72 30z" />
    <glyph glyph-name="acute" unicode="&#xb4;" horiz-adv-x="696" 
d="M377 788l86 7q35 3 78 39q15 13 32 40l29 70l4 14l4 17h60v-250h-375v-518q0 -146 100 -148v-59h-342v59q54 0 76 43q16 48 16 105v373q0 63 -16 102q-13 32 -76 47v59h324z" />
    <glyph glyph-name="mu1" unicode="&#xb5;" horiz-adv-x="834" 
d="M702 162q10 -92 72 -94l21 2q16 0 24 8l15 -23l-11 -12l-10 -10q-45 -45 -111 -45q-55 0 -83 29q-25 26 -41 69l-13 55v39q-30 -79 -82 -137q-57 -64 -137 -57l-47 4q-70 6 -118 57q-22 23 -44 72l2 -68l13 -74l10 -43l14 -47l6 -22l8 -23l13 -55l6 -55q0 -88 -62 -121
l-28 -4l-21 -2l-20 2l-21 4q-15 5 -37 34.5t-20 82.5l2 59l8 47l4 27l9 26l16 76l16 119l6 98l5 99v512h149v-431q0 -199 104 -247l29 -9l27 -2l18 2q17 5 21 9q69 34 106 154q29 94 29 192v332h149z" />
    <glyph glyph-name="paragraph" unicode="&#xb6;" horiz-adv-x="1239" 
d="M500 879h-37l-35 2q-97 6 -195 76q-90 65 -90 225q0 127 104 190q85 51 222 51h627v-80h-113v-1746h-123v1746h-237v-1746h-123v1282z" />
    <glyph glyph-name="periodcentered" unicode="&#xb7;" horiz-adv-x="512" 
d="M256 789q47 0 79 -32t32 -79q0 -46 -32.5 -78.5t-78.5 -32.5t-78.5 32.5t-32.5 78.5t32.5 78.5t78.5 32.5z" />
    <glyph glyph-name="periodcentered" unicode="&#x2219;" horiz-adv-x="512" 
d="M256 789q47 0 79 -32t32 -79q0 -46 -32.5 -78.5t-78.5 -32.5t-78.5 32.5t-32.5 78.5t32.5 78.5t78.5 32.5z" />
    <glyph glyph-name="cedilla" unicode="&#xb8;" horiz-adv-x="1221" 
d="M1126 1169q1 -23 -27 -81q-40 -84 -65 -149h-73q-9 15 -38 63q-7 12 -33 57q48 40 94 76l16 13q73 57 101 58q24 1 25 -37zM912 1372q-39 -181 -99 -263q-19 -26 -20 -52q-1 -28 22 -118q-15 -5 -19 -6.5t-9 -4.5q-19 -11 -32 -14q-20 18 -52 55q-53 60 -54 67
q51 108 76 149q96 157 187 187zM982 518q1 -155 -307 -223l-460 -101v-117l290 -4q-56 -46 -95 -62q-25 -11 -88 -11q-130 -1 -180 75q-25 38 -25 119q-1 166 173 344q181 186 368 187q93 0 208.5 -73.5t115.5 -133.5zM815 529q0 14 -9.5 26.5t-12.5 23.5h-217
q-35 -19 -77 -42q-27 -15 -80 -41q-49 -33 -108 -158h144q53 27 250 99q109 40 110 92z" />
    <glyph glyph-name="onesuperior" unicode="&#xb9;" horiz-adv-x="1491" 
d="M1323 973q-6 -116 -90 -228q-68 -91 -170 -167h-45q-17 30 -41 84q-27 62 -27 102q69 111 105 158q120 159 205 159q36 0 53 -20q13 -24 12 -51zM1018 1343q-7 -33 -110 -207q-112 -187 -130 -231l-65 -227q-56 -194 -135 -424q-83 -239 -129 -311q-72 100 -83 199
q0 85 -69 194q-31 -57 -72 -199q-27 -93 -104 -151v196l72 246q21 71 59 215l14 10q10 7 29 11q59 0 82 -142q45 -278 72 -360q61 100 155 340q144 370 170 426q117 253 244 415zM1128 31q-29 0 -153 -11l-113 -10q-80 0 -149 64q101 8 235 41q24 5 83 20q36 10 97 27
q0 -16 7 -35l2 -39v-33zM1260 993q-39 -39 -105 -114l-29 -39q0 -6 10 -18t13 -21v-4l72 80q21 32 39 116z" />
    <glyph glyph-name="ordmasculine" unicode="&#xba;" horiz-adv-x="866" 
d="M741 573h-49q-29 79 -90 125q-56 42 -147 43q-229 2 -232 -323l23 18l28 21l31 18l31 12l41 13l39 4l10 -2h12q20 -3 43 -15l54 -20l55 -21l28 -6h11l12 2l27 9l22 10l17 -33l-35 -31l-31 -24l-47 -27l-51 -8q-22 0 -33 4l-33 12q-10 2 -12 4l-8 4l-27 11l-24 12l-29 6
l-29 4l-22 -2l-27 -2q-29 -6 -50.5 -22.5t-21.5 -53.5q0 -100 70 -174q77 -82 166 -75l74 6q36 3 86 28q73 36 114 82l33 -37l-27 -28l-26 -25q-62 -59 -154 -85q-75 -21 -129 -21q-167 0 -276 120q-105 117 -105 285q0 54 4 70l19 74q25 98 116.5 186.5t245.5 83.5l58 -2
l47 -6l86 -17l22 -2q24 0 31 4l27 15h32v-224z" />
    <glyph glyph-name="guillemotright" unicode="&#xbb;" horiz-adv-x="823" 
d="M479 305l82 113l31 35q10 11 14 26q0 16 -51 82l-111 119q-60 64 -61 88q0 13 14 27q12 9 35 14q53 0 169.5 -128.5t117.5 -182.5q1 -29 -31 -86q-52 -94 -145 -203l-35 -41q-24 -21 -51 -21q-21 0 -39 15q-21 12 -21 33q0 8 19 32zM215 248q-13 0 -31 12q-12 12 -18 33
q0 21 31 61l49 64l35 37l10 22q0 40 -117 150q-45 42 -45 67q0 34 51 43q26 0 76 -35q43 -30 72 -71l51 -72q24 -34 24 -61q0 -48 -70 -147q-73 -103 -118 -103z" />
    <glyph glyph-name="onequarter" unicode="&#xbc;" horiz-adv-x="430" 
d="M317 788v-751l-12 -146q-4 -47 -12 -69q-11 -31 -32 -68q-24 -43 -48 -61l-49 -37q-38 -22 -68 -25l-53 -6q-49 0 -80 23q-27 20 -37 49l-4 20q0 28 15 43q12 9 38 19l9 2h8l28 -6l23 -19l18 -18l7 -8l18 -15q12 -6 33 -6q20 0 31 10l14 23l2 16l2 13v809q0 85 -30 116.5
t-115 32.5v59h294zM121 1210q0 28 31 60q30 25 67 26q38 1 70 -28q27 -30 28 -72q2 -98 -98 -98q-39 0 -74 30q-24 32 -26 68z" />
    <glyph glyph-name="onehalf" unicode="&#xbd;" horiz-adv-x="1108" 
d="M965 1059h-80q-29 76 -68 137q-18 28 -35 47l-39 43q-64 57 -125 72q-50 12 -86 12q-108 0 -180 -61q-77 -64 -78 -170q-1 -99 59 -151q71 -61 146 -87l64 -22l59 -17l84 -26q51 -16 96 -37q260 -122 260 -379v-29q0 -136 -129 -278q-115 -127 -301 -127h-43l-82 10
q-16 0 -125 31l-55 16l-28 6l-29 2h-8q-27 0 -49 -16q-21 -9 -31 -35h-68v442h70q45 -159 174 -266q136 -113 274 -113h17q112 0 188 82q41 44 60.5 87t19.5 96v16q0 107 -66 174q-76 77 -151 103l-74 26l-63 21l-72 20l-80 31q-86 33 -175 125q-81 83 -81 237
q0 145 111 257q122 123 305 112l63 -4q22 -1 43 -8l48 -15l47 -18l65 -37l23 -10l24 -4q15 0 21 4l14 10l6 4l4 6l4 4h52v-323z" />
    <glyph glyph-name="threequarters" unicode="&#xbe;" horiz-adv-x="698" 
d="M575 707l13 -29l4 -27q0 -24 -12 -39q-10 -10 -33 -20l-10 -2h-9q-22 0 -43 12l-24 29l-10 24l-2 15l-5 14q-3 16 -10 24q-22 33 -90 33q-154 0 -154 -123q0 -64 43 -92q34 -22 107 -43l10 -4l12 -2l56 -16q12 0 16.5 -1t18.5 -7l34 -15q62 -27 106 -70q51 -50 52 -137
q1 -115 -96 -182q-92 -63 -207 -63h-8q-144 0 -216 62q-48 41 -63 102l-2 8v18l2 12q10 63 80 64q68 1 78 -66l-2 -20l-2 -14l-2 -5l-2 -10v-20l4 -11q6 -15 40 -37t87 -22q126 0 162 103l4 32q0 60 -53 95q-26 17 -107 45l-16 4l-17 6q-147 52 -186 104q-42 57 -43 129
q-1 114 80 179q75 60 192 61q163 1 223 -98z" />
    <glyph glyph-name="questiondown" unicode="&#xbf;" horiz-adv-x="459" 
d="M313 788v-581q0 -66 19 -103q15 -38 74 -45v-59h-332v59q57 6 73 47q7 18 13 43l4 58v373q0 74 -14 100q-12 33 -76 49v59h239zM72 1272q79 1 100 -88v-10l-2 -15l-2 -12q-4 -23 -32 -48t-64 -26q-37 -1 -67 28t-30 73v8q0 29 25 59t72 31zM252 1184q9 87 100 88
q41 1 70 -28t29 -70q0 -42 -31 -74q-33 -27 -68 -27q-40 0 -63 23q-20 16 -29 41l-8 22v25z" />
    <glyph glyph-name="Agrave" unicode="&#xc0;" horiz-adv-x="1073" 
d="M813 438q-80 -123 -82 -207q-1 -20 1 -30q7 -43 16 -133l-49 -11l-40 -12q-23 51 -34 84q-2 8 -7 20q-6 17 -6 23q0 7 15 23q31 26 32 114q0 16 -26 51q-34 46 -60 46q-180 1 -225 -103q-116 -269 -125 -280h-45q-5 18 -22.5 37t-20.5 30q26 45 53 105q54 122 54 211
q0 28 -51 71q-58 49 -78 115q191 0 219 22q21 16 74 224q76 300 98 368q62 195 110 195q96 0 117 -98q30 -138 82 -187v-678zM639 526l12 125l4 105q1 21 -6 105l-10 124q-35 -128 -82 -205q-39 -64 -72 -231q18 -5 47 -23.5t41 -21.5q0 6 5 10q15 12 61 12z" />
    <glyph glyph-name="Aacute" unicode="&#xc1;" horiz-adv-x="1380" 
d="M1260 1204q-72 -33 -113 -33q-31 0 -51 17q-57 41 -101 41q-204 1 -377 -99q-144 -83 -212 -210v-220l53 2l59 3q24 1 48 1q158 0 294 -53q201 -79 201 -268q0 -141 -236 -256q-211 -103 -411 -104q-65 0 -146 26q-102 33 -104 84q0 3 45 121q19 49 43 139
q0 53 -21.5 95.5t-21.5 48.5q0 11 22 32q60 45 70 76q2 5 7 32q0 6 7 40l4 96l-4 180q-4 175 68 297l43 -47q34 -37 55 -41q50 0 191 45t202 45q39 0 136 -18q134 -25 250 -72zM950 385q1 82 -119 150q-102 58 -196 59q-168 1 -238 -107q-56 -86 -57 -266l6 -14
q16 -37 16 -66v-8h197q131 52 221 98q169 85 170 154z" />
    <glyph glyph-name="Acircumflex" unicode="&#xc2;" horiz-adv-x="1080" 
d="M963 203q1 -133 -168 -189q-52 -17 -328 -53q-234 -31 -289 -76q-56 57 -73 110q-15 44 -15 132l131 764l55 12q57 18 121 62q74 51 232 176q126 100 149 100q102 1 143 -36.5t42 -127.5q2 -297 -326 -469v-45q117 -97 199 -174q126 -118 127 -186zM856 1014q0 57 -6 78
l-16 41h-109l-182 -160q-122 -107 -203 -285q-97 -212 -98 -495q0 -81 71 -121q54 -30 138 -31q86 -1 219 44q160 53 161 120q1 107 -170 191q-134 66 -264 79v66q33 38 291 215q168 115 168 258z" />
    <glyph glyph-name="Atilde" unicode="&#xc3;" horiz-adv-x="1208" 
d="M1079 954q1 -88 -53 -150l-60 -69q-68 86 -71 98q48 48 71 156q-16 0 -41 13l-30 11q-300 0 -409 -116q-69 -73 -127 -345q-71 -330 -176 -552h-91q14 90 70 276q55 181 68 276l20 147l4 118l-4 121q-3 69 70 144h736q22 -40 23 -128z" />
    <glyph glyph-name="Adieresis" unicode="&#xc4;" horiz-adv-x="1320" 
d="M1184 559q0 -96 -244 -254q-58 -38 -473 -268q-269 -149 -311 -223v-23q0 -19 -9 -59t-34 -92h-88q-2 11 -21 36q-2 6 -4 9q0 70 96 159q136 126 178 189q99 147 99 362q0 103 -99 201l-118 117q30 30 147 84q100 47 160 133q75 -52 88.5 -91t42.5 -61l326 -41
q264 -33 264 -178zM375 625zM1075 559q-91 65 -164 79q-51 9 -135 9h-43q-164 0 -215 -98q-35 -66 -35 -252l9 -23q1 -2 14 -65l278 123q142 63 291 227z" />
    <glyph glyph-name="Aring" unicode="&#xc5;" horiz-adv-x="1320" 
d="M1159 1114q-323 -32 -408 -51q-265 -60 -333 -205l-92 -313h592v-66q-90 -12 -111 -26l-43 -39h-10q-21 0 -26 1q-16 1 -36 7q-154 33 -229 33q-291 0 -291 -303l10 -29l13 -39l133 12q127 11 217 54h264v-66q-84 -27 -292 -55q-199 -28 -300 -29q-58 -1 -94 35t-37 94
q-1 71 51 186l123 273l84 450q36 105 139 142h4q7 0 17 -19q24 -46 41 -47l186 41q102 23 273 25q40 1 96 -29q27 -14 59 -37z" />
    <glyph glyph-name="AE" unicode="&#xc6;" horiz-adv-x="1523" 
d="M1273 901q0 -30 -251 -210t-252 -225q-1 -61 174 -191l240 -178q-28 -14 -32 -17q-18 -10 -57 -34q-7 -5 -26 -18l-93 95q-12 14 -55 60q-120 122 -196 144v-37q0 -80 -8 -154q-7 -65 -38 -224q-57 95 -57 148q0 15 9 62q6 30 7 85q1 29 -6 96q-209 -125 -269 -301
q-33 -97 -98 -156q-5 11 -15 16h-16q-15 0 -15 39q0 70 183 315q64 86 137 186q14 20 46 64q0 65 -211 323q-74 91 -155 181q9 0 41 23q14 10 39 22q32 0 333 -413h69q0 42 15 159q39 305 101 415h69v-113q-51 -111 -71 -203l-23 -107q0 -24 23 -52t47 -30l164 125
q94 71 228 150q0 -5 9 -20q8 -11 10 -25z" />
    <glyph glyph-name="Ccedilla" unicode="&#xc7;" horiz-adv-x="1202" 
d="M964 355q1 -155 -213 -258q-199 -95 -480 -97q-32 16 -68 39q-43 26 -113 72v70q19 0 43 14q14 8 25 12q65 -38 155 -66.5t200 -29.5q89 -1 205 65q128 73 129 155q1 60 -131 149q-104 71 -258 92q-3 17 -12.5 36.5t-10.5 45.5q0 7 148 114q164 118 174 127q-18 6 -41 28
q-19 19 -41 19q-44 1 -125 -35q-92 -41 -139 -105q-19 25 -54 47q-8 6 -11.5 13t-5.5 22q0 63 114 122q93 48 232 48q73 0 145 -41q84 -48 85 -118q0 -23 -60 -82q-34 -33 -56 -35l-180 -92q164 -136 256 -218q88 -78 88 -113z" />
    <glyph glyph-name="Egrave" unicode="&#xc8;" horiz-adv-x="1220" 
d="M1090 858q0 -94 -94 -350.5t-95 -382.5q0 -59 14 -98l-45 -23q-37 0 -52.5 28t-16.5 79q0 -13 6 94l4 74v26l-4 27q-165 -189 -266 -280q-198 -178 -326 -179q-84 -1 -102 102q-6 37 -7 107q-1 105 115 360q57 125 58 242q0 23 51 164q59 163 104 207h45v-109
q-34 -40 -53 -88q-11 -28 -68 -223q-14 -50 -50 -172l-55 -185q-17 -57 -58 -186v-110l41 -19q66 0 176 90q143 118 307 367l139 139q79 79 80 191q31 43 66 174h65q0 -5 10.5 -21.5t10.5 -44.5z" />
    <glyph glyph-name="Eacute" unicode="&#xc9;" horiz-adv-x="1580" 
d="M1368 1577q-73 -52 -191 -84t-245 -420h-68l-10 29q-4 11 -10 28q0 157 110 287q93 111 207 166l121 59q27 -28 39 -36q9 -9 47 -29zM1061 670q0 -22 -113 -344q-59 -167 -104 -392h-88l-17 39q-6 18 -6 29q0 40 67 209q33 80 68 205q1 21 -14 22q-39 0 -104 -86
q-105 -139 -166 -196q-141 -131 -353 -222l-46 64q-21 29 -21 70q0 52 39 149q49 123 71 209q40 159 41 365q0 70 50 114q26 24 106 60q0 -44 10 -62q4 -7 11 -14q-64 -118 -66 -361q0 -39 -98 -215l-99 -178l45 -112q267 193 385 350l193 258q86 115 188 157q6 -54 15 -81z
" />
    <glyph glyph-name="Ecircumflex" unicode="&#xca;" horiz-adv-x="1155" 
d="M985 1008q-208 -181 -319 -267l-250 -194l504 -504l-46 -43q-25 17 -212 178q-111 96 -291 260q-73 -58 -102 -171q-15 -58 -15 -134v-43q0 -21 2 -33l6 -34q-2 -11 -57 -23q-29 -1 -51 23q-27 22 -45 43q35 67 116 327q78 248 78 287q0 114 -106 217q44 34 73 78l35 53
q52 -37 71.5 -78.5t20.5 -97.5q1 -42 -14 -104q-3 -13 -12 -48l45 -43l207 164q119 94 251 252h111v-65z" />
    <glyph glyph-name="Edieresis" unicode="&#xcb;" horiz-adv-x="1090" 
d="M836 66l-66 -66q-99 75 -100 299q-1 215 -97 467q-58 -40 -127 -227q-104 -282 -127 -330q-84 -174 -184 -209l-24 66q7 0 45 79q147 304 307 949h65q144 -209 197 -422q16 -63 41 -308q20 -195 70 -298z" />
    <glyph glyph-name="Igrave" unicode="&#xcc;" horiz-adv-x="1505" 
d="M1214 985q0 -145 -53 -538q-25 -185 -26 -361q-1 -158 14 -305h-45q-45 49 -63 212q-5 40 -5 99q-1 114 21 268q24 165 49 252q-6 0 -16 13q-11 9 -29 10l-55 -39q-104 -76 -316 -223h-131v109q0 22 2 36q0 119 -67 270q-44 -74 -118 -267q-80 -207 -81 -269
q0 -17 -49 -100q-59 -101 -125 -152l-23 45l54 197q75 273 106 376q63 208 82 236l22 12q59 32 132 119q91 -77 131 -207q31 -101 26 -198l-4 -76q5 0 20.5 -9.5t22.5 -11.5q84 0 264 195q131 142 195 307h65z" />
    <glyph glyph-name="Iacute" unicode="&#xcd;" horiz-adv-x="1362" 
d="M1132 1122l-68 -287q-66 -277 -132 -483q-86 -268 -152 -331q-2 6 -6 17.5t-6 17.5q-3 14 -9 34q8 28 29 104l21 77q28 104 55 241q-5 0 -19 9.5t-24 11.5q-251 0 -338 -41q-93 -43 -127 -162l-96 -330h-61q-2 13 -12 35l-12 26q19 47 54 135l105 268q84 215 113 403
q6 39 6 81q0 65 -19 102q-24 26 -48 54l81 99q66 -63 68 -206q1 -119 -66 -367q94 -41 155 -41h68q5 1 14 2q264 0 289 231q25 238 56 321z" />
    <glyph glyph-name="Icircumflex" unicode="&#xce;" horiz-adv-x="1490" 
d="M1237 766q0 -108 -145 -307.5t-326 -347.5q-199 -163 -317 -164q-136 -1 -199 168q-41 110 -41 245q0 257 182 558q193 319 387 319q199 0 340 -178q119 -150 119 -293zM1147 831q1 98 -141 213q-127 102 -185 103q-114 1 -229 -148q-103 -133 -156 -274l-55 -147
q0 -144 -21 -224l-45 -104q13 -59 27 -98q36 -99 84 -99q107 0 285 142q170 135 297 315q138 196 139 321z" />
    <glyph glyph-name="Idieresis" unicode="&#xcf;" horiz-adv-x="1370" 
d="M1137 1008q-61 -129 -90 -371l-54 -451q-27 -225 -55 -272q-40 83 -43 184l43 334q23 179 23 334q-79 7 -148 16q-39 5 -108 19q-56 10 -95 30q-183 0 -258 -184q-34 -83 -65 -368q-28 -261 -70 -322l-57 53q-54 50 -54 101q17 39 48 118q64 170 92 275q48 177 49 305
q0 58 -12 111q14 8 53 22l579 -111q81 0 111 197l45 -4q22 -2 66 -16z" />
    <glyph glyph-name="Eth" unicode="&#xd0;" horiz-adv-x="1358" 
d="M1218 924q0 -110 -201 -213l-237 -121q-213 -109 -277 -189q-91 -114 -159 -123l-2 -54q6 -5 12.5 -6t31.5 -23q-9 -7 -104 -167q-36 -60 -64 -61q-17 -1 -23 46v18q0 51 11 115l12 70q0 18 44 228q23 110 90 404q49 217 55 220l250 62q256 64 288 64q81 1 177 -93.5
t96 -176.5zM1112 943q1 69 -85 111q-73 36 -144 36q-214 0 -302 -82q-66 -62 -116 -247q-91 -339 -121 -421q78 169 282 289l325 151q160 74 161 163z" />
    <glyph glyph-name="Ntilde" unicode="&#xd1;" horiz-adv-x="1110" 
d="M942 733q0 -43 -12 -80l-31 -63h-65q-68 146 -68 221v61q0 14 2 25l-10 10q-17 11 -45 11q-278 2 -443 -402q-52 -128 -53 -188q-1 -64 123 -170q91 -78 205 -78q33 0 69 6h109l45 -43l-55 -31q-30 -12 -68 -12q-177 0 -323 88q-170 102 -170 272q0 254 182 457
q171 190 356 191q115 1 185 -81q66 -77 67 -194z" />
    <glyph glyph-name="Ograve" unicode="&#xd2;" horiz-adv-x="1430" 
d="M1325 920q-17 -9 -45 -15q-12 -3 -68 -6q-128 -7 -213 -8q-32 0 -299 4q-105 3 -315 8q-72 1 -92 -8q-34 -10 -41 -39q0 -11 2 -16q-1 -6 -25 -6q-17 0 -36 4q-42 9 -86 15l-9 1l-20 88q42 17 264 53l215 35q120 -12 186.5 -12t113.5 -7q4 0 194 -29q196 -30 274 -62z
M602 547q-67 -157 -67 -303v-89q0 -20 2 -34q0 -20 -25 -58l-41 -63h-88v154q68 138 96 309l58 348h65v-264z" />
    <glyph glyph-name="Oacute" unicode="&#xd3;" horiz-adv-x="1008" 
d="M888 1143l-44 -230q-12 -59 -35 -178q-10 -52 -31 -150l-26 -121q-57 -251 -79 -287q-47 -77 -147 -126q-31 -15 -132 -51l-116 118l2 22q0 36 26 37q16 1 65 -38q17 -17 46 -39q147 0 223 228l51 254l-18 9q-44 16 -77 16q-24 0 -73 -12q-67 -17 -76 -19q-26 -5 -51 -5
q-217 -2 -217 236q0 51 3 160l4 153q2 159 13 238q116 -66 118 -192q0 -34 -39 -204q-19 -83 -20 -134q-1 -75 50.5 -125.5t126.5 -50.5q252 -1 300 261q34 185 113 270q2 -3 21 -18q18 -9 19 -22z" />
    <glyph glyph-name="Ocircumflex" unicode="&#xd4;" horiz-adv-x="1629" 
d="M1426 800q0 -116 -149 -216q-79 -53 -278 -126q-191 -70 -260 -122v-315l63 1q9 0 18 -8l37 -32q-83 0 -127 -13l-88 -26q13 109 28 152q10 29 30 45q0 215 -158 217q-60 1 -205 83q-189 108 -189 242q0 200 114 327q109 121 308 159q78 15 149 15q24 15 48 76
q28 74 49 101q39 -66 39 -92l-7 -42l-11 -63l39 -2q151 -8 193 -12q87 -7 132 -23q225 -79 225 -326zM1349 830q1 87 -99 172q-97 81 -186 82q-20 0 -44 -6l-45 -12l6 -6q12 -22 14 -94l-40 -18l-98 38q0 -159 -18 -267l-41 -246h59q161 72 272 134q219 123 220 223z
M719 809q0 16 -5 24l-14 15l-49 -16q-12 -2 -50 -4v79q45 39 59 75q6 30 59 84q-8 0 -41 10q-13 4 -38 8q-144 0 -275 -153q-117 -137 -118 -261q0 -38 96 -126q118 -108 246 -109q52 0 88 107q42 126 42 267z" />
    <glyph glyph-name="Otilde" unicode="&#xd5;" horiz-adv-x="1053" 
d="M925 1006q-8 -8 -28.5 -25t-78.5 -72q-120 -114 -199 -207q-106 -124 -107 -178q-1 -39 72 -151l146 -225q69 -106 77 -157q-70 22 -149 160q-77 135 -166 255q-127 -96 -172 -218l-125 -336l-29 43q-9 14 -11 38q6 19 15 40q13 30 49 117l129 310q64 153 65 164
q0 46 -117.5 235.5t-118.5 206.5q-1 18 9 37l11 11h59q75 -110 133 -243q43 -98 103 -169q61 93 195 268q73 83 159 144h59q3 -14 13 -27z" />
    <glyph glyph-name="Odieresis" unicode="&#xd6;" horiz-adv-x="1400" 
d="M1237 -281q1 -40 -84 -142q-63 -77 -156 -136l-88 21l166 155q51 48 51 112q0 19 -184.5 152.5t-220.5 135.5l-189 -47q-193 -48 -215 -48q-51 0 -116 52q-81 65 -82 168q-1 82 139 394q149 333 279 490l2 -47v-40q0 -7 -2 -18q0 -26 -2 -39q0 -3 -3 -20q0 -10 1 -17
q1 -14 4 -26q-67 -27 -162 -199q-33 -59 -73 -143q-26 -52 -75 -163l-63 -160q0 -81 43 -115q33 -26 86 -24l45 2q268 12 405 147q99 98 211 353q129 295 217 416l25 -2q40 -3 41 -30q1 -28 -109 -185q-18 -27 -57 -81q-12 -16 -53 -69l-82 -217q-36 -96 -92 -152
q33 -55 33 -62l-11 -4q-7 -3 -8 -26q0 -10 6 -36q3 -25 260 -202q112 -77 113 -148z" />
    <glyph glyph-name="multiply" unicode="&#xd7;" horiz-adv-x="1370" 
d="M428 942q-46 -47 -111 -151q-71 -113 -108 -156v-88l53 -15q21 -6 55 -6q308 0 471 152q100 93 179 305q80 216 139 264l14 -14q6 -7 6 -39q0 -68 -82 -258q-40 -92 -70 -166q-14 -34 -50 -123q-20 -47 -31 -80q-82 -236 -82 -385q0 -99 33 -182h-88l-36 26
q-18 13 -30 19l64 285l45 217l-21 12q-12 12 -22 12q-155 -62 -217 -83q-140 -47 -222 -48q-64 -1 -124 31q-73 38 -74 98q0 17 164 310q93 165 166 391h53l100 -23l-63 -110q-33 -58 -90 -107q27 -30 28 -51q1 -15 -24 -29q-14 -2 -25 -8z" />
    <glyph glyph-name="Oslash" unicode="&#xd8;" horiz-adv-x="1720" 
d="M1470 1126l-81 -225l-160 -434q-89 -241 -109 -272q25 -22 74 -58l14 -8v-45q-216 0 -331 -25l-150 -59q-265 0 -337 7q-273 25 -275 124q0 13 78 199l227 542q0 21 -8 50q-13 45 -13 73q-1 53 25 113q22 52 84 115q19 -14 55 -31q9 -3 10 -14v-31q0 -81 -97 -340
q-34 -92 -75 -189q-103 -246 -200 -423v-89q41 -10 86 -16l88 -4q28 -1 55 -1q207 0 244 67q39 186 141 436l47 2q39 2 39 -33q0 -16 -65 -154t-66 -208q-1 -38 20 -53q20 -10 58 -13l53 2q36 0 107 14l92 50q-13 22 -45 43l258 766q48 141 92 196h45l12 -33q5 -20 8 -41z
" />
    <glyph glyph-name="Ugrave" unicode="&#xd9;" horiz-adv-x="2070" 
d="M1753 1059q-55 -75 -139 -271q-145 -338 -211 -473q36 -29 199 -79q105 -32 106 -130q0 -37 -82 -247l-70 -178h-88v8q0 10 -4 18l-18 19q53 65 76 104q75 125 75 236q0 49 -30 83t-78 35l-113 -55q-117 -57 -297 -104q-220 -58 -420 -58q-253 0 -372 74
q-106 65 -107 188q0 9 80 142q32 53 92 155q16 28 82 142l74 129q62 151 94 217q68 141 123 196q0 -9 12 -32q4 -11 8 -31q0 -51 -118 -270l-221 -410q-119 -220 -119 -250q-1 -103 80 -139q55 -24 204 -25q200 -1 279 133q29 49 88 285q47 187 137 260q0 -13 15 -33
q5 -7 8 -20q0 -95 -64 -224q-64 -132 -65 -163q0 -8 6 -33q1 -6 4 -16q2 -5 10 -15l-55 -51l-33 -57q6 -9 26 -14.5t60 -6.5q16 0 131 21q91 17 199 20q15 168 148 511q141 367 245 452z" />
    <glyph glyph-name="Uacute" unicode="&#xda;" horiz-adv-x="1296" 
d="M1131 345q2 -118 -477 -286q-167 -58 -209 -59q-81 -1 -111 10.5t-87 68.5q98 145 99 262q1 113 37 203q68 171 317 481q-74 38 -239 116l-96 42q-134 0 -136 -131l10 -99l8 -86q-39 26 -73 86q-45 79 -45 113q0 42 66 112q77 82 168 83q24 0 170 -80q141 -77 324 -79
q2 -6 4 -10q5 -7 10 -12.5t6 -15.5l-107 -122q-101 -115 -174 -202l-93 -110v-41q45 0 113.5 20.5t111.5 20.5q101 0 258 -127q144 -117 145 -158zM1015 336l-84 82q-115 112 -212 113q-208 1 -256 -149l-78 -243l67 -14l40 -7q97 0 273 77q160 71 250 141z" />
    <glyph glyph-name="Ucircumflex" unicode="&#xdb;" horiz-adv-x="1602" 
d="M1301 1076q0 -23 -40 -171q-45 -165 -74 -363q-42 -283 -42 -628h-78l39 40l-19 19q-8 8 -20 23q-18 18 -20 46q10 72 48 294q12 73 34 207l56 325q53 298 59 306q15 -18 26 -22q5 -3 19 -5q9 0 12 -6v-65zM907 319q1 -177 -492 -319q-150 -43 -186 -44q-41 -1 -69 72
q-3 11 -10 31q-2 12 -10 43l37 95q8 21 49 147q23 70 57 185q80 269 172 625h59q0 -7 12 -28q8 -18 9 -29q0 -74 -69.5 -287.5t-69.5 -324.5l89 69q13 10 53 10h44q113 0 212 -65q112 -73 113 -180zM811 308v79q-36 13 -111 51q-50 25 -109 26q-112 1 -177 -48
q-48 -36 -115 -147v-139l49 -12q28 -7 46 -7q219 -1 417 197z" />
    <glyph glyph-name="Udieresis" unicode="&#xdc;" horiz-adv-x="1251" 
d="M1113 503q1 -151 -199 -248q-75 -36 -369 -125q-199 -60 -200 -130l-133 30q-41 13 -83 167l40 15q16 6 56 6q13 0 76 176q10 28 52 161q35 110 55 184q51 186 53 228l81 432h59q-21 -237 -39 -312l-38 -160q0 -46 183 -85q146 -30 229 -31q26 0 98 -107q78 -117 79 -201
zM1013 553q0 33 -93 105q-120 93 -271 94q-76 1 -157 -129q-69 -110 -109 -243l-40 -132q0 -10 9 -25l33 -44l223 57q170 43 273 112q132 88 132 205z" />
    <glyph glyph-name="Yacute" unicode="&#xdd;" horiz-adv-x="1400" 
d="M1221 581q0 -185 -177 -340q-120 -105 -372 -223q-298 -140 -326 -160l-86 25q40 43 358 194q189 90 386 239q-94 32 -175 45q-74 12 -180 13q-108 1 -227 -18l-250 -40v71q231 73 479 75q128 1 212 -15t184 -60q58 101 75 151q13 38 13 68q1 91 -142 232
q-178 175 -418 176q-137 0 -240 -52q-103 -58 -206 -117q-28 19 -45 25q41 95 168 171q120 72 291 72q198 0 426 -156q252 -172 252 -376z" />
    <glyph glyph-name="Thorn" unicode="&#xde;" horiz-adv-x="1950" 
d="M1675 680q1 -182 -149 -358q-110 -130 -285 -238q-136 -84 -170 -84q-158 0 -234 59t-77 174q0 49 18 117q-83 31 -112 39q-45 8 -119 8q-316 2 -316 -342v-32l-153 22q91 99 172 258q90 177 90 291q52 86 76 143q75 180 76 369q0 60 63 78l70 20q0 -12 12 -33
q6 -15 10 -30q-32 -66 -94 -228q-59 -155 -125 -409q38 -8 197 -47l75 -19q27 0 66 29q48 36 49 78q1 24 -14 47q52 29 194 280q114 201 308 201q114 0 223 -82q148 -111 149 -311zM1610 713q0 37 -76 133q-95 120 -199 121q-98 1 -194 -160q-33 -56 -66 -133
q-22 -50 -59 -162l-41 -162q-47 -8 -66 -16q-64 -29 -65 -90q-1 -55 42 -104t99 -50q33 -1 178 82q445 253 447 541z" />
    <glyph glyph-name="germandbls" unicode="&#xdf;" horiz-adv-x="1700" 
d="M1425 811q-7 0 -61 -100q-67 -123 -115 -279q-63 -204 -63 -412q-5 0 -9.5 -10t-46.5 -10q-36 0 -68 52q-30 49 -30 69l131 184l-51 18q-13 5 -39 5q-63 1 -147 -68q-54 -44 -90 -63q-357 -183 -357 -414v-18q0 -10 4 -27l2 -21v-4q-10 -23 -57 -39l-74 -26l-37 55
q-9 20 -10 55q-1 44 131 209q139 174 267 273q-70 61 -99 65q-9 0 -25 -11t-32 -11q-124 -1 -221 100q-106 111 -107 297q-1 197 193 385q232 225 596 225q163 0 299 -147q56 -61 87 -147q27 -77 29 -185zM1294 963q-39 59 -75 120q-81 96 -220 97q-192 1 -393 -119
q-18 -10 -130 -81q-70 -44 -101 -62q7 -23 8 -50q1 -28 -33 -125q-18 -52 -18 -75q0 -180 160 -277q104 -63 188 -63q20 0 221 92q98 45 186 45q33 0 76 -6l-4 55q-7 101 31 258q39 162 104 191z" />
    <glyph glyph-name="agrave" unicode="&#xe0;" horiz-adv-x="1020" 
d="M982 688q-14 -43 -89 -196q-77 -158 -82 -173q-11 -42 -45 -135q-7 -14 -7 -37q0 -20 6.5 -62t6.5 -58q0 -19 -6 -27h-86l27 141l-3 16l-2 38l-114 -78q-171 -117 -271 -117q-76 0 -133 57q-73 73 -73 140q-1 158 145 366q171 243 381 244q46 0 222 -189q4 -4 7 -4
q12 0 23.5 60.5t16.5 60.5q2 -1 4 -3q72 0 72 -44zM637 276q128 122 129 226q1 67 -35 116q-42 58 -117 58q-152 1 -284 -215q-107 -175 -109 -277v-32q0 -16 8 -27q23 -39 101 -39q132 0 166 35q37 27 73 53q57 49 58 102q0 -11 1 -8q4 8 9 8v0l43 43h-53z" />
    <glyph glyph-name="aacute" unicode="&#xe1;" horiz-adv-x="910" 
d="M1139 1489q-532 -183 -725 -307q-130 -83 -131 -164q0 -17 118 -123q151 -136 224 -229q120 -154 120 -293q0 -166 -103 -269t-269 -104q-94 -1 -153 40q-68 46 -68 136q0 158 125 279q104 100 272 157q-89 79 -201 195q-172 177 -172 211q-1 165 326 328q143 71 272 108
q134 39 234 37zM635 219q-102 0 -141 39t-39 113q0 39 6 88q-91 -80 -121 -125l-76 -115v-88l68 -27q34 -13 71 -14q62 -1 120 43q38 28 112 86z" />
    <glyph glyph-name="acircumflex" unicode="&#xe2;" horiz-adv-x="983" 
d="M1282 1268q1 -95 -199 -305q-146 -154 -385 -351q-173 -143 -249 -198q-14 -11 -103 -37q-117 -35 -117 -170q0 -73 48 -100q36 -20 116 -21q223 -2 320 217q-43 6 -70 16l-18 9q-31 0 -95 -54l-147 -124v4q0 9 -10 26q0 4 -13 17q41 76 68 108q91 108 197 109
q39 0 116 -39.5t78 -71.5l-39 -78q-57 -88 -153 -145q-133 -79 -322 -80q-67 0 -108 91q-33 74 -33 149q0 193 112 378q89 146 349 431q144 158 239 243q167 150 252 150q76 0 120.5 -49t45.5 -125zM1214 1266l-86 88h-45q-18 -34 -180 -183q-196 -181 -303 -305
q-176 -204 -260 -387q82 88 207 183q166 126 252 200q207 178 415 404z" />
    <glyph glyph-name="atilde" unicode="&#xe3;" horiz-adv-x="748" 
d="M617 613q0 -21 -185 -226q-87 -96 -88 -185q-1 -40 19 -88q18 -44 61 -94l-48 -20q-34 0 -101 44t-68 76q-1 55 64 202l80 181q-8 0 -22 13q-10 8 -25 11q-11 0 -44 -24l-100 -73l-25 50q0 23 59 88q139 153 302 153q45 0 82.5 -32t38.5 -76z" />
    <glyph glyph-name="adieresis" unicode="&#xe4;" horiz-adv-x="980" 
d="M868 756q0 -223 -163 -484q-182 -291 -396 -292q-186 -1 -186 231q0 95 168 244q116 103 260 104q87 1 164 -33l47 89q36 69 41 85q0 98 -53 254q-67 199 -168 328q-127 163 -283 164q-210 1 -305 -166l-133 -293q-8 4 -23 13q-22 9 -22 30q-1 200 174 363
q154 142 299 143q186 1 375 -231q204 -251 204 -549zM629 373q-23 33 -39 73l-6 15h-66q-192 -140 -233 -225q-21 -45 -52 -103q28 -21 89 -43q6 0 174 109q-16 44 -31 65l-29 41q0 5 13 33q15 34 47 100q69 -16 82 -26q6 -2 51 -39z" />
    <glyph glyph-name="aring" unicode="&#xe5;" horiz-adv-x="1372" 
d="M1171 702q1 -64 -239 -233q-259 -183 -430 -184q-29 0 -140 88l-34 -49q-13 -31 -13 -70q-1 -109 140 -158q95 -33 231 -33h43l27 3q-21 -27 -27.5 -45t-23.5 -21h-66q-6 1 -16 2q-123 0 -256 64q-158 76 -158 178q-1 233 270 440q255 194 496 195q73 0 133 -51
q62 -54 63 -126zM1018 723l-99 16q-37 6 -75 6l-258 -114q-118 -89 -203 -258q32 0 121 22q364 90 514 328z" />
    <glyph glyph-name="ae" unicode="&#xe6;" horiz-adv-x="1491" 
d="M1323 21q-91 -71 -217 -99q-71 -16 -177 -17q-104 -1 -176 128q-22 60 -74 172q-59 -64 -131 -139q-50 -52 -70 -53q-8 0 -16 8l-34 123q-12 43 -38 61l-171 -207h-47q0 54 -10 60q-12 3 -12 22q115 129 164 197q90 126 112 226l-78 -50q-9 -6 -45 -27q-33 -10 -84 -36
h-69v68l400 209q9 0 11 -71q2 -65 30 -93l6 -2q10 0 35 16q77 49 90 51q14 0 27 -35q9 -40 9.5 -44t11.5 -31q140 128 159 142q146 109 275 110q6 0 11 -1.5t23 -10.5l37 -10q0 -19 15 -54q3 -7 6 -15.5t3 -9.5q0 -29 -125 -84q-160 -70 -232 -127q-124 -98 -125 -238
q-1 -173 219 -175q60 -1 144 13z" />
    <glyph glyph-name="ccedilla" unicode="&#xe7;" horiz-adv-x="810" 
d="M700 460q-47 -114 -172 -185q-160 -90 -221 -153q51 -32 236 -102q91 -35 92 -137q1 -101 -135 -184l-281 -172q-75 -46 -148 -127q-57 -63 -94 -144l-40 16q-8 2 -46 7q2 14 30 184q2 14 13 57q111 0 234 74q56 34 139 73q57 50 99 92q95 95 98 112q0 91 -105 118
l-153 21q-35 7 -92 18q48 156 131 202q128 72 176 133l-51 9l-43 2q-53 2 -136 -25l-100 -33q0 5 -9.5 21t-10.5 28q0 58 177 105q142 38 226 39q14 0 37 -4q16 -2 51 -11q54 -16 98 -34z" />
    <glyph glyph-name="egrave" unicode="&#xe8;" horiz-adv-x="1110" 
d="M987 528q0 -28 -108 -227q-72 -133 -131 -301h-89l-10 49v20l4 34l6 51q-3 0 -13.5 9.5t-20.5 12.5q-216 -131 -340 -131h-56q-13 0 -24 4q-48 12 -49 74q23 107 47 176q73 210 194 336l58 -25l28 -18v-45q-29 -26 -139 -205q-38 -62 -100 -100v-88l63 -23q98 0 250 111
q117 86 234 211l108 116h66q0 -9 10 -26z" />
    <glyph glyph-name="eacute" unicode="&#xe9;" horiz-adv-x="1200" 
d="M1051 956l-13 -57l-8 -31l-45 2q-134 6 -219 -92q-66 -76 -86 -215l-88 -22q0 41 -12 53q-11 6 -11 24q-1 131 181 256q41 28 192 105l41 -4q14 0 68 -19zM811 344l-176 -301q-46 -79 -70 -100q-8 -10 -82 -60h-45v72q-20 17 -69 39q-18 0 -193 -43l-31 51q-13 22 -14 57
q-1 54 42 134t44 131q0 17 58 88q47 58 75 86h45l11 -15q12 -16 12 -28q-156 -221 -156 -355q0 -33 2 -41q244 112 345 211q61 60 114 140h88v-66z" />
    <glyph glyph-name="ecircumflex" unicode="&#xea;" horiz-adv-x="1010" 
d="M901 567q-72 -89 -153 -153l-220 -174q95 -95 131 -154l68 -111l-88 -86q-58 39 -104 152q-37 90 -95 90q-8 0 -26.5 -12.5t-104.5 -12.5l-18 -75l-25 -56h-88q0 64 -10 93q0 9 -12 18l51 78q113 173 213 426l88 -23l-43 -129q-23 -69 -23 -133l217 156q6 5 134 129z" />
    <glyph glyph-name="edieresis" unicode="&#xeb;" horiz-adv-x="880" 
d="M729 174l-8 -12q-28 -42 -55 -119h-68l2 57v107l-2 166l-43 43q-258 -324 -350 -416q-26 13 -66 23v65q57 59 215 293q150 223 201 319q102 -75 143 -213q28 -94 31 -313z" />
    <glyph glyph-name="igrave" unicode="&#xec;" horiz-adv-x="1450" 
d="M1257 625q-202 -311 -204 -496q0 -47 10 -86q-34 -25 -88 -43l-2 328q-28 -21 -60 -37q-62 -30 -98 -31q-10 0 -16 2q-35 6 -88 47q-6 5 -21 19l-133 -133q-174 -174 -295 -175q-55 -1 -69 30q-9 17 -9 81q0 54 15 84l32 47l31 -41q11 -14 35 -69q188 65 285 184l217 364
l49 -65q12 -22 14 -37q0 -4 -12 -27.5t-12 -44.5q0 -54 26 -108q140 75 195 147q25 37 68 97q9 12 44 59h66q6 -53 12 -72q3 -18 8 -24z" />
    <glyph glyph-name="iacute" unicode="&#xed;" horiz-adv-x="1090" 
d="M946 524q-37 -109 -162 -260q-97 -117 -100 -244q-24 -3 -44.5 -7.5t-25.5 -6.5l-18 -6q-21 0 -47 16l-62 47l62 74q24 36 24 58q0 21 -32 22l-21 4q-22 5 -57 10q-25 1 -53 -14q-60 -32 -107 -117q-4 -8 -35 -80q-38 24 -75 34q-31 9 -78 9q30 75 71 125l82 72v19l-2 24
q-6 77 31 156q48 102 168 151l27 -51q18 -34 18 -67q0 -43 -68 -144l77 -23q60 -18 77 -18q19 0 55 35l187 182h108z" />
    <glyph glyph-name="icircumflex" unicode="&#xee;" horiz-adv-x="874" 
d="M751 438q1 -157 -179 -308q-154 -129 -249 -130q-90 -1 -148 87q-69 106 -70 225q-1 133 120 309q130 187 256 188q47 0 143 -89q126 -118 127 -282zM665 427q0 122 -64 197q-51 60 -111 61q-40 1 -150 -239l-110 -240q0 -24 44 -62t70 -39q41 -1 174 111
q147 124 147 211z" />
    <glyph glyph-name="idieresis" unicode="&#xef;" horiz-adv-x="788" 
d="M628 316q0 -110 -37 -247q-5 -18 -34 -112l-16 -54l-3 -12l-70 -24l-2 41l-2 32q-4 66 34 171q34 94 35 134q1 32 -12 71q-5 10 -14 27q-13 20 -39 53q-133 -108 -182.5 -250.5t-137.5 -186.5l-23 47l18 103q6 32 19 82q59 224 148 366l90 -93l45 45q24 24 58 24
q85 0 116 -135q9 -40 9 -82z" />
    <glyph glyph-name="eth" unicode="&#xf0;" horiz-adv-x="1150" 
d="M991 463q1 -151 -237 -270l-443 -222q-237 -164 -237 -428l-66 -164h-88q-18 16 -51 35l-14 8q199 419 333 721q49 111 88 203l46 109q22 52 59 127q94 -29 149 -31q20 -1 132 37q54 18 120 18q208 0 209 -143zM860 453q0 14 -10 30l-10 13h-131q-352 -251 -353 -338
q0 -6 12 -16.5t13 -18.5q105 63 278 153q201 105 201 177z" />
    <glyph glyph-name="ntilde" unicode="&#xf1;" horiz-adv-x="820" 
d="M705 504q1 -52 -38.5 -91.5t-91.5 -39.5q-54 0 -71 35.5t-17 101.5v37q-15 2 -43 16l-12 6q-40 0 -119 -90q-87 -100 -88 -194q-1 -104 121 -168l186 -97q-4 0 -21 -9t-24 -11q-132 0 -246 80q-125 88 -126 215q-1 126 133 272q140 153 284 154q63 0 119 -78
q53 -73 54 -139z" />
    <glyph glyph-name="ograve" unicode="&#xf2;" horiz-adv-x="1060" 
d="M922 770q-39 -30 -140 -61q-162 -50 -233 -76q-182 -67 -371 -170h-65q68 132 358 227q239 78 451 80zM528 465l-73 -250q-35 -127 -37 -211l-31 -4h-25q-34 0 -53 4q30 127 51 201q61 217 123 323l25 -4q19 -3 20 -59z" />
    <glyph glyph-name="oacute" unicode="&#xf3;" horiz-adv-x="987" 
d="M827 495q1 -106 -113 -222q-146 -149 -185 -230q-68 -144 -116 -310q-24 -83 -296 -195q-54 6 -63 10l-54 13q24 42 109 76q175 70 306 337v47q-18 4 -41 3l-62 -3q-71 -3 -105 24q-45 36 -45 138q33 137 55 197q74 207 175 261q7 -6 18 -17q6 -4 13 -13q11 -10 14 -26
l-93 -170q-85 -155 -92 -187l13 -25q12 -31 12 -68h115q134 73 201 222q81 181 166 263q16 -14 45 -46q23 -29 23 -79z" />
    <glyph glyph-name="ocircumflex" unicode="&#xf4;" horiz-adv-x="1080" 
d="M860 418q1 -115 -110 -207q-307 -254 -326 -297q-100 -230 -143 -371q-27 -90 -29 -147l4 -45q0 -13 -8 -29q-70 82 -82 174l-6 45l198 504q-31 10 -92 29l-104 14v176q79 290 106 350q29 64 80 62l51 -2q35 -1 86 10q47 10 103 41q33 66 143 129q0 -88 -22 -131
q-5 -10 -25 -23q0 -24 88 -124.5t88 -157.5zM750 408l-2 10q-2 12 -9 42q-2 21 -8 66h-45q-38 -38 -84 -141q-47 -106 -90 -231l156 143q80 74 82 111zM532 614q-73 -76 -129 -168q-87 -143 -88 -192q0 -14 10 -23q9 -5 11 -55h45q129 336 151 438z" />
    <glyph glyph-name="otilde" unicode="&#xf5;" horiz-adv-x="930" 
d="M739 680q-100 0 -192 -133q-72 -104 -72 -139q0 -78 80 -107l162 -59q-45 -37 -82 -62l-72 -49l-131 154q-109 -102 -110 -158q-1 -33 45 -82q-7 -2 -50 -29q-23 -14 -38 -16l-35 10l-74 13q172 297 174 372q1 36 -53.5 156t-97.5 172l20 131q88 -43 125 -125l72 -160h45
q81 158 96 174l123 88h65l9 -28v-84z" />
    <glyph glyph-name="odieresis" unicode="&#xf6;" horiz-adv-x="1060" 
d="M901 417q0 -53 -57 -140l-119 -182q0 -28 55.5 -118t55.5 -123q1 -85 -138 -196l-145 -116l-111 23q59 73 183 158q79 54 80 119q0 22 -37 96q-20 39 -29 109q-170 0 -238 -28q-36 -15 -69 -15q-197 0 -197 196q0 74 98 292q111 247 187 248q8 0 22 -7q24 -12 45 -19
q-115 -170 -162 -252q-102 -179 -104 -273q11 -6 19 -21q6 -18 6 -51q17 -2 35 -5q24 -4 38 -13l15 -4q154 0 239 90l199 299h109q0 -10 9 -32q9 -26 11 -35z" />
    <glyph glyph-name="divide" unicode="&#xf7;" horiz-adv-x="1000" 
d="M836 792q0 -30 -84 -177q-137 -240 -160 -286q-85 -171 -86 -257q0 -23 2 -29l-45 -43h-66v146l60 91q22 44 51 76v103q-61 -24 -123 -25q-21 0 -123 14q-53 7 -127 11q0 27 -5 34t-19 11q0 35 127 228q144 219 247 247l15 -22q8 -11 8 -29q1 -37 -89 -149.5t-196 -194.5
q54 -51 95.5 -66.5t89.5 -15.5h74q9 0 14 2q64 0 114 81q164 263 203 291q0 -30 10 -39z" />
    <glyph glyph-name="oslash" unicode="&#xf8;" horiz-adv-x="1500" 
d="M1325 555q-38 -28 -133 -195q-120 -210 -121 -352q-1 -78 35 -131l-82 -20q-13 -2 -72 -25q0 23 11 49l6 27q0 34 -82 100q44 43 55 59l33 50q-5 0 -16 10t-19 12l-139 -76q-137 -75 -209 -75q-66 0 -86 35l-78 139l-106 -96q-51 -36 -125 -37q-69 -1 -91 20
q-27 25 -28 103q-1 46 78 206q101 207 227 240l45 -20q-13 -29 -143 -222q-96 -143 -97 -188q-1 -28 31 -29q13 0 109 54q321 182 428 450l55 -33q33 -20 33 -43q0 -29 -115 -186q-82 -113 -147 -242l43 -20q180 0 319 112q83 67 174 214q97 156 142 198h65v-88z" />
    <glyph glyph-name="ugrave" unicode="&#xf9;" horiz-adv-x="1440" 
d="M1257 745q0 -11 -83 -153l-72 -124q-36 -63 -86 -153q-84 -151 -86 -182l55 -115q55 -114 55 -137q1 -84 -115 -150q-102 -59 -192 -59q24 33 115 101q60 45 61 98q1 95 -39 131q-25 23 -98 23h-55q-73 0 -111 18q-54 26 -92 111l-215 -95q-62 -27 -92 -34q-12 0 -31 10
l-33 10v78q0 31 70 213q90 234 193 387h65v-154q-91 -133 -119 -182q-60 -105 -100 -211l12 -10q14 -7 31 -10q134 0 377 344l127 180h65v-88q-63 -96 -155 -254l-84 -184l16 -11q12 -12 39 -12q87 0 219 178q139 188 250 479h88l10 -12q8 -15 10 -31z" />
    <glyph glyph-name="uacute" unicode="&#xfa;" horiz-adv-x="1340" 
d="M1126 297q1 -120 -94 -205q-102 -91 -278 -92q-93 -1 -166 45q-96 59 -96 174q0 52 45 117q65 93 176 276q-156 0 -226 29q-26 11 -81 59h-109q-12 -24 -31 -49q-3 -10 -14 -18l108 -86q-17 -13 -18.5 -27.5t-46.5 -15.5q-46 -1 -78 31t-33 88q-1 65 44 133q50 75 112 75
l242 -131q12 -2 20 -3q-1 0 33 -1q-6 0 115 9l110 8q39 3 92 -13l-196 -264l55 -2h72q116 0 164 -18q78 -29 79 -119zM1018 262l-60 45q-28 21 -51 21l-151 -66l6 -47q0 -20 -37 -36l-57 -25q8 -4 22 -27q10 -16 43 -16q158 0 285 151z" />
    <glyph glyph-name="ucircumflex" unicode="&#xfb;" horiz-adv-x="1244" 
d="M1078 789l-53 -163q-44 -134 -119 -318q-77 -188 -118 -226q0 61 -10 87q0 7 -11 18l228 685h61q2 -12 14 -44q4 -14 8 -39zM724 354q0 -69 -89 -118q-43 -24 -68 -36l-112 -56q-26 -17 -92 -81l-12 -11q-53 -51 -84 -52q-41 -1 -91 31q-54 34 -55 73q14 33 79 240
q72 228 129 445l62 -28q24 -15 25 -68q1 -52 -25 -173l171 -28q162 -27 162 -138zM599 352q-42 31 -77 42q-9 2 -17 3q-78 0 -145 -89q-60 -79 -61 -129q0 -12 9 -12t138 82.5t153 102.5z" />
    <glyph glyph-name="udieresis" unicode="&#xfc;" horiz-adv-x="940" 
d="M796 292q-113 -98 -181 -146q-202 -145 -331 -146q-16 0 -39 9l-33 13l43 41q-24 16 -66 48q-39 38 -41 99q9 46 15 73l10 42q11 47 34 138q13 46 38 124q34 104 50 146q30 81 63 141h43q6 -64 6 -100q0 -51 -18 -99q-34 -90 -51 -155l245 -49q88 -27 213 -179zM650 312
q-16 10 -47 29l-59 34h-186q0 -71 -43 -117l-60 -50v-124q20 4 191 101q180 102 204 127z" />
    <glyph glyph-name="yacute" unicode="&#xfd;" horiz-adv-x="1150" 
d="M987 417q1 -138 -192 -234q-67 -33 -176 -70q-91 -31 -181 -61q-193 -70 -194 -149q0 -30 20 -65v-50h-108l-19 32q-6 10 -6 31q0 114 113 185l219 138q-78 46 -101 63l-53 58l37 4h23l90 -20q32 -7 112 -8q108 -1 201 58q34 22 107 86q-111 144 -324 144q-84 0 -141 -13
l-150 -34q-3 8 -9 23q-2 7 -11 24q112 118 415 121q24 0 170 -101q158 -109 158 -162z" />
    <glyph glyph-name="thorn" unicode="&#xfe;" horiz-adv-x="1450" 
d="M1303 408q0 -157 -170 -304q-164 -142 -324 -143q-95 -1 -127 76q-17 57 -22.5 74t-12.5 33h-45q-101 -11 -237 -37q-45 -12 -113 -216h-88q0 52 -10 76q-2 8 -11 16l130 179q63 87 89 165q10 30 11 90v60q0 41 4 63q2 35 11 61q4 13 18 48q83 -83 86 -210q1 -39 -5 -69
l-4 -58q-3 -44 33 -74q39 -23 131 -23q45 0 184 251.5t197 251.5q35 0 152 -118q123 -125 123 -192zM1192 374q0 44 -51 116q-18 25 -58 67h-65q-15 -29 -80 -86q-37 -33 -49 -144l-90 -69q-12 -27 -21 -71q-6 -31 -22 -90l22 -13q21 -12 43 -33q192 89 299 199
q72 74 72 124z" />
    <glyph glyph-name="ydieresis" unicode="&#xff;" horiz-adv-x="990" 
d="M799 612q1 -28 -51 -272q-60 -283 -101 -340h-65q8 30 18 84l4 90q-217 -155 -323 -293l-95 -123h-65v66q71 94 127 160q71 83 158 168q-22 21 -111 81q-130 89 -131 216q-1 110 143 237q140 125 252 125q32 0 135.5 -83.5t104.5 -115.5zM647 504q0 92 -14 129
q-25 66 -96 67q-70 1 -185 -120q-22 -23 -98 -121q0 -48 63 -107q69 -64 154 -65q88 -1 135 66q41 59 41 151z" />
    <glyph glyph-name="Amacron" unicode="&#x100;" 
d="M788 454q-70 -50 -88 -166q-6 -38 -6 -82q-1 -57 8 -130q6 -51 21 -135l-45 -27l-23 -9q-13 0 -22 -3l-15 68l-4 61q-2 37 9 104q12 73 12 103q1 107 -4 127q-15 70 -84 70h-43q-104 0 -160 -96q-42 -72 -43 -170q0 -30 6 -49l-78 -35q-3 -11 -30 -64h-45l-13 27
q-6 12 -10 33q0 137 107 389q97 228 198 402l113 194q8 14 33 123q16 77 53 230l59 -19q17 -5 51 -19q-16 -65 -19 -153t-7 -266q-3 -401 69 -508zM635 732l2 47q1 17 -4 47.5t-19 80.5q-5 -10 -65 -165q-58 -151 -66 -189l86 -18q38 0 53 47q18 54 15 109zM415 1636h638
v-128h-638v128z" />
    <glyph glyph-name="amacron" unicode="&#x101;" horiz-adv-x="909" 
d="M920 655q-2 -24 -66 -286.5t-88 -325.5h-66v154q-19 0 -43 12l-24 8q-91 -69 -154 -108q-74 -46 -115 -67q-80 -41 -124 -42q-43 -1 -93 86q-40 70 -41 166q-2 241 324 481q106 78 127 78l148 -47q66 -21 104 -21v-88q28 -6 57 -10q21 0 54 10zM743 567q-15 15 -44 48
q-6 12 -21 63h-66q-218 -113 -293 -184q-121 -114 -122 -297q0 -28 28 -56q9 -7 103 -55q13 56 100 111l207 131q6 9 6 18t-10 31q-8 19 -10 37q0 60 122 153zM137 1247h638v-128h-638v128z" />
    <glyph glyph-name="Abreve" unicode="&#x102;" 
d="M788 454q-70 -50 -88 -166q-6 -38 -6 -82q-1 -57 8 -130q6 -51 21 -135l-45 -27l-23 -9q-13 0 -22 -3l-15 68l-4 61q-2 37 9 104q12 73 12 103q1 107 -4 127q-15 70 -84 70h-43q-104 0 -160 -96q-42 -72 -43 -170q0 -30 6 -49l-78 -35q-3 -11 -30 -64h-45l-13 27
q-6 12 -10 33q0 137 107 389q97 228 198 402l113 194q8 14 33 123q16 77 53 230l59 -19q17 -5 51 -19q-16 -65 -19 -153t-7 -266q-3 -401 69 -508zM635 732l2 47q1 17 -4 47.5t-19 80.5q-5 -10 -65 -165q-58 -151 -66 -189l86 -18q38 0 53 47q18 54 15 109zM450 1759h31
q33 -60 76 -86q73 -43 181 -43t180 42q51 30 71 87h33q-9 -119 -87 -198q-81 -82 -199 -82t-198 82q-78 79 -88 198z" />
    <glyph glyph-name="abreve" unicode="&#x103;" horiz-adv-x="909" 
d="M920 655q-2 -24 -66 -286.5t-88 -325.5h-66v154q-19 0 -43 12l-24 8q-91 -69 -154 -108q-74 -46 -115 -67q-80 -41 -124 -42q-43 -1 -93 86q-40 70 -41 166q-2 241 324 481q106 78 127 78l148 -47q66 -21 104 -21v-88q28 -6 57 -10q21 0 54 10zM743 567q-15 15 -44 48
q-6 12 -21 63h-66q-218 -113 -293 -184q-121 -114 -122 -297q0 -28 28 -56q9 -7 103 -55q13 56 100 111l207 131q6 9 6 18t-10 31q-8 19 -10 37q0 60 122 153zM167 1358h31q33 -60 76 -86q73 -43 181 -43t180 42q51 30 71 87h33q-9 -119 -87 -198q-81 -82 -199 -82t-198 82
q-78 79 -88 198z" />
    <glyph glyph-name="Aogonek" unicode="&#x104;" 
d="M788 454q-70 -50 -88 -166q-6 -38 -6 -82q-1 -57 8 -130q6 -51 21 -135l-45 -27l-23 -9q-13 0 -22 -3l-15 68l-4 61q-2 37 9 104q12 73 12 103q1 107 -4 127q-15 70 -84 70h-43q-104 0 -160 -96q-42 -72 -43 -170q0 -30 6 -49l-78 -35q-3 -11 -30 -64h-45l-13 27
q-6 12 -10 33q0 137 107 389q97 228 198 402l113 194q8 14 33 123q16 77 53 230l59 -19q17 -5 51 -19q-16 -65 -19 -153t-7 -266q-3 -401 69 -508zM635 732l2 47q1 17 -4 47.5t-19 80.5q-5 -10 -65 -165q-58 -151 -66 -189l86 -18q38 0 53 47q18 54 15 109zM1106 16h52
q-26 -52 -26 -99q0 -84 52 -132q69 -63 162 -63q57 0 119 23l21 -32q-136 -76 -231 -76q-93 0 -157 44q-72 51 -72 140q0 119 80 195z" />
    <glyph glyph-name="aogonek" unicode="&#x105;" horiz-adv-x="909" 
d="M920 655q-2 -24 -66 -286.5t-88 -325.5h-66v154q-19 0 -43 12l-24 8q-91 -69 -154 -108q-74 -46 -115 -67q-80 -41 -124 -42q-43 -1 -93 86q-40 70 -41 166q-2 241 324 481q106 78 127 78l148 -47q66 -21 104 -21v-88q28 -6 57 -10q21 0 54 10zM743 567q-15 15 -44 48
q-6 12 -21 63h-66q-218 -113 -293 -184q-121 -114 -122 -297q0 -28 28 -56q9 -7 103 -55q13 56 100 111l207 131q6 9 6 18t-10 31q-8 19 -10 37q0 60 122 153zM653 16h52q-26 -52 -26 -99q0 -84 52 -132q69 -63 162 -63q57 0 119 23l21 -32q-136 -76 -231 -76q-93 0 -157 44
q-72 51 -72 140q0 119 80 195z" />
    <glyph glyph-name="Cacute" unicode="&#x106;" horiz-adv-x="1366" 
d="M795 963q0 -2 -13 -35l-30 -76q-14 7 -68 37q-34 19 -35 47q-1 30 17 92l-21 10q-10 8 -24 11q-94 0 -254 -213q-186 -247 -187 -496q0 -264 293 -264q96 0 193 33h65v-46l-106 -51q-25 -12 -105 -12q-168 0 -284 68q-142 82 -142 239q0 254 168 537q174 294 348 295
q57 0 120.5 -59.5t64.5 -116.5zM789 1195l86 7q35 3 78 39q15 13 32 40l29 70l4 14l4 17h60v-250h-375v-518q0 -146 100 -148v-59h-342v59q54 0 76 43q16 48 16 105v373q0 63 -16 102q-13 32 -76 47v59h324z" />
    <glyph glyph-name="cacute" unicode="&#x107;" horiz-adv-x="909" 
d="M713 610q1 -48 -78 -131q-57 -60 -98 -88l-46 83q-1 5 -3.5 16t-4.5 18l6 57q0 30 5 90q-91 -29 -199 -129q-130 -120 -131 -233q-1 -142 112 -184q63 -23 240 -25l21 -43l-72 -21q-19 -5 -72 -15q-26 -5 -53 -5q-89 -1 -160 66q-81 77 -82 227q-1 207 199 358
q151 114 252 115q37 0 100 -59.5t64 -96.5zM582 567l-5 2l-2 31v55l7 -2l6 -45zM524 788l86 7q35 3 78 39q15 13 32 40l29 70l4 14l4 17h60v-250h-375v-518q0 -146 100 -148v-59h-342v59q54 0 76 43q16 48 16 105v373q0 63 -16 102q-13 32 -76 47v59h324z" />
    <glyph glyph-name="Ccircumflex" unicode="&#x108;" horiz-adv-x="1366" 
d="M795 963q0 -2 -13 -35l-30 -76q-14 7 -68 37q-34 19 -35 47q-1 30 17 92l-21 10q-10 8 -24 11q-94 0 -254 -213q-186 -247 -187 -496q0 -264 293 -264q96 0 193 33h65v-46l-106 -51q-25 -12 -105 -12q-168 0 -284 68q-142 82 -142 239q0 254 168 537q174 294 348 295
q57 0 120.5 -59.5t64.5 -116.5zM623 1822h184l190 -331h-31l-273 213l-229 -213h-30z" />
    <glyph glyph-name="ccircumflex" unicode="&#x109;" horiz-adv-x="909" 
d="M713 610q1 -48 -78 -131q-57 -60 -98 -88l-46 83q-1 5 -3.5 16t-4.5 18l6 57q0 30 5 90q-91 -29 -199 -129q-130 -120 -131 -233q-1 -142 112 -184q63 -23 240 -25l21 -43l-72 -21q-19 -5 -72 -15q-26 -5 -53 -5q-89 -1 -160 66q-81 77 -82 227q-1 207 199 358
q151 114 252 115q37 0 100 -59.5t64 -96.5zM582 567l-5 2l-2 31v55l7 -2l6 -45zM363 1385h184l190 -331h-31l-273 213l-229 -213h-30z" />
    <glyph glyph-name="Cdot" unicode="&#x10a;" horiz-adv-x="1366" 
d="M795 963q0 -2 -13 -35l-30 -76q-14 7 -68 37q-34 19 -35 47q-1 30 17 92l-21 10q-10 8 -24 11q-94 0 -254 -213q-186 -247 -187 -496q0 -264 293 -264q96 0 193 33h65v-46l-106 -51q-25 -12 -105 -12q-168 0 -284 68q-142 82 -142 239q0 254 168 537q174 294 348 295
q57 0 120.5 -59.5t64.5 -116.5zM723 1709q45 0 77 -32t32 -77t-32 -77t-77 -32t-77 32t-32 77q0 46 31.5 77.5t77.5 31.5z" />
    <glyph glyph-name="cdot" unicode="&#x10b;" horiz-adv-x="909" 
d="M713 610q1 -48 -78 -131q-57 -60 -98 -88l-46 83q-1 5 -3.5 16t-4.5 18l6 57q0 30 5 90q-91 -29 -199 -129q-130 -120 -131 -233q-1 -142 112 -184q63 -23 240 -25l21 -43l-72 -21q-19 -5 -72 -15q-26 -5 -53 -5q-89 -1 -160 66q-81 77 -82 227q-1 207 199 358
q151 114 252 115q37 0 100 -59.5t64 -96.5zM582 567l-5 2l-2 31v55l7 -2l6 -45zM456 1337q45 0 77 -32t32 -77t-32 -77t-77 -32t-77 32t-32 77q0 46 31.5 77.5t77.5 31.5z" />
    <glyph glyph-name="Ccaron" unicode="&#x10c;" horiz-adv-x="1366" 
d="M795 963q0 -2 -13 -35l-30 -76q-14 7 -68 37q-34 19 -35 47q-1 30 17 92l-21 10q-10 8 -24 11q-94 0 -254 -213q-186 -247 -187 -496q0 -264 293 -264q96 0 193 33h65v-46l-106 -51q-25 -12 -105 -12q-168 0 -284 68q-142 82 -142 239q0 254 168 537q174 294 348 295
q57 0 120.5 -59.5t64.5 -116.5zM850 1462h-184l-190 331h31l273 -212l229 212h30z" />
    <glyph glyph-name="ccaron" unicode="&#x10d;" horiz-adv-x="909" 
d="M713 610q1 -48 -78 -131q-57 -60 -98 -88l-46 83q-1 5 -3.5 16t-4.5 18l6 57q0 30 5 90q-91 -29 -199 -129q-130 -120 -131 -233q-1 -142 112 -184q63 -23 240 -25l21 -43l-72 -21q-19 -5 -72 -15q-26 -5 -53 -5q-89 -1 -160 66q-81 77 -82 227q-1 207 199 358
q151 114 252 115q37 0 100 -59.5t64 -96.5zM582 567l-5 2l-2 31v55l7 -2l6 -45zM585 1054h-184l-190 331h31l273 -212l229 212h30z" />
    <glyph glyph-name="Dcaron" unicode="&#x10e;" 
d="M1158 851q0 -152 -212 -371l-421 -435q-246 -255 -306 -399h-95q33 127 110 223l76 67q25 22 77 71l-4 47l-5 92q-5 86 16 284q16 157 66 421l-47 5q-27 0 -37 -2q-6 0 -36 -7q-100 -22 -131 -22h-27q-3 1 -10 2q69 93 179 106q98 0 133 63l7 23q-9 23 -9 51q0 23 2 30
q1 11 10 33q1 5 9 29q11 33 28 74h50v-240q33 0 77 3q34 4 118 11l166 11q98 7 162 -34q54 -34 54 -136zM1038 778v146h-144q-31 -16 -64 -25q-22 -6 -84 -16q-5 0 -165 -8q-30 -19 -39 -64v-14q-1 -11 -1 -19v-66q0 -14 2 -24q0 -94 -16 -217q-17 -127 -67 -295h71
q13 55 66 106l155 150q108 104 286 346zM774 1462h-184l-190 331h31l273 -212l229 212h30z" />
    <glyph glyph-name="dcaron" unicode="&#x10f;" horiz-adv-x="1324" 
d="M1047 904v47q103 62 140 114q26 37 26 91q0 61 -37 61q-11 0 -29 -7q-26 -10 -45 -10q-42 0 -71 32t-29 74q0 50 31 78q42 38 100 38q75 0 124 -60.5t49 -136.5q0 -224 -259 -321zM711 103q-125 -131 -269 -131q-170 0 -277 143q-97 130 -97 305q0 201 119 356
q129 168 324 168q121 0 200 -77v169q0 217 -31 242q-16 13 -40 13q-26 0 -69 -16l-13 35l273 112h45v-1059q0 -219 32 -246q16 -14 38 -14q27 0 72 17l11 -35l-272 -113h-46v131zM711 173v472q-13 150 -115 209q-50 28 -97 28q-88 0 -157 -79q-91 -104 -91 -304
q0 -154 64 -272q78 -145 220 -145q91 0 176 91z" />
    <glyph glyph-name="Dslash" unicode="&#x110;" 
d="M35 0v37h51q86 0 123 56q21 32 21 147v438h-195v74h195v364q0 127 -28 159q-39 44 -116 44h-51v37h552q264 0 406 -49q193 -66 309 -251q98 -158 98 -369q0 -336 -216 -517q-201 -170 -544 -170h-605zM423 100q127 -28 213 -28q252 0 400 180q137 167 137 425
q0 262 -139 428q-149 177 -406 177q-90 0 -205 -29v-501h393v-74h-393v-578z" />
    <glyph glyph-name="dcroat" unicode="&#x111;" horiz-adv-x="1024" 
d="M681 1068h-291v82h290q-3 70 -9 90q-14 51 -61 51q-26 0 -69 -16l-13 35l273 112h45v-272h153v-82h-153v-705q0 -219 32 -246q16 -14 38 -14q27 0 72 17l11 -35l-272 -113h-46v131q-125 -131 -269 -131q-170 0 -277 143q-97 130 -97 305q0 201 119 356q129 168 324 168
q121 0 200 -77v201zM681 173v472q-13 150 -115 209q-50 28 -97 28q-88 0 -157 -79q-91 -104 -91 -304q0 -154 64 -272q78 -145 220 -145q91 0 176 91z" />
    <glyph glyph-name="Emacron" unicode="&#x112;" horiz-adv-x="1251" 
d="M1010 1139l-348 -49q-126 -18 -201 -87q-64 -59 -152 -237v-174l45 -10q21 -5 33 -13q115 0 295 88l131 -22q-54 -69 -154 -103q-80 -27 -188 -28q-87 -1 -162 22q-26 -42 -67 -167q-40 -120 -41 -183q0 -23 14 -45l29 -43q154 41 368 96l60 13q14 0 30 -4l68 -17v-67
q-243 -22 -328 -41l-307 -68l-12 12q-12 12 -12 45l47 228q10 52 35 181q3 12 29 157l24 133q47 271 47 399q0 28 -4 49q85 -18 114 -53q8 -10 17 -35q211 64 350 66q46 0 68 -2q76 -2 172 -41zM308 1636h638v-128h-638v128z" />
    <glyph glyph-name="emacron" unicode="&#x113;" horiz-adv-x="909" 
d="M835 519q0 -94 -114 -159l-229 -130q-59 0 -90 8q-34 9 -71 16q36 61 187 108t229 167l-57 60q-9 9 -32 11l-65 -3q-176 -8 -277 -156q-79 -116 -80 -201q-1 -96 205 -152q146 -39 189 -64q-25 -3 -37.5 -13.5t-42.5 -10.5q-103 -1 -238 60q-165 75 -166 180
q-1 206 181 345q139 106 256 107q52 0 135 -38q117 -55 117 -135zM137 1247h638v-128h-638v128z" />
    <glyph glyph-name="Ebreve" unicode="&#x114;" horiz-adv-x="1251" 
d="M1010 1139l-348 -49q-126 -18 -201 -87q-64 -59 -152 -237v-174l45 -10q21 -5 33 -13q115 0 295 88l131 -22q-54 -69 -154 -103q-80 -27 -188 -28q-87 -1 -162 22q-26 -42 -67 -167q-40 -120 -41 -183q0 -23 14 -45l29 -43q154 41 368 96l60 13q14 0 30 -4l68 -17v-67
q-243 -22 -328 -41l-307 -68l-12 12q-12 12 -12 45l47 228q10 52 35 181q3 12 29 157l24 133q47 271 47 399q0 28 -4 49q85 -18 114 -53q8 -10 17 -35q211 64 350 66q46 0 68 -2q76 -2 172 -41zM339 1770h31q33 -60 76 -86q73 -43 181 -43t180 42q51 30 71 87h33
q-9 -119 -87 -198q-81 -82 -199 -82t-198 82q-78 79 -88 198z" />
    <glyph glyph-name="ebreve" unicode="&#x115;" horiz-adv-x="909" 
d="M835 519q0 -94 -114 -159l-229 -130q-59 0 -90 8q-34 9 -71 16q36 61 187 108t229 167l-57 60q-9 9 -32 11l-65 -3q-176 -8 -277 -156q-79 -116 -80 -201q-1 -96 205 -152q146 -39 189 -64q-25 -3 -37.5 -13.5t-42.5 -10.5q-103 -1 -238 60q-165 75 -166 180
q-1 206 181 345q139 106 256 107q52 0 135 -38q117 -55 117 -135zM176 1358h31q33 -60 76 -86q73 -43 181 -43t180 42q51 30 71 87h33q-9 -119 -87 -198q-81 -82 -199 -82t-198 82q-78 79 -88 198z" />
    <glyph glyph-name="Edot" unicode="&#x116;" horiz-adv-x="1251" 
d="M1010 1139l-348 -49q-126 -18 -201 -87q-64 -59 -152 -237v-174l45 -10q21 -5 33 -13q115 0 295 88l131 -22q-54 -69 -154 -103q-80 -27 -188 -28q-87 -1 -162 22q-26 -42 -67 -167q-40 -120 -41 -183q0 -23 14 -45l29 -43q154 41 368 96l60 13q14 0 30 -4l68 -17v-67
q-243 -22 -328 -41l-307 -68l-12 12q-12 12 -12 45l47 228q10 52 35 181q3 12 29 157l24 133q47 271 47 399q0 28 -4 49q85 -18 114 -53q8 -10 17 -35q211 64 350 66q46 0 68 -2q76 -2 172 -41zM626 1709q45 0 77 -32t32 -77t-32 -77t-77 -32t-77 32t-32 77q0 46 31.5 77.5
t77.5 31.5z" />
    <glyph glyph-name="edot" unicode="&#x117;" horiz-adv-x="909" 
d="M835 519q0 -94 -114 -159l-229 -130q-59 0 -90 8q-34 9 -71 16q36 61 187 108t229 167l-57 60q-9 9 -32 11l-65 -3q-176 -8 -277 -156q-79 -116 -80 -201q-1 -96 205 -152q146 -39 189 -64q-25 -3 -37.5 -13.5t-42.5 -10.5q-103 -1 -238 60q-165 75 -166 180
q-1 206 181 345q139 106 256 107q52 0 135 -38q117 -55 117 -135zM456 1337q45 0 77 -32t32 -77t-32 -77t-77 -32t-77 32t-32 77q0 46 31.5 77.5t77.5 31.5z" />
    <glyph glyph-name="Eogonek" unicode="&#x118;" horiz-adv-x="1251" 
d="M1010 1139l-348 -49q-126 -18 -201 -87q-64 -59 -152 -237v-174l45 -10q21 -5 33 -13q115 0 295 88l131 -22q-54 -69 -154 -103q-80 -27 -188 -28q-87 -1 -162 22q-26 -42 -67 -167q-40 -120 -41 -183q0 -23 14 -45l29 -43q154 41 368 96l60 13q14 0 30 -4l68 -17v-67
q-243 -22 -328 -41l-307 -68l-12 12q-12 12 -12 45l47 228q10 52 35 181q3 12 29 157l24 133q47 271 47 399q0 28 -4 49q85 -18 114 -53q8 -10 17 -35q211 64 350 66q46 0 68 -2q76 -2 172 -41zM812 16h52q-26 -52 -26 -99q0 -84 52 -132q69 -63 162 -63q57 0 119 23l21 -32
q-136 -76 -231 -76q-93 0 -157 44q-72 51 -72 140q0 119 80 195z" />
    <glyph glyph-name="eogonek" unicode="&#x119;" horiz-adv-x="909" 
d="M835 519q0 -94 -114 -159l-229 -130q-59 0 -90 8q-34 9 -71 16q36 61 187 108t229 167l-57 60q-9 9 -32 11l-65 -3q-176 -8 -277 -156q-79 -116 -80 -201q-1 -96 205 -152q146 -39 189 -64q-25 -3 -37.5 -13.5t-42.5 -10.5q-103 -1 -238 60q-165 75 -166 180
q-1 206 181 345q139 106 256 107q52 0 135 -38q117 -55 117 -135zM568 16h52q-26 -52 -26 -99q0 -84 52 -132q69 -63 162 -63q57 0 119 23l21 -32q-136 -76 -231 -76q-93 0 -157 44q-72 51 -72 140q0 119 80 195z" />
    <glyph glyph-name="Ecaron" unicode="&#x11a;" horiz-adv-x="1251" 
d="M1010 1139l-348 -49q-126 -18 -201 -87q-64 -59 -152 -237v-174l45 -10q21 -5 33 -13q115 0 295 88l131 -22q-54 -69 -154 -103q-80 -27 -188 -28q-87 -1 -162 22q-26 -42 -67 -167q-40 -120 -41 -183q0 -23 14 -45l29 -43q154 41 368 96l60 13q14 0 30 -4l68 -17v-67
q-243 -22 -328 -41l-307 -68l-12 12q-12 12 -12 45l47 228q10 52 35 181q3 12 29 157l24 133q47 271 47 399q0 28 -4 49q85 -18 114 -53q8 -10 17 -35q211 64 350 66q46 0 68 -2q76 -2 172 -41zM715 1462h-184l-190 331h31l273 -212l229 212h30z" />
    <glyph glyph-name="ecaron" unicode="&#x11b;" horiz-adv-x="909" 
d="M835 519q0 -94 -114 -159l-229 -130q-59 0 -90 8q-34 9 -71 16q36 61 187 108t229 167l-57 60q-9 9 -32 11l-65 -3q-176 -8 -277 -156q-79 -116 -80 -201q-1 -96 205 -152q146 -39 189 -64q-25 -3 -37.5 -13.5t-42.5 -10.5q-103 -1 -238 60q-165 75 -166 180
q-1 206 181 345q139 106 256 107q52 0 135 -38q117 -55 117 -135zM580 1054h-184l-190 331h31l273 -212l229 212h30z" />
    <glyph glyph-name="Gcircumflex" unicode="&#x11c;" 
d="M987 965q0 -53 -14 -82l-70 -95h-65l-45 123q-18 50 -19 86q-1 53 64 119l-66 33l-24 10q-212 0 -367 -201q-158 -205 -160 -520q-1 -128 29 -221q48 -150 160 -151q38 0 94 28q34 17 92 60q-42 92 -59 106q-31 26 -181 68l-4 53q-3 35 35 37l166 -39l197 -51
q-74 -140 -119 -217q-65 -111 -221 -111q-140 0 -215 182q-60 146 -60 367q0 205 164 438q183 261 406 262q112 1 196.5 -85.5t85.5 -198.5zM677 1822h184l190 -331h-31l-273 213l-229 -213h-30z" />
    <glyph glyph-name="gcircumflex" unicode="&#x11d;" horiz-adv-x="1024" 
d="M926 406l-47 -119q-36 -92 -110 -261q-24 -49 -83 -192l-127 -338q-78 -208 -203 -209q-41 0 -140 91q-73 67 -122 128v132q98 -31 129 -48q67 -37 68 -172q17 -2 43 -14q12 -6 22 -6q85 0 144 123q17 35 141 489l-35 2h-45l-47 -2q-78 -3 -123 27q-54 37 -55 137
q-1 183 98.5 338t239.5 156q37 0 143.5 -113t108.5 -149zM750 449q0 28 -23 63q-29 45 -65 45q-65 0 -148 -166q-72 -145 -72 -194l4 -9q18 -22 21 -90h86q39 41 121 197q73 139 76 154zM420 1385h184l190 -331h-31l-273 213l-229 -213h-30z" />
    <glyph glyph-name="Gbreve" unicode="&#x11e;" 
d="M987 965q0 -53 -14 -82l-70 -95h-65l-45 123q-18 50 -19 86q-1 53 64 119l-66 33l-24 10q-212 0 -367 -201q-158 -205 -160 -520q-1 -128 29 -221q48 -150 160 -151q38 0 94 28q34 17 92 60q-42 92 -59 106q-31 26 -181 68l-4 53q-3 35 35 37l166 -39l197 -51
q-74 -140 -119 -217q-65 -111 -221 -111q-140 0 -215 182q-60 146 -60 367q0 205 164 438q183 261 406 262q112 1 196.5 -85.5t85.5 -198.5zM523 1756h31q33 -60 76 -86q73 -43 181 -43t180 42q51 30 71 87h33q-9 -119 -87 -198q-81 -82 -199 -82t-198 82q-78 79 -88 198z
" />
    <glyph glyph-name="gbreve" unicode="&#x11f;" horiz-adv-x="1024" 
d="M926 406l-47 -119q-36 -92 -110 -261q-24 -49 -83 -192l-127 -338q-78 -208 -203 -209q-41 0 -140 91q-73 67 -122 128v132q98 -31 129 -48q67 -37 68 -172q17 -2 43 -14q12 -6 22 -6q85 0 144 123q17 35 141 489l-35 2h-45l-47 -2q-78 -3 -123 27q-54 37 -55 137
q-1 183 98.5 338t239.5 156q37 0 143.5 -113t108.5 -149zM750 449q0 28 -23 63q-29 45 -65 45q-65 0 -148 -166q-72 -145 -72 -194l4 -9q18 -22 21 -90h86q39 41 121 197q73 139 76 154zM238 1358h31q33 -60 76 -86q73 -43 181 -43t180 42q51 30 71 87h33q-9 -119 -87 -198
q-81 -82 -199 -82t-198 82q-78 79 -88 198z" />
    <glyph glyph-name="Gdot" unicode="&#x120;" 
d="M987 965q0 -53 -14 -82l-70 -95h-65l-45 123q-18 50 -19 86q-1 53 64 119l-66 33l-24 10q-212 0 -367 -201q-158 -205 -160 -520q-1 -128 29 -221q48 -150 160 -151q38 0 94 28q34 17 92 60q-42 92 -59 106q-31 26 -181 68l-4 53q-3 35 35 37l166 -39l197 -51
q-74 -140 -119 -217q-65 -111 -221 -111q-140 0 -215 182q-60 146 -60 367q0 205 164 438q183 261 406 262q112 1 196.5 -85.5t85.5 -198.5zM758 1709q45 0 77 -32t32 -77t-32 -77t-77 -32t-77 32t-32 77q0 46 31.5 77.5t77.5 31.5z" />
    <glyph glyph-name="gdot" unicode="&#x121;" horiz-adv-x="1024" 
d="M926 406l-47 -119q-36 -92 -110 -261q-24 -49 -83 -192l-127 -338q-78 -208 -203 -209q-41 0 -140 91q-73 67 -122 128v132q98 -31 129 -48q67 -37 68 -172q17 -2 43 -14q12 -6 22 -6q85 0 144 123q17 35 141 489l-35 2h-45l-47 -2q-78 -3 -123 27q-54 37 -55 137
q-1 183 98.5 338t239.5 156q37 0 143.5 -113t108.5 -149zM750 449q0 28 -23 63q-29 45 -65 45q-65 0 -148 -166q-72 -145 -72 -194l4 -9q18 -22 21 -90h86q39 41 121 197q73 139 76 154zM513 1337q45 0 77 -32t32 -77t-32 -77t-77 -32t-77 32t-32 77q0 46 31.5 77.5
t77.5 31.5z" />
    <glyph glyph-name="Gcedilla" unicode="&#x122;" 
d="M987 965q0 -53 -14 -82l-70 -95h-65l-45 123q-18 50 -19 86q-1 53 64 119l-66 33l-24 10q-212 0 -367 -201q-158 -205 -160 -520q-1 -128 29 -221q48 -150 160 -151q38 0 94 28q34 17 92 60q-42 92 -59 106q-31 26 -181 68l-4 53q-3 35 35 37l166 -39l197 -51
q-74 -140 -119 -217q-65 -111 -221 -111q-140 0 -215 182q-60 146 -60 367q0 205 164 438q183 261 406 262q112 1 196.5 -85.5t85.5 -198.5z" />
    <glyph glyph-name="gcedilla" unicode="&#x123;" horiz-adv-x="1024" 
d="M926 406l-47 -119q-36 -92 -110 -261q-24 -49 -83 -192l-127 -338q-78 -208 -203 -209q-41 0 -140 91q-73 67 -122 128v132q98 -31 129 -48q67 -37 68 -172q17 -2 43 -14q12 -6 22 -6q85 0 144 123q17 35 141 489l-35 2h-45l-47 -2q-78 -3 -123 27q-54 37 -55 137
q-1 183 98.5 338t239.5 156q37 0 143.5 -113t108.5 -149zM750 449q0 28 -23 63q-29 45 -65 45q-65 0 -148 -166q-72 -145 -72 -194l4 -9q18 -22 21 -90h86q39 41 121 197q73 139 76 154zM627 1494v-41q-64 0 -116 -38q-58 -41 -58 -103q0 -33 22 -33q8 0 25 9q26 14 42 14
q85 0 85 -87q0 -43 -30.5 -69.5t-74.5 -26.5q-63 0 -100 50q-33 46 -33 111q0 207 238 214z" />
    <glyph glyph-name="Hcircumflex" unicode="&#x124;" 
d="M1116 1247q0 -102 -58 -341l-38 -156q-15 -61 -39 -156q-14 -52 -41 -156q-9 -39 -37 -303q0 -87 -18 -135q-41 115 -41 201q0 71 19 126l42 122q0 24 -49 24q-463 0 -567 -92q-68 -61 -70 -336l-47 -14l-41 -8l-14 71q-11 56 -11 62q0 51 27 100l64 117l69 606
q27 233 39 268q10 -3 27 -10q11 -2 39 -10q0 -58 -29 -289q-32 -253 -57 -369l436 -63q219 0 258 371q27 259 72 370h65zM648 1822h184l190 -331h-31l-273 213l-229 -213h-30z" />
    <glyph glyph-name="hcircumflex" unicode="&#x125;" horiz-adv-x="1024" 
d="M668 274l-6 -45q-15 -87 -37 -229q-36 47 -51 90q-3 16 -8 35q-4 24 -5 51q-1 25 5.5 74t6.5 72q0 106 -81 204q-148 -90 -203 -211q-130 -285 -168 -315q0 8 -11 17.5t-12 17.5q0 31 99 287q13 33 50 131q20 51 27 73l91 392q39 170 61 221h66q-12 -83 -54 -234
q-51 -183 -78 -313l84 12l70 10q66 0 115 -163q39 -129 39 -177zM420 1822h184l190 -331h-31l-273 213l-229 -213h-30z" />
    <glyph glyph-name="Hbar" unicode="&#x126;" 
d="M1050 1150q-3 68 -8 86q-11 41 -52 63q-37 20 -85 20h-48v37h580v-37h-48q-104 0 -132 -65q-10 -23 -14 -104h185v-82h-185v-828q0 -83 5 -105q11 -55 58 -79q36 -19 83 -19h48v-37h-580v37h48q112 0 136 77q10 31 10 126v413h-630v-413q0 -83 5 -105q11 -56 59 -79
q36 -19 82 -19h49v-37h-581v37h48q113 0 137 77q9 31 9 126v828h-185v82h185q-3 68 -8 86q-11 40 -52 63q-37 20 -86 20h-48v37h581v-37h-49q-104 0 -132 -65q-10 -23 -13 -104h628zM1051 1068h-630v-351h630v351z" />
    <glyph glyph-name="hbar" unicode="&#x127;" horiz-adv-x="1024" 
d="M333 1150h290v-82h-290v-316q82 91 135 130q84 61 172 61q167 0 214 -169q21 -77 21 -243v-324q0 -89 15 -121q24 -50 101 -50h21v-36h-451v36h21q102 0 120 64q8 27 8 107v324q0 139 -14 188q-30 103 -132 103q-107 0 -231 -131v-484q0 -78 2 -87q5 -28 42 -65
q18 -19 105 -19v-36h-454v36q91 0 119 41q21 32 21 130l-1 861h-154v82h153q-1 66 -8 90q-15 51 -62 51q-22 0 -68 -16l-15 35l274 112h46v-272z" />
    <glyph glyph-name="Itilde" unicode="&#x128;" horiz-adv-x="682" 
d="M352 96q0 -41 -43 -73q-12 -9 -43 -23l-14 8q-36 10 -51 10l-45 746l22 393h6l52 4q35 3 51 -26q7 -17 8 -115q0 -39 -5 -118l-9 -140q-4 -80 -5 -162q-1 -46 -10 -121q26 -166 47 -243zM54 1491h-32q8 259 188 259q41 0 75 -13q24 -9 128 -73q86 -53 122 -53
q72 0 95 139h31q2 -168 -96 -232q-47 -31 -94 -31q-79 0 -196 80q-89 61 -128 61q-41 0 -65 -36q-11 -17 -28 -101z" />
    <glyph glyph-name="itilde" unicode="&#x129;" horiz-adv-x="569" 
d="M380 943v-736q0 -128 51 -157q24 -14 89 -14v-36h-445v36q101 0 127 56q13 30 13 115v353q0 150 -9 193q-12 57 -63 57q-28 0 -68 -15l-14 36l276 112h43zM-2 1097h-32q8 259 188 259q41 0 75 -13q24 -9 128 -73q86 -53 122 -53q72 0 95 139h31q2 -168 -96 -232
q-47 -31 -94 -31q-79 0 -196 80q-89 61 -128 61q-41 0 -65 -36q-11 -17 -28 -101z" />
    <glyph glyph-name="Imacron" unicode="&#x12a;" horiz-adv-x="682" 
d="M352 96q0 -41 -43 -73q-12 -9 -43 -23l-14 8q-36 10 -51 10l-45 746l22 393h6l52 4q35 3 51 -26q7 -17 8 -115q0 -39 -5 -118l-9 -140q-4 -80 -5 -162q-1 -46 -10 -121q26 -166 47 -243zM23 1636h638v-128h-638v128z" />
    <glyph glyph-name="imacron" unicode="&#x12b;" horiz-adv-x="569" 
d="M380 943v-736q0 -128 51 -157q24 -14 89 -14v-36h-445v36q101 0 127 56q13 30 13 115v353q0 150 -9 193q-12 57 -63 57q-28 0 -68 -15l-14 36l276 112h43zM-43 1247h638v-128h-638v128z" />
    <glyph glyph-name="Ibreve" unicode="&#x12c;" horiz-adv-x="682" 
d="M352 96q0 -41 -43 -73q-12 -9 -43 -23l-14 8q-36 10 -51 10l-45 746l22 393h6l52 4q35 3 51 -26q7 -17 8 -115q0 -39 -5 -118l-9 -140q-4 -80 -5 -162q-1 -46 -10 -121q26 -166 47 -243zM54 1770h31q33 -60 76 -86q73 -43 181 -43t180 42q51 30 71 87h33
q-9 -119 -87 -198q-81 -82 -199 -82t-198 82q-78 79 -88 198z" />
    <glyph glyph-name="ibreve" unicode="&#x12d;" horiz-adv-x="569" 
d="M380 943v-736q0 -128 51 -157q24 -14 89 -14v-36h-445v36q101 0 127 56q13 30 13 115v353q0 150 -9 193q-12 57 -63 57q-28 0 -68 -15l-14 36l276 112h43zM-2 1358h31q33 -60 76 -86q73 -43 181 -43t180 42q51 30 71 87h33q-9 -119 -87 -198q-81 -82 -199 -82t-198 82
q-78 79 -88 198z" />
    <glyph glyph-name="Iogonek" unicode="&#x12e;" horiz-adv-x="682" 
d="M352 96q0 -41 -43 -73q-12 -9 -43 -23l-14 8q-36 10 -51 10l-45 746l22 393h6l52 4q35 3 51 -26q7 -17 8 -115q0 -39 -5 -118l-9 -140q-4 -80 -5 -162q-1 -46 -10 -121q26 -166 47 -243zM301 16h52q-26 -52 -26 -99q0 -84 52 -132q69 -63 162 -63q57 0 119 23l21 -32
q-136 -76 -231 -76q-93 0 -157 44q-72 51 -72 140q0 119 80 195z" />
    <glyph glyph-name="iogonek" unicode="&#x12f;" horiz-adv-x="569" 
d="M518 922h-4q-19 0 -39 -13l-12 -8q-25 20 -37 31q-46 44 -82 110l21 56h88l4 -90q6 -28 61 -86zM410 639q-3 -29 -8 -64q-19 -153 -66 -333q-34 -131 -80 -240l-31 -2q-36 -2 -37 37q-1 58 60 313q69 291 139 332q0 -20 6 -31q3 -7 17 -12zM270 16h52q-26 -52 -26 -99
q0 -84 52 -132q69 -63 162 -63q57 0 119 23l21 -32q-136 -76 -231 -76q-93 0 -157 44q-72 51 -72 140q0 119 80 195z" />
    <glyph glyph-name="Idotaccent" unicode="&#x130;" horiz-adv-x="682" 
d="M352 96q0 -41 -43 -73q-12 -9 -43 -23l-14 8q-36 10 -51 10l-45 746l22 393h6l52 4q35 3 51 -26q7 -17 8 -115q0 -39 -5 -118l-9 -140q-4 -80 -5 -162q-1 -46 -10 -121q26 -166 47 -243zM341 1709q45 0 77 -32t32 -77t-32 -77t-77 -32t-77 32t-32 77q0 46 31.5 77.5
t77.5 31.5z" />
    <glyph glyph-name="dotlessi" unicode="&#x131;" horiz-adv-x="569" 
d="M379 943v-736q0 -128 51 -157q24 -14 89 -14v-36h-445v36q101 0 127 56q13 30 13 115v353q0 150 -9 193q-12 57 -63 57q-28 0 -68 -15l-14 36l276 112h43z" />
    <glyph glyph-name="IJ" unicode="&#x132;" horiz-adv-x="1451" 
d="M352 96q0 -41 -43 -73q-12 -9 -43 -23l-14 8q-36 10 -51 10l-45 746l22 393h6l52 4q35 3 51 -26q7 -17 8 -115q0 -39 -5 -118l-9 -140q-4 -80 -5 -162q-1 -46 -10 -121q26 -166 47 -243zM1629 1466q-92 -65 -133 -65q-21 0 -56 45l-53 86v88q18 0 66 12q12 2 32 10
q17 -12 33 -28q80 -78 111 -148zM1475 1159q0 -339 -96 -713q-114 -445 -277 -446q-168 -1 -245 86q-45 50 -105 219q82 -24 133 -37q21 -5 21 -51v-61q0 -26 43 -50q45 -19 110 -20q120 -1 189 141q54 111 78 338q4 125 18 398l8 114q1 27 5 77q3 19 10 48h86
q0 -3 10 -17.5t12 -25.5z" />
    <glyph glyph-name="ij" unicode="&#x133;" horiz-adv-x="1131" 
d="M518 922h-4q-19 0 -39 -13l-12 -8q-25 20 -37 31q-46 44 -82 110l21 56h88l4 -90q6 -28 61 -86zM410 639q-3 -29 -8 -64q-19 -153 -66 -333q-34 -131 -80 -240l-31 -2q-36 -2 -37 37q-1 58 60 313q69 291 139 332q0 -20 6 -31q3 -7 17 -12zM1510 731q0 -18 -12.5 -38
t-30.5 -50q-75 96 -108 219q32 9 88 21l20 2l33 -107q5 -15 10 -47zM1334 383q0 -146 -176 -543l-46 -103q-4 -11 -16 -34q12 0 15 -2q34 -15 71 -86q-148 -23 -217 -113q-118 -155 -329 -282q-23 23 -45 48q-4 4 -15 17q-8 18 -8 101q-1 208 197 247q247 49 309 156
q49 83 94 260l102 397h46q0 -12 9 -25.5t9 -37.5zM900 -451h-68q-172 -46 -174 -143q0 -24 6 -37q3 -8 17 -16q85 61 112 88q35 37 107 108z" />
    <glyph glyph-name="Jcircumflex" unicode="&#x134;" horiz-adv-x="797" 
d="M969 1466q-92 -65 -133 -65q-21 0 -56 45l-53 86v88q18 0 66 12q12 2 32 10q17 -12 33 -28q80 -78 111 -148zM815 1159q0 -339 -96 -713q-114 -445 -277 -446q-168 -1 -245 86q-45 50 -105 219q82 -24 133 -37q21 -5 21 -51v-61q0 -26 43 -50q45 -19 110 -20
q120 -1 189 141q54 111 78 338q4 125 18 398l8 114q1 27 5 77q3 19 10 48h86q0 -3 10 -17.5t12 -25.5zM393 1822h184l190 -331h-31l-273 213l-229 -213h-30z" />
    <glyph glyph-name="jcircumflex" unicode="&#x135;" horiz-adv-x="569" 
d="M191 1385h184l190 -331h-31l-273 213l-229 -213h-30zM382 943v-922q0 -199 -79 -320q-93 -143 -281 -143q-61 0 -112 21q-67 27 -67 80q0 34 24 59.5t58 25.5q47 0 114 -59q54 -48 86 -48q68 0 86 110q6 36 6 159v652v149q-12 103 -73 103q-27 0 -67 -15l-14 36l276 112
h43z" />
    <glyph glyph-name="Kcedilla" unicode="&#x136;" 
d="M922 1094q25 0 26 -19q1 -31 -96 -133l-190 -199l-306 -305l136 -157q56 -78 192 -304v-65q-73 44 -223 246q-75 101 -172 170q-48 -116 -49 -148q-1 -33 49 -114l-43 -43h-88q0 9 -1 16t-10 41q-12 45 -12 63q85 263 88 865l88 20q25 -86 25 -172q0 -48 -13 -136
q-13 -93 -14 -136q-1 -27 2 -37q102 66 238 215q164 179 176 192q139 139 197 140zM649 -65q43 5 76 5q73 0 120 -37q50 -41 50 -112q0 -88 -74 -138q-64 -44 -157 -44q-36 0 -78 8v43q24 -4 42 -4q51 0 87 29q40 31 40 81q0 74 -83 74q-9 0 -23 -2v97z" />
    <glyph glyph-name="kcedilla" unicode="&#x137;" horiz-adv-x="1024" 
d="M817 768q-24 -98 -86 -193q-85 -130 -264 -309q98 -151 135 -190q21 -22 62 -182l-132 -23l-32 172q-21 112 -144 113q-87 1 -96 -60q-25 -177 -35 -202q-107 97 -110 155q123 229 153 369q36 168 62 338q28 183 71 254q5 -9 25 -29q15 -18 16 -70q1 -43 -73 -338
q-34 -135 -35 -233v-28q0 -16 2 -25q148 100 246 239l170 242h65zM421 -65q43 5 76 5q73 0 120 -37q50 -41 50 -112q0 -88 -74 -138q-64 -44 -157 -44q-36 0 -78 8v43q24 -4 42 -4q51 0 87 29q40 31 40 81q0 74 -83 74q-9 0 -23 -2v97z" />
    <glyph glyph-name="kgreenlandic" unicode="&#x138;" horiz-adv-x="1024" 
d="M335 715v-205l229 209q93 85 93 109q0 46 -71 50v38h398v-38q-141 -2 -255 -106l-231 -212l235 -297q101 -128 118 -145q81 -81 160 -81h25v-37h-445v37q65 1 65 41q0 22 -40 73l-281 359v-304q0 -105 22 -133q26 -36 126 -36v-37h-466v37q96 0 126 34q26 31 26 130v511
q0 101 -24 131q-28 35 -124 35v38h466v-38q-96 0 -125 -34q-27 -30 -27 -129z" />
    <glyph glyph-name="Lacute" unicode="&#x139;" horiz-adv-x="1251" 
d="M858 336q-73 -78 -115 -162q-12 -25 -59 -153l-90 18l-57 5q-34 -15 -89 -28q-17 -4 -172 -12l-79 -4q-82 -4 -82 81l60 173q5 16 38 105q33 97 101 290l157 438q31 82 37 96h45q1 -12 12 -38q8 -28 8 -50q1 -97 -79 -277q-7 -16 -81 -178q-25 -51 -83 -176
q-94 -206 -127 -385l28 -11q1 0 32 -5h36q13 0 111 16l252 41q0 98 36 163q29 53 117 132l43 -21v-58zM571 1195l86 7q35 3 78 39q15 13 32 40l29 70l4 14l4 17h60v-250h-375v-518q0 -146 100 -148v-59h-342v59q54 0 76 43q16 48 16 105v373q0 63 -16 102q-13 32 -76 47v59
h324z" />
    <glyph glyph-name="lacute" unicode="&#x13a;" horiz-adv-x="569" 
d="M942 1094q0 -93 -78 -199q-52 -71 -198 -205q-213 -195 -269 -254l-67 23q142 162 241 246l87 74q18 15 44 40q67 72 177 252l-19 23q-21 19 -61 20q-28 1 -176 -133q-180 -163 -293 -342q-153 -243 -154 -465q0 -76 41 -98q17 -9 57 -10q50 -1 112 11q81 16 130 36
l250 104q17 0 20 -14q0 -47 -129 -119q-151 -84 -338 -84q-150 0 -178.5 22t-29.5 142q-1 233 143 495q125 228 307 402q170 163 273 164q108 1 108 -131z" />
    <glyph glyph-name="Lcedilla" unicode="&#x13b;" horiz-adv-x="1251" 
d="M858 336q-73 -78 -115 -162q-12 -25 -59 -153l-90 18l-57 5q-34 -15 -89 -28q-17 -4 -172 -12l-79 -4q-82 -4 -82 81l60 173q5 16 38 105q33 97 101 290l157 438q31 82 37 96h45q1 -12 12 -38q8 -28 8 -50q1 -97 -79 -277q-7 -16 -81 -178q-25 -51 -83 -176
q-94 -206 -127 -385l28 -11q1 0 32 -5h36q13 0 111 16l252 41q0 98 36 163q29 53 117 132l43 -21v-58zM535 -65q43 5 76 5q73 0 120 -37q50 -41 50 -112q0 -88 -74 -138q-64 -44 -157 -44q-36 0 -78 8v43q24 -4 42 -4q51 0 87 29q40 31 40 81q0 74 -83 74q-9 0 -23 -2v97z
" />
    <glyph glyph-name="lcedilla" unicode="&#x13c;" horiz-adv-x="569" 
d="M942 1094q0 -93 -78 -199q-52 -71 -198 -205q-213 -195 -269 -254l-67 23q142 162 241 246l87 74q18 15 44 40q67 72 177 252l-19 23q-21 19 -61 20q-28 1 -176 -133q-180 -163 -293 -342q-153 -243 -154 -465q0 -76 41 -98q17 -9 57 -10q50 -1 112 11q81 16 130 36
l250 104q17 0 20 -14q0 -47 -129 -119q-151 -84 -338 -84q-150 0 -178.5 22t-29.5 142q-1 233 143 495q125 228 307 402q170 163 273 164q108 1 108 -131zM194 -65q43 5 76 5q73 0 120 -37q50 -41 50 -112q0 -88 -74 -138q-64 -44 -157 -44q-36 0 -78 8v43q24 -4 42 -4
q51 0 87 29q40 31 40 81q0 74 -83 74q-9 0 -23 -2v97z" />
    <glyph glyph-name="Lcaron" unicode="&#x13d;" horiz-adv-x="1251" 
d="M819 847v44q92 29 151 94q65 72 65 162q0 41 -23 41q-12 0 -48 -19q-19 -10 -38 -10q-107 0 -107 109q0 51 38.5 85t90.5 34q78 0 126 -68q43 -61 43 -141q0 -233 -298 -331zM1174 375l33 -7l-116 -368h-1050v37h51q86 0 123 56q21 32 21 148v875q0 127 -28 159
q-39 44 -116 44h-51v37h614v-37q-174 2 -211 -73q-16 -32 -16 -153v-852q0 -84 16 -114q18 -34 89 -41h104h99q127 0 182 13q89 21 152 92q52 58 104 184z" />
    <glyph glyph-name="lcaron" unicode="&#x13e;" horiz-adv-x="832" 
d="M555 904v47q102 61 139 114q27 38 27 91q0 61 -38 61q-11 0 -29 -7q-26 -10 -43 -10q-43 0 -72.5 31.5t-29.5 74.5q0 50 31 78q43 38 100 38q75 0 126 -62q48 -58 48 -135q0 -223 -259 -321zM378 1422v-1215q0 -128 51 -156q26 -15 97 -15v-36h-449v36q98 0 122 56
q13 30 13 115v832q0 214 -29 239q-16 13 -40 13q-26 0 -66 -16l-17 35l273 112h45z" />
    <glyph glyph-name="Ldot" unicode="&#x13f;" horiz-adv-x="1251" 
d="M858 336q-73 -78 -115 -162q-12 -25 -59 -153l-90 18l-57 5q-34 -15 -89 -28q-17 -4 -172 -12l-79 -4q-82 -4 -82 81l60 173q5 16 38 105q33 97 101 290l157 438q31 82 37 96h45q1 -12 12 -38q8 -28 8 -50q1 -97 -79 -277q-7 -16 -81 -178q-25 -51 -83 -176
q-94 -206 -127 -385l28 -11q1 0 32 -5h36q13 0 111 16l252 41q0 98 36 163q29 53 117 132l43 -21v-58z" />
    <glyph glyph-name="ldot" unicode="&#x140;" horiz-adv-x="704" 
d="M942 1094q0 -93 -78 -199q-52 -71 -198 -205q-213 -195 -269 -254l-67 23q142 162 241 246l87 74q18 15 44 40q67 72 177 252l-19 23q-21 19 -61 20q-28 1 -176 -133q-180 -163 -293 -342q-153 -243 -154 -465q0 -76 41 -98q17 -9 57 -10q50 -1 112 11q81 16 130 36
l250 104q17 0 20 -14q0 -47 -129 -119q-151 -84 -338 -84q-150 0 -178.5 22t-29.5 142q-1 233 143 495q125 228 307 402q170 163 273 164q108 1 108 -131z" />
    <glyph glyph-name="Lslash" unicode="&#x141;" horiz-adv-x="1251" 
d="M1086 0h-1049v37h42q110 0 138 73q12 32 12 133v299l-207 -166v92l207 174v470q0 91 -2 105q-10 56 -54 82q-35 20 -94 20h-42v37h602v-37h-60q-125 0 -151 -90q-7 -24 -7 -117v-311l227 187v-95l-227 -192v-453q0 -70 3 -86q9 -44 49 -63q22 -11 114 -11h152
q143 0 193 15q155 46 235 273l32 -8z" />
    <glyph glyph-name="lslash" unicode="&#x142;" horiz-adv-x="569" 
d="M380 1422v-608l171 141v-85l-171 -142v-522q0 -73 2 -85q8 -51 43 -68q39 -19 101 -17v-36h-462v36l25 -1q90 -4 116 57q11 26 11 125v379l-186 -153v84l186 154v355q0 145 -9 186q-13 58 -66 58q-17 0 -67 -17l-10 36l284 123h32z" />
    <glyph glyph-name="Nacute" unicode="&#x143;" 
d="M1071 905q-185 -303 -272 -506l-125 -293q-45 -104 -107 -141q-67 68 -95 225q-17 109 -56 336q-32 174 -111 248q0 -109 -48 -484t-62 -413l-52 33q-14 29 -16 98l18 240q3 35 15 167l16 163q4 31 19 159q27 241 45 279q150 -36 192 -144q15 -38 36 -268.5t99 -419.5
q26 26 117 164q305 463 342 733h45v-176zM743 1195l86 7q35 3 78 39q15 13 32 40l29 70l4 14l4 17h60v-250h-375v-518q0 -146 100 -148v-59h-342v59q54 0 76 43q16 48 16 105v373q0 63 -16 102q-13 32 -76 47v59h324z" />
    <glyph glyph-name="nacute" unicode="&#x144;" horiz-adv-x="1024" 
d="M617 73l-6 -36q-3 -18 -7 -67q-2 -18 -5 -54q0 -16 -2 -49h-122q48 115 48 264q0 144 -48 265l-288 -409h-49q0 16 -17 39q-3 5 -9 10q169 265 172 505l56 -55l38 -43l123 73q116 -136 116 -443zM521 788l86 7q35 3 78 39q15 13 32 40l29 70l4 14l4 17h60v-250h-375v-518
q0 -146 100 -148v-59h-342v59q54 0 76 43q16 48 16 105v373q0 63 -16 102q-13 32 -76 47v59h324z" />
    <glyph glyph-name="Ncedilla" unicode="&#x145;" 
d="M1071 905q-185 -303 -272 -506l-125 -293q-45 -104 -107 -141q-67 68 -95 225q-17 109 -56 336q-32 174 -111 248q0 -109 -48 -484t-62 -413l-52 33q-14 29 -16 98l18 240q3 35 15 167l16 163q4 31 19 159q27 241 45 279q150 -36 192 -144q15 -38 36 -268.5t99 -419.5
q26 26 117 164q305 463 342 733h45v-176zM648 -65q43 5 76 5q73 0 120 -37q50 -41 50 -112q0 -88 -74 -138q-64 -44 -157 -44q-36 0 -78 8v43q24 -4 42 -4q51 0 87 29q40 31 40 81q0 74 -83 74q-9 0 -23 -2v97z" />
    <glyph glyph-name="ncedilla" unicode="&#x146;" horiz-adv-x="1024" 
d="M617 73l-6 -36q-3 -18 -7 -67q-2 -18 -5 -54q0 -16 -2 -49h-122q48 115 48 264q0 144 -48 265l-288 -409h-49q0 16 -17 39q-3 5 -9 10q169 265 172 505l56 -55l38 -43l123 73q116 -136 116 -443zM421 -65q43 5 76 5q73 0 120 -37q50 -41 50 -112q0 -88 -74 -138
q-64 -44 -157 -44q-36 0 -78 8v43q24 -4 42 -4q51 0 87 29q40 31 40 81q0 74 -83 74q-9 0 -23 -2v97z" />
    <glyph glyph-name="Ncaron" unicode="&#x147;" 
d="M1071 905q-185 -303 -272 -506l-125 -293q-45 -104 -107 -141q-67 68 -95 225q-17 109 -56 336q-32 174 -111 248q0 -109 -48 -484t-62 -413l-52 33q-14 29 -16 98l18 240q3 35 15 167l16 163q4 31 19 159q27 241 45 279q150 -36 192 -144q15 -38 36 -268.5t99 -419.5
q26 26 117 164q305 463 342 733h45v-176zM840 1462h-184l-190 331h31l273 -212l229 212h30z" />
    <glyph glyph-name="ncaron" unicode="&#x148;" horiz-adv-x="1024" 
d="M617 73l-6 -36q-3 -18 -7 -67q-2 -18 -5 -54q0 -16 -2 -49h-122q48 115 48 264q0 144 -48 265l-288 -409h-49q0 16 -17 39q-3 5 -9 10q169 265 172 505l56 -55l38 -43l123 73q116 -136 116 -443zM582 1054h-184l-190 331h31l273 -212l229 212h30z" />
    <glyph glyph-name="napostrophe" unicode="&#x149;" horiz-adv-x="1237" 
d="M523 942l-49 -31q-20 -10 -39 -10q-127 -1 -172 90q-27 55 -27 183q0 122 64.5 220t177.5 140q0 -6 12 -23q7 -13 8 -43q1 -26 -76 -112q-67 -75 -75 -205l-2 -33l-5 -22q0 -78 183 -154zM832 73l-6 -36q-3 -18 -7 -67q-2 -18 -5 -54q0 -16 -2 -49h-122q48 115 48 264
q0 144 -48 265l-288 -409h-49q0 16 -17 39q-3 5 -9 10q169 265 172 505l56 -55l38 -43l123 73q116 -136 116 -443z" />
    <glyph glyph-name="Eng" unicode="&#x14a;" horiz-adv-x="1437" 
d="M424 1091q92 144 177 210q110 86 255 86q253 0 381 -208q107 -173 107 -443q0 -472 -222 -664q-120 -103 -233 -103q-84 0 -148 55q-67 57 -67 140q0 43 27.5 75.5t69.5 32.5q82 0 120 -137q23 -82 80 -82q121 0 153 256q10 77 10 335q0 266 -44 407q-75 238 -282 238
q-125 0 -231 -100q-71 -68 -153 -209v-740q0 -81 4 -101q10 -53 53 -79q37 -23 89 -23h49v-37h-581v37h48q102 0 133 67q13 30 13 136v884q0 111 -20 150q-30 60 -126 60h-48v38h386v-281z" />
    <glyph glyph-name="eng" unicode="&#x14b;" horiz-adv-x="1013" 
d="M875 21q0 -200 -78 -320q-93 -143 -282 -143q-61 0 -112 20q-67 28 -67 81q0 34 24 59.5t58 25.5q47 0 114 -59q55 -48 86 -48q69 0 87 110q5 34 5 159v676q0 238 -141 238q-122 0 -238 -130v-483q0 -97 17 -126q25 -44 111 -44h21v-37h-453v37h20q77 0 102 49
q17 33 17 121v340q0 163 1 154q-11 109 -74 109q-28 0 -66 -15l-15 36l276 112h43v-194q161 194 308 194q236 0 236 -345v-577z" />
    <glyph glyph-name="Omacron" unicode="&#x14c;" 
d="M1039 572q0 -176 -135 -348q-176 -223 -468 -224q-169 0 -261.5 92.5t-92.5 259.5q0 260 125 509q151 302 385 303q155 1 295 -167q151 -181 152 -425zM934 633q0 295 -230 412q-65 33 -82 33l-102 -20q33 -54 40 -124q-148 0 -274 -251q-99 -197 -99 -280
q0 -121 57 -205q65 -97 180 -97q231 0 376 164q133 151 134 368zM421 1636h638v-128h-638v128z" />
    <glyph glyph-name="omacron" unicode="&#x14d;" horiz-adv-x="1024" 
d="M836 403q1 -167 -156 -290q-143 -112 -315 -113q-248 -1 -250 305q-1 132 229 295q199 141 262 141q90 0 164 -128q65 -112 66 -210zM770 391q0 64 -35 131q-45 87 -119 88q-80 1 -225 -156t-145 -237v-27q0 -123 110 -124q93 -1 251 117q163 121 163 208zM194 1247h638
v-128h-638v128z" />
    <glyph glyph-name="Obreve" unicode="&#x14e;" 
d="M1039 572q0 -176 -135 -348q-176 -223 -468 -224q-169 0 -261.5 92.5t-92.5 259.5q0 260 125 509q151 302 385 303q155 1 295 -167q151 -181 152 -425zM934 633q0 295 -230 412q-65 33 -82 33l-102 -20q33 -54 40 -124q-148 0 -274 -251q-99 -197 -99 -280
q0 -121 57 -205q65 -97 180 -97q231 0 376 164q133 151 134 368zM453 1770h31q33 -60 76 -86q73 -43 181 -43t180 42q51 30 71 87h33q-9 -119 -87 -198q-81 -82 -199 -82t-198 82q-78 79 -88 198z" />
    <glyph glyph-name="obreve" unicode="&#x14f;" horiz-adv-x="1024" 
d="M836 403q1 -167 -156 -290q-143 -112 -315 -113q-248 -1 -250 305q-1 132 229 295q199 141 262 141q90 0 164 -128q65 -112 66 -210zM770 391q0 64 -35 131q-45 87 -119 88q-80 1 -225 -156t-145 -237v-27q0 -123 110 -124q93 -1 251 117q163 121 163 208zM206 1358h31
q33 -60 76 -86q73 -43 181 -43t180 42q51 30 71 87h33q-9 -119 -87 -198q-81 -82 -199 -82t-198 82q-78 79 -88 198z" />
    <glyph glyph-name="Odblacute" unicode="&#x150;" 
d="M1039 572q0 -176 -135 -348q-176 -223 -468 -224q-169 0 -261.5 92.5t-92.5 259.5q0 260 125 509q151 302 385 303q155 1 295 -167q151 -181 152 -425zM934 633q0 295 -230 412q-65 33 -82 33l-102 -20q33 -54 40 -124q-148 0 -274 -251q-99 -197 -99 -280
q0 -121 57 -205q65 -97 180 -97q231 0 376 164q133 151 134 368zM587 1797h187l-220 -346h-33zM900 1797h187l-218 -346h-34z" />
    <glyph glyph-name="odblacute" unicode="&#x151;" horiz-adv-x="1024" 
d="M836 403q1 -167 -156 -290q-143 -112 -315 -113q-248 -1 -250 305q-1 132 229 295q199 141 262 141q90 0 164 -128q65 -112 66 -210zM770 391q0 64 -35 131q-45 87 -119 88q-80 1 -225 -156t-145 -237v-27q0 -123 110 -124q93 -1 251 117q163 121 163 208zM350 1390h187
l-220 -346h-33zM663 1390h187l-218 -346h-34z" />
    <glyph glyph-name="OE" unicode="&#x152;" horiz-adv-x="1821" 
d="M1104 1282v-535h183q212 0 210 196h39v-472h-39q-9 120 -49 160q-43 42 -161 42h-183v-448q0 -117 43 -141q14 -8 77 -8h104q105 0 142 8q68 13 124 64q75 68 129 192h40l-108 -340h-485q-129 0 -171 -1q-16 0 -167 -9q-105 -6 -145 -6q-176 0 -313.5 88.5t-216.5 247.5
q-82 164 -82 356q0 258 141 455q169 237 493 237q13 0 194 -7q130 -5 267 -5h473l12 -298h-32q-24 119 -43 149q-25 41 -77 62q-32 13 -143 13h-256zM912 1042q0 94 -7 129q-14 75 -64.5 104t-127.5 29q-267 0 -360 -296q-48 -151 -48 -340q0 -372 178 -530q93 -83 226 -83
q149 0 186 97q17 46 17 188v702z" />
    <glyph glyph-name="oe" unicode="&#x153;" 
d="M863 573q-2 -25 -2 -38q0 -97 31 -190q36 -108 102 -158t145 -50q171 0 239 218l33 -17q-68 -366 -340 -366q-185 0 -269 161q-125 -161 -318 -161t-309 142q-108 132 -108 329q0 204 107 345q118 155 316 155q206 0 312 -158q110 159 283 159q159 0 247 -108
q84 -102 79 -263h-548zM453 888q-111 0 -162 -117q-37 -85 -37 -232q0 -258 102 -406q62 -90 153 -90q206 0 206 335q0 187 -45 317q-66 193 -217 193zM863 638h351q1 69 -24 134q-40 105 -151 105q-85 0 -133 -81q-38 -65 -43 -158z" />
    <glyph glyph-name="Racute" unicode="&#x154;" horiz-adv-x="1366" 
d="M954 828q1 -122 -141 -243q-163 -107 -191 -130q104 -119 172 -255q46 -92 99 -245l-41 -40q-36 42 -70 122q-86 202 -117 251q-71 113 -229 171q-70 26 -104 80q-53 -112 -89 -229q-54 -176 -56 -334h-31q-30 0 -32 33l53 283q16 84 36 184l36 181q7 34 37 178
q65 311 87 348h43l20 -146l123 80q71 46 157 47q73 1 149 -86q88 -101 89 -250zM852 819q1 82 -35 156q-40 83 -101 83q-151 1 -270 -221l-77 -191q-15 -37 -37 -87h249q270 116 271 260zM621 1195l86 7q35 3 78 39q15 13 32 40l29 70l4 14l4 17h60v-250h-375v-518
q0 -146 100 -148v-59h-342v59q54 0 76 43q16 48 16 105v373q0 63 -16 102q-13 32 -76 47v59h324z" />
    <glyph glyph-name="racute" unicode="&#x155;" horiz-adv-x="682" 
d="M690 653q-56 -110 -164 -229l-207 -229v-66l68 -20q42 -12 70 -13q42 -1 63 17q3 2 14 14l3 4l34 -20q39 -23 76 -48l-49 -49q-26 -13 -147 -14q-80 -1 -149 26q-92 35 -93 103q-1 72 76 156l161 176q95 104 136 215q-168 0 -328 88q-90 -123 -90 -246v-75q0 -17 2 -29
q-24 18 -49 36q-19 17 -19 58v39q0 75 36 189.5t85 115.5l471 -133v-66zM386 788l86 7q35 3 78 39q15 13 32 40l29 70l4 14l4 17h60v-250h-375v-518q0 -146 100 -148v-59h-342v59q54 0 76 43q16 48 16 105v373q0 63 -16 102q-13 32 -76 47v59h324z" />
    <glyph glyph-name="Rcedilla" unicode="&#x156;" horiz-adv-x="1366" 
d="M954 828q1 -122 -141 -243q-163 -107 -191 -130q104 -119 172 -255q46 -92 99 -245l-41 -40q-36 42 -70 122q-86 202 -117 251q-71 113 -229 171q-70 26 -104 80q-53 -112 -89 -229q-54 -176 -56 -334h-31q-30 0 -32 33l53 283q16 84 36 184l36 181q7 34 37 178
q65 311 87 348h43l20 -146l123 80q71 46 157 47q73 1 149 -86q88 -101 89 -250zM852 819q1 82 -35 156q-40 83 -101 83q-151 1 -270 -221l-77 -191q-15 -37 -37 -87h249q270 116 271 260zM603 -65q43 5 76 5q73 0 120 -37q50 -41 50 -112q0 -88 -74 -138q-64 -44 -157 -44
q-36 0 -78 8v43q24 -4 42 -4q51 0 87 29q40 31 40 81q0 74 -83 74q-9 0 -23 -2v97z" />
    <glyph glyph-name="rcedilla" unicode="&#x157;" horiz-adv-x="682" 
d="M690 653q-56 -110 -164 -229l-207 -229v-66l68 -20q42 -12 70 -13q42 -1 63 17q3 2 14 14l3 4l34 -20q39 -23 76 -48l-49 -49q-26 -13 -147 -14q-80 -1 -149 26q-92 35 -93 103q-1 72 76 156l161 176q95 104 136 215q-168 0 -328 88q-90 -123 -90 -246v-75q0 -17 2 -29
q-24 18 -49 36q-19 17 -19 58v39q0 75 36 189.5t85 115.5l471 -133v-66zM208 -65q43 5 76 5q73 0 120 -37q50 -41 50 -112q0 -88 -74 -138q-64 -44 -157 -44q-36 0 -78 8v43q24 -4 42 -4q51 0 87 29q40 31 40 81q0 74 -83 74q-9 0 -23 -2v97z" />
    <glyph glyph-name="Rcaron" unicode="&#x158;" horiz-adv-x="1366" 
d="M954 828q1 -122 -141 -243q-163 -107 -191 -130q104 -119 172 -255q46 -92 99 -245l-41 -40q-36 42 -70 122q-86 202 -117 251q-71 113 -229 171q-70 26 -104 80q-53 -112 -89 -229q-54 -176 -56 -334h-31q-30 0 -32 33l53 283q16 84 36 184l36 181q7 34 37 178
q65 311 87 348h43l20 -146l123 80q71 46 157 47q73 1 149 -86q88 -101 89 -250zM852 819q1 82 -35 156q-40 83 -101 83q-151 1 -270 -221l-77 -191q-15 -37 -37 -87h249q270 116 271 260zM698 1462h-184l-190 331h31l273 -212l229 212h30z" />
    <glyph glyph-name="rcaron" unicode="&#x159;" horiz-adv-x="682" 
d="M690 653q-56 -110 -164 -229l-207 -229v-66l68 -20q42 -12 70 -13q42 -1 63 17q3 2 14 14l3 4l34 -20q39 -23 76 -48l-49 -49q-26 -13 -147 -14q-80 -1 -149 26q-92 35 -93 103q-1 72 76 156l161 176q95 104 136 215q-168 0 -328 88q-90 -123 -90 -246v-75q0 -17 2 -29
q-24 18 -49 36q-19 17 -19 58v39q0 75 36 189.5t85 115.5l471 -133v-66zM447 1054h-184l-190 331h31l273 -212l229 212h30z" />
    <glyph glyph-name="Sacute" unicode="&#x15a;" horiz-adv-x="1139" 
d="M895 977q1 -98 -35 -134q-14 -14 -109 -55q-17 152 -47.5 242.5t-67.5 90.5q-78 1 -153 -59q-105 -84 -106 -234q0 -59 67 -195q60 -119 121 -238q80 -171 81 -241q1 -81 -115 -126q-32 -12 -115 -28q-81 0 -154 15q-98 20 -155 65v62q89 0 196 -45q36 -15 113 -15
q104 0 143 22q43 19 44 71q1 70 -74 198l-140 240q-34 58 -58 146q-19 67 -19 132q-1 136 135 226q99 66 168 66q92 0 179 -54q100 -62 101 -152zM574 1195l86 7q35 3 78 39q15 13 32 40l29 70l4 14l4 17h60v-250h-375v-518q0 -146 100 -148v-59h-342v59q54 0 76 43
q16 48 16 105v373q0 63 -16 102q-13 32 -76 47v59h324z" />
    <glyph glyph-name="sacute" unicode="&#x15b;" horiz-adv-x="797" 
d="M770 545q0 -90 -55 -117q-87 -20 -140 -37l43 -67q44 -69 46 -86q0 -74 -213 -162q-180 -75 -226 -76q-13 0 -35 10q-11 3 -30 8v45q60 67 114 91.5t107 25.5q10 0 43 -4l31 -4q36 0 75 41l45 47l-157 152q-81 79 -82 145q-1 87 92 143q67 40 125 41q90 1 153.5 -53
t63.5 -143zM664 545q-2 6 -17 26q-10 20 -29 39h-131l-20 -53q18 -48 47 -82q17 -20 61 -61l-12 45l-8 28l10 23q3 7 10 35h89zM444 788l86 7q35 3 78 39q15 13 32 40l29 70l4 14l4 17h60v-250h-375v-518q0 -146 100 -148v-59h-342v59q54 0 76 43q16 48 16 105v373
q0 63 -16 102q-13 32 -76 47v59h324z" />
    <glyph glyph-name="Scircumflex" unicode="&#x15c;" horiz-adv-x="1139" 
d="M895 977q1 -98 -35 -134q-14 -14 -109 -55q-17 152 -47.5 242.5t-67.5 90.5q-78 1 -153 -59q-105 -84 -106 -234q0 -59 67 -195q60 -119 121 -238q80 -171 81 -241q1 -81 -115 -126q-32 -12 -115 -28q-81 0 -154 15q-98 20 -155 65v62q89 0 196 -45q36 -15 113 -15
q104 0 143 22q43 19 44 71q1 70 -74 198l-140 240q-34 58 -58 146q-19 67 -19 132q-1 136 135 226q99 66 168 66q92 0 179 -54q100 -62 101 -152zM478 1822h184l190 -331h-31l-273 213l-229 -213h-30z" />
    <glyph glyph-name="scircumflex" unicode="&#x15d;" horiz-adv-x="797" 
d="M770 545q0 -90 -55 -117q-87 -20 -140 -37l43 -67q44 -69 46 -86q0 -74 -213 -162q-180 -75 -226 -76q-13 0 -35 10q-11 3 -30 8v45q60 67 114 91.5t107 25.5q10 0 43 -4l31 -4q36 0 75 41l45 47l-157 152q-81 79 -82 145q-1 87 92 143q67 40 125 41q90 1 153.5 -53
t63.5 -143zM664 545q-2 6 -17 26q-10 20 -29 39h-131l-20 -53q18 -48 47 -82q17 -20 61 -61l-12 45l-8 28l10 23q3 7 10 35h89zM307 1385h184l190 -331h-31l-273 213l-229 -213h-30z" />
    <glyph glyph-name="Scedilla" unicode="&#x15e;" horiz-adv-x="1139" 
d="M895 977q1 -98 -35 -134q-14 -14 -109 -55q-17 152 -47.5 242.5t-67.5 90.5q-78 1 -153 -59q-105 -84 -106 -234q0 -59 67 -195q60 -119 121 -238q80 -171 81 -241q1 -81 -115 -126q-32 -12 -115 -28q-81 0 -154 15q-98 20 -155 65v62q89 0 196 -45q36 -15 113 -15
q104 0 143 22q43 19 44 71q1 70 -74 198l-140 240q-34 58 -58 146q-19 67 -19 132q-1 136 135 226q99 66 168 66q92 0 179 -54q100 -62 101 -152z" />
    <glyph glyph-name="scedilla" unicode="&#x15f;" horiz-adv-x="797" 
d="M770 545q0 -90 -55 -117q-87 -20 -140 -37l43 -67q44 -69 46 -86q0 -74 -213 -162q-180 -75 -226 -76q-13 0 -35 10q-11 3 -30 8v45q60 67 114 91.5t107 25.5q10 0 43 -4l31 -4q36 0 75 41l45 47l-157 152q-81 79 -82 145q-1 87 92 143q67 40 125 41q90 1 153.5 -53
t63.5 -143zM664 545q-2 6 -17 26q-10 20 -29 39h-131l-20 -53q18 -48 47 -82q17 -20 61 -61l-12 45l-8 28l10 23q3 7 10 35h89z" />
    <glyph glyph-name="Scaron" unicode="&#x160;" horiz-adv-x="1139" 
d="M895 977q1 -98 -35 -134q-14 -14 -109 -55q-17 152 -47.5 242.5t-67.5 90.5q-78 1 -153 -59q-105 -84 -106 -234q0 -59 67 -195q60 -119 121 -238q80 -171 81 -241q1 -81 -115 -126q-32 -12 -115 -28q-81 0 -154 15q-98 20 -155 65v62q89 0 196 -45q36 -15 113 -15
q104 0 143 22q43 19 44 71q1 70 -74 198l-140 240q-34 58 -58 146q-19 67 -19 132q-1 136 135 226q99 66 168 66q92 0 179 -54q100 -62 101 -152zM657 1462h-184l-190 331h31l273 -212l229 212h30z" />
    <glyph glyph-name="scaron" unicode="&#x161;" horiz-adv-x="797" 
d="M770 545q0 -90 -55 -117q-87 -20 -140 -37l43 -67q44 -69 46 -86q0 -74 -213 -162q-180 -75 -226 -76q-13 0 -35 10q-11 3 -30 8v45q60 67 114 91.5t107 25.5q10 0 43 -4l31 -4q36 0 75 41l45 47l-157 152q-81 79 -82 145q-1 87 92 143q67 40 125 41q90 1 153.5 -53
t63.5 -143zM664 545q-2 6 -17 26q-10 20 -29 39h-131l-20 -53q18 -48 47 -82q17 -20 61 -61l-12 45l-8 28l10 23q3 7 10 35h89zM491 1054h-184l-190 331h31l273 -212l229 212h30z" />
    <glyph glyph-name="Tcedilla" unicode="&#x162;" horiz-adv-x="1251" 
d="M1185 1356l15 -318h-38q-11 84 -30 120q-60 113 -218 113h-191v-1036q0 -126 27 -156q37 -42 117 -42h47v-37h-575v37h48q86 0 122 52q22 32 22 146v1036h-163q-96 0 -135 -14q-120 -43 -133 -219h-38l16 318h1107zM510 -462v36q103 0 151 77q22 35 22 66q0 34 -21 34
q-8 0 -25 -9q-26 -14 -43 -14q-84 0 -84 87q0 96 105 96q63 0 100 -50q33 -45 33 -111q0 -110 -84 -174q-46 -35 -154 -38z" />
    <glyph glyph-name="tcedilla" unicode="&#x163;" horiz-adv-x="569" 
d="M330 1217v-301h214v-70h-214v-594q0 -151 91 -151q78 0 112 81h39q-70 -197 -231 -197q-111 0 -155 99q-21 47 -21 146v616h-145v33q122 49 215 199q22 36 64 139h31zM181 -462v36q102 0 152 77q22 35 22 66q0 34 -22 34q-8 0 -25 -9q-26 -14 -42 -14q-85 0 -85 87
q0 96 105 96q63 0 100 -50q33 -45 33 -111q0 -110 -84 -174q-46 -35 -154 -38z" />
    <glyph glyph-name="Tcaron" unicode="&#x164;" horiz-adv-x="1251" 
d="M1197 1082l-211 4q-16 0 -78 -2q-27 0 -85 -2q-59 -5 -84 -22q-53 -36 -104 -410q-42 -304 -43 -494q0 -28 2 -32v-102l-84 -22l-24 65l78 653q16 122 51 280q-76 22 -154 23q-39 0 -138 -15q-57 -9 -82 -9h-20q-48 0 -106 22l161 43q167 45 376 82q224 40 418 43
q17 0 25 -0.5t37 -7.5l65 -15v-82zM724 1462h-184l-190 331h31l273 -212l229 212h30z" />
    <glyph glyph-name="tcaron" unicode="&#x165;" horiz-adv-x="875" 
d="M598 904v47q102 61 139 114q27 38 27 91q0 61 -38 61q-9 0 -28 -7q-26 -10 -44 -10q-43 0 -72.5 31.5t-29.5 74.5q0 50 31 78q43 38 100 38q75 0 126 -62q48 -58 48 -135q0 -224 -259 -321zM329 1217v-301h214v-70h-214v-594q0 -151 91 -151q78 0 112 81h39
q-70 -197 -231 -197q-111 0 -155 99q-21 47 -21 146v616h-145v33q122 49 215 199q22 36 64 139h31z" />
    <glyph glyph-name="Tbar" unicode="&#x166;" horiz-adv-x="1251" 
d="M720 754h357v-81h-357v-438q0 -104 21 -143q30 -55 123 -55h47v-37h-575v37h48q92 0 123 55q21 39 21 143v438h-348v81h348v517h-163q-88 0 -130 -14q-62 -20 -98 -80q-34 -56 -40 -139h-38l16 318h1107l15 -318h-38q-18 233 -248 233h-191v-517z" />
    <glyph glyph-name="tbar" unicode="&#x167;" horiz-adv-x="569" 
d="M326 583h214v-82h-214v-249q0 -151 91 -151q77 0 112 81h39q-30 -82 -87 -135q-65 -62 -144 -62q-176 0 -176 245v271h-145v82h145v263h-145v32q182 76 279 339h31v-301h214v-70h-214v-263z" />
    <glyph glyph-name="Utilde" unicode="&#x168;" 
d="M991 712q-108 -266 -231 -439q-54 -75 -108 -129q-145 -144 -284 -144q-230 0 -230 378q0 332 71 566l92 226l69 -21q-55 -193 -103 -400q-35 -151 -35 -323v-46q0 -130 18 -180q29 -110 109 -110q192 -1 336 211q117 172 171 400l57 241h68v-230zM487 1495h-32
q8 259 188 259q41 0 75 -13q24 -9 128 -73q86 -53 122 -53q72 0 95 139h31q2 -168 -96 -232q-47 -31 -94 -31q-79 0 -196 80q-89 61 -128 61q-41 0 -65 -36q-11 -17 -28 -101z" />
    <glyph glyph-name="utilde" unicode="&#x169;" horiz-adv-x="1024" 
d="M785 410q0 -46 -148 -212q-177 -198 -322 -198q-102 0 -136 101q-21 63 -21 187q0 94 12 165q11 63 61 171q33 -23 49 -59q13 -30 14 -79q1 -50 -23.5 -147.5t-24.5 -140.5q0 -51 28 -76q24 -27 90 -27q135 0 200 232l77 275h97zM225 1097h-32q8 259 188 259q41 0 75 -13
q24 -9 128 -73q86 -53 122 -53q72 0 95 139h31q2 -168 -96 -232q-47 -31 -94 -31q-79 0 -196 80q-89 61 -128 61q-41 0 -65 -36q-11 -17 -28 -101z" />
    <glyph glyph-name="Umacron" unicode="&#x16a;" 
d="M992 712q-108 -266 -231 -439q-54 -75 -108 -129q-145 -144 -284 -144q-230 0 -230 378q0 332 71 566l92 226l69 -21q-55 -193 -103 -400q-35 -151 -35 -323v-46q0 -130 18 -180q29 -110 109 -110q192 -1 336 211q117 172 171 400l57 241h68v-230zM468 1636h638v-128
h-638v128z" />
    <glyph glyph-name="umacron" unicode="&#x16b;" horiz-adv-x="1024" 
d="M785 410q0 -46 -148 -212q-177 -198 -322 -198q-102 0 -136 101q-21 63 -21 187q0 94 12 165q11 63 61 171q33 -23 49 -59q13 -30 14 -79q1 -50 -23.5 -147.5t-24.5 -140.5q0 -51 28 -76q24 -27 90 -27q135 0 200 232l77 275h97zM191 1247h638v-128h-638v128z" />
    <glyph glyph-name="Ubreve" unicode="&#x16c;" 
d="M992 712q-108 -266 -231 -439q-54 -75 -108 -129q-145 -144 -284 -144q-230 0 -230 378q0 332 71 566l92 226l69 -21q-55 -193 -103 -400q-35 -151 -35 -323v-46q0 -130 18 -180q29 -110 109 -110q192 -1 336 211q117 172 171 400l57 241h68v-230zM453 1770h31
q33 -60 76 -86q73 -43 181 -43t180 42q51 30 71 87h33q-9 -119 -87 -198q-81 -82 -199 -82t-198 82q-78 79 -88 198z" />
    <glyph glyph-name="ubreve" unicode="&#x16d;" horiz-adv-x="1024" 
d="M785 410q0 -46 -148 -212q-177 -198 -322 -198q-102 0 -136 101q-21 63 -21 187q0 94 12 165q11 63 61 171q33 -23 49 -59q13 -30 14 -79q1 -50 -23.5 -147.5t-24.5 -140.5q0 -51 28 -76q24 -27 90 -27q135 0 200 232l77 275h97zM226 1358h31q33 -60 76 -86
q73 -43 181 -43t180 42q51 30 71 87h33q-9 -119 -87 -198q-81 -82 -199 -82t-198 82q-78 79 -88 198z" />
    <glyph glyph-name="Uring" unicode="&#x16e;" 
d="M991 712q-108 -266 -231 -439q-54 -75 -108 -129q-145 -144 -284 -144q-230 0 -230 378q0 332 71 566l92 226l69 -21q-55 -193 -103 -400q-35 -151 -35 -323v-46q0 -130 18 -180q29 -110 109 -110q192 -1 336 211q117 172 171 400l57 241h68v-230zM783 1814
q80 0 136 -55.5t56 -135.5q0 -81 -55.5 -136.5t-136.5 -55.5q-80 0 -135.5 56t-55.5 136t55.5 135.5t135.5 55.5zM783 1745q-51 0 -86.5 -35.5t-35.5 -86.5t35.5 -86.5t86.5 -35.5t86.5 35.5t35.5 86.5t-35.5 86.5t-86.5 35.5z" />
    <glyph glyph-name="uring" unicode="&#x16f;" horiz-adv-x="1024" 
d="M784 410q0 -46 -148 -212q-177 -198 -322 -198q-102 0 -136 101q-21 63 -21 187q0 94 12 165q11 63 61 171q33 -23 49 -59q13 -30 14 -79q1 -50 -23.5 -147.5t-24.5 -140.5q0 -51 28 -76q24 -27 90 -27q135 0 200 232l77 275h97zM490 1424q80 0 136 -55.5t56 -135.5
q0 -81 -55.5 -136.5t-136.5 -55.5q-80 0 -135.5 56t-55.5 136t55.5 135.5t135.5 55.5zM490 1355q-51 0 -86.5 -35.5t-35.5 -86.5t35.5 -86.5t86.5 -35.5t86.5 35.5t35.5 86.5t-35.5 86.5t-86.5 35.5z" />
    <glyph glyph-name="Udblacute" unicode="&#x170;" 
d="M991 712q-108 -266 -231 -439q-54 -75 -108 -129q-145 -144 -284 -144q-230 0 -230 378q0 332 71 566l92 226l69 -21q-55 -193 -103 -400q-35 -151 -35 -323v-46q0 -130 18 -180q29 -110 109 -110q192 -1 336 211q117 172 171 400l57 241h68v-230zM609 1797h187
l-220 -346h-33zM922 1797h187l-218 -346h-34z" />
    <glyph glyph-name="udblacute" unicode="&#x171;" horiz-adv-x="1024" 
d="M784 410q0 -46 -148 -212q-177 -198 -322 -198q-102 0 -136 101q-21 63 -21 187q0 94 12 165q11 63 61 171q33 -23 49 -59q13 -30 14 -79q1 -50 -23.5 -147.5t-24.5 -140.5q0 -51 28 -76q24 -27 90 -27q135 0 200 232l77 275h97zM314 1390h187l-220 -346h-33zM627 1390
h187l-218 -346h-34z" />
    <glyph glyph-name="Uogonek" unicode="&#x172;" 
d="M991 712q-108 -266 -231 -439q-54 -75 -108 -129q-145 -144 -284 -144q-230 0 -230 378q0 332 71 566l92 226l69 -21q-55 -193 -103 -400q-35 -151 -35 -323v-46q0 -130 18 -180q29 -110 109 -110q192 -1 336 211q117 172 171 400l57 241h68v-230zM771 16h52
q-26 -52 -26 -99q0 -84 52 -132q69 -63 162 -63q57 0 119 23l21 -32q-136 -76 -231 -76q-93 0 -157 44q-72 51 -72 140q0 119 80 195z" />
    <glyph glyph-name="uogonek" unicode="&#x173;" horiz-adv-x="1024" 
d="M784 410q0 -46 -148 -212q-177 -198 -322 -198q-102 0 -136 101q-21 63 -21 187q0 94 12 165q11 63 61 171q33 -23 49 -59q13 -30 14 -79q1 -50 -23.5 -147.5t-24.5 -140.5q0 -51 28 -76q24 -27 90 -27q135 0 200 232l77 275h97zM734 16h52q-26 -52 -26 -99
q0 -84 52 -132q69 -63 162 -63q57 0 119 23l21 -32q-136 -76 -231 -76q-93 0 -157 44q-72 51 -72 140q0 119 80 195z" />
    <glyph glyph-name="Wcircumflex" unicode="&#x174;" horiz-adv-x="1933" 
d="M1662 1061q-100 -72 -257 -333q-121 -201 -203 -381q-120 -264 -135 -433l-93 -21q-39 72 -88 216q-36 104 -94 194l-134 -204q-51 -78 -118 -138q-75 79 -117 187l-158 409q-11 -4 -34.5 -19.5t-35.5 -28.5l-60 70q-31 36 -32 79q0 3 18 103q0 36 1 58q2 57 5 127l45 45
q69 -75 187 -382q104 -271 133 -420l48 -45l127 176q60 83 60 175q0 54 -28 107q46 21 101 44q31 13 82 31l56 15q16 0 27 -4q8 -2 50 -41q5 -5 28 -23l-134 -70q-27 -19 -27 -88q0 -38 39 -156q20 -65 77 -189q50 79 139 277q51 116 164 344q124 225 293 432h68v-113z
M875 1822h184l190 -331h-31l-273 213l-229 -213h-30z" />
    <glyph glyph-name="wcircumflex" unicode="&#x175;" 
d="M1282 700q-58 -18 -264 -286q-197 -256 -285 -414h-65q-33 59 -58 119l-51 123q-43 -40 -63 -70q-29 -43 -27 -82l2 -47q-11 -2 -39 -11q-21 -7 -39 -7q-31 0 -67 84q-123 288 -183 372l21 88h45q64 -97 94 -166l80 -184q72 58 104 139q58 145 226 234l2 -29v-26
q0 -59 -33.5 -66.5t-34.5 -87.5q0 -14 35 -100q16 -42 41 -86q44 0 164 159q66 88 200 303l107 172l41 -26q4 -4 47 -105zM648 1385h184l190 -331h-31l-273 213l-229 -213h-30z" />
    <glyph glyph-name="Ycircumflex" unicode="&#x176;" 
d="M817 1218q0 -106 -80 -305l-165 -410q-104 -258 -150 -481q-24 3 -36 7q-41 8 -69 16t-62 20v102q111 33 177 177q39 87 117 262q16 35 19 40v62q-4 1 -16 9q-7 8 -17 11q-27 -18 -82 -51q-92 -51 -167 -51q-85 0 -135 86q-42 72 -42 164q0 28 27 149l78 349q80 0 81 -84
q1 -58 -50 -218q-53 -164 -54 -239q-1 -36 29 -79q31 -46 66 -46q139 0 247 125q68 79 146 248.5t95 186.5l22 -9q21 -12 21 -41zM648 1822h184l190 -331h-31l-273 213l-229 -213h-30z" />
    <glyph glyph-name="ycircumflex" unicode="&#x177;" horiz-adv-x="1024" 
d="M760 387q-330 -448 -438 -965h-154q0 32 -16 49q-8 8 -9 19q63 60 115 154q94 170 195 413q-70 0 -73 -9.5t-58 -10.5q-130 -1 -134 262q43 56 64 104q37 83 70 224h65q-18 -129 -51 -256q-49 -189 -57 -226l22 -14q8 -4 13 -5t18 -3q115 0 205 160l157 278h66v-174z
M438 1385h184l190 -331h-31l-273 213l-229 -213h-30z" />
    <glyph glyph-name="Ydieresis" unicode="&#x178;" 
d="M817 1218q0 -106 -80 -305l-165 -410q-104 -258 -150 -481q-24 3 -36 7q-41 8 -69 16t-62 20v102q111 33 177 177q39 87 117 262q16 35 19 40v62q-4 1 -16 9q-7 8 -17 11q-27 -18 -82 -51q-92 -51 -167 -51q-85 0 -135 86q-42 72 -42 164q0 28 27 149l78 349q80 0 81 -84
q1 -58 -50 -218q-53 -164 -54 -239q-1 -36 29 -79q31 -46 66 -46q139 0 247 125q68 79 146 248.5t95 186.5l22 -9q21 -12 21 -41zM1700 1735q-21 -34 -51 -94q-20 -40 -60 -80q-11 59 -28 106l-17 47q36 36 88 154h68v-133zM1350 1868l-45 -86q-31 -59 -31 -90v-37l8 -51
q6 0 -36 -29q-14 -9 -29 -12q-21 0 -51 12l-15 8v131l111 154h88zM1481 1299q-69 -66 -141 -92q-60 -21 -121 -19l-99 4q-100 4 -169 -98q-39 -58 -84 -191l80 -13q3 -1 49 -3q102 -6 110 -6l121 4q40 1 92 -12q44 -16 96 -56q-88 -47 -196 -47q-40 0 -107 9
q-141 19 -168 20h-32q-15 0 -33.5 -4t-50.5 -21t-64 -71q-105 -178 -137 -215l70 -58q16 -13 28 -12l53 4l68 2q110 3 197 33l227 78q8 0 13.5 -1t27.5 -7l59 -17q-28 -37 -186 -98q-188 -72 -350 -74l-111 21q-114 22 -162 43q29 156 86 239q79 115 105 191q63 181 115 575
q88 -47 153 -94q56 -40 66 -43q41 9 145 21q66 0 250 8z" />
    <glyph glyph-name="Zacute" unicode="&#x179;" horiz-adv-x="1251" 
d="M1134 95q-25 -47 -44 -99l-39 -107h-63l-4 43q0 18 2 23q0 13 2 17l-41 61q-38 -8 -132 -19q-41 0 -62 -1l-107 -5l-208 3q-61 1 -141 9q-47 5 -120 13q0 13 -3.5 22t-8.5 16l-9 26q0 51 89 129q43 35 111 91q50 41 113 91q41 48 41 97v28l128 65q60 31 136 82
q63 43 113 87q139 123 185 264q-49 0 -107 6q-160 17 -195 17q-80 1 -234 -20q-158 -22 -235 -22q0 -163 -83 -312q-40 75 -43 176l107 406h62l3 -33v-87l-3 -47q21 -5 74 -12l94 -4q115 -5 295 18l149 19q72 0 128 -52q48 -45 48 -94q0 -54 -52 -118l-321 -319l84 -104
l-90 -7q-18 -1 -37 5l-20 4q-50 0 -128 -56q-90 -65 -286 -257v-58q83 15 117 15l93 -11q51 -6 100 -6q106 0 167 17q36 10 62 43q94 0 124 -8l78 -21q7 0 8 52t41 164h62v-230zM666 1195l86 7q35 3 78 39q15 13 32 40l29 70l4 14l4 17h60v-250h-375v-518q0 -146 100 -148
v-59h-342v59q54 0 76 43q16 48 16 105v373q0 63 -16 102q-13 32 -76 47v59h324z" />
    <glyph glyph-name="zacute" unicode="&#x17a;" horiz-adv-x="909" 
d="M819 264l-290 -4q-6 1 -17 2q-2 -20 -4 -27q0 -10 -4 -18q-2 -12 -12 -41q0 -14 56 -88t75 -88q-46 0 -138 29q-41 13 -73 14q-20 1 -27 -2h-8q-25 0 -78.5 -20.5t-81.5 -20.5h-10q43 104 112 166l107 96l-88 88l78 16l67 7q21 0 27 16q28 71 68 135v45q-27 13 -187 64
l-76 24q-60 0 -86.5 -23t-27.5 -75q0 -21 4.5 -49t15.5 -59l29 -80q-4 0 -15.5 -9.5t-19.5 -11.5q-41 0 -74 99q-4 13 -22 98q0 77 47 145q53 74 127 76q166 -111 436 -113q-19 -62 -47 -141q-9 -28 -59 -121q76 -45 80 -46q41 -25 116 -83zM490 788l86 7q35 3 78 39
q15 13 32 40l29 70l4 14l4 17h60v-250h-375v-518q0 -146 100 -148v-59h-342v59q54 0 76 43q16 48 16 105v373q0 63 -16 102q-13 32 -76 47v59h324z" />
    <glyph glyph-name="Zdot" unicode="&#x17b;" horiz-adv-x="1251" 
d="M1134 95q-25 -47 -44 -99l-39 -107h-63l-4 43q0 18 2 23q0 13 2 17l-41 61q-38 -8 -132 -19q-41 0 -62 -1l-107 -5l-208 3q-61 1 -141 9q-47 5 -120 13q0 13 -3.5 22t-8.5 16l-9 26q0 51 89 129q43 35 111 91q50 41 113 91q41 48 41 97v28l128 65q60 31 136 82
q63 43 113 87q139 123 185 264q-49 0 -107 6q-160 17 -195 17q-80 1 -234 -20q-158 -22 -235 -22q0 -163 -83 -312q-40 75 -43 176l107 406h62l3 -33v-87l-3 -47q21 -5 74 -12l94 -4q115 -5 295 18l149 19q72 0 128 -52q48 -45 48 -94q0 -54 -52 -118l-321 -319l84 -104
l-90 -7q-18 -1 -37 5l-20 4q-50 0 -128 -56q-90 -65 -286 -257v-58q83 15 117 15l93 -11q51 -6 100 -6q106 0 167 17q36 10 62 43q94 0 124 -8l78 -21q7 0 8 52t41 164h62v-230zM646 1709q45 0 77 -32t32 -77t-32 -77t-77 -32t-77 32t-32 77q0 46 31.5 77.5t77.5 31.5z" />
    <glyph glyph-name="zdot" unicode="&#x17c;" horiz-adv-x="909" 
d="M819 264l-290 -4q-6 1 -17 2q-2 -20 -4 -27q0 -10 -4 -18q-2 -12 -12 -41q0 -14 56 -88t75 -88q-46 0 -138 29q-41 13 -73 14q-20 1 -27 -2h-8q-25 0 -78.5 -20.5t-81.5 -20.5h-10q43 104 112 166l107 96l-88 88l78 16l67 7q21 0 27 16q28 71 68 135v45q-27 13 -187 64
l-76 24q-60 0 -86.5 -23t-27.5 -75q0 -21 4.5 -49t15.5 -59l29 -80q-4 0 -15.5 -9.5t-19.5 -11.5q-41 0 -74 99q-4 13 -22 98q0 77 47 145q53 74 127 76q166 -111 436 -113q-19 -62 -47 -141q-9 -28 -59 -121q76 -45 80 -46q41 -25 116 -83zM486 1337q45 0 77 -32t32 -77
t-32 -77t-77 -32t-77 32t-32 77q0 46 31.5 77.5t77.5 31.5z" />
    <glyph glyph-name="Zcaron" unicode="&#x17d;" horiz-adv-x="1251" 
d="M1134 95q-25 -47 -44 -99l-39 -107h-63l-4 43q0 18 2 23q0 13 2 17l-41 61q-38 -8 -132 -19q-41 0 -62 -1l-107 -5l-208 3q-61 1 -141 9q-47 5 -120 13q0 13 -3.5 22t-8.5 16l-9 26q0 51 89 129q43 35 111 91q50 41 113 91q41 48 41 97v28l128 65q60 31 136 82
q63 43 113 87q139 123 185 264q-49 0 -107 6q-160 17 -195 17q-80 1 -234 -20q-158 -22 -235 -22q0 -163 -83 -312q-40 75 -43 176l107 406h62l3 -33v-87l-3 -47q21 -5 74 -12l94 -4q115 -5 295 18l149 19q72 0 128 -52q48 -45 48 -94q0 -54 -52 -118l-321 -319l84 -104
l-90 -7q-18 -1 -37 5l-20 4q-50 0 -128 -56q-90 -65 -286 -257v-58q83 15 117 15l93 -11q51 -6 100 -6q106 0 167 17q36 10 62 43q94 0 124 -8l78 -21q7 0 8 52t41 164h62v-230zM734 1462h-184l-190 331h31l273 -212l229 212h30z" />
    <glyph glyph-name="zcaron" unicode="&#x17e;" horiz-adv-x="909" 
d="M819 264l-290 -4q-6 1 -17 2q-2 -20 -4 -27q0 -10 -4 -18q-2 -12 -12 -41q0 -14 56 -88t75 -88q-46 0 -138 29q-41 13 -73 14q-20 1 -27 -2h-8q-25 0 -78.5 -20.5t-81.5 -20.5h-10q43 104 112 166l107 96l-88 88l78 16l67 7q21 0 27 16q28 71 68 135v45q-27 13 -187 64
l-76 24q-60 0 -86.5 -23t-27.5 -75q0 -21 4.5 -49t15.5 -59l29 -80q-4 0 -15.5 -9.5t-19.5 -11.5q-41 0 -74 99q-4 13 -22 98q0 77 47 145q53 74 127 76q166 -111 436 -113q-19 -62 -47 -141q-9 -28 -59 -121q76 -45 80 -46q41 -25 116 -83zM563 1054h-184l-190 331h31
l273 -212l229 212h30z" />
    <glyph glyph-name="longs" unicode="&#x17f;" horiz-adv-x="569" 
d="M527 36v-36h-505v36h41q85 0 113 64q18 41 18 142v734q0 188 95 310q104 134 287 134q79 0 158 -44q93 -51 93 -124q0 -30 -26 -57t-56 -27q-51 0 -110 86q-64 94 -138 94q-116 0 -130 -140q-8 -73 -8 -226v-740q0 -99 17 -140q27 -66 110 -66h41z" />
    <glyph glyph-name="florin" unicode="&#x192;" horiz-adv-x="565" 
d="M283 661q21 1 40 -8q16 -5 32 -25q21 -26 21 -50q0 -55 -41 -158q-14 -32 -48 -113l-31 -77l-8 -45q0 -67 96 -68q54 -1 104 22l99 45q31 14 97 28q46 10 72 11q9 0 18 -12q5 -6 9 -26q0 -49 -100 -76l-175 -48q-16 -7 -50 -23q-44 -19 -80 -24q-20 -2 -50 -2
q-51 0 -86 18q-55 28 -56 95q0 24 13 62q15 51 42 118q15 37 47 112q15 43 16 73q1 28 -10.5 38t-51.5 10q-14 0 -50 -16q-22 -10 -37 -19q-18 -9 -47 -29q-43 -46 -104 -94q-53 0 -64 39q0 8 25 29q29 24 37 38q13 31 61 55l62 31l153 79q23 9 45 10z" />
    <glyph glyph-name="Aringacute" unicode="&#x1fa;" 
d="M1161 1114q-323 -32 -408 -51q-265 -60 -333 -205l-92 -313h592v-66q-90 -12 -111 -26l-43 -39h-10q-21 0 -26 1q-16 1 -36 7q-154 33 -229 33q-291 0 -291 -303l10 -29l13 -39l133 12q127 11 217 54h264v-66q-84 -27 -292 -55q-199 -28 -300 -29q-58 -1 -94 35t-37 94
q-1 71 51 186l123 273l84 450q36 105 139 142h4q7 0 17 -19q24 -46 41 -47l186 41q102 23 273 25q40 1 96 -29q27 -14 59 -37zM775 1460l86 7q35 3 78 39q15 13 32 40l29 70l4 14l4 17h60v-250h-375v-518q0 -146 100 -148v-59h-342v59q54 0 76 43q16 48 16 105v373
q0 63 -16 102q-13 32 -76 47v59h324z" />
    <glyph glyph-name="aringacute" unicode="&#x1fb;" horiz-adv-x="909" 
d="M1171 702q1 -64 -239 -233q-259 -183 -430 -184q-29 0 -140 88l-34 -49q-13 -31 -13 -70q-1 -109 140 -158q95 -33 231 -33h43l27 3q-21 -27 -27.5 -45t-23.5 -21h-66q-6 1 -16 2q-123 0 -256 64q-158 76 -158 178q-1 233 270 440q255 194 496 195q73 0 133 -51
q62 -54 63 -126zM1018 723l-99 16q-37 6 -75 6l-258 -114q-118 -89 -203 -258q32 0 121 22q364 90 514 328zM504 1234l86 7q35 3 78 39q15 13 32 40l29 70l4 14l4 17h60v-250h-375v-518q0 -146 100 -148v-59h-342v59q54 0 76 43q16 48 16 105v373q0 63 -16 102
q-13 32 -76 47v59h324z" />
    <glyph glyph-name="AEacute" unicode="&#x1fc;" horiz-adv-x="1821" 
d="M1273 901q0 -30 -251 -210t-252 -225q-1 -61 174 -191l240 -178q-28 -14 -32 -17q-18 -10 -57 -34q-7 -5 -26 -18l-93 95q-12 14 -55 60q-120 122 -196 144v-37q0 -80 -8 -154q-7 -65 -38 -224q-57 95 -57 148q0 15 9 62q6 30 7 85q1 29 -6 96q-209 -125 -269 -301
q-33 -97 -98 -156q-5 11 -15 16h-16q-15 0 -15 39q0 70 183 315q64 86 137 186q14 20 46 64q0 65 -211 323q-74 91 -155 181q9 0 41 23q14 10 39 22q32 0 333 -413h69q0 42 15 159q39 305 101 415h69v-113q-51 -111 -71 -203l-23 -107q0 -24 23 -52t47 -30l164 125
q94 71 228 150q0 -5 9 -20q8 -11 10 -25zM947 1234l86 7q35 3 78 39q15 13 32 40l29 70l4 14l4 17h60v-250h-375v-518q0 -146 100 -148v-59h-342v59q54 0 76 43q16 48 16 105v373q0 63 -16 102q-13 32 -76 47v59h324z" />
    <glyph glyph-name="aeacute" unicode="&#x1fd;" horiz-adv-x="1366" 
d="M1323 21q-91 -71 -217 -99q-71 -16 -177 -17q-104 -1 -176 128q-22 60 -74 172q-59 -64 -131 -139q-50 -52 -70 -53q-8 0 -16 8l-34 123q-12 43 -38 61l-171 -207h-47q0 54 -10 60q-12 3 -12 22q115 129 164 197q90 126 112 226l-78 -50q-9 -6 -45 -27q-33 -10 -84 -36
h-69v68l400 209q9 0 11 -71q2 -65 30 -93l6 -2q10 0 35 16q77 49 90 51q14 0 27 -35q9 -40 9.5 -44t11.5 -31q140 128 159 142q146 109 275 110q6 0 11 -1.5t23 -10.5l37 -10q0 -19 15 -54q3 -7 6 -15.5t3 -9.5q0 -29 -125 -84q-160 -70 -232 -127q-124 -98 -125 -238
q-1 -173 219 -175q60 -1 144 13zM719 788l86 7q35 3 78 39q15 13 32 40l29 70l4 14l4 17h60v-250h-375v-518q0 -146 100 -148v-59h-342v59q54 0 76 43q16 48 16 105v373q0 63 -16 102q-13 32 -76 47v59h324z" />
    <glyph glyph-name="Oslashacute" unicode="&#x1fe;" 
d="M1470 1126l-81 -225l-160 -434q-89 -241 -109 -272q25 -22 74 -58l14 -8v-45q-216 0 -331 -25l-150 -59q-265 0 -337 7q-273 25 -275 124q0 13 78 199l227 542q0 21 -8 50q-13 45 -13 73q-1 53 25 113q22 52 84 115q19 -14 55 -31q9 -3 10 -14v-31q0 -81 -97 -340
q-34 -92 -75 -189q-103 -246 -200 -423v-89q41 -10 86 -16l88 -4q28 -1 55 -1q207 0 244 67q39 186 141 436l47 2q39 2 39 -33q0 -16 -65 -154t-66 -208q-1 -38 20 -53q20 -10 58 -13l53 2q36 0 107 14l92 50q-13 22 -45 43l258 766q48 141 92 196h45l12 -33q5 -20 8 -41z
M776 1234l86 7q35 3 78 39q15 13 32 40l29 70l4 14l4 17h60v-250h-375v-518q0 -146 100 -148v-59h-342v59q54 0 76 43q16 48 16 105v373q0 63 -16 102q-13 32 -76 47v59h324z" />
    <glyph glyph-name="oslashacute" unicode="&#x1ff;" horiz-adv-x="1024" 
d="M1325 555q-38 -28 -133 -195q-120 -210 -121 -352q-1 -78 35 -131l-82 -20q-13 -2 -72 -25q0 23 11 49l6 27q0 34 -82 100q44 43 55 59l33 50q-5 0 -16 10t-19 12l-139 -76q-137 -75 -209 -75q-66 0 -86 35l-78 139l-106 -96q-51 -36 -125 -37q-69 -1 -91 20
q-27 25 -28 103q-1 46 78 206q101 207 227 240l45 -20q-13 -29 -143 -222q-96 -143 -97 -188q-1 -28 31 -29q13 0 109 54q321 182 428 450l55 -33q33 -20 33 -43q0 -29 -115 -186q-82 -113 -147 -242l43 -20q180 0 319 112q83 67 174 214q97 156 142 198h65v-88zM548 788
l86 7q35 3 78 39q15 13 32 40l29 70l4 14l4 17h60v-250h-375v-518q0 -146 100 -148v-59h-342v59q54 0 76 43q16 48 16 105v373q0 63 -16 102q-13 32 -76 47v59h324z" />
    <glyph glyph-name="circumflex" unicode="&#x2c6;" horiz-adv-x="682" 
d="M249 1385h184l190 -331h-31l-273 213l-229 -213h-30z" />
    <glyph glyph-name="caron" unicode="&#x2c7;" horiz-adv-x="682" 
d="M434 1054h-184l-190 331h31l273 -212l229 212h30z" />
    <glyph glyph-name="breve" unicode="&#x2d8;" horiz-adv-x="682" 
d="M55 1358h31q33 -60 76 -86q73 -43 181 -43t180 42q51 30 71 87h33q-9 -119 -87 -198q-81 -82 -199 -82t-198 82q-78 79 -88 198z" />
    <glyph glyph-name="dotaccent" unicode="&#x2d9;" horiz-adv-x="682" 
d="M342 1337q45 0 77 -32t32 -77t-32 -77t-77 -32t-77 32t-32 77q0 46 31.5 77.5t77.5 31.5z" />
    <glyph glyph-name="ring" unicode="&#x2da;" horiz-adv-x="682" 
d="M341 1424q80 0 136 -55.5t56 -135.5q0 -81 -55.5 -136.5t-136.5 -55.5q-80 0 -135.5 56t-55.5 136t55.5 135.5t135.5 55.5zM341 1355q-51 0 -86.5 -35.5t-35.5 -86.5t35.5 -86.5t86.5 -35.5t86.5 35.5t35.5 86.5t-35.5 86.5t-86.5 35.5z" />
    <glyph glyph-name="ogonek" unicode="&#x2db;" horiz-adv-x="682" 
d="M228 16h52q-26 -52 -26 -99q0 -84 52 -132q69 -63 162 -63q57 0 119 23l21 -32q-136 -76 -231 -76q-93 0 -157 44q-72 51 -72 140q0 119 80 195z" />
    <glyph glyph-name="tilde" unicode="&#x2dc;" horiz-adv-x="682" 
d="M54 1097h-32q8 259 188 259q41 0 75 -13q24 -9 128 -73q86 -53 122 -53q72 0 95 139h31q2 -168 -96 -232q-47 -31 -94 -31q-79 0 -196 80q-89 61 -128 61q-41 0 -65 -36q-11 -17 -28 -101z" />
    <glyph glyph-name="hungarumlaut" unicode="&#x2dd;" horiz-adv-x="682" 
d="M144 1390h187l-220 -346h-33zM457 1390h187l-218 -346h-34z" />
    <glyph glyph-name="tonos" unicode="&#x384;" horiz-adv-x="682" 
d="M377 788l86 7q35 3 78 39q15 13 32 40l29 70l4 14l4 17h60v-250h-375v-518q0 -146 100 -148v-59h-342v59q54 0 76 43q16 48 16 105v373q0 63 -16 102q-13 32 -76 47v59h324z" />
    <glyph glyph-name="dieresistonos" unicode="&#x385;" horiz-adv-x="682" 
d="M557 1390l-294 -345h-34l105 345h223zM596 1262q45 0 76.5 -32t31.5 -77q0 -44 -32 -76t-76 -32q-45 0 -77 31.5t-32 76.5t32 77t77 32zM86 1262q46 0 77.5 -31.5t31.5 -77.5q0 -45 -32 -76.5t-77 -31.5t-76.5 31.5t-31.5 76.5t31.5 77t76.5 32z" />
    <glyph glyph-name="Alphatonos" unicode="&#x386;" 
d="M788 454q-70 -50 -88 -166q-6 -38 -6 -82q-1 -57 8 -130q6 -51 21 -135l-45 -27l-23 -9q-13 0 -22 -3l-15 68l-4 61q-2 37 9 104q12 73 12 103q1 107 -4 127q-15 70 -84 70h-43q-104 0 -160 -96q-42 -72 -43 -170q0 -30 6 -49l-78 -35q-3 -11 -30 -64h-45l-13 27
q-6 12 -10 33q0 137 107 389q97 228 198 402l113 194q8 14 33 123q16 77 53 230l59 -19q17 -5 51 -19q-16 -65 -19 -153t-7 -266q-3 -401 69 -508zM635 732l2 47q1 17 -4 47.5t-19 80.5q-5 -10 -65 -165q-58 -151 -66 -189l86 -18q38 0 53 47q18 54 15 109zM307 788l86 7
q35 3 78 39q15 13 32 40l29 70l4 14l4 17h60v-250h-375v-518q0 -146 100 -148v-59h-342v59q54 0 76 43q16 48 16 105v373q0 63 -16 102q-13 32 -76 47v59h324z" />
    <glyph glyph-name="anoteleia" unicode="&#x387;" horiz-adv-x="569" 
d="M289 944q46 0 78.5 -32.5t32.5 -78.5t-32.5 -78.5t-78.5 -32.5t-78.5 32.5t-32.5 78.5t32.5 78.5t78.5 32.5z" />
    <glyph glyph-name="Epsilontonos" unicode="&#x388;" horiz-adv-x="1421" 
d="M165 1390l-295 -345h-34l105 345h224zM598 1282v-536h298q115 0 161 41.5t51 155.5h37v-472h-37q-12 119 -54 160.5t-158 41.5h-298v-447q0 -92 12 -115q20 -37 99 -37h230q107 0 154 13q70 18 128 81q54 59 112 172h40l-117 -340h-1044v37h48q103 0 133 67q13 30 13 135
v881q0 111 -19 146q-29 53 -127 53h-48v37h1044l16 -297h-39q-26 136 -76.5 179.5t-186.5 43.5h-372z" />
    <glyph glyph-name="Etatonos" unicode="&#x389;" horiz-adv-x="1655" 
d="M165 1390l-295 -345h-34l105 345h224zM598 727h629v388q0 82 -4 101q-10 55 -52 81q-38 22 -89 22h-49v37h581v-37h-49q-103 0 -132 -67q-14 -31 -14 -137v-875q0 -81 4 -101q10 -53 54 -79q37 -23 88 -23h49v-37h-581v37h49q101 0 132 67q13 30 13 136v413h-629v-413
q0 -82 4 -101q9 -54 53 -79q37 -23 89 -23h48v-37h-580v37h48q102 0 133 67q13 30 13 136v875q0 81 -4 101q-10 54 -53 81q-37 22 -89 22h-48v37h580v-37h-48q-103 0 -132 -67q-14 -31 -14 -137v-388z" />
    <glyph glyph-name="Iotatonos" unicode="&#x38a;" horiz-adv-x="842" 
d="M165 1390l-295 -345h-34l105 345h224zM792 37v-37h-580v37h40q115 0 142 72q12 32 12 131v876q0 78 -6 104q-12 59 -56 81q-37 18 -102 18h-30v37h580v-37h-30q-123 0 -150 -70q-14 -35 -14 -133v-876q0 -114 25 -153q33 -50 139 -50h30z" />
    <glyph glyph-name="Omicrontonos" unicode="&#x38c;" 
d="M1039 572q0 -176 -135 -348q-176 -223 -468 -224q-169 0 -261.5 92.5t-92.5 259.5q0 260 125 509q151 302 385 303q155 1 295 -167q151 -181 152 -425zM934 633q0 295 -230 412q-65 33 -82 33l-102 -20q33 -54 40 -124q-148 0 -274 -251q-99 -197 -99 -280
q0 -121 57 -205q65 -97 180 -97q231 0 376 164q133 151 134 368zM67 788l86 7q35 3 78 39q15 13 32 40l29 70l4 14l4 17h60v-250h-375v-518q0 -146 100 -148v-59h-342v59q54 0 76 43q16 48 16 105v373q0 63 -16 102q-13 32 -76 47v59h324z" />
    <glyph glyph-name="Upsilontonos" unicode="&#x38e;" horiz-adv-x="1671" 
d="M165 1390l-295 -345h-34l105 345h224zM1168 1356h474v-37h-26q-124 0 -269 -229l-326 -515v-340q0 -106 22 -144q30 -54 125 -54h45v-37h-576v37h47q93 0 123 55q22 39 22 143v321l-373 568q-56 86 -65 96q-33 41 -85.5 70t-93.5 29v37h579v-37h-30q-126 0 -126 -88
q0 -34 62 -130l283 -437l265 418q60 95 60 139q0 98 -137 98v37z" />
    <glyph glyph-name="Omegatonos" unicode="&#x38f;" horiz-adv-x="1522" 
d="M60 313h37q4 -74 48 -103q36 -24 115 -24h273l-2 67q-187 38 -306 196q-115 153 -115 347q0 267 199 434q188 157 460 157q273 0 454 -152q193 -162 193 -430q0 -204 -110.5 -349.5t-306.5 -202.5l-10 -67h278q153 0 158 127h37v-313h-560l26 302q258 81 258 477
q0 216 -101 364q-116 171 -322 171q-199 0 -315 -166q-103 -148 -103 -355q0 -397 256 -491l19 -302h-560v313zM64 788l86 7q35 3 78 39q15 13 32 40l29 70l4 14l4 17h60v-250h-375v-518q0 -146 100 -148v-59h-342v59q54 0 76 43q16 48 16 105v373q0 63 -16 102
q-13 32 -76 47v59h324z" />
    <glyph glyph-name="iotadieresistonos" unicode="&#x390;" horiz-adv-x="551" 
d="M524 199h36q-19 -227 -192 -227q-54 0 -100 30t-62 80q-15 42 -15 147v331v147q-12 103 -72 103q-28 0 -68 -15l-14 36l276 112h44v-722q0 -72 8 -100q17 -55 71 -55q68 0 88 133zM500 1390l-294 -345h-34l105 345h223zM539 1262q45 0 76.5 -32t31.5 -77q0 -44 -32 -76
t-76 -32q-45 0 -77 31.5t-32 76.5t32 77t77 32zM29 1262q46 0 77.5 -31.5t31.5 -77.5q0 -45 -32 -76.5t-77 -31.5t-76.5 31.5t-31.5 76.5t31.5 77t76.5 32z" />
    <glyph glyph-name="Alpha" unicode="&#x391;" 
d="M788 454q-70 -50 -88 -166q-6 -38 -6 -82q-1 -57 8 -130q6 -51 21 -135l-45 -27l-23 -9q-13 0 -22 -3l-15 68l-4 61q-2 37 9 104q12 73 12 103q1 107 -4 127q-15 70 -84 70h-43q-104 0 -160 -96q-42 -72 -43 -170q0 -30 6 -49l-78 -35q-3 -11 -30 -64h-45l-13 27
q-6 12 -10 33q0 137 107 389q97 228 198 402l113 194q8 14 33 123q16 77 53 230l59 -19q17 -5 51 -19q-16 -65 -19 -153t-7 -266q-3 -401 69 -508zM635 732l2 47q1 17 -4 47.5t-19 80.5q-5 -10 -65 -165q-58 -151 -66 -189l86 -18q38 0 53 47q18 54 15 109z" />
    <glyph glyph-name="Beta" unicode="&#x392;" horiz-adv-x="1366" 
d="M983 1194q1 -133 -132 -288q-65 -76 -237 -226q33 -35 150 -113q177 -119 178 -215q1 -116 -200 -217q-174 -87 -306 -88q-92 -1 -151 41l-43 -88h-66v416q41 150 41 405q0 271 25 340q24 -18 49 -49q12 -15 26 -16q21 12 61 35q35 21 179 108q235 142 297 143
q52 1 92 -51q36 -47 37 -137zM899 1161v66l-42 14q-18 6 -48 6q-67 0 -158 -71l-102 -80q-168 -107 -189 -142q-97 -165 -98 -657l6 -12q15 -31 17 -154q178 26 280 45q265 49 266 186q1 118 -260 153q-81 11 -190 11h-31q-1 9 -10 36l-10 30q246 182 317 250
q117 111 252 319z" />
    <glyph glyph-name="Gamma" unicode="&#x393;" horiz-adv-x="1184" 
d="M1125 1356l5 -317h-39q-8 192 -131 228q-54 15 -155 15h-380v-1035q0 -129 33 -166q35 -40 161 -44v-37h-582v37q127 4 161.5 42t34.5 168v862q0 130 -34.5 168t-161.5 42v37h1088z" />
    <glyph glyph-name="ch520" unicode="&#x394;" horiz-adv-x="1317" 
d="M50 0l608 1387h34l574 -1387h-1216zM1027 85l-405 996l-438 -996h843z" />
    <glyph glyph-name="ch520" unicode="&#x2206;" horiz-adv-x="1317" 
d="M50 0l608 1387h34l574 -1387h-1216zM1027 85l-405 996l-438 -996h843z" />
    <glyph glyph-name="Epsilon" unicode="&#x395;" horiz-adv-x="1251" 
d="M1010 1139l-348 -49q-126 -18 -201 -87q-64 -59 -152 -237v-174l45 -10q21 -5 33 -13q115 0 295 88l131 -22q-54 -69 -154 -103q-80 -27 -188 -28q-87 -1 -162 22q-26 -42 -67 -167q-40 -120 -41 -183q0 -23 14 -45l29 -43q154 41 368 96l60 13q14 0 30 -4l68 -17v-67
q-243 -22 -328 -41l-307 -68l-12 12q-12 12 -12 45l47 228q10 52 35 181q3 12 29 157l24 133q47 271 47 399q0 28 -4 49q85 -18 114 -53q8 -10 17 -35q211 64 350 66q46 0 68 -2q76 -2 172 -41z" />
    <glyph glyph-name="Zeta" unicode="&#x396;" horiz-adv-x="1251" 
d="M1134 95q-25 -47 -44 -99l-39 -107h-63l-4 43q0 18 2 23q0 13 2 17l-41 61q-38 -8 -132 -19q-41 0 -62 -1l-107 -5l-208 3q-61 1 -141 9q-47 5 -120 13q0 13 -3.5 22t-8.5 16l-9 26q0 51 89 129q43 35 111 91q50 41 113 91q41 48 41 97v28l128 65q60 31 136 82
q63 43 113 87q139 123 185 264q-49 0 -107 6q-160 17 -195 17q-80 1 -234 -20q-158 -22 -235 -22q0 -163 -83 -312q-40 75 -43 176l107 406h62l3 -33v-87l-3 -47q21 -5 74 -12l94 -4q115 -5 295 18l149 19q72 0 128 -52q48 -45 48 -94q0 -54 -52 -118l-321 -319l84 -104
l-90 -7q-18 -1 -37 5l-20 4q-50 0 -128 -56q-90 -65 -286 -257v-58q83 15 117 15l93 -11q51 -6 100 -6q106 0 167 17q36 10 62 43q94 0 124 -8l78 -21q7 0 8 52t41 164h62v-230z" />
    <glyph glyph-name="Eta" unicode="&#x397;" 
d="M1116 1247q0 -102 -58 -341l-38 -156q-15 -61 -39 -156q-14 -52 -41 -156q-9 -39 -37 -303q0 -87 -18 -135q-41 115 -41 201q0 71 19 126l42 122q0 24 -49 24q-463 0 -567 -92q-68 -61 -70 -336l-47 -14l-41 -8l-14 71q-11 56 -11 62q0 51 27 100l64 117l69 606
q27 233 39 268q10 -3 27 -10q11 -2 39 -10q0 -58 -29 -289q-32 -253 -57 -369l436 -63q219 0 258 371q27 259 72 370h65z" />
    <glyph glyph-name="Theta" unicode="&#x398;" 
d="M753 1387q282 0 470 -212q181 -204 181 -490q0 -296 -184 -502q-191 -214 -483 -214q-297 0 -483 211q-178 202 -178 503q0 296 189 498q194 206 488 206zM734 1314q-231 0 -342 -210q-87 -164 -87 -417q0 -256 87 -427q112 -220 343 -220q237 0 350 202q90 160 90 417
q0 271 -85 437q-112 218 -356 218zM499 920h38q0 -89 37 -124.5t127 -35.5h81q88 0 124.5 36t36.5 124h38v-483h-38q0 88 -37 123.5t-126 35.5h-83q-87 0 -123.5 -36t-36.5 -123h-38v483z" />
    <glyph glyph-name="Theta" unicode="&#x472;" 
d="M753 1387q282 0 470 -212q181 -204 181 -490q0 -296 -184 -502q-191 -214 -483 -214q-297 0 -483 211q-178 202 -178 503q0 296 189 498q194 206 488 206zM734 1314q-231 0 -342 -210q-87 -164 -87 -417q0 -256 87 -427q112 -220 343 -220q237 0 350 202q90 160 90 417
q0 271 -85 437q-112 218 -356 218zM499 920h38q0 -89 37 -124.5t127 -35.5h81q88 0 124.5 36t36.5 124h38v-483h-38q0 88 -37 123.5t-126 35.5h-83q-87 0 -123.5 -36t-36.5 -123h-38v483z" />
    <glyph glyph-name="Iota" unicode="&#x399;" horiz-adv-x="682" 
d="M352 96q0 -41 -43 -73q-12 -9 -43 -23l-14 8q-36 10 -51 10l-45 746l22 393h6l52 4q35 3 51 -26q7 -17 8 -115q0 -39 -5 -118l-9 -140q-4 -80 -5 -162q-1 -46 -10 -121q26 -166 47 -243z" />
    <glyph glyph-name="Kappa" unicode="&#x39a;" 
d="M922 1094q25 0 26 -19q1 -31 -96 -133l-190 -199l-306 -305l136 -157q56 -78 192 -304v-65q-73 44 -223 246q-75 101 -172 170q-48 -116 -49 -148q-1 -33 49 -114l-43 -43h-88q0 9 -1 16t-10 41q-12 45 -12 63q85 263 88 865l88 20q25 -86 25 -172q0 -48 -13 -136
q-13 -93 -14 -136q-1 -27 2 -37q102 66 238 215q164 179 176 192q139 139 197 140z" />
    <glyph glyph-name="Lambda" unicode="&#x39b;" horiz-adv-x="1485" 
d="M28 0v37q85 13 131 64q34 38 73 132l473 1154h37l504 -1160q48 -110 75 -139q46 -48 143 -51v-37h-553v37q150 13 150 94q0 47 -46 153l-345 795l-320 -785q-45 -110 -45 -160q0 -87 141 -97v-37h-418z" />
    <glyph glyph-name="Mu" unicode="&#x39c;" horiz-adv-x="1821" 
d="M1249 1045q-122 -451 -135 -504q-85 -346 -87 -511q-1 -45 7 -75q3 -28 23 -65h-96q-12 48 -39 82l-12 15q0 89 49 267q48 174 51 335l-314 -290h-144q0 91 -34 219q-42 156 -88 264q-71 -145 -116 -487q-30 -227 -194 -308q-14 17 -25 38l19 171q17 151 82 415
q68 277 163 507h71l104 -251q39 -94 67 -222q21 -97 23 -202q14 0 18.5 -1t17.5 -7l23 -11q63 0 227 187q193 219 244 459z" />
    <glyph glyph-name="Nu" unicode="&#x39d;" 
d="M1071 905q-185 -303 -272 -506l-125 -293q-45 -104 -107 -141q-67 68 -95 225q-17 109 -56 336q-32 174 -111 248q0 -109 -48 -484t-62 -413l-52 33q-14 29 -16 98l18 240q3 35 15 167l16 163q4 31 19 159q27 241 45 279q150 -36 192 -144q15 -38 36 -268.5t99 -419.5
q26 26 117 164q305 463 342 733h45v-176z" />
    <glyph glyph-name="Xi" unicode="&#x39e;" horiz-adv-x="1317" 
d="M121 1356h1075v-331h-38q-11 157 -205 157h-595q-191 0 -199 -157h-38v331zM305 899h38q0 -91 49 -122q38 -24 136 -24h261q99 0 136 24q49 30 49 122h37v-449h-37q0 90 -49 122q-38 25 -136 25h-261q-98 0 -137 -25q-48 -31 -48 -122h-38v449zM79 381h37v-24
q0 -138 91 -166q40 -13 128 -13h658q109 0 154 35q53 40 53 144v24h38v-381h-1159v381z" />
    <glyph glyph-name="Omicron" unicode="&#x39f;" 
d="M1039 572q0 -176 -135 -348q-176 -223 -468 -224q-169 0 -261.5 92.5t-92.5 259.5q0 260 125 509q151 302 385 303q155 1 295 -167q151 -181 152 -425zM934 633q0 295 -230 412q-65 33 -82 33l-102 -20q33 -54 40 -124q-148 0 -274 -251q-99 -197 -99 -280
q0 -121 57 -205q65 -97 180 -97q231 0 376 164q133 151 134 368z" />
    <glyph glyph-name="Pi" unicode="&#x3a0;" 
d="M1054 1282h-629v-1035q0 -130 34 -168t162 -42v-37h-584v37q127 4 161.5 42t34.5 168v862q0 130 -34.5 168t-161.5 42v37h1405v-37q-127 -4 -161.5 -42t-34.5 -168v-862q0 -130 34.5 -168t161.5 -42v-37h-583v37q127 4 161 42t34 168v1035z" />
    <glyph glyph-name="Rho" unicode="&#x3a1;" horiz-adv-x="1139" 
d="M962 946q1 -112 -164 -291q-144 -155 -267 -222q-75 -41 -160 -68q-34 -11 -74 -11h-23q-24 -24 -34 -70q-5 -22 -9 -99q-2 -59 -23 -101q-23 -47 -69 -84q0 67 28.5 179.5t29.5 161.5q1 28 -9 57q-6 25 -31 56q80 67 116 294q45 288 82 360q89 174 314 174q90 0 186 -97
q106 -108 107 -239zM885 976q0 56 -55 125q-65 82 -151 82q-217 1 -268 -247l-96 -464q6 -2 20 -8q11 -5 19 -10q187 45 369 243q162 176 162 279z" />
    <glyph glyph-name="Sigma" unicode="&#x3a3;" horiz-adv-x="1192" 
d="M32 1356h1017l27 -341h-38q-13 183 -108 232q-47 24 -149 24h-463l413 -530l-470 -555h515q146 0 215 46q75 50 110 187l38 -9l-58 -410h-1049v36l522 616l-522 668v36z" />
    <glyph glyph-name="Tau" unicode="&#x3a4;" horiz-adv-x="1251" 
d="M1197 1082l-211 4q-16 0 -78 -2q-27 0 -85 -2q-59 -5 -84 -22q-53 -36 -104 -410q-42 -304 -43 -494q0 -28 2 -32v-102l-84 -22l-24 65l78 653q16 122 51 280q-76 22 -154 23q-39 0 -138 -15q-57 -9 -82 -9h-20q-48 0 -106 22l161 43q167 45 376 82q224 40 418 43
q17 0 25 -0.5t37 -7.5l65 -15v-82z" />
    <glyph glyph-name="Upsilon" unicode="&#x3a5;" 
d="M817 1218q0 -106 -80 -305l-165 -410q-104 -258 -150 -481q-24 3 -36 7q-41 8 -69 16t-62 20v102q111 33 177 177q39 87 117 262q16 35 19 40v62q-4 1 -16 9q-7 8 -17 11q-27 -18 -82 -51q-92 -51 -167 -51q-85 0 -135 86q-42 72 -42 164q0 28 27 149l78 349q80 0 81 -84
q1 -58 -50 -218q-53 -164 -54 -239q-1 -36 29 -79q31 -46 66 -46q139 0 247 125q68 79 146 248.5t95 186.5l22 -9q21 -12 21 -41z" />
    <glyph glyph-name="Phi" unicode="&#x3a6;" horiz-adv-x="1497" 
d="M844 191q13 -154 192 -154v-37h-576v37q179 0 192 154q-236 0 -400 123q-181 136 -181 364q0 231 181 362q157 115 400 125q-12 154 -192 154v37h576v-37q-179 0 -192 -154q242 -8 401 -123q180 -132 180 -364q0 -229 -181 -364q-164 -123 -400 -123zM652 1110
q-201 -12 -288 -132q-77 -106 -77 -317q0 -394 365 -415v864zM844 1110v-864q201 9 289 131q77 107 77 317q0 395 -366 416z" />
    <glyph glyph-name="Chi" unicode="&#x3a7;" 
d="M936 992q-97 -97 -166 -179q-127 -151 -128 -226q-1 -85 210 -531q-6 0 -16 -11q-6 -9 -38 -10q-43 -1 -117 204q-50 140 -100 212q-157 -222 -204 -332l-106 -249h-43l-22 43q0 16 123.5 271t125.5 330q15 6 43 21q42 29 43 74q1 48 -82 191q-65 112 -151 233l-82 115
q0 19 15 44l30 50q121 -48 176 -211q80 -238 134 -309q48 33 89 87q70 91 160 203z" />
    <glyph glyph-name="Psi" unicode="&#x3a8;" horiz-adv-x="1511" 
d="M852 656q244 0 301 158q23 67 30 220q7 168 71 247q73 91 234 91v-38q-71 -5 -90 -80q-8 -32 -8 -136q0 -179 -31 -269q-44 -129 -172 -197q-122 -65 -335 -70v-317q0 -96 5 -118q12 -63 66 -89q43 -21 134 -21v-37h-602v37q161 2 191 74q14 35 14 154v317
q-402 9 -495 237q-43 103 -43 300q0 105 -8 135q-18 73 -90 80v38q196 -4 263 -138q37 -75 42 -200q6 -135 19 -185q26 -96 105 -146q72 -47 207 -47v436q0 95 -4 118q-13 63 -66 88q-43 20 -135 21v37h602v-37q-163 -2 -191 -75q-14 -35 -14 -152v-436z" />
    <glyph glyph-name="Psi" unicode="&#x470;" horiz-adv-x="1511" 
d="M852 656q244 0 301 158q23 67 30 220q7 168 71 247q73 91 234 91v-38q-71 -5 -90 -80q-8 -32 -8 -136q0 -179 -31 -269q-44 -129 -172 -197q-122 -65 -335 -70v-317q0 -96 5 -118q12 -63 66 -89q43 -21 134 -21v-37h-602v37q161 2 191 74q14 35 14 154v317
q-402 9 -495 237q-43 103 -43 300q0 105 -8 135q-18 73 -90 80v38q196 -4 263 -138q37 -75 42 -200q6 -135 19 -185q26 -96 105 -146q72 -47 207 -47v436q0 95 -4 118q-13 63 -66 88q-43 20 -135 21v37h602v-37q-163 -2 -191 -75q-14 -35 -14 -152v-436z" />
    <glyph glyph-name="Omega" unicode="&#x3a9;" horiz-adv-x="1522" 
d="M60 313h37q4 -74 48 -103q36 -24 115 -24h273l-2 67q-187 38 -306 196q-115 153 -115 347q0 267 199 434q188 157 460 157q273 0 454 -152q193 -162 193 -430q0 -204 -110.5 -349.5t-306.5 -202.5l-10 -67h278q153 0 158 127h37v-313h-560l26 302q258 81 258 477
q0 216 -101 364q-116 171 -322 171q-199 0 -315 -166q-103 -148 -103 -355q0 -397 256 -491l19 -302h-560v313z" />
    <glyph glyph-name="Iotadieresis" unicode="&#x3aa;" horiz-adv-x="682" 
d="M352 96q0 -41 -43 -73q-12 -9 -43 -23l-14 8q-36 10 -51 10l-45 746l22 393h6l52 4q35 3 51 -26q7 -17 8 -115q0 -39 -5 -118l-9 -140q-4 -80 -5 -162q-1 -46 -10 -121q26 -166 47 -243zM1281 1735q-21 -34 -51 -94q-20 -40 -60 -80q-11 59 -28 106l-17 47q36 36 88 154
h68v-133zM931 1868l-45 -86q-31 -59 -31 -90v-37l8 -51q6 0 -36 -29q-14 -9 -29 -12q-21 0 -51 12l-15 8v131l111 154h88zM1062 1299q-69 -66 -141 -92q-60 -21 -121 -19l-99 4q-100 4 -169 -98q-39 -58 -84 -191l80 -13q3 -1 49 -3q102 -6 110 -6l121 4q40 1 92 -12
q44 -16 96 -56q-88 -47 -196 -47q-40 0 -107 9q-141 19 -168 20h-32q-15 0 -33.5 -4t-50.5 -21t-64 -71q-105 -178 -137 -215l70 -58q16 -13 28 -12l53 4l68 2q110 3 197 33l227 78q8 0 13.5 -1t27.5 -7l59 -17q-28 -37 -186 -98q-188 -72 -350 -74l-111 21q-114 22 -162 43
q29 156 86 239q79 115 105 191q63 181 115 575q88 -47 153 -94q56 -40 66 -43q41 9 145 21q66 0 250 8z" />
    <glyph glyph-name="Upsilondieresis" unicode="&#x3ab;" 
d="M817 1218q0 -106 -80 -305l-165 -410q-104 -258 -150 -481q-24 3 -36 7q-41 8 -69 16t-62 20v102q111 33 177 177q39 87 117 262q16 35 19 40v62q-4 1 -16 9q-7 8 -17 11q-27 -18 -82 -51q-92 -51 -167 -51q-85 0 -135 86q-42 72 -42 164q0 28 27 149l78 349q80 0 81 -84
q1 -58 -50 -218q-53 -164 -54 -239q-1 -36 29 -79q31 -46 66 -46q139 0 247 125q68 79 146 248.5t95 186.5l22 -9q21 -12 21 -41zM1700 1735q-21 -34 -51 -94q-20 -40 -60 -80q-11 59 -28 106l-17 47q36 36 88 154h68v-133zM1350 1868l-45 -86q-31 -59 -31 -90v-37l8 -51
q6 0 -36 -29q-14 -9 -29 -12q-21 0 -51 12l-15 8v131l111 154h88zM1481 1299q-69 -66 -141 -92q-60 -21 -121 -19l-99 4q-100 4 -169 -98q-39 -58 -84 -191l80 -13q3 -1 49 -3q102 -6 110 -6l121 4q40 1 92 -12q44 -16 96 -56q-88 -47 -196 -47q-40 0 -107 9
q-141 19 -168 20h-32q-15 0 -33.5 -4t-50.5 -21t-64 -71q-105 -178 -137 -215l70 -58q16 -13 28 -12l53 4l68 2q110 3 197 33l227 78q8 0 13.5 -1t27.5 -7l59 -17q-28 -37 -186 -98q-188 -72 -350 -74l-111 21q-114 22 -162 43q29 156 86 239q79 115 105 191q63 181 115 575
q88 -47 153 -94q56 -40 66 -43q41 9 145 21q66 0 250 8z" />
    <glyph glyph-name="alphatonos" unicode="&#x3ac;" horiz-adv-x="1073" 
d="M788 916h170l-103 -463q-28 -128 -41 -162q40 -184 116 -184q90 0 93 124h36q-2 -92 -30 -162q-39 -97 -116 -97q-65 0 -99 82q-11 26 -36 137q-104 -219 -340 -219q-186 0 -277 157q-74 128 -74 328q0 189 81 324q96 162 273 162q118 0 192 -102q50 -68 94 -209z
M700 524q-100 342 -244 342q-183 0 -183 -428q0 -406 175 -406q153 0 225 358zM560 788l86 7q35 3 78 39q15 13 32 40l29 70l4 14l4 17h60v-250h-375v-518q0 -146 100 -148v-59h-342v59q54 0 76 43q16 48 16 105v373q0 63 -16 102q-13 32 -76 47v59h324z" />
    <glyph glyph-name="epsilontonos" unicode="&#x3ad;" horiz-adv-x="860" 
d="M316 485q-197 70 -197 212q0 125 126 192q101 54 238 54q102 0 188 -31q119 -42 119 -127q0 -34 -26 -59.5t-60 -25.5q-56 0 -92 78q-50 108 -150 108q-85 0 -134 -57q-47 -53 -47 -140q0 -183 189 -183q18 0 46 4q43 6 70 6q61 0 61 -35q0 -39 -62 -39q-25 0 -66 7
q-36 6 -51 6q-200 0 -200 -204q0 -98 51 -157q54 -63 150 -63q119 0 158 123q36 115 110 115q36 0 62.5 -25.5t26.5 -61.5q0 -106 -129 -165q-100 -45 -220 -45q-148 0 -265 65q-141 78 -141 214q0 159 245 234zM517 788l86 7q35 3 78 39q15 13 32 40l29 70l4 14l4 17h60
v-250h-375v-518q0 -146 100 -148v-59h-342v59q54 0 76 43q16 48 16 105v373q0 63 -16 102q-13 32 -76 47v59h324z" />
    <glyph glyph-name="etatonos" unicode="&#x3ae;" horiz-adv-x="1071" 
d="M380 746q157 197 308 197q236 0 236 -347v-742q0 -190 38 -292h-169q-34 94 -34 344v712q0 202 -144 202q-120 0 -235 -133v-687h-165v687q0 163 -81 163q-71 0 -87 -140h-36q19 233 192 233q82 0 131 -58q44 -54 46 -139zM572 788l86 7q35 3 78 39q15 13 32 40l29 70
l4 14l4 17h60v-250h-375v-518q0 -146 100 -148v-59h-342v59q54 0 76 43q16 48 16 105v373q0 63 -16 102q-13 32 -76 47v59h324z" />
    <glyph glyph-name="iotatonos" unicode="&#x3af;" horiz-adv-x="551" 
d="M524 199h36q-19 -227 -192 -227q-54 0 -100 30t-62 80q-15 42 -15 147v331v147q-12 103 -72 103q-28 0 -68 -15l-14 36l276 112h44v-722q0 -72 8 -100q17 -55 71 -55q68 0 88 133zM320 788l86 7q35 3 78 39q15 13 32 40l29 70l4 14l4 17h60v-250h-375v-518
q0 -146 100 -148v-59h-342v59q54 0 76 43q16 48 16 105v373q0 63 -16 102q-13 32 -76 47v59h324z" />
    <glyph glyph-name="upsilondieresistonos" unicode="&#x3b0;" horiz-adv-x="1014" 
d="M582 943q174 -21 268 -153q86 -121 86 -303q0 -196 -113 -348q-124 -167 -314 -167q-90 0 -170 48q-85 50 -114 132q-27 75 -27 211v331q0 73 -8 101q-17 55 -72 55q-67 0 -88 -134h-36q13 227 195 227q119 0 159 -105q15 -42 15 -152v-336q0 -107 7 -148q15 -85 68 -127
q47 -38 104 -38q126 0 180 174q34 112 34 274q0 159 -26 246q-41 139 -154 176zM723 1390l-294 -345h-34l105 345h223zM762 1262q45 0 76.5 -32t31.5 -77q0 -44 -32 -76t-76 -32q-45 0 -77 31.5t-32 76.5t32 77t77 32zM252 1262q46 0 77.5 -31.5t31.5 -77.5q0 -45 -32 -76.5
t-77 -31.5t-76.5 31.5t-31.5 76.5t31.5 77t76.5 32z" />
    <glyph glyph-name="alpha" unicode="&#x3b1;" horiz-adv-x="1073" 
d="M788 916h170l-103 -463q-28 -128 -41 -162q40 -184 116 -184q90 0 93 124h36q-2 -92 -30 -162q-39 -97 -116 -97q-65 0 -99 82q-11 26 -36 137q-104 -219 -340 -219q-186 0 -277 157q-74 128 -74 328q0 189 81 324q96 162 273 162q118 0 192 -102q50 -68 94 -209z
M700 524q-100 342 -244 342q-183 0 -183 -428q0 -406 175 -406q153 0 225 358z" />
    <glyph glyph-name="beta" unicode="&#x3b2;" horiz-adv-x="1042" 
d="M275 -438h-165q36 169 36 306v1089q0 151 21 223q31 107 129 177q88 63 221 63q159 0 261 -79q112 -88 112 -242q0 -180 -171 -295q255 -120 255 -377q0 -123 -58 -234q-62 -119 -165 -174q-89 -47 -212 -47q-140 0 -228 105v-186q0 -192 -36 -329zM311 167
q78 -129 218 -129q135 0 203 106q58 89 58 232q0 103 -38 211q-41 119 -110 181q-60 -15 -108 -15q-101 0 -101 53q0 48 85 48q53 0 132 -24q71 120 71 261q0 109 -45 178q-52 82 -155 82q-145 0 -191 -135q-19 -56 -19 -182v-867z" />
    <glyph glyph-name="gamma" unicode="&#x3b3;" horiz-adv-x="905" 
d="M681 916h206l-401 -841q15 -135 15 -236q0 -281 -105 -281q-76 0 -76 118q0 154 112 386q-33 215 -55 327q-43 217 -87 311q-42 88 -119 88q-126 0 -135 -188h-36q0 330 196 330q106 0 173 -152q50 -113 79 -312q14 -125 29 -250z" />
    <glyph glyph-name="delta" unicode="&#x3b4;" horiz-adv-x="965" 
d="M494 853q-50 56 -139 134q-83 73 -110 106q-56 69 -56 138q0 101 104 151q79 38 192 38q110 0 202 -33q127 -45 127 -136q0 -35 -22.5 -61.5t-57.5 -26.5q-39 0 -108 68q-91 89 -106 100q-44 28 -102 28q-63 0 -111 -26q-58 -32 -58 -91q0 -64 94 -141q13 -10 146 -102
q150 -103 205 -151q107 -93 156 -198q45 -96 45 -203q0 -185 -127 -327q-132 -148 -315 -148q-175 0 -282 125q-101 119 -101 297q0 182 123 310q117 122 301 149zM538 807q-287 -47 -287 -394q0 -136 51 -242q64 -135 187 -135q119 0 180 125q47 97 47 229q0 236 -178 417z
" />
    <glyph glyph-name="epsilon" unicode="&#x3b5;" horiz-adv-x="860" 
d="M316 485q-197 70 -197 212q0 125 126 192q101 54 238 54q102 0 188 -31q119 -42 119 -127q0 -34 -26 -59.5t-60 -25.5q-56 0 -92 78q-50 108 -150 108q-85 0 -134 -57q-47 -53 -47 -140q0 -183 189 -183q18 0 46 4q43 6 70 6q61 0 61 -35q0 -39 -62 -39q-25 0 -66 7
q-36 6 -51 6q-200 0 -200 -204q0 -98 51 -157q54 -63 150 -63q119 0 158 123q36 115 110 115q36 0 62.5 -25.5t26.5 -61.5q0 -106 -129 -165q-100 -45 -220 -45q-148 0 -265 65q-141 78 -141 214q0 159 245 234z" />
    <glyph glyph-name="zeta" unicode="&#x3b6;" horiz-adv-x="848" 
d="M354 1415l16 -36q-99 -41 -99 -117q0 -50 34.5 -79.5t85.5 -29.5q5 0 15 1q66 69 156 133q115 81 180 81q46 0 46 -37q0 -66 -94 -130.5t-261 -90.5q-270 -277 -270 -651q0 -156 59 -228q66 -79 218 -79q4 0 78 4q56 3 94 3q220 0 220 -260q0 -150 -73 -242
q-80 -99 -226 -99q-131 0 -131 88q0 69 70 69q21 0 75 -17q47 -15 82 -15q61 0 100 49q35 46 35 109q0 130 -172 130q-13 0 -102 -6q-29 -2 -61 -2q-359 0 -359 436q0 402 292 711q-174 5 -174 146q0 115 166 159z" />
    <glyph glyph-name="eta" unicode="&#x3b7;" horiz-adv-x="1071" 
d="M380 746q157 197 308 197q236 0 236 -347v-742q0 -190 38 -292h-169q-34 94 -34 344v712q0 202 -144 202q-120 0 -235 -133v-687h-165v687q0 163 -81 163q-71 0 -87 -140h-36q19 233 192 233q82 0 131 -58q44 -54 46 -139z" />
    <glyph glyph-name="theta" unicode="&#x3b8;" horiz-adv-x="981" 
d="M500 1420q210 0 319 -268q82 -200 82 -444q0 -250 -85 -458q-113 -278 -329 -278q-210 0 -322 267q-84 202 -84 444q0 253 86 461q114 276 333 276zM715 730q0 632 -222 632q-228 0 -228 -632h450zM265 668q0 -638 225 -638q224 0 225 638h-450z" />
    <glyph glyph-name="theta" unicode="&#x473;" horiz-adv-x="981" 
d="M500 1420q210 0 319 -268q82 -200 82 -444q0 -250 -85 -458q-113 -278 -329 -278q-210 0 -322 267q-84 202 -84 444q0 253 86 461q114 276 333 276zM715 730q0 632 -222 632q-228 0 -228 -632h450zM265 668q0 -638 225 -638q224 0 225 638h-450z" />
    <glyph glyph-name="iota" unicode="&#x3b9;" horiz-adv-x="551" 
d="M524 199h36q-19 -227 -192 -227q-54 0 -100 30t-62 80q-15 42 -15 147v331v147q-12 103 -72 103q-28 0 -68 -15l-14 36l276 112h44v-722q0 -72 8 -100q17 -55 71 -55q68 0 88 133z" />
    <glyph glyph-name="kappa" unicode="&#x3ba;" horiz-adv-x="1032" 
d="M341 943v-437l260 275q153 162 291 162q118 0 118 -90q0 -36 -24 -60.5t-60 -24.5q-27 0 -76.5 26t-74.5 26q-52 0 -115 -68l-175 -189l330 -414q86 -108 228 -112v-37h-324l-378 491v-491h-166v560v146q-12 104 -72 104q-28 0 -68 -15l-14 36l276 112h44z" />
    <glyph glyph-name="lambda" unicode="&#x3bb;" horiz-adv-x="993" 
d="M967 288h36q0 -302 -180 -302q-105 0 -162 105q-32 59 -63 197l-86 388l-298 -676h-189l428 922q-67 351 -201 351q-137 0 -147 -178h-36q2 117 43 206q54 118 156 118q122 0 187 -196q33 -101 110 -446l71 -317q32 -144 58 -202q56 -128 146 -128q112 0 127 158z" />
    <glyph glyph-name="mu" unicode="&#x3bc;" horiz-adv-x="1098" 
d="M728 166q-181 -194 -315 -194q-86 0 -160 66v-53q0 -94 28 -185q32 -105 32 -136q0 -45 -28 -75.5t-73 -30.5q-46 0 -72 38q-24 33 -24 81q0 38 26 130q30 106 30 202v907h165v-593q0 -153 71 -200q39 -27 89 -27q89 0 231 122v698h166v-695q0 -155 79 -155q68 0 88 133
h36q-19 -227 -192 -227q-83 0 -130 57q-44 52 -47 137z" />
    <glyph glyph-name="nu" unicode="&#x3bd;" horiz-adv-x="926" 
d="M413 -28l-221 656q-64 191 -157 191q-30 0 -66 -13l-14 35l249 102h44l263 -769l163 333q45 92 45 141q0 42 -17 115q-13 55 -13 81q0 99 107 99q95 0 95 -90t-132 -340l-286 -541h-60z" />
    <glyph glyph-name="xi" unicode="&#x3be;" horiz-adv-x="913" 
d="M364 1419v-38q-98 -14 -98 -86q0 -78 112 -100q61 66 139 115q95 59 167 59q51 0 51 -46q0 -82 -135 -137q-107 -43 -204 -44q-82 -83 -82 -176q0 -98 96 -161q144 79 304 79q110 0 110 -55q0 -89 -225 -89q-91 0 -177 13q-263 -168 -263 -381q0 -218 280 -218q30 0 70 3
q119 9 155 9q231 0 231 -273q0 -139 -75 -233q-82 -102 -218 -102q-138 0 -138 91q0 66 67 66q17 0 51 -11q61 -20 99 -20q69 0 109 49q37 45 37 116q0 127 -128 127q-35 0 -72 -2q-130 -7 -167 -7q-172 0 -279 99q-111 102 -111 272q0 256 282 429q-102 81 -102 185
q0 98 86 195q-143 36 -143 146q0 123 171 126z" />
    <glyph glyph-name="omicron" unicode="&#x3bf;" horiz-adv-x="1024" 
d="M836 403q1 -167 -156 -290q-143 -112 -315 -113q-248 -1 -250 305q-1 132 229 295q199 141 262 141q90 0 164 -128q65 -112 66 -210zM770 391q0 64 -35 131q-45 87 -119 88q-80 1 -225 -156t-145 -237v-27q0 -123 110 -124q93 -1 251 117q163 121 163 208z" />
    <glyph glyph-name="pi" unicode="&#x3c0;" horiz-adv-x="1034" 
d="M993 916v-146h-232l-20 -304q-6 -91 -6 -137q0 -95 13 -132q23 -68 98 -68q96 0 114 121h36q-33 -278 -222 -278q-195 0 -195 214q0 72 21 296l27 288h-212q-14 -238 -30 -382q-33 -295 -85 -367q-36 -49 -97 -49q-46 0 -76 26q-33 27 -33 72q0 42 54 115q95 128 134 277
q27 102 43 308h-68q-77 0 -126 -37q-39 -30 -82 -104h-36q59 218 170 266q48 21 172 21h638z" />
    <glyph glyph-name="rho" unicode="&#x3c1;" horiz-adv-x="1022" 
d="M260 -438h-171q37 115 37 348v564q0 203 114 333q119 136 319 136q185 0 293 -130q100 -121 100 -310q0 -196 -119 -356q-131 -175 -321 -175q-116 0 -221 74v-131q0 -209 -31 -353zM291 278q0 -111 57 -177q61 -71 170 -71q134 0 210 121q64 102 64 245q0 170 -85 301
q-98 152 -260 152q-98 0 -132 -74q-24 -50 -24 -162v-335z" />
    <glyph glyph-name="sigma1" unicode="&#x3c2;" horiz-adv-x="811" 
d="M70 358q0 228 135 400q146 185 369 185q197 0 197 -116q0 -29 -22 -49.5t-51 -20.5q-36 0 -107 26q-81 30 -136 30q-150 0 -235 -134q-72 -115 -72 -274q0 -248 277 -248q24 0 72 1.5t72 1.5q213 0 213 -255q0 -146 -76 -242q-82 -105 -224 -105q-133 0 -133 89
q0 65 64 65q23 0 98 -21q35 -10 56 -10q65 0 106 55q37 50 37 117q0 123 -110 123q-23 0 -48 -2q-87 -7 -123 -7q-169 0 -267 112q-92 107 -92 279z" />
    <glyph glyph-name="sigma" unicode="&#x3c3;" horiz-adv-x="1104" 
d="M1063 916v-146h-390q124 -71 202 -174q88 -118 88 -247q0 -163 -130 -273q-124 -104 -290 -104q-197 0 -337 155q-136 150 -136 349q0 126 64 237q68 117 181 163q97 40 263 40h485zM606 770h-35q-329 0 -329 -308q0 -150 80 -279q92 -149 234 -149q113 0 179 115
q54 96 54 218q0 219 -183 403z" />
    <glyph glyph-name="tau" unicode="&#x3c4;" horiz-adv-x="823" 
d="M493 770l-29 -287q-7 -69 -7 -150q0 -95 13 -133q23 -71 97 -71q96 0 114 121h37q-33 -278 -221 -278q-197 0 -197 226q0 113 22 284l37 288h-99q-85 0 -130 -29.5t-82 -108.5h-36q60 205 160 262q40 22 119 22h492v-146h-290z" />
    <glyph glyph-name="upsilon" unicode="&#x3c5;" horiz-adv-x="1014" 
d="M582 943q174 -21 268 -153q86 -121 86 -303q0 -196 -113 -348q-124 -167 -314 -167q-90 0 -170 48q-85 50 -114 132q-27 75 -27 211v331q0 73 -8 101q-17 55 -72 55q-67 0 -88 -134h-36q13 227 195 227q119 0 159 -105q15 -42 15 -152v-336q0 -107 7 -148q15 -85 68 -127
q47 -38 104 -38q126 0 180 174q34 112 34 274q0 159 -26 246q-41 139 -154 176z" />
    <glyph glyph-name="phi" unicode="&#x3c6;" horiz-adv-x="1182" 
d="M474 943v-36q-221 -57 -221 -418q0 -391 275 -460v581q0 112 9 157q17 83 78 132q54 44 131 44q164 0 271 -152q95 -136 95 -306q0 -216 -130 -354.5t-346 -157.5v-411h-108v411q-214 18 -337 159q-122 138 -122 354q0 190 107 316q112 133 298 141zM636 29
q315 47 315 407q0 129 -50 243q-63 148 -176 148q-70 0 -83 -79q-6 -32 -6 -126v-593z" />
    <glyph glyph-name="chi" unicode="&#x3c7;" horiz-adv-x="909" 
d="M718 916h175l-364 -716l66 -279q25 -104 52 -146q45 -67 130 -67q146 0 156 170h37q-2 -124 -43 -209q-55 -111 -166 -111q-101 0 -156 85q-33 53 -63 178l-66 278l-267 -537h-175l387 769l-56 236q-26 109 -44 144q-39 76 -115 76q-117 0 -145 -178h-37q0 123 36 207
q50 114 157 114q96 0 147 -99q24 -46 57 -183l52 -216z" />
    <glyph glyph-name="psi" unicode="&#x3c8;" horiz-adv-x="1282" 
d="M695 32q129 38 179 189q23 68 44 274q20 192 23 207q24 136 81 186q49 42 129 42q47 0 102 -14v-38q-11 1 -19 1q-68 0 -100 -132q-10 -38 -25 -180q-17 -151 -34 -219q-29 -111 -94 -198q-100 -133 -286 -171v-417h-109v417q-193 40 -289 177q-65 90 -92 203
q-17 66 -34 224q-14 129 -25 172q-32 124 -98 124q-9 0 -20 -1v38q55 14 102 14q155 0 196 -155q18 -69 34 -253q20 -218 41 -289q50 -162 185 -201v898h109v-898z" />
    <glyph glyph-name="psi" unicode="&#x471;" horiz-adv-x="1282" 
d="M695 32q129 38 179 189q23 68 44 274q20 192 23 207q24 136 81 186q49 42 129 42q47 0 102 -14v-38q-11 1 -19 1q-68 0 -100 -132q-10 -38 -25 -180q-17 -151 -34 -219q-29 -111 -94 -198q-100 -133 -286 -171v-417h-109v417q-193 40 -289 177q-65 90 -92 203
q-17 66 -34 224q-14 129 -25 172q-32 124 -98 124q-9 0 -20 -1v38q55 14 102 14q155 0 196 -155q18 -69 34 -253q20 -218 41 -289q50 -162 185 -201v898h109v-898z" />
    <glyph glyph-name="omega" unicode="&#x3c9;" horiz-adv-x="1348" 
d="M675 170q-87 -198 -266 -198q-161 0 -255 150q-79 128 -79 298q0 329 226 463q101 60 269 60v-37q-171 0 -251 -158q-61 -120 -61 -310q0 -395 180 -395q43 0 88 26.5t66 64.5q18 32 55 133q-63 132 -63 279q0 223 91 223t91 -206q0 -142 -66 -296q72 -224 206 -224
q184 0 184 375q0 320 -141 430q-70 54 -171 58v37q302 0 432 -233q62 -111 62 -287q0 -177 -77 -302q-91 -149 -258 -149q-184 0 -262 198z" />
    <glyph glyph-name="iotadieresis" unicode="&#x3ca;" horiz-adv-x="551" 
d="M524 199h36q-19 -227 -192 -227q-54 0 -100 30t-62 80q-15 42 -15 147v331v147q-12 103 -72 103q-28 0 -68 -15l-14 36l276 112h44v-722q0 -72 8 -100q17 -55 71 -55q68 0 88 133zM1215 1289q-21 -34 -51 -94q-20 -40 -60 -80q-11 59 -28 106l-17 47q36 36 88 154h68
v-133zM865 1422l-45 -86q-31 -59 -31 -90v-37l8 -51q6 0 -36 -29q-14 -9 -29 -12q-21 0 -51 12l-15 8v131l111 154h88zM996 853q-69 -66 -141 -92q-60 -21 -121 -19l-99 4q-100 4 -169 -98q-39 -58 -84 -191l80 -13q3 -1 49 -3q102 -6 110 -6l121 4q40 1 92 -12
q44 -16 96 -56q-88 -47 -196 -47q-40 0 -107 9q-141 19 -168 20h-32q-15 0 -33.5 -4t-50.5 -21t-64 -71q-105 -178 -137 -215l70 -58q16 -13 28 -12l53 4l68 2q110 3 197 33l227 78q8 0 13.5 -1t27.5 -7l59 -17q-28 -37 -186 -98q-188 -72 -350 -74l-111 21q-114 22 -162 43
q29 156 86 239q79 115 105 191q63 181 115 575q88 -47 153 -94q56 -40 66 -43q41 9 145 21q66 0 250 8z" />
    <glyph glyph-name="upsilondieresis" unicode="&#x3cb;" horiz-adv-x="1014" 
d="M582 943q174 -21 268 -153q86 -121 86 -303q0 -196 -113 -348q-124 -167 -314 -167q-90 0 -170 48q-85 50 -114 132q-27 75 -27 211v331q0 73 -8 101q-17 55 -72 55q-67 0 -88 -134h-36q13 227 195 227q119 0 159 -105q15 -42 15 -152v-336q0 -107 7 -148q15 -85 68 -127
q47 -38 104 -38q126 0 180 174q34 112 34 274q0 159 -26 246q-41 139 -154 176z" />
    <glyph glyph-name="omicrontonos" unicode="&#x3cc;" horiz-adv-x="1024" 
d="M836 403q1 -167 -156 -290q-143 -112 -315 -113q-248 -1 -250 305q-1 132 229 295q199 141 262 141q90 0 164 -128q65 -112 66 -210zM770 391q0 64 -35 131q-45 87 -119 88q-80 1 -225 -156t-145 -237v-27q0 -123 110 -124q93 -1 251 117q163 121 163 208zM535 788l86 7
q35 3 78 39q15 13 32 40l29 70l4 14l4 17h60v-250h-375v-518q0 -146 100 -148v-59h-342v59q54 0 76 43q16 48 16 105v373q0 63 -16 102q-13 32 -76 47v59h324z" />
    <glyph glyph-name="upsilontonos" unicode="&#x3cd;" horiz-adv-x="1014" 
d="M582 943q174 -21 268 -153q86 -121 86 -303q0 -196 -113 -348q-124 -167 -314 -167q-90 0 -170 48q-85 50 -114 132q-27 75 -27 211v331q0 73 -8 101q-17 55 -72 55q-67 0 -88 -134h-36q13 227 195 227q119 0 159 -105q15 -42 15 -152v-336q0 -107 7 -148q15 -85 68 -127
q47 -38 104 -38q126 0 180 174q34 112 34 274q0 159 -26 246q-41 139 -154 176zM535 788l86 7q35 3 78 39q15 13 32 40l29 70l4 14l4 17h60v-250h-375v-518q0 -146 100 -148v-59h-342v59q54 0 76 43q16 48 16 105v373q0 63 -16 102q-13 32 -76 47v59h324z" />
    <glyph glyph-name="omegatonos" unicode="&#x3ce;" horiz-adv-x="1348" 
d="M675 170q-87 -198 -266 -198q-161 0 -255 150q-79 128 -79 298q0 329 226 463q101 60 269 60v-37q-171 0 -251 -158q-61 -120 -61 -310q0 -395 180 -395q43 0 88 26.5t66 64.5q18 32 55 133q-63 132 -63 279q0 223 91 223t91 -206q0 -142 -66 -296q72 -224 206 -224
q184 0 184 375q0 320 -141 430q-70 54 -171 58v37q302 0 432 -233q62 -111 62 -287q0 -177 -77 -302q-91 -149 -258 -149q-184 0 -262 198zM710 788l86 7q35 3 78 39q15 13 32 40l29 70l4 14l4 17h60v-250h-375v-518q0 -146 100 -148v-59h-342v59q54 0 76 43q16 48 16 105
v373q0 63 -16 102q-13 32 -76 47v59h324z" />
    <glyph glyph-name="afii10023" unicode="&#x401;" horiz-adv-x="1430" 
d="M1282 1364q-21 -34 -51 -94q-20 -40 -60 -80q-11 59 -28 106l-17 47q36 36 88 154h68v-133zM932 1497l-45 -86q-31 -59 -31 -90v-37l8 -51q6 0 -36 -29q-14 -9 -29 -12q-21 0 -51 12l-15 8v131l111 154h88zM1063 928q-69 -66 -141 -92q-60 -21 -121 -19l-99 4
q-100 4 -169 -98q-39 -58 -84 -191l80 -13q3 -1 49 -3q102 -6 110 -6l121 4q40 1 92 -12q44 -16 96 -56q-88 -47 -196 -47q-40 0 -107 9q-141 19 -168 20h-32q-15 0 -33.5 -4t-50.5 -21t-64 -71q-105 -178 -137 -215l70 -58q16 -13 28 -12l53 4l68 2q110 3 197 33l227 78
q8 0 13.5 -1t27.5 -7l59 -17q-28 -37 -186 -98q-188 -72 -350 -74l-111 21q-114 22 -162 43q29 156 86 239q79 115 105 191q63 181 115 575q88 -47 153 -94q56 -40 66 -43q41 9 145 21q66 0 250 8z" />
    <glyph glyph-name="afii10051" unicode="&#x402;" horiz-adv-x="1540" 
d="M669 1271v-537q189 209 400 209q194 0 302 -158q93 -138 93 -342q0 -177 -83 -307q-96 -152 -264 -152q-81 0 -158 47l23 31q58 -24 105 -24q150 0 150 338q0 430 -252 430q-185 0 -316 -186v-368q0 -90 4 -111q11 -59 60 -84q31 -16 120 -20v-37h-572v37q153 3 182 70
q14 31 14 145v1019h-100q-140 0 -198 -39q-68 -44 -90 -173h-34l10 297h1031l9 -297h-35q-22 160 -129 196q-50 16 -167 16h-105z" />
    <glyph glyph-name="afii10052" unicode="&#x403;" horiz-adv-x="1184" 
d="M1079 954q1 -88 -53 -150l-60 -69q-68 86 -71 98q48 48 71 156q-16 0 -41 13l-30 11q-300 0 -409 -116q-69 -73 -127 -345q-71 -330 -176 -552h-91q14 90 70 276q55 181 68 276l20 147l4 118l-4 121q-3 69 70 144h736q22 -40 23 -128zM624 1234l86 7q35 3 78 39
q15 13 32 40l29 70l4 14l4 17h60v-250h-375v-518q0 -146 100 -148v-59h-342v59q54 0 76 43q16 48 16 105v373q0 63 -16 102q-13 32 -76 47v59h324z" />
    <glyph glyph-name="afii10053" unicode="&#x404;" horiz-adv-x="1352" 
d="M1237 931h-37q-25 160 -154 273t-290 113q-215 0 -336 -194q-98 -157 -114 -391h528v-74h-528q0 -164 56 -303q65 -158 187 -240q103 -69 246 -69q282 0 471 257l27 -21q-193 -313 -537 -313q-299 0 -492 204q-189 200 -189 501q0 194 92 359t258 266q145 88 332 88
q130 0 290 -58q42 -15 57 -15q36 0 76 71h34z" />
    <glyph glyph-name="afii10054" unicode="&#x405;" horiz-adv-x="1139" 
d="M895 977q1 -98 -35 -134q-14 -14 -109 -55q-17 152 -47.5 242.5t-67.5 90.5q-78 1 -153 -59q-105 -84 -106 -234q0 -59 67 -195q60 -119 121 -238q80 -171 81 -241q1 -81 -115 -126q-32 -12 -115 -28q-81 0 -154 15q-98 20 -155 65v62q89 0 196 -45q36 -15 113 -15
q104 0 143 22q43 19 44 71q1 70 -74 198l-140 240q-34 58 -58 146q-19 67 -19 132q-1 136 135 226q99 66 168 66q92 0 179 -54q100 -62 101 -152z" />
    <glyph glyph-name="afii10055" unicode="&#x406;" horiz-adv-x="682" 
d="M352 96q0 -41 -43 -73q-12 -9 -43 -23l-14 8q-36 10 -51 10l-45 746l22 393h6l52 4q35 3 51 -26q7 -17 8 -115q0 -39 -5 -118l-9 -140q-4 -80 -5 -162q-1 -46 -10 -121q26 -166 47 -243z" />
    <glyph glyph-name="afii10056" unicode="&#x407;" horiz-adv-x="682" 
d="M352 96q0 -41 -43 -73q-12 -9 -43 -23l-14 8q-36 10 -51 10l-45 746l22 393h6l52 4q35 3 51 -26q7 -17 8 -115q0 -39 -5 -118l-9 -140q-4 -80 -5 -162q-1 -46 -10 -121q26 -166 47 -243zM1281 1735q-21 -34 -51 -94q-20 -40 -60 -80q-11 59 -28 106l-17 47q36 36 88 154
h68v-133zM931 1868l-45 -86q-31 -59 -31 -90v-37l8 -51q6 0 -36 -29q-14 -9 -29 -12q-21 0 -51 12l-15 8v131l111 154h88zM1062 1299q-69 -66 -141 -92q-60 -21 -121 -19l-99 4q-100 4 -169 -98q-39 -58 -84 -191l80 -13q3 -1 49 -3q102 -6 110 -6l121 4q40 1 92 -12
q44 -16 96 -56q-88 -47 -196 -47q-40 0 -107 9q-141 19 -168 20h-32q-15 0 -33.5 -4t-50.5 -21t-64 -71q-105 -178 -137 -215l70 -58q16 -13 28 -12l53 4l68 2q110 3 197 33l227 78q8 0 13.5 -1t27.5 -7l59 -17q-28 -37 -186 -98q-188 -72 -350 -74l-111 21q-114 22 -162 43
q29 156 86 239q79 115 105 191q63 181 115 575q88 -47 153 -94q56 -40 66 -43q41 9 145 21q66 0 250 8z" />
    <glyph glyph-name="afii10057" unicode="&#x408;" horiz-adv-x="797" 
d="M969 1466q-92 -65 -133 -65q-21 0 -56 45l-53 86v88q18 0 66 12q12 2 32 10q17 -12 33 -28q80 -78 111 -148zM815 1159q0 -339 -96 -713q-114 -445 -277 -446q-168 -1 -245 86q-45 50 -105 219q82 -24 133 -37q21 -5 21 -51v-61q0 -26 43 -50q45 -19 110 -20
q120 -1 189 141q54 111 78 338q4 125 18 398l8 114q1 27 5 77q3 19 10 48h86q0 -3 10 -17.5t12 -25.5z" />
    <glyph glyph-name="afii10058" unicode="&#x409;" horiz-adv-x="1786" 
d="M919 1282h-380v-380q0 -391 -36 -555q-78 -363 -336 -363q-61 0 -104 29q-50 33 -50 92q0 37 26 64t63 27q31 0 71 -30q45 -33 81 -33q197 0 197 692v284q0 130 -34.5 168t-161.5 42v37h1052v-37q-154 -2 -182 -68q-14 -34 -14 -147v-377h78q171 0 257 -21
q140 -34 211 -136q60 -87 60 -194q0 -112 -69 -204q-66 -88 -173.5 -130t-317.5 -42h-430v37q147 3 178 68q14 31 14 147v1030zM1111 653v-577q52 -9 85 -9q128 0 210.5 84t82.5 212q0 143 -97 220q-89 70 -236 70h-45z" />
    <glyph glyph-name="afii10059" unicode="&#x40a;" horiz-adv-x="1786" 
d="M425 727h494v377q0 91 -4 112q-12 62 -63 84q-41 17 -122 19v37h577v-37q-167 0 -186 -81q-10 -40 -10 -134v-377h79q171 0 257 -21q138 -34 210 -136q61 -87 61 -194q0 -115 -73 -210q-71 -91 -183 -129q-107 -37 -305 -37h-430v37q149 3 178 68q14 31 14 147v401h-494
v-413q0 -114 25 -153q33 -50 139 -50h31v-37h-581v37h41q116 0 142 72q11 32 11 131v876q0 79 -5 104q-12 59 -56 81q-37 18 -102 18h-31v37h581v-37h-31q-114 0 -149 -66q-15 -28 -15 -137v-389zM1111 653v-577q55 -9 85 -9q128 0 211 84t83 212q0 143 -98 220
q-89 70 -236 70h-45z" />
    <glyph glyph-name="afii10060" unicode="&#x40b;" horiz-adv-x="1518" 
d="M668 730q182 213 376 213q92 0 165 -45q81 -49 101 -134q17 -76 17 -298v-214q0 -86 4 -109q12 -61 58 -84q34 -17 105 -22v-37h-525v37q114 9 144 55q23 36 23 160v214q0 126 -4 162q-12 102 -60 144q-43 36 -110 36q-140 0 -294 -190v-366q0 -90 4 -111q11 -59 60 -84
q31 -16 120 -20v-37h-572v37q153 3 182 70q14 31 14 145v1019h-100q-140 0 -198 -39q-68 -44 -90 -173h-34l10 297h1031l9 -297h-35q-22 160 -129 196q-50 16 -167 16h-105v-541z" />
    <glyph glyph-name="afii10061" unicode="&#x40c;" horiz-adv-x="1366" 
d="M985 1008q-208 -181 -319 -267l-250 -194l504 -504l-46 -43q-25 17 -212 178q-111 96 -291 260q-73 -58 -102 -171q-15 -58 -15 -134v-43q0 -21 2 -33l6 -34q-2 -11 -57 -23q-29 -1 -51 23q-27 22 -45 43q35 67 116 327q78 248 78 287q0 114 -106 217q44 34 73 78l35 53
q52 -37 71.5 -78.5t20.5 -97.5q1 -42 -14 -104q-3 -13 -12 -48l45 -43l207 164q119 94 251 252h111v-65z" />
    <glyph glyph-name="afii10062" unicode="&#x40e;" horiz-adv-x="1450" 
d="M1056 1805q33 0 54 -28t21 -61q0 -121 -142 -177q-101 -40 -242 -40q-143 0 -243 39q-141 56 -141 178q0 35 21.5 62t55.5 27q56 0 123 -138q61 -124 184 -124t184 124q37 76 46 88q34 50 79 50zM26 1356h550v-37q-145 -6 -145 -78q0 -50 107 -238l296 -520l216 520
q68 164 68 220q0 78 -126 96v37h425v-37q-150 -18 -228 -204l-259 -616q-78 -185 -120 -263q-89 -163 -181 -220q-75 -47 -155 -47q-62 0 -107 24q-57 30 -57 86q0 86 93 86q40 0 100 -34q37 -21 59 -21q79 0 177 164l-492 865q-47 83 -88 120q-52 46 -133 60v37z" />
    <glyph glyph-name="afii10145" unicode="&#x40f;" 
d="M758 -390h-37q-3 198 -75 289q-82 101 -273 101h-336v37q127 4 161.5 42t34.5 167v863q0 130 -34.5 168t-161.5 42v37h583v-37q-126 -4 -160.5 -42.5t-34.5 -167.5v-863q0 -107 -1 -88q4 -64 31 -75q19 -9 103 -9h353q118 0 134 24q9 13 9 148v863q0 130 -34 168t-161 42
v37h583v-37q-127 -4 -161.5 -42t-34.5 -168v-863q0 -129 34.5 -167t161.5 -42v-37h-356q-252 0 -303 -195q-24 -89 -25 -195z" />
    <glyph glyph-name="afii10017" unicode="&#x410;" horiz-adv-x="1073" 
d="M813 438q-80 -123 -82 -207q-1 -20 1 -30q7 -43 16 -133l-49 -11l-40 -12q-23 51 -34 84q-2 8 -7 20q-6 17 -6 23q0 7 15 23q31 26 32 114q0 16 -26 51q-34 46 -60 46q-180 1 -225 -103q-116 -269 -125 -280h-45q-5 18 -22.5 37t-20.5 30q26 45 53 105q54 122 54 211
q0 28 -51 71q-58 49 -78 115q191 0 219 22q21 16 74 224q76 300 98 368q62 195 110 195q96 0 117 -98q30 -138 82 -187v-678zM639 526l12 125l4 105q1 21 -6 105l-10 124q-35 -128 -82 -205q-39 -64 -72 -231q18 -5 47 -23.5t41 -21.5q0 6 5 10q15 12 61 12z" />
    <glyph glyph-name="afii10018" unicode="&#x411;" horiz-adv-x="1380" 
d="M1260 1204q-72 -33 -113 -33q-31 0 -51 17q-57 41 -101 41q-204 1 -377 -99q-144 -83 -212 -210v-220l53 2l59 3q24 1 48 1q158 0 294 -53q201 -79 201 -268q0 -141 -236 -256q-211 -103 -411 -104q-65 0 -146 26q-102 33 -104 84q0 3 45 121q19 49 43 139
q0 53 -21.5 95.5t-21.5 48.5q0 11 22 32q60 45 70 76q2 5 7 32q0 6 7 40l4 96l-4 180q-4 175 68 297l43 -47q34 -37 55 -41q50 0 191 45t202 45q39 0 136 -18q134 -25 250 -72zM950 385q1 82 -119 150q-102 58 -196 59q-168 1 -238 -107q-56 -86 -57 -266l6 -14
q16 -37 16 -66v-8h197q131 52 221 98q169 85 170 154z" />
    <glyph glyph-name="afii10019" unicode="&#x412;" horiz-adv-x="1080" 
d="M963 203q1 -133 -168 -189q-52 -17 -328 -53q-234 -31 -289 -76q-56 57 -73 110q-15 44 -15 132l131 764l55 12q57 18 121 62q74 51 232 176q126 100 149 100q102 1 143 -36.5t42 -127.5q2 -297 -326 -469v-45q117 -97 199 -174q126 -118 127 -186zM856 1014q0 57 -6 78
l-16 41h-109l-182 -160q-122 -107 -203 -285q-97 -212 -98 -495q0 -81 71 -121q54 -30 138 -31q86 -1 219 44q160 53 161 120q1 107 -170 191q-134 66 -264 79v66q33 38 291 215q168 115 168 258z" />
    <glyph glyph-name="afii10020" unicode="&#x413;" horiz-adv-x="1208" 
d="M1079 954q1 -88 -53 -150l-60 -69q-68 86 -71 98q48 48 71 156q-16 0 -41 13l-30 11q-300 0 -409 -116q-69 -73 -127 -345q-71 -330 -176 -552h-91q14 90 70 276q55 181 68 276l20 147l4 118l-4 121q-3 69 70 144h736q22 -40 23 -128z" />
    <glyph glyph-name="afii10021" unicode="&#x414;" horiz-adv-x="1320" 
d="M1184 559q0 -96 -244 -254q-58 -38 -473 -268q-269 -149 -311 -223v-23q0 -19 -9 -59t-34 -92h-88q-2 11 -21 36q-2 6 -4 9q0 70 96 159q136 126 178 189q99 147 99 362q0 103 -99 201l-118 117q30 30 147 84q100 47 160 133q75 -52 88.5 -91t42.5 -61l326 -41
q264 -33 264 -178zM375 625zM1075 559q-91 65 -164 79q-51 9 -135 9h-43q-164 0 -215 -98q-35 -66 -35 -252l9 -23q1 -2 14 -65l278 123q142 63 291 227z" />
    <glyph glyph-name="afii10022" unicode="&#x415;" horiz-adv-x="1320" 
d="M1159 1114q-323 -32 -408 -51q-265 -60 -333 -205l-92 -313h592v-66q-90 -12 -111 -26l-43 -39h-10q-21 0 -26 1q-16 1 -36 7q-154 33 -229 33q-291 0 -291 -303l10 -29l13 -39l133 12q127 11 217 54h264v-66q-84 -27 -292 -55q-199 -28 -300 -29q-58 -1 -94 35t-37 94
q-1 71 51 186l123 273l84 450q36 105 139 142h4q7 0 17 -19q24 -46 41 -47l186 41q102 23 273 25q40 1 96 -29q27 -14 59 -37z" />
    <glyph glyph-name="afii10024" unicode="&#x416;" horiz-adv-x="1523" 
d="M1273 901q0 -30 -251 -210t-252 -225q-1 -61 174 -191l240 -178q-28 -14 -32 -17q-18 -10 -57 -34q-7 -5 -26 -18l-93 95q-12 14 -55 60q-120 122 -196 144v-37q0 -80 -8 -154q-7 -65 -38 -224q-57 95 -57 148q0 15 9 62q6 30 7 85q1 29 -6 96q-209 -125 -269 -301
q-33 -97 -98 -156q-5 11 -15 16h-16q-15 0 -15 39q0 70 183 315q64 86 137 186q14 20 46 64q0 65 -211 323q-74 91 -155 181q9 0 41 23q14 10 39 22q32 0 333 -413h69q0 42 15 159q39 305 101 415h69v-113q-51 -111 -71 -203l-23 -107q0 -24 23 -52t47 -30l164 125
q94 71 228 150q0 -5 9 -20q8 -11 10 -25z" />
    <glyph glyph-name="afii10025" unicode="&#x417;" horiz-adv-x="1202" 
d="M964 355q1 -155 -213 -258q-199 -95 -480 -97q-32 16 -68 39q-43 26 -113 72v70q19 0 43 14q14 8 25 12q65 -38 155 -66.5t200 -29.5q89 -1 205 65q128 73 129 155q1 60 -131 149q-104 71 -258 92q-3 17 -12.5 36.5t-10.5 45.5q0 7 148 114q164 118 174 127q-18 6 -41 28
q-19 19 -41 19q-44 1 -125 -35q-92 -41 -139 -105q-19 25 -54 47q-8 6 -11.5 13t-5.5 22q0 63 114 122q93 48 232 48q73 0 145 -41q84 -48 85 -118q0 -23 -60 -82q-34 -33 -56 -35l-180 -92q164 -136 256 -218q88 -78 88 -113z" />
    </font>
</defs>
</svg>
