<?xml version="1.0" standalone="no"?>
<!DOCTYPE svg PUBLIC "-//W3C//DTD SVG 1.1//EN" "http://www.w3.org/Graphics/SVG/1.1/DTD/svg11.dtd" >
<svg xmlns="http://www.w3.org/2000/svg" xmlns:xlink="http://www.w3.org/1999/xlink" version="1.1">
<metadata>
Created by FontForge 20190801 at Sat Feb  8 13:03:04 2014
 By www-data
Copyright (c) Font4You., 2014. All rights reserved.
</metadata>
<defs>
<font id="SalavatFont4You" horiz-adv-x="462" >
  <font-face 
    font-family="SalavatFont4You"
    font-weight="400"
    font-stretch="normal"
    units-per-em="1000"
    panose-1="2 0 5 3 2 0 0 2 0 3"
    ascent="800"
    descent="-200"
    x-height="425"
    cap-height="697"
    bbox="-278 -431 1087 913"
    underline-thickness="20"
    underline-position="-133"
    unicode-range="U+0020-2265"
  />
<missing-glyph horiz-adv-x="475" 
 />
    <glyph glyph-name=".notdef" horiz-adv-x="475" 
 />
    <glyph glyph-name=".null" horiz-adv-x="0" 
 />
    <glyph glyph-name="nonmarkingreturn" horiz-adv-x="333" 
 />
    <glyph glyph-name="space" unicode=" " horiz-adv-x="475" 
 />
    <glyph glyph-name="exclam" unicode="!" horiz-adv-x="187" 
d="M90 677h16q35 -19 35 -46v-5l-25 -173q5 -35 5 -56q0 -28 -10 -86q10 -2 10 -11v-5l-5 -25h-20q-26 50 -26 71v71q0 5 5 5l-10 46q8 15 15 92q-10 31 -10 41q5 81 20 81zM101 87h15q51 0 51 -62v-10q0 -7 -15 -15h-6q-66 0 -66 41q10 46 21 46z" />
    <glyph glyph-name="quotedbl" unicode="&#x22;" horiz-adv-x="320" 
d="M184 794q12 -6 36 -6l-8 -28q6 -46 6 -54l-34 -79h-9q-18 0 -33 47q0 78 42 120zM311 788h14l16 -9l-6 -24q5 -46 5 -54q-27 -61 -27 -74h-16q-13 0 -28 37q0 89 42 124z" />
    <glyph glyph-name="numbersign" unicode="#" horiz-adv-x="627" 
d="M434 542v-11q0 -22 -8 -37l4 -8q56 0 88 47h23q0 -10 6 -21q-6 -9 -6 -18q0 -2 117 -18v-10q0 -11 -20 -21q-11 5 -13 5q-14 -8 -109 -18q-28 -75 -40 -94v-28l111 18q25 -5 57 -5q0 -33 -188 -68q-67 -164 -95 -196h-8q-15 0 -15 16l45 159l-3 2q-61 0 -81 -43
q-36 -95 -56 -101h-6q-15 0 -20 35q32 76 32 86q-4 0 -4 4l-106 -9q-34 7 -34 20v11q11 21 33 28q8 0 16 -4q128 13 128 21q0 11 56 127v2l-9 5q-13 0 -157 -24l-22 4q0 1 -19 -13q-26 6 -26 34v25q24 0 47 -4q24 12 199 37q11 7 36 65h47zM346 284v2h-2q67 13 69 23l45 115
q-4 7 -4 8h-12q-46 0 -59 -52q-37 -90 -37 -96z" />
    <glyph glyph-name="dollar" unicode="$" horiz-adv-x="389" 
d="M283 661h25q10 -2 10 -10l-10 -15v-15h30q27 40 45 40h5q10 -2 10 -10q0 -12 -15 -60v-5q10 -35 10 -40q-49 0 -85 -274q80 -38 80 -89q0 -34 -100 -85q-17 0 -40 -80v-30q-11 -3 -55 -149q-5 0 -14 -5q0 10 -10 10l39 189l-10 5q-58 0 -89 -124h-15v59q0 12 -5 20l10 20
q-55 15 -55 50v5q3 30 15 30h5v-20q3 -30 15 -30h15q44 0 70 175q10 13 15 64q-60 40 -60 95q0 49 114 189q0 90 50 90zM233 337v-30q2 -10 10 -10h10q17 0 45 180q4 0 35 104l-10 5q-65 -32 -65 -134zM154 392v-15q0 -39 25 -50h9q10 86 20 120v30h-5q-38 -37 -49 -85z
M174 78h14q35 15 35 20q30 140 30 159l-15 10q-27 0 -64 -189zM288 148q29 0 65 45q0 9 -35 35h-10q-20 0 -20 -80z" />
    <glyph glyph-name="percent" unicode="%" horiz-adv-x="540" 
d="M498 584h10q18 -3 18 -19v-4q0 -24 -85 -164q-147 -285 -217 -358q-21 -35 -58 -35v14q0 14 99 155q180 345 233 411zM196 553q52 -27 52 -82q-37 -110 -98 -110h-5q-31 0 -36 76v18q0 12 21 23h24l6 -31v-35h3q16 0 21 61v7q-31 0 -31 39q14 34 43 34zM456 147
q35 0 66 -61q-17 -82 -77 -82q-71 0 -71 72q5 54 33 54q31 -9 31 -42l-4 -28q-3 5 -3 -5h33l2 13v12l-40 31q3 23 30 36z" />
    <glyph glyph-name="ampersand" unicode="&#x26;" horiz-adv-x="323" 
d="M202 681q54 0 70 -126q0 -78 -62 -178v-21q0 -32 29 -72h-2q22 161 57 161q9 -5 20 -5v-24q-37 -163 -37 -197v-24q0 -10 52 -180q-5 -11 -5 -22q-48 0 -72 93l-3 2q-32 -90 -124 -90q-125 45 -125 145q0 40 115 171l32 42v13q-33 118 -43 209q13 103 98 103zM158 554
q17 -133 30 -133h1q19 23 33 110q-24 100 -29 100h-10q-11 0 -25 -77zM45 144q49 -93 92 -101h20q61 43 61 142q-19 68 -55 120q-106 -107 -118 -161z" />
    <glyph glyph-name="quotesingle" unicode="'" horiz-adv-x="316" 
d="M246 758q16 0 36 -32q48 -23 48 -72q0 -65 -84 -100q-8 4 -12 4v12q52 51 52 84q-6 16 -12 16l-28 -4q-28 12 -28 40v16q0 29 28 36z" />
    <glyph glyph-name="parenleft" unicode="(" horiz-adv-x="142" 
d="M183 716q63 -7 63 -55q-15 -63 -30 -63q-10 0 -20 19v19h-4q-40 0 -110 -227q-19 -124 -19 -134q0 -187 116 -336v-18h-18q-149 103 -149 388v10q0 101 73 257q0 57 90 140h8z" />
    <glyph glyph-name="parenright" unicode=")" horiz-adv-x="178" 
d="M4 708h22q166 -123 166 -382v-14q0 -135 -109 -316q0 -7 -44 -43l-19 10q34 43 56 119q44 61 66 239q-24 174 -70 273q-52 46 -62 88q-6 0 -6 10v16z" />
    <glyph glyph-name="asterisk" unicode="*" horiz-adv-x="434" 
d="M335 539q22 -6 36 -24q-72 -79 -72 -94h6q56 11 89 11h12q12 -1 12 -11v-18q-81 -29 -107 -59v-6q40 -40 54 -77q-9 -24 -18 -24h-6q-20 0 -89 53h-18q-54 -54 -65 -59h-12l-6 24q12 38 12 53h-24q-5 0 -5 -6q-36 12 -36 24v12q0 9 83 53v6q0 12 -77 47q0 7 -6 18
q0 18 36 36q65 -18 88 -42h6q54 83 107 83z" />
    <glyph glyph-name="plus" unicode="+" horiz-adv-x="483" 
d="M315 513h20q27 0 33 -81l-16 -75v-24q9 -8 120 -34q35 -29 35 -38v-5q0 -17 -19 -17q-47 32 -99 32h-21l-21 -4v-11q0 -34 5 -70q-5 -20 -5 -54h-17q-20 0 -43 134h-52l-54 -17h-17q-31 0 -38 27q0 46 163 55q3 5 3 16v5q0 -1 -10 -1l9 18l-5 47q0 13 29 97z" />
    <glyph glyph-name="comma" unicode="," horiz-adv-x="195" 
d="M92 83q80 -47 80 -110v-17q-50 -129 -107 -129q55 118 55 130v4q0 44 -32 50q-24 -24 -54 -24q-26 0 -26 14q3 74 26 74h6q10 -8 12 -8q24 16 40 16z" />
    <glyph glyph-name="hyphen" unicode="-" horiz-adv-x="446" 
d="M272 265q30 -8 45 -8q24 8 45 8q100 -8 100 -26v-13q-19 -29 -70 -29q-34 0 -45 -4q-52 4 -83 4h-68q-25 0 -53 -12q-62 13 -62 30q11 42 55 42q43 0 43 5q17 -5 25 -5q33 0 68 8z" />
    <glyph glyph-name="hyphen" unicode="&#xad;" horiz-adv-x="446" 
d="M272 265q30 -8 45 -8q24 8 45 8q100 -8 100 -26v-13q-19 -29 -70 -29q-34 0 -45 -4q-52 4 -83 4h-68q-25 0 -53 -12q-62 13 -62 30q11 42 55 42q43 0 43 5q17 -5 25 -5q33 0 68 8z" />
    <glyph glyph-name="period" unicode="." horiz-adv-x="142" 
d="M79 46q11 0 50 -75q-14 -38 -29 -38h-18q-46 49 -46 87q11 26 43 26z" />
    <glyph glyph-name="slash" unicode="/" horiz-adv-x="191" 
d="M234 479h9q7 0 27 -27q-18 0 -40 -39l4 -9l-8 -14q4 -7 4 -17q-89 -148 -160 -328q-14 0 -48 -89h-14l-4 31q0 12 58 137q35 94 128 262q37 87 44 93z" />
    <glyph glyph-name="zero" unicode="0" horiz-adv-x="333" 
d="M226 555q112 -32 112 -101q13 0 13 -90q0 -169 -90 -281q-100 -90 -145 -90h-9q-77 0 -99 98v0q4 42 -8 42q12 29 12 40h-5q27 146 46 156q43 153 80 181q42 39 93 45zM61 97q13 -51 37 -51h29q148 87 148 185q13 0 22 76v44q0 113 -60 137h-3q-83 0 -168 -332
q-5 -26 -5 -59z" />
    <glyph glyph-name="one" unicode="1" horiz-adv-x="272" 
d="M243 564h13q36 -21 36 -67v-15q0 -82 -100 -200q-53 -192 -53 -290h-18q-18 0 -33 52q25 115 29 164q-12 0 -75 -58l-32 -8q0 12 -10 12q0 26 129 131q45 204 75 268zM223 418v-6l-3 4q6 0 16 43v20h-2q-7 0 -11 -61z" />
    <glyph glyph-name="two" unicode="2" horiz-adv-x="379" 
d="M365 539q50 0 50 -66v-48q-23 -104 -139 -231q-45 -50 -45 -52v-6q152 -74 152 -167v-19h-22q-81 115 -165 137h-15q-13 0 -129 -90q-37 0 -37 -7q-63 13 -63 57q0 84 155 108h6l59 -5q185 202 185 300q5 0 5 7v21q0 3 -10 8h-1q-52 -29 -52 -71v-36q0 -19 -18 -19
q-24 0 -29 76q0 74 85 103h28zM10 52q1 -2 3 -2h8q48 22 72 53v-11h-36q-38 -20 -47 -40z" />
    <glyph glyph-name="three" unicode="3" horiz-adv-x="402" 
d="M315 552q77 -7 77 -57v-5q0 -63 -94 -147q-20 0 -20 -18h27q93 0 121 -81v-21q0 -109 -242 -216q-72 -15 -87 -15h-20q-77 0 -77 57v11q3 17 23 17q18 -34 59 -34q102 0 242 106q42 51 42 74v24q0 27 -90 32q-82 -20 -104 -20l-14 20q0 16 126 122q52 55 52 74v10
q0 8 -48 11q0 -9 -18 -9q-13 0 -21 4q-44 -13 -60 -52v-8q10 -32 10 -45v-33h-15q-50 29 -50 102v10q0 43 165 87h16z" />
    <glyph glyph-name="four" unicode="4" horiz-adv-x="320" 
d="M215 564q18 0 26 -43q0 -58 -48 -75q-20 -24 -105 -189v-3h-33q170 24 170 48q27 54 61 150q20 0 20 12q43 -15 43 -29v-7q-34 -65 -82 -181q-60 -101 -109 -252h-15q-18 0 -22 40q21 107 61 189h-2q-58 -13 -70 -22h-30q-18 0 -51 -5q-26 11 -29 25v13q61 75 177 313
q20 16 38 16z" />
    <glyph glyph-name="five" unicode="5" horiz-adv-x="511" 
d="M340 578q29 -24 92 -29l175 11q22 -6 46 -6h59q13 -2 13 -14q-17 -29 -171 -36q-3 0 -3 -7l-15 7q-247 0 -247 -57l-35 -93q2 -9 10 -9h46q130 -32 130 -95q0 -166 -228 -246l-59 -6h-17q-136 22 -136 101q0 49 65 83h20v-20q-17 -23 -17 -69q0 -33 79 -33q148 0 208 103
q0 16 17 41v45q-24 40 -50 40h-58q-24 0 -81 -47h-18q-14 0 -14 14v12q88 212 157 291q0 14 32 19z" />
    <glyph glyph-name="six" unicode="6" horiz-adv-x="357" 
d="M349 551h14q21 0 39 -75q-15 -56 -30 -56h-11q-6 67 -16 67h-18q-69 0 -233 -221q-35 -75 -35 -110v0q81 93 147 93l15 -3v3q50 0 117 -104q0 -8 9 -8q-68 -145 -214 -145q-133 13 -133 129q0 138 142 297q147 133 207 133zM73 69q20 -27 51 -27h44q111 32 111 83v5
q0 50 -91 56q-115 -44 -115 -117z" />
    <glyph glyph-name="seven" unicode="7" horiz-adv-x="373" 
d="M318 554q29 -5 40 -5l11 5q37 -8 37 -21v-12q-92 -132 -138 -256v2h-1q109 5 132 5l9 -18q-51 -31 -173 -50l-85 -155q-17 -55 -42 -55q-18 3 -26 32q38 99 82 165v8h1q-22 0 -56 5q-39 -21 -52 -21q-57 6 -57 53v5q0 17 31 21q45 0 83 -10q101 0 101 47q103 184 103 193
l-16 4q-67 0 -172 -10v-4l6 -42q-11 0 -11 -9q-64 27 -64 78q26 30 78 30h77q31 0 102 15z" />
    <glyph glyph-name="eight" unicode="8" horiz-adv-x="329" 
d="M273 556h9q86 0 96 -109v-9q0 -75 -120 -182l-3 -5l13 -91q0 -100 -147 -159q-30 -9 -42 -9h-9q-62 0 -70 74q0 45 192 196l2 3q-22 47 -22 71q0 57 29 65h32q0 -9 10 -9l-23 -40q5 -52 9 -52q27 0 98 109v33q0 40 -30 58h-1q-43 -5 -59 -25q0 -12 -25 -29q-11 6 -22 6
v23q36 81 83 81zM60 48l8 -5h14q139 28 139 136q-9 16 -9 30h-3q-149 -98 -149 -161z" />
    <glyph glyph-name="nine" unicode="9" horiz-adv-x="308" 
d="M205 568q71 0 71 -49h9q-9 -19 -9 -30h-21q-23 27 -32 27q-90 0 -154 -148q-4 -6 -4 -14v-22q0 -2 8 -6h16q22 0 147 133q17 10 29 10q60 -23 60 -97q0 -160 -150 -333q-73 -47 -105 -47q-70 16 -70 68q4 9 4 20h21q31 -32 46 -32q77 0 163 166q26 67 39 175
q-8 29 -10 29h-1q-127 -144 -178 -144h-29q-46 30 -46 72q28 112 125 198q56 24 71 24z" />
    <glyph glyph-name="colon" unicode=":" horiz-adv-x="195" 
d="M190 393l6 -11v-18q0 -37 -57 -69q-18 0 -35 64v5q0 29 86 29zM139 163q15 0 40 -52v-17l-69 -46q-29 43 -29 75q15 29 58 40z" />
    <glyph glyph-name="semicolon" unicode=";" horiz-adv-x="306" 
d="M228 428h5q9 0 23 -21q0 -90 -55 -90q-32 13 -39 31v28q17 52 66 52zM235 183q60 -40 60 -75l-5 -38q5 -8 5 -17q-12 -10 -48 -111l-45 -86h-23v19q0 24 43 166q18 65 18 87q-5 23 -5 55z" />
    <glyph glyph-name="semicolon" unicode="&#x37e;" horiz-adv-x="306" 
d="M228 428h5q9 0 23 -21q0 -90 -55 -90q-32 13 -39 31v28q17 52 66 52zM235 183q60 -40 60 -75l-5 -38q5 -8 5 -17q-12 -10 -48 -111l-45 -86h-23v19q0 24 43 166q18 65 18 87q-5 23 -5 55z" />
    <glyph glyph-name="equal" unicode="=" horiz-adv-x="628" 
d="M537 343q118 -11 118 -35v-5q-4 -18 -45 -18q-298 -3 -298 -18l-14 7h-51q-36 0 -39 -11q21 -13 263 -82q49 -23 49 -34v-11q-37 -42 -310 -49h-15l-32 -5q-44 15 -44 29v10q0 29 278 29h3v1q-31 18 -248 66l-10 10l-9 -5h-6q-29 0 -34 18v11q0 59 185 76q6 0 16 -5
q121 5 156 10l10 -5q51 5 77 16z" />
    <glyph glyph-name="question" unicode="?" horiz-adv-x="324" 
d="M231 685h5q141 -27 141 -129q0 -53 -119 -179q-94 -141 -94 -199q6 -10 6 -14l-5 -2h-21q-36 0 -36 42q0 84 160 260l36 72q0 51 -34 93h-22h-15v0h-25q-73 0 -100 -71q-25 -10 -25 -26q6 -39 6 -63q0 -8 -38 -13q-21 0 -41 55q14 67 94 136q49 38 127 38zM225 62l2 -4
v-10q0 4 -11 4l11 -23v-15q-28 -14 -36 -14q-37 6 -37 24q12 38 71 38z" />
    <glyph glyph-name="at" unicode="@" horiz-adv-x="783" 
d="M597 601q114 0 180 -94q16 -49 16 -118q0 -143 -149 -267q-56 -45 -103 -45h-4q-56 6 -56 52l3 24q-10 0 -102 -32q-22 -4 -25 -4q-69 0 -76 84v4q10 48 89 135q79 53 123 53q132 0 132 -100q0 -31 -47 -68q-25 6 -25 17q24 31 24 55v3q-27 49 -87 49q-89 -44 -106 -78
q-42 -46 -43 -74v-8q0 -19 21 -28h15q28 0 131 52h10q21 -9 23 -20q-8 -29 -8 -32v-32q0 -6 15 -8q88 37 118 94q62 69 75 146q0 8 -4 15q0 4 4 25q0 107 -57 132q-46 15 -47 20q-248 0 -334 -124q-31 0 -130 -178q-57 -105 -64 -206q4 -15 4 -32q-4 0 -4 4q4 0 4 -12h-3
q21 -128 79 -128q0 -14 128 -28q71 0 312 84q9 -4 16 -4v-14q-55 -42 -243 -102q-53 -8 -129 -12q-139 0 -216 119q0 12 -12 32l4 25q-3 8 -8 8q0 12 3 12l-3 16v44q0 32 28 109q54 168 173 286q143 133 247 141q20 0 20 6l13 -6q47 8 75 8z" />
    <glyph glyph-name="A" unicode="A" horiz-adv-x="645" 
d="M410 681q155 -28 155 -161l-12 -25q-17 0 -56 80q-35 38 -118 38q-122 0 -230 -205q-93 -140 -93 -280q16 -80 93 -80q107 0 248 130q24 0 62 143l94 130l12 6h43q15 0 19 -31q-136 -220 -136 -248q34 -118 105 -118h25q6 0 6 6q44 -11 44 -25v-12l-75 -19
q-155 43 -155 125h-19q-161 -137 -248 -137h-50q-124 16 -124 137q0 202 217 459q97 72 193 87z" />
    <glyph glyph-name="B" unicode="B" horiz-adv-x="483" 
d="M267 677q13 -7 20 -7l13 7q131 -32 131 -125q-14 -50 -92 -144v-13q177 -42 177 -165q0 -84 -183 -190q-72 -33 -138 -33h-7q-106 0 -131 66v26h13q40 -46 125 -46q114 0 243 131q26 38 26 59q-24 92 -131 92q0 14 -14 14h-19q-21 -12 -132 -33q-24 6 -39 46
q25 34 138 52q98 82 98 151v7q-10 34 -46 46v-7l-13 7h-39q-51 0 -79 -86q-31 0 -52 -52l6 -33q-20 -6 -20 -39v-53q-21 0 -26 -66q-13 0 -59 -170h-26q-10 0 -20 19q0 68 92 375q0 125 85 125q82 39 99 39z" />
    <glyph glyph-name="C" unicode="C" horiz-adv-x="377" 
d="M347 685q149 -48 149 -149q0 -87 -109 -124q-10 0 -10 10v14q59 28 59 90v25q0 27 -69 84h-30q-80 0 -169 -174q-14 0 -35 -39q-54 -86 -54 -165q-5 -61 -5 -64q17 -130 119 -149h30q39 0 174 44h10v-14q-46 -45 -164 -75h-70q-79 0 -144 114l-30 95l5 10l-5 30
q90 317 258 407z" />
    <glyph glyph-name="D" unicode="D" horiz-adv-x="503" 
d="M148 701q15 0 45 -53l217 -109q147 -112 147 -195q0 -164 -315 -253l-173 -84q0 -14 -18 -14h-6q-19 0 -19 18v10q113 88 354 169q122 78 122 148q0 105 -281 234q-14 0 -47 10q-22 -37 -59 -337q-54 -155 -89 -166q-11 6 -26 6q89 230 89 431v17q0 62 -15 62
q44 106 74 106z" />
    <glyph glyph-name="E" unicode="E" horiz-adv-x="393" 
d="M472 677q48 0 60 -103v-6q0 -49 -108 -114q-31 7 -31 18v12q73 48 73 102v13q0 12 -12 12h-24q-79 0 -115 -127l-12 -6l6 -42v-13q66 -31 66 -84q-34 -42 -84 -42l-79 66h-12q-133 -102 -133 -187v-30q0 -84 127 -97q80 0 193 12l12 -6q12 6 19 6v-12q-91 -42 -133 -42
h-151q-139 45 -139 145t139 235q108 43 108 127q101 163 230 163z" />
    <glyph glyph-name="F" unicode="F" horiz-adv-x="410" 
d="M237 684h15l25 -24l191 24q207 0 207 -96q0 -35 -130 -180q0 -26 -39 -52h-10v16q0 54 117 199v36q0 28 -114 28q-258 0 -258 -85q-74 -215 -74 -249q68 12 96 12h31q49 0 53 -22v-21q-242 0 -242 -91q-49 -109 -49 -129v-16q18 0 18 -15q0 -11 -20 -22h-26q-11 0 -28 33
q11 81 136 361q53 240 101 293z" />
    <glyph glyph-name="G" unicode="G" horiz-adv-x="373" 
d="M346 681q124 -32 124 -108q0 -27 6 -27q0 -65 -81 -65l-6 11v21q22 29 22 49v6q-21 43 -114 43q-85 -26 -162 -152q-36 -59 -65 -178q-16 0 -21 -103q0 -135 92 -135q108 14 108 98v32q0 30 -81 86q0 38 124 38q54 38 113 38h11v-16q-3 -14 -135 -60v-16q32 -40 32 -102
q0 -94 -178 -141h-11q-124 0 -124 200v5q94 348 211 422q24 35 135 54z" />
    <glyph glyph-name="H" unicode="H" horiz-adv-x="410" 
d="M461 706h17q17 -3 17 -44v-67q0 -17 33 -84q0 -122 -83 -122q-24 0 -45 -233v-78q17 -50 17 -56v-5l-28 -6q-42 0 -50 56v16q0 79 11 139l-5 11q22 90 22 128q-10 6 -22 6q-245 -36 -245 -50q-39 -311 -56 -311l-11 -6q-33 0 -33 22l44 306l-22 22v17q37 0 50 133
q25 150 56 150q28 -5 28 -22l-45 -244l11 -6q233 0 267 61q40 267 72 267zM456 550l-17 -116h22q28 12 28 55v39q-5 22 -33 22z" />
    <glyph glyph-name="I" unicode="I" 
d="M617 702q129 -11 129 -38v-15h-112q-336 -11 -336 -36q0 -38 -124 -38q-30 0 -60 37v7q0 49 486 83h17zM494 617q19 -23 19 -44v-17q0 -55 -33 -55q-11 6 -14 6q-91 -145 -112 -320l7 -43h-16q-50 0 -50 61q40 208 92 285q59 127 107 127zM459 89q11 -6 20 -6v-15
q-14 -47 -466 -72l-13 20q0 50 163 50h28q2 0 2 9l16 -8q81 11 250 22z" />
    <glyph glyph-name="J" unicode="J" horiz-adv-x="296" 
d="M607 706q10 -6 25 -6v-9q0 -34 -432 -66q0 -5 -27 -17l-29 6h-42q0 17 5 26q-5 9 -5 23v15q16 0 26 6q65 -12 75 -12q0 21 404 34zM331 599h5q16 -1 16 -16q-30 -42 -57 -326q-42 -261 -139 -261q-155 54 -155 116l6 51l-7 43h23q32 -28 92 -137q21 -20 42 -20h14
q52 43 83 249v22l-6 28q43 251 83 251z" />
    <glyph glyph-name="K" unicode="K" horiz-adv-x="544" 
d="M322 758h18q11 0 26 -25v-25q-75 -94 -144 -283v-12q26 0 155 105q54 39 138 83q9 23 42 23h28q15 -2 15 -15v-11q0 -34 -96 -142q-20 -12 -34 -12v33l33 39v11h-6q-228 -140 -326 -237q-32 -49 -55 -133q-78 -158 -93 -158h-26l-6 44q17 29 17 55v15q18 0 67 114
l161 389q43 103 86 142zM194 257q16 0 165 -183q13 0 38 -17h20q55 33 166 68v-27q0 -14 -68 -48q-15 -17 -15 -31l-16 7q-60 -21 -122 -27q-95 33 -198 220q0 13 30 38z" />
    <glyph glyph-name="L" unicode="L" horiz-adv-x="414" 
d="M255 684q31 -10 31 -37q-8 -80 -91 -219q-120 -328 -120 -359q4 -14 31 -14q288 28 332 28l32 -7v-21q-62 -35 -347 -58h-34q-89 0 -89 56q114 291 114 309q109 296 127 322h14z" />
    <glyph glyph-name="M" unicode="M" horiz-adv-x="759" 
d="M337 681h23q0 -37 75 -52q32 0 47 -134l-24 -220v-69q2 -12 12 -12h6q56 0 203 174q55 130 75 249q11 29 41 29h17q8 0 18 -17q0 -28 -76 -273q-29 -365 -64 -365h-11q-19 0 -29 145q35 140 35 168q-12 0 -12 6q-12 0 -87 -93q-76 -69 -128 -69q-58 0 -58 139l18 191v58
q0 64 -47 64q-15 -78 -46 -336q-73 -187 -168 -232q-29 -18 -64 -24q-110 35 -110 87v6q24 35 58 35q17 0 41 -75h11q84 0 180 249q32 371 64 371z" />
    <glyph glyph-name="N" unicode="N" horiz-adv-x="544" 
d="M691 685q0 -7 8 -7q-145 -228 -145 -308q-56 -209 -118 -291l-41 -26q-69 27 -116 245q-31 196 -48 196h-5q-15 0 -129 -374q-10 -8 -40 -96q-15 -27 -40 -27l-17 28q147 412 147 473q56 83 84 83q36 0 69 -103q39 -270 101 -358q16 4 96 221q52 214 159 326z" />
    <glyph glyph-name="O" unicode="O" horiz-adv-x="466" 
d="M425 681q61 -12 97 -68q13 -40 24 -106q0 -5 -5 -5l5 -34q0 -89 -82 -227q-59 -84 -121 -144q-106 -87 -155 -87q0 -5 -4 -5q-9 5 -20 5q-14 -5 -14 -10q-63 10 -92 34q-58 70 -58 164q16 126 53 213q93 169 150 169h10q4 0 4 -5q97 96 165 96q0 5 43 10zM425 623
q-191 -135 -212 -169q-22 -68 -34 -68h-20v10q0 46 20 77v15q-44 -29 -58 -77q-11 -44 -39 -68v-10q0 -5 5 -5q-24 -72 -24 -115v-34q0 -81 67 -126q162 0 324 261q21 40 34 121q5 0 5 5v14q0 5 -5 5q9 26 9 53l-43 101q-16 10 -29 10z" />
    <glyph glyph-name="P" unicode="P" horiz-adv-x="389" 
d="M165 696h16l32 -21q75 15 101 15h6q220 -42 220 -197q0 -134 -252 -242q-77 -34 -137 -34q-6 0 -41 5q-62 -209 -81 -225q-14 0 -25 21v38q12 15 45 207q40 175 73 355q22 58 43 78zM117 279q3 -11 24 -22q112 0 304 150q32 44 32 63v45q-38 118 -157 118h-40
q-78 0 -78 -56q-23 0 -23 -57q-34 -91 -62 -241z" />
    <glyph glyph-name="Q" unicode="Q" horiz-adv-x="523" 
d="M284 688q172 0 193 -241v-65q0 -116 -109 -230q-14 -25 -68 -78v-9q2 -11 29 -11q83 0 195 135h24q13 -1 13 -12v-6q-35 -93 -151 -146q-25 -18 -90 -28q-33 5 -93 28q-19 -14 -75 -23q-79 0 -123 108l-10 4l4 26q-23 59 -23 121q0 173 94 323q92 99 161 99h28q1 0 1 5z
M71 334h1q24 19 55 78q24 15 39 15h12v-23q-97 -162 -97 -250q18 -80 30 -86q28 -18 41 -18q48 9 48 20v13q-23 27 -23 47q0 9 21 17q9 0 57 -31q169 110 169 331q-23 193 -137 193q-125 0 -192 -198q-24 -64 -24 -108z" />
    <glyph glyph-name="R" unicode="R" horiz-adv-x="341" 
d="M220 683h20q85 0 103 -123q-13 -135 -124 -300q-14 -5 -14 -24q88 -184 143 -184l25 -7v-11l-23 -30q-90 0 -189 182q-70 -24 -99 -28q-14 -115 -26 -164h-19q-17 42 -17 52v16q46 294 66 499q22 59 110 111q20 11 44 11zM89 318q53 -42 87 -42q114 175 114 279v34
q-26 46 -65 46q-93 0 -106 -142q-21 -78 -30 -175zM93 244v-29h8q21 10 21 21l-16 13h-8q-5 -1 -5 -5z" />
    <glyph glyph-name="S" unicode="S" 
d="M365 688h30q143 -17 143 -108v-20q-27 -87 -48 -87h-15q-13 0 -13 13v10l30 65q0 76 -92 76q-166 0 -226 -167v-19q0 -82 78 -107q181 -57 181 -157v-5q-33 -112 -82 -112q-46 -37 -204 -70h-36q-112 20 -112 113q0 25 57 57h21q13 -2 13 -14q-30 -38 -35 -49v-18
q32 -38 66 -38q197 13 242 117q4 26 4 48q-53 63 -152 93q-111 45 -111 152q34 112 71 132q110 95 190 95z" />
    <glyph glyph-name="T" unicode="T" horiz-adv-x="260" 
d="M619 694l5 -11v-5q0 -21 -219 -43l-11 6q-112 0 -277 -59l-33 10l-37 -10q-31 6 -48 32q0 36 278 69l21 -5q95 11 321 16zM325 582q20 0 32 -91q-32 -58 -102 -241l-112 -240q0 -8 -16 -16h-10q-5 0 -16 16q21 72 112 299q48 192 69 241q25 32 43 32z" />
    <glyph glyph-name="U" unicode="U" horiz-adv-x="629" 
d="M281 684q43 0 71 -57q-5 -18 -51 -64h-13v12l6 32l-13 7q-134 -146 -134 -230q-70 -71 -70 -301l25 -25h7q102 34 268 198l115 230q4 50 77 115q10 0 26 13h19q9 0 25 -32q0 -36 -179 -333q-19 -76 -19 -128q13 -70 58 -70v-6q140 32 166 32q-22 -75 -179 -77h-6
q-84 0 -109 134v26h-13q-172 -148 -249 -160q-109 0 -109 147q36 171 51 205q111 259 224 326q0 6 6 6z" />
    <glyph glyph-name="V" unicode="V" horiz-adv-x="353" 
d="M36 677q40 0 130 -445q15 -20 41 -109h25q64 109 234 462l41 30q19 -7 19 -14v-26q-112 -141 -234 -474q-24 -55 -64 -97h-24q-52 37 -111 271q0 23 -46 180q-20 126 -47 193q11 29 36 29z" />
    <glyph glyph-name="W" unicode="W" horiz-adv-x="503" 
d="M627 686q10 -1 10 -9v-15q-20 -81 -84 -267l-59 -242q-28 -113 -69 -113q-65 77 -89 227q0 19 -10 19q-15 -4 -45 -167q-38 -107 -69 -119q-55 0 -79 94q-93 313 -133 523q10 23 20 25h10q25 -17 79 -282q54 -186 84 -266h9q38 65 99 291q21 25 30 25q39 0 39 -133
q4 -58 55 -144q74 310 172 553h30z" />
    <glyph glyph-name="X" unicode="X" horiz-adv-x="398" 
d="M328 695h7q26 0 30 -73v-54q0 -27 -5 -66q5 -7 5 -11v0q157 165 199 170q68 -15 68 -39v-7l-9 -19l-31 6h-32q-29 -5 -191 -189l-4 -16q0 -63 52 -348h13q-12 -22 -12 -35h-19q-39 0 -92 319l-3 2h1q-71 -67 -209 -244l-59 -94q-13 -7 -37 -7v16q18 99 260 370l41 55v0
q6 45 -11 45l11 22v2q0 14 -5 23l5 32q0 14 -5 91q0 31 32 49z" />
    <glyph glyph-name="Y" unicode="Y" horiz-adv-x="284" 
d="M90 685h22q15 0 15 -21q-43 -120 -43 -128q-25 -77 -26 -163q9 -28 24 -39h41q198 89 198 194q21 29 49 124q31 17 31 24q32 -13 35 -26v-6q0 -32 -75 -219q-65 -408 -128 -408q0 -14 -56 -21q-115 0 -164 109q0 12 -6 23q10 25 20 25h27q19 0 62 -86q19 -15 44 -15h27
q36 19 71 125q31 162 31 209q-151 -102 -197 -108q-73 0 -85 100v26q0 2 -7 2l7 15v15q33 208 83 249z" />
    <glyph glyph-name="Z" unicode="Z" horiz-adv-x="621" 
d="M487 689q167 0 167 -105q0 -21 -101 -170v-6h12q109 0 167 -12v-24q-9 0 -70 -22h-7q-27 0 -56 5q-22 -5 -39 -5q-5 0 -34 5q-45 0 -103 -76q0 -4 -186 -181q-16 -14 -16 -33q11 -3 86 -10l219 33h79l32 -6v-15q0 -20 -346 -65h-18q-1 0 -1 -6q-100 0 -115 65
q0 52 215 239q32 36 32 50q-3 0 -14 5q-116 -5 -190 -5h-93q-31 -34 -53 -34q-54 6 -54 26q0 61 116 61q177 11 281 11l22 -6q9 6 29 6h26q115 126 115 181v10q-23 31 -91 31q-218 0 -282 -43v-7q39 -28 39 -36v-14l-26 -7q-105 16 -105 83v6q0 50 363 71z" />
    <glyph glyph-name="bracketleft" unicode="[" horiz-adv-x="166" 
d="M87 600q51 -11 199 -26v-16q0 -18 -136 -26q-36 5 -58 5l-26 -5v-16q0 -21 42 -21v-5q0 -5 -48 -37q6 -42 11 -42l-5 -11q0 -13 5 -42q-5 -77 -11 -105l6 -11q-6 -9 -6 -21q0 -10 6 -10l-6 -26v-95q0 -19 6 -47q-6 -7 -6 -37q0 -8 21 -21q64 3 64 10l10 -5h47q55 0 74 16
h16q10 -2 10 -11v-15q0 -30 -215 -63q0 -11 -27 -11q-68 0 -68 137q-5 36 -5 58v31q0 12 5 21q-5 9 -5 21q10 48 10 58h-5q0 5 5 5q-5 53 -5 79v32q0 25 5 52q-6 49 -10 63q10 42 16 42q-32 34 -32 53q0 35 116 42z" />
    <glyph glyph-name="backslash" unicode="\" horiz-adv-x="324" 
d="M38 517q22 0 77 -159q10 -7 102 -185q21 -39 107 -161v-9q0 -4 -4 -4h-18q-42 0 -202 258q0 25 -66 138q0 26 -42 90v4q0 28 46 28z" />
    <glyph glyph-name="bracketright" unicode="]" horiz-adv-x="442" 
d="M-46 637h138q74 0 74 -42q-11 -18 -11 -32h6l-6 -11v-64q0 -12 6 -21l-6 -10q11 -46 11 -59q-5 -28 -5 -32q10 -20 10 -58v-5q0 -38 -5 -43q5 -37 5 -64q0 -49 -5 -138q11 -51 11 -58q-4 -85 -38 -85q-35 16 -95 16v-5q-20 12 -80 16q-53 -6 -79 -6l-11 16v11q0 7 16 16
h16q28 0 48 5q37 -5 143 -11q5 11 5 16q0 16 -5 16l5 53v186q0 19 6 48q-11 21 -11 58v43l5 32q-21 46 -21 53q0 9 11 32l-6 10q6 29 6 48q0 11 -11 11h-21q-28 0 -90 5q-4 -27 -16 -27h-6q-30 22 -42 48v21q34 11 48 11z" />
    <glyph glyph-name="underscore" unicode="_" horiz-adv-x="450" 
d="M364 37q59 0 104 -18q0 -33 -288 -40q0 -3 -34 -8l-19 4q-9 0 -104 -4q-23 7 -23 17v12q0 18 76 21q33 -4 55 -4l11 4q10 -4 14 -4q202 20 208 20z" />
    <glyph glyph-name="grave" unicode="`" horiz-adv-x="357" 
d="M270 827h11q11 -2 11 -11v-5q-13 -17 -38 -77q20 -105 44 -105q16 0 44 17q44 -14 44 -39q0 -33 -83 -60q-76 0 -88 121l-5 38q0 17 33 66q0 10 27 55z" />
    <glyph glyph-name="a" unicode="a" horiz-adv-x="410" 
d="M322 439q82 0 82 -119q0 -34 -22 -40h-23q-6 95 -31 95h-35q-143 -65 -218 -218q-11 -37 -11 -52v-18q0 -30 31 -30h17q147 43 211 147q24 32 24 50h29q16 -3 16 -17v-25q-65 -121 -65 -172q5 -31 13 -31h6q6 0 88 30h18v-19q-53 -57 -125 -57q-58 19 -58 71v19v0
q-122 -54 -187 -54q-63 27 -82 69q0 130 169 304q103 67 153 67z" />
    <glyph glyph-name="b" unicode="b" horiz-adv-x="331" 
d="M461 688q54 -21 54 -70q-42 -154 -311 -303q-80 -38 -87 -57v-8h-7q78 64 163 64h19q70 0 70 -98q0 -96 -231 -218l-35 -5q-67 0 -94 97q0 10 26 131v-12l-14 2q2 0 2 -9q-52 12 -52 35q17 27 106 65q16 76 232 307q93 77 159 79zM149 346l-1 2q74 0 255 156q50 54 50 86
v23q-1 6 -17 13q-127 -45 -282 -275q-5 -11 -5 -5zM60 113v-27q0 -27 32 -41q69 0 214 151q8 17 8 28q-11 35 -32 42h-23q-100 0 -199 -153z" />
    <glyph glyph-name="c" unicode="c" horiz-adv-x="395" 
d="M239 444q81 0 120 -97q-16 -66 -45 -74h-12q-18 0 -18 17v6q0 6 12 46v5q0 40 -57 51h-5q-52 0 -126 -94q-45 -77 -45 -116v-29q0 -82 126 -113h21l229 41v-13q0 -38 -228 -80h-18q-187 42 -187 159q-6 0 -6 12q0 94 115 226q58 53 124 53z" />
    <glyph glyph-name="d" unicode="d" horiz-adv-x="381" 
d="M332 681q27 0 35 -52q-12 -19 -12 -35v-198q0 -6 6 -6l-6 -12q12 -168 12 -209q-4 -82 -29 -82q-30 8 -30 41v82q-61 116 -122 116h-11q-67 0 -117 -111q-11 -40 -11 -69q0 -81 139 -129v-5q0 -12 -11 -12q-101 0 -158 87q-11 29 -17 99q67 204 169 204q30 0 122 -58h12
q0 19 5 29q-5 103 -5 169v87q9 64 29 64z" />
    <glyph glyph-name="e" unicode="e" horiz-adv-x="393" 
d="M321 444q137 -19 137 -125q0 -102 -333 -198q-34 6 -54 6v-29q0 -47 176 -47q61 0 184 37h13q14 -2 14 -15q-90 -75 -278 -75q-149 0 -180 118v25q0 142 179 278q87 25 142 25zM78 214v-36q0 -10 16 -10l171 55q128 32 128 114q0 31 -91 54h-18q-84 0 -182 -122
q0 -20 -24 -55z" />
    <glyph glyph-name="f" unicode="f" horiz-adv-x="491" 
d="M443 687q89 0 96 -179q0 -76 -127 -185h-25v14q95 105 95 177q6 49 6 60q-14 48 -34 56h-22q-93 0 -178 -380v-26q85 7 94 11l34 -6h100q18 -1 18 -17v-16q-51 -12 -112 -12h-112q-39 0 -39 -39v-61q0 -28 6 -90h-23q-21 0 -34 112l5 61v0l-49 5q0 -11 -17 -11h-44
q-56 0 -81 60l18 8q57 -11 152 -16q40 0 55 162q108 312 218 312z" />
    <glyph glyph-name="g" unicode="g" horiz-adv-x="389" 
d="M272 445q84 -51 84 -127q-10 -27 -23 -27h-24q0 67 -47 97h-7q-123 0 -199 -196v-18q0 -22 30 -25q52 0 200 112h22q18 0 24 -38q-7 -44 -19 -61v-17h-16q92 38 120 38q10 -5 22 -5v-14q-2 -17 -158 -93q-218 -502 -356 -502h-9q-47 0 -82 80q0 205 247 388
q170 75 170 89q0 23 24 73h3q-119 -97 -188 -97v-5q-66 0 -91 86q0 115 169 242q53 20 104 20zM-95 -316q3 -58 20 -58h17q73 42 165 199q105 211 105 209h-4q-214 -90 -283 -264q0 -10 -20 -86z" />
    <glyph glyph-name="h" unicode="h" horiz-adv-x="426" 
d="M389 687h20v-12q0 -35 -128 -294q-30 -48 -30 -68q68 16 100 16q40 -49 40 -72q0 -55 -55 -172l-5 -31l7 -4h15q25 16 93 44q12 -7 30 -7v-20q-24 -35 -152 -71q-29 9 -42 35v27l42 163v42q0 4 -13 12h-46q-58 -17 -99 -106q-90 -148 -131 -179q-25 5 -32 30
q10 73 81 180q105 64 144 199q18 21 140 274zM63 86v1h7q0 10 24 44v23v0q-6 0 -31 -68z" />
    <glyph glyph-name="i" unicode="i" horiz-adv-x="183" 
d="M396 690q11 0 22 -20v-16q-114 -31 -144 -72q-13 0 -24 20v23q0 65 146 65zM193 434h13q22 0 22 -26q0 -53 -56 -91q-113 -160 -113 -251q7 -18 11 -18h6q19 0 118 49h17v-12q-80 -90 -162 -90q-31 0 -49 75q8 103 122 310q25 0 71 54z" />
    <glyph glyph-name="j" unicode="j" horiz-adv-x="150" 
d="M161 663q19 -11 64 -17v-17q-44 0 -44 -39q-9 0 -20 -6q-20 0 -48 48q12 31 48 31zM130 445q12 0 23 -18v-24q0 -28 11 -67q-58 -94 -61 -273q-47 -187 -164 -265q-20 -11 -79 -28q-131 29 -131 100h-7q14 73 32 73q13 0 20 -74l59 -54h37q74 15 138 121q27 69 27 93
q-5 10 -5 20q22 0 33 165q45 198 63 198q4 6 4 33z" />
    <glyph glyph-name="k" unicode="k" horiz-adv-x="491" 
d="M283 655h27v-20q0 -47 -40 -129q0 -33 -75 -197q-13 -35 -13 -33h-2q185 169 260 169h27q19 -3 19 -19v-20q-23 0 -33 6q-183 -85 -280 -242q-19 0 -136 -176h-10q-8 0 -27 26q101 199 184 388q78 240 99 247zM171 182h19q12 0 71 -109l44 -13h54q50 0 154 34h14v-20
q0 -48 -209 -80q-155 35 -155 135z" />
    <glyph glyph-name="l" unicode="l" horiz-adv-x="333" 
d="M200 681q12 0 23 -22q-141 -348 -141 -371q-25 -57 -25 -204q19 0 19 -25h25q107 87 277 148h12v-18q-71 -52 -193 -118q-45 -48 -119 -75q-78 24 -78 96v25q8 186 117 445q61 111 83 119z" />
    <glyph glyph-name="m" unicode="m" horiz-adv-x="596" 
d="M184 447h6q12 0 12 -19q0 -20 -25 -98v-6q13 0 92 49q28 12 61 12q20 0 55 -42h13q67 56 140 73q49 0 55 -61q-110 -221 -110 -251v-12l19 -12h6l147 48q11 -6 18 -6v-12q-90 -79 -184 -79q-67 8 -67 61q0 35 116 263v6h-30q-111 -59 -178 -214q-32 -92 -73 -92h-12
q-9 0 -25 31q47 101 110 208v18q-6 12 -6 18h-6q-154 0 -257 -318l-30 -12q-29 8 -31 24l116 306q10 61 68 117z" />
    <glyph glyph-name="n" unicode="n" horiz-adv-x="537" 
d="M169 466h30q0 -20 7 -20l-47 -163l11 -5q81 51 222 94q89 0 89 -63q0 -71 -74 -168q0 -5 -20 -61v-18h12l135 41q13 -7 21 -7v-15q0 -38 -183 -83q-49 14 -49 56q0 31 101 229v25h-59q-260 -74 -260 -194q-54 -87 -76 -96q-20 3 -29 35q0 38 101 210q42 174 68 203z" />
    <glyph glyph-name="o" unicode="o" horiz-adv-x="334" 
d="M250 443q110 0 120 -146v-36q0 -107 -175 -234q-53 -26 -107 -32q-88 11 -88 88q0 79 67 168l-10 19q0 99 171 173h22zM109 285v-4v0q15 0 42 11q11 -5 21 -5v-24q-110 -76 -110 -174q0 -42 37 -42h4q215 73 215 255q0 100 -88 100q-62 -19 -110 -91q0 -13 -11 -26z" />
    <glyph glyph-name="p" unicode="p" horiz-adv-x="505" 
d="M259 446q235 -76 235 -230v-19q-15 -70 -85 -122q-79 -49 -276 -72q-33 6 -47 6q-26 -9 -123 -202q-10 -1 -70 -129q0 -14 -68 -104h-17l-7 28q39 104 304 615q42 121 42 174l98 55h14zM202 396q0 -139 -95 -318v-17q1 -8 8 -8h42q44 0 171 47q93 45 93 133
q0 68 -111 134q-44 29 -76 29h-32z" />
    <glyph glyph-name="q" unicode="q" horiz-adv-x="424" 
d="M268 447q90 0 90 -81q-7 -63 -60 -63v14q0 11 9 46q0 16 -20 28h-10q-77 0 -208 -277q-13 -46 -13 -55v-12q1 -4 15 -4q89 22 202 168q38 65 59 76h21q18 -3 18 -19q0 -51 -103 -297q-30 -74 -30 -107v-7h-22q24 15 80 108q13 7 115 137q11 10 61 40q11 -6 23 -6v-26
q-94 -113 -140 -181q-44 -48 -129 -175q-17 -6 -31 -22q-35 12 -35 34q0 142 141 418v0l-8 -31q-127 -161 -221 -161h-18q-54 11 -54 54q0 121 167 321q59 80 101 80z" />
    <glyph glyph-name="r" unicode="r" horiz-adv-x="391" 
d="M332 455q73 -27 73 -73q-17 -101 -153 -214q-34 -18 -34 -29q78 -95 108 -95h17q64 9 75 9l10 -18q0 -23 -83 -48q-82 0 -171 117q-47 -19 -89 -26q-27 -55 -50 -55q-20 3 -35 32q0 15 40 78q0 46 66 78q94 152 143 209q37 29 83 35zM151 197v-4q12 0 62 -21h-25
q156 127 156 206l-14 11h-9q-3 0 -159 -173zM114 149l6 -2v0q14 0 20 26v-30v0z" />
    <glyph glyph-name="s" unicode="s" horiz-adv-x="369" 
d="M283 440q92 0 92 -103v-17q-29 -92 -70 -92q-25 6 -35 30q22 58 22 68v11q0 6 -27 26h-10q-66 0 -150 -100v-26q35 -52 174 -146l6 -29v-7q-42 -57 -115 -57q-170 0 -170 75q14 36 41 36q13 0 41 -45h143v19q-160 84 -174 158q0 136 232 199z" />
    <glyph glyph-name="t" unicode="t" horiz-adv-x="491" 
d="M328 687q0 -7 25 -43q-25 -91 -50 -210q7 -31 50 -31q68 0 161 12q42 -7 62 -37q-6 -21 -25 -25q-20 12 -31 12q-235 0 -235 -49q-6 -151 -12 -192q10 -68 49 -68h31l155 62h12v-7q-102 -97 -204 -111q-87 18 -87 118q-12 0 -12 37q0 49 12 179l-12 7h-19q-29 0 -62 6
q-53 -13 -68 -13q-48 0 -68 44v12q8 25 56 25l55 -19q84 7 124 7q36 124 68 284h25z" />
    <glyph glyph-name="u" unicode="u" horiz-adv-x="454" 
d="M177 441h22q12 0 24 -22q0 -45 -84 -116q-76 -156 -76 -188v-27q0 -26 23 -37h14q39 0 215 129l54 119q29 104 94 104h11q11 0 40 -44q0 -45 -149 -214l-5 -25v-9q12 -27 37 -27q-1 0 -1 10l19 -10h4q30 0 75 27h31v-12q0 -46 -127 -73h-17q-56 0 -82 77q-7 0 -151 -93
q-46 -17 -59 -17q-65 0 -89 111q0 54 127 279q39 58 50 58z" />
    <glyph glyph-name="v" unicode="v" horiz-adv-x="398" 
d="M96 425h30q24 -22 88 -267l19 -9h9q38 0 100 186q17 51 38 51h22q4 0 4 -9q0 -39 -141 -339q-27 -17 -27 -18q-68 0 -149 375v26z" />
    <glyph glyph-name="w" unicode="w" 
d="M488 450q22 -6 24 -19q-63 -114 -76 -242q-28 -180 -95 -180q-80 81 -95 143h-4q-16 -12 -48 -90q-23 -21 -23 -57l-57 -5q-43 0 -48 43q-66 90 -66 175v43q0 29 5 71q-5 18 -5 33q2 52 24 52q12 0 23 -185h5q0 -5 -5 -5q30 -162 86 -170q26 58 71 109q18 82 42 95h5
q47 0 47 -95q26 -69 43 -71h5q47 66 80 232q30 123 62 123z" />
    <glyph glyph-name="x" unicode="x" horiz-adv-x="595" 
d="M546 461q59 0 79 -91q0 -57 -59 -117h-17q13 94 13 98q-6 35 -28 35q-75 -14 -180 -187v-63q0 -62 117 -85q42 0 138 38q13 -6 22 -6v-16q0 -37 -160 -66q-111 0 -185 120h-4q-109 -80 -177 -95q-60 8 -60 54v13q17 34 53 34q27 0 46 -32q58 0 141 94q50 73 50 117
q-21 92 -41 92h-19q-161 -55 -161 -176h-24l-7 47q0 100 166 173h52q72 -42 72 -107h8q115 119 165 126z" />
    <glyph glyph-name="y" unicode="y" horiz-adv-x="320" 
d="M156 458h28q0 -44 -65 -125q-54 -102 -54 -184q2 -20 7 -20h12q119 57 155 151q24 70 86 137h17q14 0 25 -34q-14 -57 -70 -128q-63 -101 -63 -147l2 -1q110 77 126 77q0 -5 5 -5q0 -26 -157 -149q-13 -24 -63 -226q-81 -215 -128 -215q0 -5 -11 -5h-15q-102 25 -102 94
v41q0 143 213 298q57 41 57 64q9 37 9 45v4h13q-70 -53 -120 -56q-41 0 -58 89q49 197 151 295zM-54 -307q23 -47 36 -54h21q39 0 130 328v6v0q-187 -127 -187 -280z" />
    <glyph glyph-name="z" unicode="z" horiz-adv-x="677" 
d="M359 439q134 0 134 -75q0 -32 -83 -117l27 -19h17q26 0 66 7q184 -21 184 -38v-4q-87 -16 -87 -19l-46 6h-183q-125 0 -187 -91v-21q51 0 115 -7q170 7 327 7q46 -5 46 -17q0 -20 -415 -39q0 -7 -2 -7q-148 0 -148 75q0 15 58 71v28l-49 8q-39 0 -128 -28l-5 10v6
q0 45 162 68l14 -8h81q103 0 173 114v15q0 14 -26 27h-52q-165 -11 -165 -50q7 -12 7 -28v-2h-46q-10 0 -31 40q0 88 242 88z" />
    <glyph glyph-name="bar" unicode="|" horiz-adv-x="170" 
d="M66 577q75 -46 75 -49q-28 -35 -28 -77l6 -50q-11 -66 -18 -78q6 -41 6 -64v-11q0 -29 -5 -51q7 -87 11 -98q-5 -43 -25 -87h-1q-4 0 -26 29v14q0 -2 13 -2q-19 28 -30 104q11 147 11 176q0 14 -4 14l4 31v68q0 46 6 110l-4 8z" />
    <glyph glyph-name="asciitilde" unicode="~" horiz-adv-x="491" 
d="M276 275h14q37 0 101 -105l33 -10h19q85 34 96 34q0 -5 5 -5q-49 -72 -134 -72q-60 0 -96 81q-8 22 -29 34h-33q-82 -34 -96 -58l5 -9q0 -4 -34 -29q-38 15 -38 43v5q0 12 57 19q10 12 10 19h29q44 53 91 53z" />
    <glyph glyph-name="nonbreakingspace" unicode="&#xa0;" horiz-adv-x="475" 
 />
    <glyph glyph-name="currency" unicode="&#xa4;" horiz-adv-x="622" 
d="M541 55l-84 86q-37 -30 -76.5 -42.5t-73.5 -12.5t-73.5 12.5t-76.5 42.5l-84 -86l-33 34l85 84q-30 37 -42.5 76.5t-12.5 73.5t12.5 73.5t42.5 76.5l-85 84l33 34l84 -86q37 30 76.5 42.5t73.5 12.5t73.5 -12.5t76.5 -42.5l84 86l34 -34l-86 -84q30 -37 42.5 -76.5
t12.5 -73.5t-12.5 -73.5t-42.5 -76.5l86 -84zM496 323q0 40 -15 75.5t-40.5 61.5t-60 41.5t-73.5 15.5t-73.5 -15.5t-60 -41.5t-40.5 -61.5t-15 -75.5t15 -75.5t40.5 -61.5t60 -41.5t73.5 -15.5t73.5 15.5t60 41.5t40.5 61.5t15 75.5z" />
    <glyph glyph-name="copyright" unicode="&#xa9;" horiz-adv-x="685" 
 />
    <glyph glyph-name="guillemotleft" unicode="&#xab;" horiz-adv-x="215" 
d="M50 65q9 -5 27 -5l-6 -22q6 -46 6 -53l-32 -74h-5q-14 0 -27 42q0 75 37 112zM178 60h10l11 -6l-5 -21q5 -46 5 -53q-27 -61 -27 -69h-10q-9 0 -22 32q0 85 38 117z" />
    <glyph glyph-name="logicalnot" unicode="&#xac;" horiz-adv-x="594" 
d="M518 164l-37 -13l12 83h-259h-45t-68.5 -0.5t-64.5 -1t-35 -1.5q8 26 23 35.5t23 11.5q8 0 42 0.5t81 0.5h101t103.5 0.5t88 0.5t54.5 1z" />
    <glyph glyph-name="registered" unicode="&#xae;" horiz-adv-x="698" 
 />
    <glyph glyph-name="degree" unicode="&#xb0;" horiz-adv-x="374" 
d="M344 638q0 -34 -14.5 -68.5t-40 -62.5t-60.5 -46t-75 -18q-23 0 -38 9t-24 22.5t-12.5 29t-3.5 29.5q0 38 16.5 76.5t54.5 71.5q29 25 51.5 33.5t33.5 10.5q14 5 24 6.5t23 1.5q29 0 47 -25t18 -70zM289 612q0 38 -11 54t-28 18q-3 0 -10 0.5t-14 0.5q-31 0 -50 -15.5
t-29 -36t-13.5 -40t-3.5 -27.5q0 -15 2.5 -30t9 -27t17.5 -19.5t27 -7.5q15 0 33 4.5t33.5 18.5t26 39.5t10.5 67.5z" />
    <glyph glyph-name="plusminus" unicode="&#xb1;" horiz-adv-x="580" 
d="M359 576h17q22 0 27 -77l-16 -78v-27q13 -11 127 -39q33 -27 33 -33v-6q0 -11 -11 -11q-49 34 -105 34h-22l-28 -6v-17q0 -35 6 -71q-6 -21 -6 -50h-11q-15 0 -38 138h-61l-55 -17h-17q-27 0 -33 23q0 40 166 49q5 10 5 22v6q0 5 -5 5l5 11l-5 50q0 13 27 94zM350 165
q36 -8 53 -8q29 8 53 8q115 -8 115 -24v-12q-21 -28 -80 -28q-39 0 -53 -4q-60 4 -97 4h-79q-30 0 -62 -12q-71 13 -71 28q13 40 62 40q53 0 53 4q17 -4 26 -4q39 0 80 8z" />
    <glyph glyph-name="paragraph" unicode="&#xb6;" horiz-adv-x="373" 
d="M255 -74h-48l121 736h48zM127 -74h-47l83 519q-31 20 -44 50.5t-5 68.5q15 76 87 98h47z" />
    <glyph glyph-name="guillemotright" unicode="&#xbb;" horiz-adv-x="320" 
d="M179 787q9 -5 27 -5l-6 -22q6 -46 6 -53l-32 -74h-5q-14 0 -27 42q0 75 37 112zM307 782h10l11 -6l-5 -21q5 -46 5 -53q-27 -61 -27 -69h-10q-9 0 -22 32q0 85 38 117z" />
    <glyph glyph-name="divide" unicode="&#xf7;" horiz-adv-x="549" 
d="M274 222q18 0 30.5 -12.5t12.5 -30.5q0 -17 -12.5 -30t-30.5 -13q-17 0 -30 13t-13 30q0 18 12.5 30.5t30.5 12.5zM538 312h-527v41h527v-41zM274 525q18 0 30.5 -12.5t12.5 -30.5q0 -17 -12.5 -29.5t-30.5 -12.5t-30.5 12.5t-12.5 29.5q0 18 12.5 30.5t30.5 12.5z" />
    <glyph glyph-name="afii10023" unicode="&#x401;" horiz-adv-x="361" 
d="M454 808q38 0 38 -38v-5q0 -5 -5 -5l5 -11v-6q0 -27 -16 -32h-11q-34 34 -38 70v22zM223 792q16 0 38 -70q10 0 10 -22h-43l-16 -10h-5q-11 0 -11 10v6l5 32q-10 27 -16 27q8 27 38 27zM342 677h18q79 -18 79 -97v-37q-15 -31 -49 -31h-12q-9 0 -18 19v12q30 0 30 12
q0 61 -48 61h-13q-83 0 -128 -158v-13q72 -22 110 -97v-6q-34 -49 -79 -49q-9 0 -86 49q-79 -39 -79 -177v-6q50 -110 177 -110h110l30 6v-24q-117 -31 -170 -31q-208 46 -208 165q-6 0 -6 18v12q0 88 134 232q0 127 153 238q39 12 55 12z" />
    <glyph glyph-name="afii10051" unicode="&#x402;" horiz-adv-x="599" 
d="M624 655q0 -12 -12 -23t-29 -21t-35.5 -18.5t-31.5 -14.5l-3 7q24 13 29.5 25t5.5 25q0 22 -78 22q-23 0 -35.5 -1t-22 -2.5t-20 -4t-29.5 -5.5q-12 -51 -31.5 -111.5t-38.5 -130.5q20 4 47 7.5t46 3.5q27 0 56 -4.5t53 -20t39 -44.5t15 -78q0 -57 -28 -124t-73.5 -125.5
t-103 -97.5t-117.5 -39q-42 0 -63.5 10.5t-21.5 26.5q0 6 2.5 14.5t14.5 8.5q9 0 14.5 -7t11.5 -15t14 -15t22 -7q35 0 67.5 16t60 42t50 60t38 71t24 73.5t8.5 67.5q0 44 -9 71.5t-25.5 42.5t-38.5 20.5t-47 5.5q-14 0 -34 -2.5t-37 -6.5q-3 -9 -7.5 -23.5t-9 -30.5
t-8.5 -31t-6 -24q-20 -89 -32 -144t-23 -77t-26.5 -28.5t-24.5 -6.5q-16 0 -18.5 7t-2.5 24q0 6 4 24t10.5 42.5t14 52t15.5 53.5q6 22 13.5 46t14.5 45t12 35.5t6 17.5q-6 -2 -13 -4t-12 -2q-9 0 -10 2t-1 8t5.5 12t13 12t16.5 11t16 8q28 91 44 153t23 89
q-78 -18 -123.5 -35.5t-70.5 -32t-35 -23.5t-18 -9q-11 0 -15.5 1.5t-4.5 12.5q0 7 25.5 21.5t67.5 32.5t96 36.5t111 33.5t112 25t100 10q42 0 64.5 -9t22.5 -37z" />
    <glyph glyph-name="afii10052" unicode="&#x403;" horiz-adv-x="306" 
 />
    <glyph glyph-name="²" unicode="&#x406;" 
d="M617 702q129 -11 129 -38v-15h-112q-336 -11 -336 -36q0 -38 -124 -38q-30 0 -60 37v7q0 49 486 83h17zM494 617q19 -23 19 -44v-17q0 -55 -33 -55q-11 6 -14 6q-91 -145 -112 -320l7 -43h-16q-50 0 -50 61q40 208 92 285q59 127 107 127zM459 89q11 -6 20 -6v-15
q-14 -47 -466 -72l-13 20q0 50 163 50h28q2 0 2 9l16 -8q81 11 250 22z" />
    <glyph glyph-name="afii10056" unicode="&#x407;" 
d="M617 702q129 -11 129 -38v-15h-112q-336 -11 -336 -36q0 -38 -124 -38q-30 0 -60 37v7q0 49 486 83h17zM494 617q19 -23 19 -44v-17q0 -55 -33 -55q-11 6 -14 6q-91 -145 -112 -320l7 -43h-16q-50 0 -50 61q40 208 92 285q59 127 107 127zM459 89q11 -6 20 -6v-15
q-14 -47 -466 -72l-13 20q0 50 163 50h28q2 0 2 9l16 -8q81 11 250 22zM338 799q11 0 21 -19v-15q-114 -32 -144 -72q-12 0 -22 19v23q0 64 145 64zM613 804q11 0 21 -19v-15q-114 -32 -144 -72q-12 0 -22 19v23q0 64 145 64z" />
    <glyph glyph-name="afii10059" unicode="&#x40a;" horiz-adv-x="765" 
d="M696 250q0 41 -13.5 66t-54.5 25q-26 0 -52.5 -13t-49.5 -33l-6 14q41 42 85 63.5t76 21.5q40 0 63 -22t23 -73q0 -30 -14.5 -66t-39 -71.5t-56.5 -68.5t-68 -58.5t-73.5 -41t-71.5 -15.5q-20 0 -38.5 4t-33 16t-23.5 33.5t-9 56.5q0 26 8.5 69t20 88t23 85.5t18.5 61.5
q-38 -25 -75 -43q-32 -17 -67.5 -30t-62.5 -13q-11 0 -19.5 0.5t-13.5 1.5q-6 1 -11 3q-3 -12 -9.5 -35.5t-14.5 -52.5t-17 -60t-17.5 -58.5t-16 -48t-11.5 -27.5q-13 -21 -28 -29t-24 -8q-19 0 -23.5 8t-4.5 25q0 6 6.5 28t15.5 49.5t18.5 55t15.5 44.5l51 131
q-5 6 -8.5 15t-3.5 26q0 7 4 15.5t10.5 16t14.5 12.5t17 5q18 54 34 100q7 19 13.5 38.5t12.5 36t11.5 28t8.5 16.5q12 17 21.5 25.5t17.5 11.5t13.5 3h10.5q8 0 8 -14q-1 -10 -10 -38.5t-23 -63.5l-64 -168q3 -9 11 -15q7 -6 20.5 -10.5t36.5 -4.5q28 0 56 9t51 21t38.5 24
t18.5 18q8 20 14 46t14 49q12 37 22.5 60.5t19.5 38t16.5 21.5t13.5 10q12 7 23.5 12.5t17.5 5.5q8 0 8.5 -4t0.5 -12q0 -6 -5 -24t-15 -46t-24 -64.5t-32 -78.5q-14 -43 -28 -91t-25.5 -95t-19 -89.5t-7.5 -74.5t16.5 -52.5t53.5 -20.5q46 0 84.5 22.5t66.5 55.5t43.5 71
t15.5 70z" />
    <glyph glyph-name="afii10017" unicode="&#x410;" horiz-adv-x="645" 
d="M410 681q155 -28 155 -161l-12 -25q-17 0 -56 80q-35 38 -118 38q-122 0 -230 -205q-93 -140 -93 -280q16 -80 93 -80q107 0 248 130q24 0 62 143l94 130l12 6h43q15 0 19 -31q-136 -220 -136 -248q34 -118 105 -118h25q6 0 6 6q44 -11 44 -25v-12l-75 -19
q-155 43 -155 125h-19q-161 -137 -248 -137h-50q-124 16 -124 137q0 202 217 459q97 72 193 87z" />
    <glyph glyph-name="afii10018" unicode="&#x411;" horiz-adv-x="499" 
d="M467 694q117 -5 117 -28v-6q0 -7 -27 -21q-28 14 -49 14l-123 -21l-14 7q-69 0 -69 -55q-34 0 -55 -89q-27 -23 -27 -69v-14q14 0 14 -7q16 7 68 14q213 0 213 -165q0 -104 -151 -213l-89 -41h-76q-137 0 -137 48l14 7q11 0 82 -7l14 7q11 -7 34 -7q158 0 247 179
q0 6 7 55q-23 82 -137 82q-137 -3 -137 -69q-36 -40 -117 -213q-31 -20 -48 -20l-21 27q16 116 69 200q52 52 130 254v20q0 7 -7 7q13 96 90 96q0 28 185 28z" />
    <glyph glyph-name="afii10019" unicode="&#x412;" horiz-adv-x="483" 
d="M267 677q13 -7 20 -7l13 7q131 -32 131 -125q-14 -50 -92 -144v-13q177 -42 177 -165q0 -84 -183 -190q-72 -33 -138 -33h-7q-106 0 -131 66v26h13q40 -46 125 -46q114 0 243 131q26 38 26 59q-24 92 -131 92q0 14 -14 14h-19q-21 -12 -132 -33q-24 6 -39 46
q25 34 138 52q98 82 98 151v7q-10 34 -46 46v-7l-13 7h-39q-51 0 -79 -86q-31 0 -52 -52l6 -33q-20 -6 -20 -39v-53q-21 0 -26 -66q-13 0 -59 -170h-26q-10 0 -20 19q0 68 92 375q0 125 85 125q82 39 99 39z" />
    <glyph glyph-name="afii10020" unicode="&#x413;" horiz-adv-x="377" 
d="M533 684q51 0 51 -51q0 -32 -82 -158q-20 -62 -57 -95h-13q-13 0 -13 13v63q32 87 70 120q25 42 25 57q-140 -38 -253 -57q-25 -117 -70 -221l-152 -349l-12 -6q-21 0 -32 44l76 235q0 20 76 215q0 44 6 44l-12 32q0 56 392 114z" />
    <glyph glyph-name="afii10021" unicode="&#x414;" horiz-adv-x="519" 
d="M282 681q129 0 222 -121q56 -112 56 -217q-34 -197 -116 -267q-76 -76 -126 -76h-5q-61 0 -106 131q-19 15 -35 15q-25 0 -132 -111q-28 0 -40 31l101 166q58 116 121 212q0 11 45 15q2 -10 10 -10q0 -19 -65 -136q-35 -47 -61 -116q102 0 131 -106q18 -34 36 -41
q54 0 141 137q27 41 45 171q-38 187 -70 187q0 31 -96 70h-76q-69 0 -126 -171q0 -43 -30 -66h-10l-15 71q33 137 111 197q27 18 90 35z" />
    <glyph glyph-name="afii10022" unicode="&#x415;" horiz-adv-x="393" 
d="M472 677q48 0 60 -103v-6q0 -49 -108 -114q-31 7 -31 18v12q73 48 73 102v13q0 12 -12 12h-24q-79 0 -115 -127l-12 -6l6 -42v-13q66 -31 66 -84q-34 -42 -84 -42l-79 66h-12q-133 -102 -133 -187v-30q0 -84 127 -97q80 0 193 12l12 -6q12 6 19 6v-12q-91 -42 -133 -42
h-151q-139 45 -139 145t139 235q108 43 108 127q101 163 230 163z" />
    <glyph glyph-name="afii10024" unicode="&#x416;" horiz-adv-x="434" 
d="M109 698q51 -34 87 -224q16 -60 28 -60h5q65 243 87 268h38l6 -28q-19 -39 -44 -125q6 -11 6 -16h5q97 97 147 114q44 -14 44 -49h-38q-167 -116 -218 -267q40 -115 174 -278q13 0 17 -28l-11 -5h-22q-19 0 -55 44q-11 0 -76 65h-5v27q0 8 -33 33h-6l-27 -82h6
q-11 -87 -28 -87h-21v49q0 23 -6 60q11 20 11 44v5q0 11 -11 11q-12 0 -125 -169h-33q-11 0 -11 11q107 155 180 311q-82 218 -82 332v28z" />
    <glyph glyph-name="afii10025" unicode="&#x417;" horiz-adv-x="377" 
d="M316 685q43 0 74 -69q0 -83 -102 -166q-16 -24 -16 -30l5 -3h4v6q118 -38 118 -81q4 0 13 -56q0 -121 -213 -259q-61 -22 -107 -31q-92 15 -92 96q0 42 69 97q14 0 36 5v-15q-49 -51 -49 -74q0 -53 27 -53h35q111 27 217 165l16 34v35l5 25q-30 54 -71 54h-57
q-26 0 -69 -26h-10q-18 0 -30 15q0 20 87 79q0 4 102 97q26 58 26 68q0 35 -44 35h-5q-32 0 -82 -39q-22 0 -37 -71q9 -19 14 -52q-14 0 -14 -5q-32 0 -52 83v14q46 109 136 109q0 8 66 13z" />
    <glyph glyph-name="afii10026" unicode="&#x418;" horiz-adv-x="629" 
d="M281 684q43 0 71 -57q-5 -18 -51 -64h-13v12l6 32l-13 7q-134 -146 -134 -230q-70 -71 -70 -301l25 -25h7q102 34 268 198l115 230q4 50 77 115q10 0 26 13h19q9 0 25 -32q0 -36 -179 -333q-19 -76 -19 -128q13 -70 58 -70v-6q140 32 166 32q-22 -75 -179 -77h-6
q-84 0 -109 134v26h-13q-172 -148 -249 -160q-109 0 -109 147q36 171 51 205q111 259 224 326q0 6 6 6z" />
    <glyph glyph-name="afii10027" unicode="&#x419;" horiz-adv-x="625" 
d="M370 811q1 -9 32 -26h90q9 0 102 13h38q13 -2 13 -13q-69 -57 -217 -57q-109 27 -109 64q4 19 51 19zM300 677q16 0 51 -51q-34 -63 -44 -64h-7q-9 0 -19 19q6 11 6 26h-12q-96 -105 -96 -128q-96 -206 -96 -275l6 -12q-12 -21 -12 -39v-57q0 -27 25 -45q82 12 300 230
q13 83 71 192q72 140 134 140q17 -2 32 -32q0 -29 -179 -332q-19 -82 -19 -115q11 -89 57 -89q123 25 153 25v-19q-42 -51 -166 -51q-115 22 -115 147v6h-19q-117 -104 -230 -153q-98 0 -115 96l-6 32q36 245 128 364q0 86 166 185h6z" />
    <glyph glyph-name="afii10028" unicode="&#x41a;" horiz-adv-x="544" 
d="M322 758h18q11 0 26 -25v-25q-75 -94 -144 -283v-12q26 0 155 105q54 39 138 83q9 23 42 23h28q15 -2 15 -15v-11q0 -34 -96 -142q-20 -12 -34 -12v33l33 39v11h-6q-228 -140 -326 -237q-32 -49 -55 -133q-78 -158 -93 -158h-26l-6 44q17 29 17 55v15q18 0 67 114
l161 389q43 103 86 142zM194 257q16 0 165 -183q13 0 38 -17h20q55 33 166 68v-27q0 -14 -68 -48q-15 -17 -15 -31l-16 7q-60 -21 -122 -27q-95 33 -198 220q0 13 30 38z" />
    <glyph glyph-name="afii10029" unicode="&#x41b;" horiz-adv-x="475" 
d="M387 685q100 -23 100 -89q-42 -180 -42 -482q0 -45 48 -101v-11l-34 -7q-40 0 -83 186q6 11 12 71l-6 24q0 8 6 19l-6 54q0 148 48 253q-12 24 -12 33v0q-27 -30 -62 -30q8 16 8 19l-9 5h-2q-52 -100 -96 -384q-123 -250 -215 -250q-46 0 -46 67l16 8l26 -19h15
q106 82 124 167q38 66 67 277q27 95 48 140q31 50 95 50z" />
    <glyph glyph-name="afii10030" unicode="&#x41c;" horiz-adv-x="759" 
d="M337 681h23q0 -37 75 -52q32 0 47 -134l-24 -220v-69q2 -12 12 -12h6q56 0 203 174q55 130 75 249q11 29 41 29h17q8 0 18 -17q0 -28 -76 -273q-29 -365 -64 -365h-11q-19 0 -29 145q35 140 35 168q-12 0 -12 6q-12 0 -87 -93q-76 -69 -128 -69q-58 0 -58 139l18 191v58
q0 64 -47 64q-15 -78 -46 -336q-73 -187 -168 -232q-29 -18 -64 -24q-110 35 -110 87v6q24 35 58 35q17 0 41 -75h11q84 0 180 249q32 371 64 371z" />
    <glyph glyph-name="afii10031" unicode="&#x41d;" horiz-adv-x="410" 
d="M461 706h17q17 -3 17 -44v-67q0 -17 33 -84q0 -122 -83 -122q-24 0 -45 -233v-78q17 -50 17 -56v-5l-28 -6q-42 0 -50 56v16q0 79 11 139l-5 11q22 90 22 128q-10 6 -22 6q-245 -36 -245 -50q-39 -311 -56 -311l-11 -6q-33 0 -33 22l44 306l-22 22v17q37 0 50 133
q25 150 56 150q28 -5 28 -22l-45 -244l11 -6q233 0 267 61q40 267 72 267zM456 550l-17 -116h22q28 12 28 55v39q-5 22 -33 22z" />
    <glyph glyph-name="afii10032" unicode="&#x41e;" horiz-adv-x="466" 
d="M425 681q61 -12 97 -68q13 -40 24 -106q0 -5 -5 -5l5 -34q0 -89 -82 -227q-59 -84 -121 -144q-106 -87 -155 -87q0 -5 -4 -5q-9 5 -20 5q-14 -5 -14 -10q-63 10 -92 34q-58 70 -58 164q16 126 53 213q93 169 150 169h10q4 0 4 -5q97 96 165 96q0 5 43 10zM425 623
q-191 -135 -212 -169q-22 -68 -34 -68h-20v10q0 46 20 77v15q-44 -29 -58 -77q-11 -44 -39 -68v-10q0 -5 5 -5q-24 -72 -24 -115v-34q0 -81 67 -126q162 0 324 261q21 40 34 121q5 0 5 5v14q0 5 -5 5q9 26 9 53l-43 101q-16 10 -29 10z" />
    <glyph glyph-name="afii10033" unicode="&#x41f;" horiz-adv-x="434" 
d="M439 697h32q121 0 121 -67v-6q-102 -237 -176 -390q0 -13 -75 -187q-17 -66 -30 -66h-18l-11 40v11q26 108 107 301q14 9 80 170l53 117v18h-2q-85 0 -334 -32q0 -6 -9 -6q-29 8 -29 19v11q0 29 121 40q10 -5 20 -5q38 16 150 32zM210 601q27 -11 30 -24v-22
q0 -71 -177 -476q0 -37 -23 -45h-17q-16 0 -19 25q20 93 187 501l-5 11v11q0 16 24 19z" />
    <glyph glyph-name="afii10034" unicode="&#x420;" horiz-adv-x="389" 
d="M165 696h16l32 -21q75 15 101 15h6q220 -42 220 -197q0 -134 -252 -242q-77 -34 -137 -34q-6 0 -41 5q-62 -209 -81 -225q-14 0 -25 21v38q12 15 45 207q40 175 73 355q22 58 43 78zM117 279q3 -11 24 -22q112 0 304 150q32 44 32 63v45q-38 118 -157 118h-40
q-78 0 -78 -56q-23 0 -23 -57q-34 -91 -62 -241z" />
    <glyph glyph-name="afii10035" unicode="&#x421;" horiz-adv-x="377" 
d="M347 685q149 -48 149 -149q0 -87 -109 -124q-10 0 -10 10v14q59 28 59 90v25q0 27 -69 84h-30q-80 0 -169 -174q-14 0 -35 -39q-54 -86 -54 -165q-5 -61 -5 -64q17 -130 119 -149h30q39 0 174 44h10v-14q-46 -45 -164 -75h-70q-79 0 -144 114l-30 95l5 10l-5 30
q90 317 258 407z" />
    <glyph glyph-name="afii10036" unicode="&#x422;" horiz-adv-x="260" 
d="M619 694l5 -11v-5q0 -21 -219 -43l-11 6q-112 0 -277 -59l-33 10l-37 -10q-31 6 -48 32q0 36 278 69l21 -5q95 11 321 16zM325 582q20 0 32 -91q-32 -58 -102 -241l-112 -240q0 -8 -16 -16h-10q-5 0 -16 16q21 72 112 299q48 192 69 241q25 32 43 32z" />
    <glyph glyph-name="afii10037" unicode="&#x423;" horiz-adv-x="284" 
d="M85 681h21q11 0 11 -16q-43 -120 -43 -128q-25 -77 -26 -165q9 -29 26 -42h43q202 90 202 197q20 28 48 122q32 18 32 21q24 -10 27 -21v-5q0 -31 -75 -218q-65 -405 -128 -405q0 -14 -53 -21q-112 0 -159 106q0 12 -6 22q8 21 16 21h27q16 0 58 -85q21 -16 48 -16h27
q39 20 74 128q32 163 32 218q-157 -106 -202 -112q-69 0 -80 96v26q0 6 -5 6l5 10v16q32 206 80 245z" />
    <glyph glyph-name="afii10038" unicode="&#x424;" horiz-adv-x="836" 
d="M608 735q4 -34 15 -34l-8 -18v-67q0 -6 11 -6q94 39 155 39q159 -27 159 -153q0 -163 -300 -290q-62 -17 -93 -17q-68 7 -68 45q10 73 62 73h11v-29l-17 -23v-4q0 -6 12 -6q121 0 281 129q50 59 50 139q0 35 -70 75h-27q-127 0 -212 -99v-44q0 -1 34 -32q0 -14 -27 -25
q-25 7 -42 18h-14q-58 -61 -146 -411h-21q-22 0 -22 57q46 219 103 332q17 73 62 197q-28 53 -126 53q-111 0 -252 -163q0 -10 -45 -79q-12 -72 -12 -83q30 -87 127 -87h51q23 0 45 11l30 -5q0 5 15 5v-13q-83 -54 -171 -54q-158 39 -158 142v6q0 239 329 370q10 0 92 5
q57 -3 105 -40h1l45 86h36z" />
    <glyph glyph-name="afii10039" unicode="&#x425;" horiz-adv-x="398" 
d="M328 695h7q26 0 30 -73v-54q0 -27 -5 -66q5 -7 5 -11v0q157 165 199 170q68 -15 68 -39v-7l-9 -19l-31 6h-32q-29 -5 -191 -189l-4 -16q0 -63 52 -348h13q-12 -22 -12 -35h-19q-39 0 -92 319l-3 2h1q-71 -67 -209 -244l-59 -94q-13 -7 -37 -7v16q18 99 260 370l41 55v0
q6 45 -11 45l11 22v2q0 14 -5 23l5 32q0 14 -5 91q0 31 32 49z" />
    <glyph glyph-name="afii10040" unicode="&#x426;" horiz-adv-x="742" 
d="M325 672h12q0 -11 7 -25q-36 -85 -191 -362q-71 -153 -71 -181v-39q1 -8 8 -8h19q130 37 307 137q70 0 108 128q88 128 158 278q17 0 29 7q78 -20 78 -97q0 -163 -256 -343q-26 -71 -26 -162q7 0 7 -4q213 108 275 108v-27q-122 -85 -264 -158l-18 -24v-5
q0 -149 -64 -149h-7q-102 44 -102 123v6q0 77 82 77q29 8 29 86l-7 14q13 27 13 72v8q-21 0 -287 -117q-39 -14 -87 -20q-47 0 -77 69q0 58 255 545q0 47 70 63zM587 277q133 97 133 181v34h-8q-26 0 -125 -215zM433 -130l-4 -9q1 -7 5 -7l4 9q0 7 -5 7z" />
    <glyph glyph-name="afii10041" unicode="&#x427;" horiz-adv-x="452" 
d="M296 691h14q15 -3 28 -34q-47 -151 -126 -190q-30 -54 -72 -100q-66 -87 -66 -114v-39h-1q52 0 297 84q27 0 103 143q61 84 102 171h10l33 -6v-16q0 -77 -119 -229q-15 -19 -15 -32l16 -11q0 -17 -63 -64q-122 -212 -122 -252l-16 -8q-29 7 -29 34q0 43 78 204v3h1
l-247 -84l-29 6l-35 -6q-38 34 -38 62v6q0 63 169 301q94 149 127 171z" />
    <glyph glyph-name="afii10042" unicode="&#x428;" horiz-adv-x="795" 
d="M863 687q37 0 51 -39h-6l5 -9q0 -44 -135 -237q-82 -121 -82 -174q0 -124 115 -163q8 0 8 -7v-8q-11 0 -55 -12q-68 0 -131 131v39h-14q-119 -147 -195 -147h-17q-46 0 -107 65h-10q-142 -129 -200 -129h-6q-84 24 -84 102v29q0 21 6 52l-6 12q0 238 194 471q15 12 25 12
q12 -6 20 -6v-19q0 -33 -59 -77q0 -18 -77 -147q-30 -75 -46 -286q6 -92 27 -92h23q192 124 192 172h-6q40 179 129 308q88 153 149 153q33 0 43 -66q0 -58 -212 -359q-34 -51 -34 -69v-24q0 -51 56 -56q239 147 239 274l82 164q83 127 118 142zM403 345v-2q32 23 131 197
q7 0 17 49h-14q-122 -168 -134 -244z" />
    <glyph glyph-name="afii10043" unicode="&#x429;" horiz-adv-x="888" 
d="M273 697q32 -5 32 -21v-6l-153 -188q-87 -162 -87 -356q0 -79 38 -79q78 0 266 203q29 126 76 217q123 189 214 189h6q24 0 32 -74l-83 -124q-175 -214 -175 -250l-6 -35q6 -102 32 -102q53 28 122 87q74 63 169 204q66 88 93 158q21 42 57 42l19 -25v-20
q-39 -34 -122 -382h7q116 53 133 53v-16q-10 -20 -142 -113q-17 -17 -75 -151q-28 -25 -44 -25q-40 0 -73 67q0 49 112 137l58 198v14q-5 0 -100 -122q-150 -159 -232 -159q-78 45 -78 105q-6 0 -6 9v26q-14 0 -153 -116q-76 -48 -102 -48h-17q-69 0 -91 150q47 302 188 482
q56 71 85 71zM489 389q108 125 121 185q11 0 11 23q-41 0 -89 -117q-23 0 -43 -91z" />
    <glyph glyph-name="uni042A" unicode="&#x42a;" horiz-adv-x="621" 
d="M310 689q38 -13 38 -27v-13q-30 -27 -43 -83q-19 0 -78 -180q-21 -31 -21 -39q6 0 6 -1q50 28 183 28h15q113 0 205 -108q22 -51 22 -72v-10q0 -133 -243 -185q-11 6 -15 6q-48 -6 -56 -11q-13 0 -13 5l-57 -5h-32q-28 0 -48 32q10 27 23 27l22 -10q297 0 360 111v14
q0 98 -117 136q-54 16 -103 16q-157 -12 -157 -42q-48 0 -68 -216q-10 -30 -37 -48q-33 13 -33 39q31 178 121 417q41 112 68 152v2q-1 0 -11 5q-103 -12 -103 -25q0 -74 -54 -74q-58 7 -58 33q6 0 6 -4q-32 20 -32 40q0 35 85 69l12 -5q19 0 87 15h95q13 0 31 11z" />
    <glyph glyph-name="afii10045" unicode="&#x42b;" horiz-adv-x="508" 
d="M551 695q40 0 56 -79q0 -106 -145 -207q-50 -102 -120 -370l-21 -21h-20l-5 27q0 6 12 61h-6q-114 -96 -215 -107q-88 13 -88 89q3 44 51 135v16q-9 20 -20 20l67 72l79 204q22 42 46 112l17 11h6q7 0 24 -22q0 -26 -116 -309v-5l5 -2h4q65 0 246 114q14 18 73 174
q35 87 70 87zM500 500h-2q62 43 62 102v3l-12 15q-11 0 -39 -80q-9 -41 -9 -40zM282 309v-3q16 0 58 -56h-1q35 90 35 106v0h2q-89 -37 -94 -47zM227 244q-26 5 -42 5q-82 0 -107 -84q-23 -60 -23 -94q21 -20 37 -20q94 10 191 100l17 35v3q0 27 -55 64z" />
    <glyph glyph-name="afii10046" unicode="&#x42c;" horiz-adv-x="520" 
d="M336 686q0 -11 6 -11q0 -41 -32 -53l4 -7v-14q-62 -159 -113 -242v-11q13 0 22 6l36 -6h11v9l18 -9h27q202 -32 202 -134q0 -121 -399 -219l-40 6h-56q-18 0 -22 55q0 57 142 303q10 4 113 259q19 4 45 68h36zM190 260h-31q-83 -101 -110 -216v-5q131 0 303 78
q76 43 98 81v31q-68 64 -141 64h-73q-46 0 -46 -33z" />
    <glyph glyph-name="afii10047" unicode="&#x42d;" horiz-adv-x="402" 
d="M270 692q189 0 234 -158q5 -30 5 -60q-16 -91 -24 -101q3 -6 3 -20v-12q-17 0 -144 -140q-166 -162 -315 -208h-15l-14 21v11l110 55q83 33 275 239v8l1 -2q-44 0 -292 -57q-66 -54 -71 -54h-18v13q0 59 100 85q166 64 266 64h31q46 0 46 98v20q-39 142 -130 142h-42
q-119 0 -184 -81q-20 -36 -20 -75l12 -41l-17 -9h-13q-20 0 -33 71q24 96 61 116q54 45 188 75z" />
    <glyph glyph-name="afii10048" unicode="&#x42e;" horiz-adv-x="661" 
d="M342 696q-134 -273 -134 -284l-56 -117v-12h80q100 0 100 51q103 149 103 230q79 123 176 123q134 -39 134 -140q11 -3 20 -112q0 -154 -176 -308q-60 -41 -162 -73q-136 10 -136 130q0 9 5 54h3q-87 -10 -98 -10q-43 5 -67 5q-64 -137 -96 -233l-14 -7h-24v12
q0 61 123 361q142 284 166 315zM479 529v-4q46 -39 46 -50v-15q0 -113 -140 -199q-28 -39 -28 -92q0 -44 69 -55q113 14 229 150q45 101 45 130v30q0 157 -62 188l-29 15q-21 0 -130 -98zM403 336v-2h-4q71 30 71 80v3h2q-33 0 -69 -81z" />
    <glyph glyph-name="afii10049" unicode="&#x42f;" horiz-adv-x="414" 
d="M382 691h21q76 0 90 -71q27 -25 27 -88v-22l-7 -31h-26q-10 89 -21 89l-73 -263v-31q0 -11 -1 -11q1 -3 1 -4l59 5q10 -5 20 -5v-31q-110 -48 -110 -102q-15 -137 -44 -137q-26 6 -26 32q5 71 5 99h-3q-182 -100 -329 -261l-44 -39h-14v29q65 128 277 261q99 70 108 70v4
q-5 0 -94 -11h-27q-169 30 -169 138q16 115 64 182q129 198 316 198zM56 292q47 -65 89 -65h47q142 0 142 36q0 43 79 344q0 3 -1 3q-34 16 -62 16q-98 0 -216 -129q-78 -126 -78 -205z" />
    <glyph glyph-name="afii10065" unicode="&#x430;" horiz-adv-x="410" 
d="M322 439q82 0 82 -119q0 -34 -22 -40h-23q-6 95 -31 95h-35q-143 -65 -218 -218q-11 -37 -11 -52v-18q0 -30 31 -30h17q147 43 211 147q24 32 24 50h29q16 -3 16 -17v-25q-65 -121 -65 -172q5 -31 13 -31h6q6 0 88 30h18v-19q-53 -57 -125 -57q-58 19 -58 71v19v0
q-122 -54 -187 -54q-63 27 -82 69q0 130 169 304q103 67 153 67z" />
    <glyph glyph-name="afii10066" unicode="&#x431;" horiz-adv-x="385" 
d="M445 684q47 -7 58 -13q-6 -13 -6 -19q-306 -52 -336 -84v-13q116 -56 136 -78q109 -103 109 -154q0 -229 -296 -323h-20q-74 0 -90 103q0 151 181 303q13 0 13 7l38 -19q-6 -13 -6 -20q6 -12 6 -19q-113 -64 -167 -220v-38q0 -39 32 -39q251 75 251 213v39
q0 100 -187 187q-84 13 -129 64q0 71 413 123z" />
    <glyph glyph-name="afii10067" unicode="&#x432;" horiz-adv-x="331" 
d="M461 688q54 -21 54 -70q-42 -154 -311 -303q-80 -38 -87 -57v-8h-7q78 64 163 64h19q70 0 70 -98q0 -96 -231 -218l-35 -5q-67 0 -94 97q0 10 26 131v-12l-14 2q2 0 2 -9q-52 12 -52 35q17 27 106 65q16 76 232 307q93 77 159 79zM149 346l-1 2q74 0 255 156q50 54 50 86
v23q-1 6 -17 13q-127 -45 -282 -275q-5 -11 -5 -5zM60 113v-27q0 -27 32 -41q69 0 214 151q8 17 8 28q-11 35 -32 42h-23q-100 0 -199 -153z" />
    <glyph glyph-name="afii10068" unicode="&#x433;" horiz-adv-x="415" 
d="M348 459q26 0 52 -45q-11 -57 -152 -254q-47 -73 -47 -86v-16q0 -2 1 -2h22q16 0 225 83l10 -20q0 -36 -228 -124h-34q-57 0 -63 75q22 61 193 303q6 0 6 18v11q0 1 -2 1h-4q-124 -36 -170 -97q-33 -75 -46 -75h-5q-20 0 -20 20v40q58 107 205 157q26 11 57 11z" />
    <glyph glyph-name="afii10069" unicode="&#x434;" horiz-adv-x="389" 
d="M272 445q84 -51 84 -127q-10 -27 -23 -27h-24q0 67 -47 97h-7q-123 0 -199 -196v-18q0 -22 30 -25q52 0 200 112h22q18 0 24 -38q-7 -44 -19 -61v-17h-16q92 38 120 38q10 -5 22 -5v-14q-2 -17 -158 -93q-218 -502 -356 -502h-9q-47 0 -82 80q0 205 247 388
q170 75 170 89q0 23 24 73h3q-119 -97 -188 -97v-5q-66 0 -91 86q0 115 169 242q53 20 104 20zM-95 -316q3 -58 20 -58h17q73 42 165 199q105 211 105 209h-4q-214 -90 -283 -264q0 -10 -20 -86z" />
    <glyph glyph-name="afii10070" unicode="&#x435;" horiz-adv-x="393" 
d="M321 444q137 -19 137 -125q0 -102 -333 -198q-34 6 -54 6v-29q0 -47 176 -47q61 0 184 37h13q14 -2 14 -15q-90 -75 -278 -75q-149 0 -180 118v25q0 142 179 278q87 25 142 25zM78 214v-36q0 -10 16 -10l171 55q128 32 128 114q0 31 -91 54h-18q-84 0 -182 -122
q0 -20 -24 -55z" />
    <glyph glyph-name="afii10072" unicode="&#x436;" horiz-adv-x="409" 
d="M304 483q25 -3 33 -31l-27 -127h-2q72 70 146 102q31 -11 36 -35q-104 -43 -209 -156l-4 -16q9 -5 112 -158q7 0 17 -19v-18q-12 0 -23 -9q-46 0 -92 105q-32 38 -35 38h-5q-39 -73 -39 -181l-14 -13q-32 0 -32 49v18q0 22 30 136q-3 0 -3 -3q-97 -77 -149 -166l-17 -11
h-7q-16 0 -16 16q0 55 132 172q62 55 62 68q0 7 -125 173v9q5 9 5 19h16q43 0 147 -161q7 0 60 193q3 0 3 6z" />
    <glyph glyph-name="afii10073" unicode="&#x437;" horiz-adv-x="399" 
d="M281 446q52 -22 52 -60q0 -56 -130 -180v-7q33 -3 96 -74l128 49h17v-23q-13 -24 -129 -94q0 -43 -6 -48l6 -11q0 -207 -274 -400q-44 -25 -64 -25q-177 14 -177 109v6q0 148 433 399l6 10q0 57 -104 69l-8 16q0 37 125 145q24 56 24 57l-9 4q-144 -30 -144 -94
q0 -23 -22 -23q-27 0 -42 60q68 115 222 115zM-130 -336q13 -40 70 -40h25q122 0 286 288l6 30v80q0 8 -8 8h-6q-64 -18 -220 -141q-153 -101 -153 -225z" />
    <glyph glyph-name="afii10074" unicode="&#x438;" horiz-adv-x="454" 
d="M177 441h22q12 0 24 -22q0 -45 -84 -116q-76 -156 -76 -188v-27q0 -26 23 -37h14q39 0 215 129l54 119q29 104 94 104h11q11 0 40 -44q0 -45 -149 -214l-5 -25v-9q12 -27 37 -27q-1 0 -1 10l19 -10h4q30 0 75 27h31v-12q0 -46 -127 -73h-17q-56 0 -82 77q-7 0 -151 -93
q-46 -17 -59 -17q-65 0 -89 111q0 54 127 279q39 58 50 58z" />
    <glyph glyph-name="afii10075" unicode="&#x439;" horiz-adv-x="379" 
d="M395 669q23 -6 54 -6v-14q0 -25 -120 -59q-29 -42 -42 -42q-11 6 -24 6v54q0 36 33 44q11 -6 19 -6q18 17 80 23zM182 447l15 -23v-34q-59 0 -128 -222v-16q0 -74 37 -74q216 94 216 181q65 122 115 182h28q19 -3 19 -20v-19q-17 -50 -130 -242q-10 -20 -10 -43v-67
l23 -23v-9q0 -15 -30 -26q-43 0 -63 73l7 13v25h-4q-16 0 -95 -52q-65 -30 -80 -30h-19q-77 23 -77 129q-6 0 -6 15q95 276 146 276q0 6 36 6z" />
    <glyph glyph-name="afii10076" unicode="&#x43a;" horiz-adv-x="438" 
d="M213 467q29 -8 29 -41q-85 -149 -85 -161h-1q189 176 265 176h30q12 0 23 -21v-22q0 -35 -37 -45l-9 18v19h-7q-56 0 -214 -147v-5q3 -9 11 -9l-6 -68v-49q16 -54 103 -54h4q105 40 157 72l28 -20q0 -54 -208 -108q-145 0 -145 129q0 16 9 61h1q-51 -54 -80 -120
q-30 -63 -50 -80h-25l-6 32v6q0 21 172 386q12 30 41 51z" />
    <glyph glyph-name="afii10077" unicode="&#x43b;" horiz-adv-x="471" 
d="M280 444h6q15 -2 15 -15q0 -18 -82 -196q-53 -167 -139 -215q0 -11 -40 -20q-40 13 -40 27q0 17 52 27q71 56 169 321q43 68 59 71zM318 381q30 -13 33 -27v-76q0 -4 7 -4q-13 -39 -13 -85q0 -69 62 -124h49l47 7v-22q-14 -21 -65 -39q-98 0 -154 133q-6 11 -6 33
q19 159 19 183v6q0 15 21 15z" />
    <glyph glyph-name="afii10078" unicode="&#x43c;" horiz-adv-x="507" 
d="M344 465q26 -6 26 -26q-35 -131 -35 -173q11 -67 60 -67q61 15 61 61q23 130 103 130q19 -22 19 -62q-64 -93 -75 -189q5 -70 17 -110v-20h-27q-37 29 -37 78q6 12 6 16q-17 28 -17 61h-9q-27 0 -57 -5q-90 0 -102 141v12q0 33 33 89q-4 0 -4 5q-81 -29 -81 -152
q-73 -251 -179 -251v-7q-42 17 -46 33v20q12 0 12 7l32 -7q84 0 170 375l14 6l34 -5q59 40 82 40z" />
    <glyph glyph-name="afii10079" unicode="&#x43d;" horiz-adv-x="539" 
d="M422 434q42 0 73 -67q0 -63 -134 -171q-13 -23 -13 -49v-19q0 -50 43 -79h25q44 0 146 37h6q13 -2 13 -13q-42 -49 -141 -73h-49q-93 0 -104 147v36h-73q-31 0 -92 6q-38 -141 -79 -171q-6 0 -6 -6q-37 13 -37 25q0 35 98 275q0 45 49 110q24 -9 24 -19q0 -16 -37 -152
q26 -25 49 -25h104q10 0 92 184zM367 263h12q66 51 73 104l-18 12h-12q-55 -49 -55 -116z" />
    <glyph glyph-name="afii10080" unicode="&#x43e;" horiz-adv-x="334" 
d="M250 443q110 0 120 -146v-36q0 -107 -175 -234q-53 -26 -107 -32q-88 11 -88 88q0 79 67 168l-10 19q0 99 171 173h22zM109 285v-4v0q15 0 42 11q11 -5 21 -5v-24q-110 -76 -110 -174q0 -42 37 -42h4q215 73 215 255q0 100 -88 100q-62 -19 -110 -91q0 -13 -11 -26z" />
    <glyph glyph-name="afii10081" unicode="&#x43f;" horiz-adv-x="537" 
d="M169 466h30q0 -20 7 -20l-47 -163l11 -5q81 51 222 94q89 0 89 -63q0 -71 -74 -168q0 -5 -20 -61v-18h12l135 41q13 -7 21 -7v-15q0 -38 -183 -83q-49 14 -49 56q0 31 101 229v25h-59q-260 -74 -260 -194q-54 -87 -76 -96q-20 3 -29 35q0 38 101 210q42 174 68 203z" />
    <glyph glyph-name="afii10082" unicode="&#x440;" horiz-adv-x="505" 
d="M259 446q235 -76 235 -230v-19q-15 -70 -85 -122q-79 -49 -276 -72q-33 6 -47 6q-26 -9 -123 -202q-10 -1 -70 -129q0 -14 -68 -104h-17l-7 28q39 104 304 615q42 121 42 174l98 55h14zM202 396q0 -139 -95 -318v-17q1 -8 8 -8h42q44 0 171 47q93 45 93 133
q0 68 -111 134q-44 29 -76 29h-32z" />
    <glyph glyph-name="afii10083" unicode="&#x441;" horiz-adv-x="395" 
d="M239 444q81 0 120 -97q-16 -66 -45 -74h-12q-18 0 -18 17v6q0 6 12 46v5q0 40 -57 51h-5q-52 0 -126 -94q-45 -77 -45 -116v-29q0 -82 126 -113h21l229 41v-13q0 -38 -228 -80h-18q-187 42 -187 159q-6 0 -6 12q0 94 115 226q58 53 124 53z" />
    <glyph glyph-name="afii10084" unicode="&#x442;" horiz-adv-x="596" 
d="M184 447h6q12 0 12 -19q0 -20 -25 -98v-6q13 0 92 49q28 12 61 12q20 0 55 -42h13q67 56 140 73q49 0 55 -61q-110 -221 -110 -251v-12l19 -12h6l147 48q11 -6 18 -6v-12q-90 -79 -184 -79q-67 8 -67 61q0 35 116 263v6h-30q-111 -59 -178 -214q-32 -92 -73 -92h-12
q-9 0 -25 31q47 101 110 208v18q-6 12 -6 18h-6q-154 0 -257 -318l-30 -12q-29 8 -31 24l116 306q10 61 68 117z" />
    <glyph glyph-name="afii10085" unicode="&#x443;" horiz-adv-x="320" 
d="M156 458h28q0 -44 -65 -125q-54 -102 -54 -184q2 -20 7 -20h12q119 57 155 151q24 70 86 137h17q14 0 25 -34q-14 -57 -70 -128q-63 -101 -63 -147l2 -1q110 77 126 77q0 -5 5 -5q0 -26 -157 -149q-13 -24 -63 -226q-81 -215 -128 -215q0 -5 -11 -5h-15q-102 25 -102 94
v41q0 143 213 298q57 41 57 64q9 37 9 45v4h13q-70 -53 -120 -56q-41 0 -58 89q49 197 151 295zM-54 -307q23 -47 36 -54h21q39 0 130 328v6v0q-187 -127 -187 -280z" />
    <glyph glyph-name="afii10086" unicode="&#x444;" horiz-adv-x="704" 
d="M669 773q24 -6 24 -41q0 -45 -190 -336q-123 -169 -195 -340q-30 -98 -128 -334q0 -44 -52 -74q-25 6 -25 30q201 509 201 511h-4q-25 0 -60 -55q-110 -124 -179 -140h-6q-58 11 -58 58q18 68 35 68h19v-7q0 -15 -17 -40v-10q4 -32 15 -32q50 0 132 99v3h-42l-34 -6
q-59 0 -69 81q13 59 67 173q15 63 102 63q68 0 92 -119q-11 -82 -11 -93h9q56 0 193 317q26 26 84 150q51 74 97 74zM546 405q11 -6 16 -6q23 0 62 6q102 -22 102 -97v-6q0 -150 -246 -286l-57 -17q-39 0 -64 58q25 91 33 91l-5 9v8q29 0 52 22q14 -2 14 -13v-12
q-39 -67 -39 -104q12 -10 20 -10q238 121 238 254v6q0 48 -65 48h-11q-13 0 -20 -43v-11q0 -12 5 -22q-9 -24 -19 -24h-6q-40 34 -40 108q0 20 30 41zM85 185q0 -7 21 -20h49q93 0 93 104v50q0 43 -32 65h-10q-64 -14 -121 -155v-44zM180 277v-19q0 -9 -74 -69h-14v8
q45 80 88 80z" />
    <glyph glyph-name="afii10087" unicode="&#x445;" horiz-adv-x="595" 
d="M546 461q59 0 79 -91q0 -57 -59 -117h-17q13 94 13 98q-6 35 -28 35q-75 -14 -180 -187v-63q0 -62 117 -85q42 0 138 38q13 -6 22 -6v-16q0 -37 -160 -66q-111 0 -185 120h-4q-109 -80 -177 -95q-60 8 -60 54v13q17 34 53 34q27 0 46 -32q58 0 141 94q50 73 50 117
q-21 92 -41 92h-19q-161 -55 -161 -176h-24l-7 47q0 100 166 173h52q72 -42 72 -107h8q115 119 165 126z" />
    <glyph glyph-name="afii10088" unicode="&#x446;" horiz-adv-x="385" 
d="M189 449h15q13 0 26 -24v-8q0 -69 -65 -69q-110 -209 -110 -285q8 -19 11 -19q28 9 191 162h28q24 0 31 -75h4q70 63 102 63h20v-29q-125 -110 -125 -135q-50 -187 -150 -187q-48 0 -51 69q0 47 143 178v2l-4 25h-11q-86 -80 -156 -118h-27q-57 5 -57 51q46 232 151 372z
M242 -1q0 -12 -50 -65v-2q1 -6 6 -6q13 0 49 63v10h-5z" />
    <glyph glyph-name="afii10089" unicode="&#x447;" horiz-adv-x="503" 
d="M201 445h53q52 0 148 -47q18 0 52 23h24q8 0 27 -25q0 -36 -108 -69q-112 -99 -128 -215q21 -68 120 -68q28 12 113 24h6q15 0 15 -21q0 -33 -162 -50q-134 0 -157 115v6q0 76 136 237v14q-74 29 -109 29h-41q-19 -10 -27 -33q4 -44 13 -44q-8 -23 -17 -23q-49 24 -49 67
v6q0 61 91 74z" />
    <glyph glyph-name="afii10090" unicode="&#x448;" horiz-adv-x="646" 
d="M108 451h26q0 -11 10 -11q-93 -208 -93 -302q5 -96 24 -96h37q137 79 137 158q41 223 129 223l16 -23q0 -82 -94 -270v-42q0 -3 26 -18h7q164 69 164 153q82 195 95 195q14 10 51 22q41 0 60 -52q0 -76 -151 -233q-9 -15 -9 -21q24 -86 77 -86v-28l-37 -7q-97 35 -97 90
h-4q-113 -84 -147 -84h-36q-37 21 -56 65q-86 -79 -150 -93q-80 0 -93 113v29q58 318 108 318zM573 250q1 0 1 6q56 51 67 109v5q0 -2 -8 -2q-24 -13 -60 -118zM330 324l-8 -13q5 -1 5 1q-20 -11 -1 -11v19q0 4 4 4z" />
    <glyph glyph-name="afii10091" unicode="&#x449;" horiz-adv-x="710" 
d="M453 442q42 -18 42 -54q-10 -31 -175 -218q-18 -31 -18 -60l6 -30h6q195 61 308 235q18 79 48 79q37 -13 37 -49q-49 -87 -49 -151h12l91 25l6 -12q-163 -129 -163 -182q-54 -54 -85 -54q-36 21 -36 60q0 33 109 121l6 12v18l-6 12q-202 -170 -284 -175q-39 15 -66 85
q-119 -84 -176 -103q-56 0 -66 97q0 73 133 253l48 85h12q12 -2 12 -12v-18q0 -22 -133 -236q-18 -46 -18 -66v-30q2 -12 12 -12h6q75 0 200 132q116 248 181 248zM538 43v-12h6q24 12 24 37h-6q-10 0 -24 -25z" />
    <glyph glyph-name="afii10092" unicode="&#x44a;" horiz-adv-x="361" 
d="M283 450q10 0 32 -26q0 -9 -95 -105q-36 -79 -57 -141l10 -5h6q77 72 115 73h5q68 -51 68 -110v-5q0 -90 -141 -131q-74 0 -105 78q0 4 -5 32q0 122 89 267v15h-26q-18 0 -27 -5l-31 5h-31v-5l15 -52h-15q-36 26 -58 68q0 37 84 37q116 -6 125 -6q26 16 42 16zM179 94
v-21q23 -31 41 -31q95 17 95 68v26q0 47 -42 47h-6q-52 -26 -88 -89z" />
    <glyph glyph-name="afii10093" unicode="&#x44b;" horiz-adv-x="369" 
d="M392 461h10q17 -3 17 -17q0 -27 -55 -248q-6 -99 -15 -159h-16q-23 0 -27 66q0 22 5 40q-5 32 -5 64v22h14q-113 -43 -113 -51q4 -61 4 -64q0 -90 -129 -121q-66 0 -82 121q25 131 100 305l28 27h8q16 -2 16 -18q-94 -253 -94 -305v-29q0 -48 37 -48q63 26 63 68
q0 48 -69 79q0 12 -8 12q15 44 30 44h5q27 0 65 -29q169 42 169 156q26 85 42 85z" />
    <glyph glyph-name="afii10094" unicode="&#x44c;" horiz-adv-x="233" 
d="M94 440q15 0 40 -49q-3 -44 -67 -141l-11 -123h2q60 94 111 94q58 0 70 -86q-53 -137 -122 -137h-16q-82 0 -101 122q0 136 84 315q10 0 10 5zM67 69l30 -25h9q51 0 92 82v15q0 7 -19 19h-30q-73 -52 -82 -91z" />
    <glyph glyph-name="afii10095" unicode="&#x44d;" horiz-adv-x="268" 
d="M185 441q105 0 150 -117l-6 -27q6 -27 6 -32q-32 -44 -32 -62q-119 -206 -243 -206q-31 0 -60 39v16q0 6 19 19q31 -21 36 -21q114 0 204 187v0q-93 0 -151 -47h-11q-14 0 -14 13v11q24 65 128 65q18 6 65 6v44q0 64 -80 64q-41 0 -97 -104h-28q-10 0 -19 23
q0 96 133 129z" />
    <glyph glyph-name="afii10096" unicode="&#x44e;" horiz-adv-x="434" 
d="M383 450h26q79 -72 79 -162q4 0 4 -13t-4 -13l4 -41q-6 -145 -134 -180q-15 0 -24 -5q-123 0 -123 143q-5 0 -5 18q-77 -11 -77 -32q-46 19 -50 35v12q157 41 157 53q0 28 52 100q11 5 65 70q12 0 30 15zM118 440h26q0 -45 -64 -260q-20 -91 -20 -169l-25 -19h-7
q-20 0 -28 67q63 325 118 381zM267 172q0 -85 64 -85q111 26 111 134v24q-14 145 -36 145h-18q-43 -24 -43 -109q-78 -62 -78 -89v-20zM291 286l-4 2h3v3h29z" />
    <glyph glyph-name="afii10097" unicode="&#x44f;" horiz-adv-x="296" 
d="M195 447q45 -15 53 -105l-6 -26h-14q-9 7 -36 74h-5q-31 0 -45 -31q-22 0 -63 -92q-13 -28 -13 -45q0 -36 64 -42q108 42 108 86q46 99 79 99q17 -5 21 -22q0 -42 -56 -131v-2q13 0 35 -26q-11 -45 -27 -45h-6l-18 18h-2q-10 0 -29 -141q4 -8 4 -17q-12 -6 -18 -6
q-24 0 -31 56q5 24 5 39v21l-4 17h-7q-86 -63 -115 -121q-5 0 -49 -47h-10q-14 0 -14 14v10q54 85 121 156v1h-12q-78 0 -87 105q16 70 96 159q39 30 81 44z" />
    <glyph glyph-name="afii10071" unicode="&#x451;" horiz-adv-x="349" 
d="M155 595q25 0 68 -41v-9l-23 -6l-18 9q-13 -23 -41 -23h-5q-9 0 -18 17v5q0 32 37 48zM324 585h5q37 0 37 -47v-5q0 -9 -17 -18h-11q-32 18 -32 48q8 22 18 22zM269 447q112 -8 112 -70q11 0 15 -57q0 -40 -110 -97q-102 -55 -160 -55q-16 0 -58 10l-13 -27
q19 -92 145 -95q102 14 194 50l7 -13v-12q-118 -76 -251 -76q-146 37 -146 127v60q47 156 170 229q57 26 95 26zM230 366q-12 0 -20 5q-98 -48 -121 -117q-15 -18 -15 -30h2q22 0 22 10l52 -10q195 62 195 116q0 15 -37 36q-5 0 -52 -5v3q-12 -8 -26 -8z" />
    <glyph glyph-name="afii10099" unicode="&#x452;" horiz-adv-x="428" 
d="M409 412q-1 -13 -6 -34t-13 -47t-17 -55t-17 -57q-33 -114 -70.5 -219t-85.5 -186q-27 -45 -62.5 -75t-69.5 -46q-23 -10 -34 -10q-9 0 -9 6q0 8 11 10.5t19 7.5q15 9 27.5 19.5t25 25.5t25 36.5t26.5 53.5q17 36 32 79.5t31 95.5q26 85 43.5 142t28.5 93.5t16 56t5 29.5
q0 5 -0.5 8.5t-11.5 3.5q-6 0 -21.5 -11t-35.5 -30t-43.5 -44t-45.5 -52q-28 -34 -47.5 -73t-33.5 -68q-14 -30 -24.5 -47.5t-19 -26.5t-16 -12t-15.5 -3q-10 0 -11.5 8t-1.5 11q0 11 4 27t15 39q8 17 15 39t12 34q19 55 39 112q17 49 37 107t39 112q6 19 13 35
q-18 -1 -34 -1t-26 -1q-8 -1 -14.5 -1h-11.5q-11 0 -14 2.5t-3 8.5q1 12 6.5 20t13.5 13q10 5 20 6.5t28 1.5h52q15 41 28 75.5t21 58.5q4 11 10 18.5t18 15.5q11 8 21 11.5t18 5.5q10 2 18 3q9 0 9 -10q-8 -18 -15 -36q-6 -16 -13 -33.5t-13 -34.5q-7 -19 -13.5 -37.5
t-14.5 -37.5h35l91 4q18 1 18 -7q-2 -9 -21 -19q-9 -5 -46 -15.5t-87 -10.5h-8q-27 -72 -55 -144.5t-55 -144.5h3q55 61 100.5 102t79 66t56 35t33.5 10q8 0 10.5 -5.5t1.5 -13.5z" />
    <glyph glyph-name="afii10100" unicode="&#x453;" horiz-adv-x="334" 
d="M395 546q3 0 2 -7.5t-3.5 -19.5t-6.5 -27l-8 -30q-7 -25 -18 -34.5t-19 -9.5q-11 -3 -19 -1q-7 -2 -14.5 -3.5t-16.5 -3.5q-17 -3 -27 -4t-17.5 -2t-14.5 -1.5t-16 -1.5q-12 -38 -26 -94t-30 -118q-5 -17 -10 -36t-9 -35.5t-7 -29t-3 -16.5q0 -8 1.5 -14t1.5 -11
q0 -9 -4.5 -18.5t-26.5 -28.5q-4 -3 -17 -10.5t-33 -11.5q-22 0 -23 14q0 11 7 33q11 34 20 60.5t20 62.5q8 28 13 47.5t12 47.5q6 23 12 46.5t11.5 45t9 39t3.5 27.5q-6 0 -21.5 -0.5t-23.5 0.5q-13 1 -14 11q0 9 20 18q10 5 21.5 8t25.5 6q14 2 28 3t26 1h38.5t38.5 1
q20 1 41 2q2 8 4.5 17t4.5 17q3 10 6 19q6 13 23 27.5t38 14.5z" />
    <glyph glyph-name="afii10103" unicode="&#x456;" horiz-adv-x="183" 
d="M396 690q11 0 22 -20v-16q-114 -31 -144 -72q-13 0 -24 20v23q0 65 146 65zM193 434h13q22 0 22 -26q0 -53 -56 -91q-113 -160 -113 -251q7 -18 11 -18h6q19 0 118 49h17v-12q-80 -90 -162 -90q-31 0 -49 75q8 103 122 310q25 0 71 54z" />
    <glyph glyph-name="afii10104" unicode="&#x457;" horiz-adv-x="183" 
d="M291 657q11 0 22 -20v-16q-114 -31 -144 -72q-13 0 -24 20v23q0 65 146 65zM193 434h13q22 0 22 -26q0 -53 -56 -91q-113 -160 -113 -251q7 -18 11 -18h6q19 0 118 49h17v-12q-80 -90 -162 -90q-31 0 -49 75q8 103 122 310q25 0 71 54zM506 645q11 0 22 -20v-16
q-114 -31 -144 -72q-13 0 -24 20v23q0 65 146 65z" />
    <glyph glyph-name="afii10107" unicode="&#x45a;" horiz-adv-x="579" 
d="M548 222q0 -22 -13 -58t-42 -68q-18 -21 -40 -42t-47.5 -38t-54.5 -28t-61 -11q-29 0 -39.5 18.5t-10.5 40.5q0 29 9 65t32 92q-20 -8 -47 -13.5t-50 -9.5q-28 -4 -56 -7q-1 -12 -5.5 -32t-12 -41t-16.5 -40t-19 -29q-17 -17 -29.5 -22t-24.5 -5q-17 0 -20.5 6t-3.5 19
q0 4 3 15t7.5 24.5t9.5 28t9 27.5l17 53q-7 8 -8 10.5t-1 15.5q0 11 10.5 19t27.5 10l9 22q16 40 25.5 64.5t15.5 40.5t9.5 25.5t8.5 19.5q7 15 17 24.5t20.5 15t21 7.5t17.5 2t7 -11q-1 -8 -11.5 -32t-19.5 -50l-48 -140q22 -2 48 0q22 2 49 5.5t55 14.5q20 47 37.5 76.5
t36.5 57.5q10 15 22.5 30t25 26t24.5 18t22 7q5 0 9 -2.5t4 -7.5q0 -8 -12.5 -26t-26.5 -41q-9 -15 -15.5 -28t-12.5 -27t-13.5 -30.5t-17.5 -40.5q8 8 21 15.5t27 13.5t28.5 9.5t26.5 3.5q31 0 48.5 -14t17.5 -48zM469 168q0 25 -9.5 38.5t-24 19t-32 3t-34.5 -10.5
q-16 -41 -28.5 -76t-12.5 -78q0 -14 6.5 -24.5t23.5 -10.5q23 0 43 13t35 33.5t24 45t9 47.5z" />
    <glyph glyph-name="afii10050" unicode="&#x490;" horiz-adv-x="363" 
d="M471 748q3 0 2 -7t-3.5 -18.5t-6 -25.5t-7.5 -28q-6 -23 -16 -32t-18 -9q-11 -3 -18 -1q-7 -2 -14 -3.5t-16 -3.5q-16 -3 -33 -4.5t-32 -2.5q-18 -1 -35 -1l-23 -78l-82 -285q-8 -29 -17 -62t-17 -71q-3 -16 -6 -36t-6 -32q-2 -8 -5.5 -17t-7.5 -15q-5 -5 -13 -12
t-17 -13t-18 -10.5t-15 -4.5q-8 0 -15 3t-7 9q0 9 2.5 19.5t8.5 31.5q16 59 26 97.5t18 69.5t16.5 61.5t20.5 74.5q9 32 20.5 70.5t21.5 72.5q11 39 23 78q2 8 6 23.5t6 24.5h-12t-12 1q-13 0 -14 10q0 8 19 17q9 4 20 7t24 6q13 2 26.5 3t24.5 1h39.5t42.5 1l48 2
q2 7 4 15.5t4 16.5q3 9 6 17q6 13 21.5 26.5t35.5 13.5z" />
    <glyph glyph-name="uni0492" unicode="&#x492;" horiz-adv-x="292" 
d="M494 691q66 -14 66 -56q-22 -98 -115 -182l-20 10q79 146 79 162q0 4 -12 10h-9q-155 0 -241 -68v-18q11 -22 18 -22q-24 -127 -51 -173q-11 -34 -11 -41h6l31 -5q22 10 40 10q82 -6 82 -33v-17h-17q-175 0 -175 -50q-44 -103 -66 -219q-5 0 -5 -5q-29 0 -39 44
q0 19 48 184l-11 8h-4q-22 0 -52 -33q-15 0 -36 31q0 45 87 52q66 24 66 120q7 1 28 61q0 9 -28 69q0 80 180 133q104 28 161 28z" />
    <glyph glyph-name="uni0493" unicode="&#x493;" horiz-adv-x="280" 
d="M120 448h20q76 0 76 -96q-19 -62 -42 -113h15l137 46l14 -20v-7q0 -19 -134 -64v-9q17 -30 40 -91q-37 -100 -111 -100q-85 11 -85 95q0 47 85 192q19 41 19 66h-9q9 17 9 20q-6 29 -14 29h-5q-84 0 -98 -54v-50h-31l-6 40v6q0 58 79 98q0 10 41 12zM111 118v-43
q3 -24 9 -24h39q35 12 35 63q0 22 -56 59h-3q-10 0 -24 -55z" />
    <glyph glyph-name="uni0498" unicode="&#x498;" horiz-adv-x="353" 
d="M188 682q82 -27 82 -97v-10q-2 -66 -101 -174q89 0 146 -116q0 -4 6 -31q0 -60 -91 -164h-7q138 56 163 56q2 -10 11 -10q0 -35 -141 -91q-99 -49 -99 -94q-60 -90 -118 -90q-60 15 -60 82q0 35 104 70l18 16q-96 0 -96 102q0 15 21 15l9 -4q15 10 32 10q10 -6 19 -6v-10
q0 -19 -15 -37v-8q0 -6 5 -6h24q165 57 165 174v14q-39 67 -92 67h-16q-56 0 -115 -56h-12q-10 0 -20 19q0 25 88 102q107 105 111 150v51q0 11 -42 20h-4q-27 0 -72 -58v-27l26 -36v-17h-11q-27 0 -96 75v7q0 86 178 112zM50 -74v-9h4q31 20 47 52v-1h1q-31 -9 -52 -42z
" />
    <glyph glyph-name="uni0499" unicode="&#x499;" horiz-adv-x="316" 
d="M194 448q72 -17 72 -59q0 -61 -102 -154v-2q0 -2 65 -27q28 -40 28 -63q-13 -35 -13 -43v-4h3q74 31 92 31l11 -17q0 -19 -167 -104q-31 -17 -114 -132q-47 -37 -66 -37h-10q-26 13 -26 41q0 43 104 121q-73 16 -73 74v9q0 9 17 18q24 0 70 -44q81 0 118 76v16
q-13 36 -71 36q-16 0 -62 -23q-23 9 -23 19v15q116 100 116 113q24 5 53 64v8q0 14 -48 17q-44 -18 -44 -43q4 -25 4 -39l-28 -17q-26 30 -26 60q0 66 102 85q18 0 18 5zM40 -82v1h3v-1h-3z" />
    <glyph glyph-name="uni04A0" unicode="&#x4a0;" horiz-adv-x="560" 
d="M400 737h19q14 -2 14 -14v-7q-29 -71 -63 -216l-9 -19q3 -8 3 -11h8q277 182 444 216h23q43 0 43 -43q0 -40 -107 -113l-7 33v12q0 8 57 52v7h-8q-211 -46 -487 -266q-89 -371 -225 -371q-77 0 -105 88v8q33 16 69 108q44 54 216 210q34 91 39 154q-98 -33 -128 -33
q-68 0 -116 105v12q2 14 14 14h17q14 -2 53 -63q20 -11 44 -11h33q123 43 123 118zM344 333q48 0 94 -161q57 -84 126 -84v-8q0 -18 -61 -32q-150 77 -150 189q-4 1 -29 52v7q4 37 20 37zM97 124v-16q0 -3 8 -3l-8 -15v-22q0 -6 20 -14q61 0 122 197q6 22 6 42h-8
q-89 -71 -140 -169z" />
    <glyph glyph-name="uni04A1" unicode="&#x4a1;" horiz-adv-x="487" 
d="M546 526h19q15 -14 33 -14v-31q-38 0 -62 -59q-9 0 -40 -86h-28l-6 30v25h20q-197 -155 -197 -162l-8 -16q43 -104 140 -104h3q68 13 84 13l10 -21q-69 -47 -135 -47q-126 35 -126 87l-14 15h14q-67 -134 -161 -165h-8q-80 21 -80 68v13q141 123 207 170q15 22 15 134
q-8 5 -12 5q-85 -18 -116 -50q-21 0 -21 18v9q0 19 68 56v-2q-13 0 -55 10q-36 -5 -36 -9v-18q0 -12 20 -46h-23q-38 24 -38 55v20q27 43 68 43q43 0 124 -23h8q18 0 50 32q36 0 40 -33q-23 -58 -31 -156l2 -1h3q207 166 244 212q0 15 25 28zM76 50q2 0 15 -8q68 31 114 137
v-20l-8 4q-121 -69 -121 -113z" />
    <glyph glyph-name="uni04A2" unicode="&#x4a2;" horiz-adv-x="527" 
d="M199 686h12q11 0 21 -20v-25q-65 -205 -80 -291v0q240 80 240 147q31 86 53 124q26 24 50 24q85 0 85 -79q0 -37 -123 -125q-45 -50 -74 -298q-6 -72 -6 -71h2q19 0 129 68q0 7 66 7q0 -6 6 -6q0 -21 -147 -106q-51 -26 -109 -185q-40 -12 -56 -12q-76 41 -79 62
q0 29 116 118q12 236 47 346v7h-1q-160 -76 -230 -103q-51 -149 -51 -206v-11q10 -20 19 -20q-11 -37 -46 -37q-23 0 -39 86q51 221 145 505q26 101 50 101zM470 526v-8v0q50 28 50 51l-9 5h-15q-26 -21 -26 -48z" />
    <glyph glyph-name="uni04A3" unicode="&#x4a3;" horiz-adv-x="402" 
d="M173 447q9 0 33 -19q-64 -176 -65 -188q5 0 5 -3q79 46 174 92q31 91 68 91q27 -11 30 -24v-29q-84 -92 -128 -338q5 -10 5 -13h11q82 59 118 59h15q0 -38 -139 -134l-27 -96q-17 -12 -51 -23q-78 13 -78 63v6q20 35 85 75v67q0 76 57 222l-5 3q-118 -69 -153 -69v5
q-17 0 -62 -146q-13 -50 -46 -50q-10 0 -20 19v12q132 388 173 418zM221 -93v-3h8v3h-8z" />
    <glyph glyph-name="uni04AA" unicode="&#x4aa;" horiz-adv-x="442" 
d="M432 691h71q64 0 87 -132q-9 -76 -98 -166l-9 18v18q27 45 46 96v49q0 56 -82 61q-152 0 -284 -154q0 -12 -31 -51q-75 -147 -75 -211v-46q0 -62 118 -117q53 -10 70 -10q85 0 203 47l20 -13q0 -44 -145 -89q-30 -24 -64 -139q-54 -120 -106 -120h-21q-85 35 -85 101
q0 59 162 166v-3q-86 0 -176 88q-37 62 -37 110q0 109 102 286q54 119 211 185q82 26 123 26zM128 -148v-34q0 -24 16 -30h2q78 82 78 145q-57 -18 -96 -81z" />
    <glyph glyph-name="uni04AB" unicode="&#x4ab;" horiz-adv-x="357" 
d="M293 442q63 0 71 -102v-11q-10 -19 -10 -32h-23q-18 79 -33 79h-23q-68 0 -164 -109q-50 -89 -50 -127q24 -103 111 -103q54 0 199 70h7q13 -2 13 -14v-16q-38 -43 -156 -96q-20 -8 -77 -152q-27 -25 -52 -25q-41 21 -41 47q0 65 98 137v7h-9q-154 0 -154 149
q22 143 179 265q66 33 114 33z" />
    <glyph glyph-name="uni04AE" unicode="&#x4ae;" horiz-adv-x="235" 
d="M40 686q21 0 31 -26l-8 -82h6q-11 -23 -11 -54q0 -9 4 -17l-4 -28q38 -168 59 -168h7q183 217 229 347l21 15l27 -5v-27q-92 -184 -205 -333q-34 0 -52 -145q4 -15 9 -162q-5 0 -5 -5q-39 0 -67 112q14 102 14 118q0 9 -54 98l-41 154q0 10 4 10l-4 41v36q10 121 40 121z
" />
    <glyph glyph-name="uni04AF" unicode="&#x4af;" horiz-adv-x="326" 
d="M328 467q22 -7 32 -27v-5q-40 -112 -79 -260q-58 -115 -68 -233l5 -68v-226q0 -72 -37 -72h-6q-25 0 -32 219l6 23q-6 31 -6 45q6 77 6 96l-6 32h8q-75 77 -99 184q-22 108 -56 220q27 21 32 21q29 0 60 -83l-6 -28q47 -182 81 -212h6q16 0 31 64q56 108 56 187
q39 123 72 123z" />
    <glyph glyph-name="uni04BA" unicode="&#x4ba;" horiz-adv-x="548" 
d="M330 696l26 -18q-21 -98 -49 -133l-57 -141l4 -17q-10 -43 -47 -68q0 -18 -125 -238q-22 -49 -22 -50l13 -27l-27 -18h-20q-26 9 -26 45q55 124 135 265l120 283q35 33 35 109zM493 497q61 0 69 -73v-15q-1 -49 -149 -273q-21 -65 -21 -76v0q-8 0 3 -9q86 9 191 38
q11 -6 26 -6v-31q-69 -46 -206 -66q-56 0 -84 57q0 63 90 195q85 129 85 190q0 7 -27 9q-40 -9 -186 -69h-31v30q142 99 240 99z" />
    <glyph glyph-name="uni04BB" unicode="&#x4bb;" horiz-adv-x="426" 
d="M392 691h25v-16q0 -36 -128 -296q-30 -47 -30 -61q64 15 98 15q42 -52 42 -76q0 -56 -55 -173l-5 -28l4 -2h13q24 16 94 44q13 -7 34 -7v-25q-25 -37 -156 -74q-32 10 -46 38v29l42 163v41q0 2 -10 8h-44q-56 -16 -96 -104q-91 -149 -134 -181q-29 6 -37 34q10 74 82 183
q105 64 143 198q19 21 141 275zM63 64v27h7q0 7 24 41v22v-4q1 0 -31 -86z" />
    <glyph glyph-name="uni04D8" unicode="&#x4d8;" horiz-adv-x="527" 
d="M351 692h54q116 0 188 -115q21 -62 21 -84q0 -44 -17 -114q27 -3 27 -33q-55 -14 -75 -51q-41 -86 -190 -200q-70 -79 -134 -107q-72 0 -184 167q-42 33 -42 66v5q0 22 157 46q96 34 367 93q30 40 30 128q0 93 -116 138q-29 4 -66 4h-10q-89 0 -205 -66l-25 -30v13
l23 -35h-45q-33 0 -41 29q0 52 161 121q88 25 122 25zM95 202v-5q0 -18 42 -47q44 -83 64 -96h17q31 0 151 116q97 75 119 146h51q-327 -90 -444 -114z" />
    <glyph glyph-name="uni04D9" unicode="&#x4d9;" horiz-adv-x="381" 
d="M275 448q84 0 119 -108l9 -41q0 -211 -214 -305q-23 0 -23 -4q-108 0 -166 217q72 35 343 60q0 6 4 6q-12 120 -64 120h-17q-130 0 -130 -39l-6 -36h-17q-9 0 -24 20q0 83 163 110h23zM70 180v-11l65 -113q3 -20 28 -20q118 50 163 146q0 3 9 34v6h42q-232 -26 -307 -42z
" />
    <glyph glyph-name="uni04E8" unicode="&#x4e8;" horiz-adv-x="369" 
d="M299 688q82 0 126 -121q0 -34 5 -59q-10 -170 -50 -248q-54 -134 -148 -218q-50 -45 -86 -45h-25q-111 22 -111 111q0 15 -10 59q25 216 84 342q29 79 60 104q101 75 155 75zM120 312l6 -3q93 44 207 44h15q18 0 27 165v14q0 48 -43 86h-23q-81 -21 -81 -53
q-94 -90 -94 -193q-6 0 -14 -60zM85 317v-8h4v8h-4zM97 224h-27l-5 -22v-59q6 -87 61 -96h24q124 73 184 256h-1q-100 0 -236 -79z" />
    <glyph glyph-name="uni04E9" unicode="&#x4e9;" horiz-adv-x="413" 
d="M347 445q80 -30 80 -104q6 0 11 -60q0 -139 -236 -263q-51 -21 -74 -21h-31q-74 0 -97 112q21 124 130 241q0 13 64 32q73 63 153 63zM141 264v-4q0 -20 70 -23h5q29 0 74 5q19 -10 41 -10q49 0 49 38v52q-3 60 -59 60q-42 -31 -129 -57zM162 143h-20q-33 46 -56 46
q-11 0 -18 -49v-36q0 -54 44 -54h21q76 10 170 93q25 23 25 44v2q-11 0 -11 5q-155 -8 -155 -51z" />
    <glyph glyph-name="endash" unicode="&#x2013;" horiz-adv-x="719" 
d="M566 243q85 0 149 -22q0 -41 -413 -49q0 -4 -48 -10l-28 5q-12 0 -149 -5q-33 9 -33 21v15q0 22 109 25q48 -5 79 -5l16 6q14 -6 19 -6q290 25 299 25z" />
    <glyph glyph-name="quoteleft" unicode="&#x2018;" horiz-adv-x="418" 
d="M279 827h11q11 -2 11 -11v-5q-13 -17 -38 -77q20 -105 44 -105q16 0 44 17q44 -14 44 -39q0 -33 -83 -60q-76 0 -88 121l-5 38q0 17 33 66q0 10 27 55z" />
    <glyph glyph-name="quoteright" unicode="&#x2019;" horiz-adv-x="233" 
d="M202 819q16 0 36 -32q48 -23 48 -72q0 -65 -84 -100q-8 4 -12 4v12q52 51 52 84q-6 16 -12 16l-28 -4q-28 12 -28 40v16q0 29 28 36z" />
    <glyph glyph-name="quotedblleft" unicode="&#x201c;" horiz-adv-x="340" 
d="M86 764q9 -5 27 -5l-6 -22q6 -46 6 -53l-32 -74h-5q-14 0 -27 42q0 75 37 112zM214 759h10l11 -6l-5 -21q5 -46 5 -53q-27 -61 -27 -69h-10q-9 0 -22 32q0 85 38 117z" />
    <glyph glyph-name="quotedblright" unicode="&#x201d;" horiz-adv-x="483" 
d="M296 759q9 -5 27 -5l-6 -22q6 -46 6 -53l-32 -74h-5q-14 0 -27 42q0 75 37 112zM424 754h10l11 -6l-5 -21q5 -46 5 -53q-27 -61 -27 -69h-10q-9 0 -22 32q0 85 38 117z" />
    <glyph glyph-name="quotedblbase" unicode="&#x201e;" horiz-adv-x="233" 
d="M29 65q9 -5 27 -5l-6 -22q6 -46 6 -53l-32 -74h-5q-14 0 -27 42q0 75 37 112zM157 60h10l11 -6l-5 -21q5 -46 5 -53q-27 -61 -27 -69h-10q-9 0 -22 32q0 85 38 117z" />
    <glyph glyph-name="dagger" unicode="&#x2020;" horiz-adv-x="347" 
d="M416 546q0 -12 -21 -23t-53.5 -16t-56.5 -7q-2 0 -4 -0.5t-4 -0.5h-4l-107 -559q-2 -9 -11.5 -16.5t-21 -13.5t-22.5 -10t-15 -4q-5 0 -7 1.5t-2 9.5q0 9 5 40.5t13.5 78t20 104.5t24 120.5t25.5 125.5t25 120h-65t-43 2q-6 1 -12 2.5t-6 8.5q0 11 5 17t12 12q8 7 18.5 7
h27.5h74q15 71 25.5 118.5t12.5 54.5q3 1 11.5 2.5t18 3t18 2t11.5 0.5q6 0 7 -2.5t0 -6.5l-33 -172h23q30 0 56 2t35 2q20 0 20 -3z" />
    <glyph glyph-name="bullet" unicode="&#x2022;" horiz-adv-x="349" 
d="M303 235q0 -25 -9.5 -47t-26 -38.5t-38.5 -26.5t-47 -10q-26 0 -48 9.5t-38 26t-25.5 39t-9.5 47.5t9.5 47t26 38.5t39 26t47.5 9.5t46.5 -9.5t38 -26t26 -38.5t9.5 -47z" />
    <glyph glyph-name="ellipsis" unicode="&#x2026;" horiz-adv-x="564" 
d="M533 22q-2 -26 -19 -45q-17 -18 -47 -18q-20 0 -29 9q-4 7 -4 33q2 34 17 51q15 15 53 17q18 0 25 -11q4 -9 4 -36zM348 9q-2 -26 -19 -45q-17 -18 -47 -18q-20 0 -29 9q-4 7 -4 33q2 34 17 51q15 15 53 17q18 0 25 -11q4 -9 4 -36zM160 13q-2 -26 -19 -45
q-17 -18 -47 -18q-20 0 -29 9q-4 7 -4 33q2 34 17 51q15 15 53 17q18 0 25 -11q4 -9 4 -36z" />
    <glyph glyph-name="afii61352" unicode="&#x2116;" horiz-adv-x="544" 
d="M691 685q0 -7 8 -7q-145 -228 -145 -308q-56 -209 -118 -291l-41 -26q-69 27 -116 245q-31 196 -48 196h-5q-15 0 -129 -374q-10 -8 -40 -96q-15 -27 -40 -27l-17 28q147 412 147 473q56 83 84 83q36 0 69 -103q39 -270 101 -358q16 4 96 221q52 214 159 326z" />
    <glyph glyph-name="trademark" unicode="&#x2122;" horiz-adv-x="1115" 
d="M1087 477q-16 -11 -30.5 -21.5t-42.5 -27.5q-38 -23 -56 -30t-27 -7q-14 0 -16.5 7.5t-2.5 14.5q0 5 2.5 17t7 28t10.5 35l12 38q14 44 32 98l-3 1q-22 -29 -57.5 -74t-95.5 -113q-5 -5 -11.5 -12.5t-13 -14.5t-13.5 -11.5t-11 -4.5q-7 0 -8.5 4t-1.5 11t6 30t14 53.5
t17.5 64t16.5 60.5l9 36l-3 1q-3 -6 -17 -28t-31.5 -48.5t-35 -52.5t-28.5 -40q-22 -29 -39 -47.5t-30 -29.5t-23.5 -15t-20.5 -4q-8 0 -13 3.5t-7 9t-2.5 11t-0.5 9.5q0 20 11 36t24 23l4 -1q-1 -12 1.5 -25.5t14.5 -13.5q9 0 27.5 13.5t51.5 55.5q14 18 32 45t36 55.5
t33 55t24 44.5q4 12 6.5 19t4 11.5t3.5 8.5l5 10q5 8 13 13t15 5q10 0 14.5 -0.5t4.5 -8.5q0 -19 -8 -39t-16 -46q-9 -26 -18 -57t-16.5 -58.5t-13 -49t-7.5 -28.5q0 -2 -1.5 -6.5t-2 -9t-0.5 -8.5t2 -4q3 0 23.5 23t48.5 57.5t57.5 74.5t49.5 75q10 31 16 48t17 31
q8 11 17 14.5t17 3.5q6 0 7.5 -5.5t1.5 -13.5q0 -6 -4 -19t-10 -27.5t-13 -28t-12 -22.5q-3 -9 -9.5 -29t-14.5 -44l-16.5 -49.5t-15.5 -47.5t-11.5 -37t-4.5 -18q0 -8 -1 -15.5t16 -7.5t46.5 17.5t58.5 37.5l6 -9v0zM572 466q-66 -45 -109 -65t-63 -20q-8 0 -10.5 6.5
t-1.5 14.5q2 11 11.5 45.5t21.5 75.5q6 22 15.5 51.5t18.5 58t16 51t7 30.5q0 5 1 8t-4 3q-4 0 -13.5 -11t-20.5 -23q-6 -7 -18.5 -22t-27.5 -34.5t-32 -42.5t-32 -46q-9 -14 -19.5 -34.5t-19.5 -39.5t-15 -33t-7 -15q-17 -25 -44 -25q-3 0 -3 3q0 4 0.5 8.5t2.5 10.5
t5.5 15.5t8.5 24.5l66 208q14 40 14 54q0 6 -3 7q-14 0 -57 -51q-19 -22 -41.5 -57.5t-44 -72.5t-39 -69.5t-24.5 -49.5q-5 -7 -19 -18t-26 -11q-7 0 -7 3t-1 9q1 6 7 24l11 33q7 21 16.5 47.5l19 53t18 50.5t13.5 39q1 4 5 15t8 23t7 22t3 13q0 12 -1 14t-6 2
q-22 0 -92 -67l-3 11q52 50 91 75t54 25q14 0 14 -13t-3.5 -23.5t-8.5 -26.5q-6 -21 -18 -55t-23 -66q-14 -38 -29 -79l3 -2q43 78 80 129t66.5 81t51 42t32.5 12q6 0 8.5 -1.5t2.5 -12.5q0 -6 -4.5 -22t-11.5 -38t-15.5 -47t-16 -47.5t-14 -41t-8.5 -26.5h2q38 50 69.5 92
t57.5 72.5t47 47.5t38 17q8 0 9.5 -4.5t1.5 -9.5q0 -7 -7 -30.5t-16.5 -54t-19.5 -63.5t-17 -58q-3 -9 -8 -27t-10.5 -37t-9.5 -34.5t-4 -19.5q0 -5 -2 -13.5t9 -8.5q20 0 50 15t61 35l6 -9v0z" />
    <glyph glyph-name="radical" unicode="&#x221a;" horiz-adv-x="549" 
d="M512 913h36l-152 -951l-242 498l-97 -44l-16 31l146 74l198 -402z" />
    <glyph glyph-name="infinity" unicode="&#x221e;" horiz-adv-x="856" 
d="M485 428h12q93 -11 93 -93l17 -11q76 29 93 29h23q132 0 145 -151q-38 -157 -157 -157h-5q-106 0 -134 93l-17 87h-12q-44 -38 -232 -156q-21 -24 -75 -41q-76 0 -99 116q0 128 220 255q88 29 128 29zM433 370l-12 6q-157 -59 -203 -151q-23 -30 -23 -64v-29
q7 -46 35 -46q82 12 325 238v17q0 27 -70 47h-23q-19 -18 -29 -18zM613 272q0 -174 81 -174h29q82 0 93 121q0 47 -64 87h-17q-61 0 -122 -34z" />
    <glyph glyph-name="notequal" unicode="&#x2260;" horiz-adv-x="572" 
 />
    <glyph glyph-name="lessequal" unicode="&#x2264;" horiz-adv-x="466" 
d="M464 373q23 -9 23 -28q-31 -50 -77 -50q-18 5 -37 5q0 -7 -128 -46q0 -10 -113 -45l-5 -10v-4q0 -19 278 -59q77 -25 77 -32v-9q0 -7 -13 -14q-277 50 -369 73q-55 15 -55 32v13q31 34 205 96q101 56 214 78zM269 0h20q198 -8 198 -26v-15q0 -6 -36 -20h-20q-7 0 -56 11
h-106q-123 0 -190 -11q-43 11 -43 20v26q21 0 21 10q141 5 212 5z" />
    <glyph glyph-name="greaterequal" unicode="&#x2265;" horiz-adv-x="515" 
d="M134 315l10 -5h21q410 -63 410 -86q5 -9 5 -21q-52 -19 -243 -40q-30 -10 -279 -66q-30 12 -30 20v10q0 22 289 71q0 4 81 21v10q-52 15 -157 25h-107q-27 0 -40 20v5q0 10 40 36zM315 0h24q237 -8 237 -26v-15q0 -6 -43 -20h-24q-8 0 -68 11h-126q-147 0 -228 -11
q-51 11 -51 20v26q25 0 25 10q169 5 254 5z" />
    <glyph glyph-name="afii10055" horiz-adv-x="271" 
 />
    </font>
</defs>
</svg>
